G75*
%MOIN*%
%OFA0B0*%
%FSLAX25Y25*%
%IPPOS*%
%LPD*%
%AMOC8*
5,1,8,0,0,1.08239X$1,22.5*
%
%ADD10C,0.00000*%
%ADD11C,0.07600*%
%ADD12C,0.04800*%
%ADD13OC8,0.07000*%
%ADD14R,0.06000X0.06000*%
%ADD15OC8,0.06000*%
%ADD16C,0.06000*%
%ADD17OC8,0.04800*%
%ADD18C,0.05400*%
%ADD19C,0.03000*%
%ADD20C,0.02400*%
%ADD21C,0.02578*%
D10*
X0001000Y0001000D02*
X0001000Y0335646D01*
X0252969Y0335646D01*
X0252969Y0001000D01*
X0001000Y0001000D01*
X0006512Y0022654D02*
X0006514Y0022812D01*
X0006520Y0022970D01*
X0006530Y0023128D01*
X0006544Y0023286D01*
X0006562Y0023443D01*
X0006583Y0023600D01*
X0006609Y0023756D01*
X0006639Y0023912D01*
X0006672Y0024067D01*
X0006710Y0024220D01*
X0006751Y0024373D01*
X0006796Y0024525D01*
X0006845Y0024676D01*
X0006898Y0024825D01*
X0006954Y0024973D01*
X0007014Y0025119D01*
X0007078Y0025264D01*
X0007146Y0025407D01*
X0007217Y0025549D01*
X0007291Y0025689D01*
X0007369Y0025826D01*
X0007451Y0025962D01*
X0007535Y0026096D01*
X0007624Y0026227D01*
X0007715Y0026356D01*
X0007810Y0026483D01*
X0007907Y0026608D01*
X0008008Y0026730D01*
X0008112Y0026849D01*
X0008219Y0026966D01*
X0008329Y0027080D01*
X0008442Y0027191D01*
X0008557Y0027300D01*
X0008675Y0027405D01*
X0008796Y0027507D01*
X0008919Y0027607D01*
X0009045Y0027703D01*
X0009173Y0027796D01*
X0009303Y0027886D01*
X0009436Y0027972D01*
X0009571Y0028056D01*
X0009707Y0028135D01*
X0009846Y0028212D01*
X0009987Y0028284D01*
X0010129Y0028354D01*
X0010273Y0028419D01*
X0010419Y0028481D01*
X0010566Y0028539D01*
X0010715Y0028594D01*
X0010865Y0028645D01*
X0011016Y0028692D01*
X0011168Y0028735D01*
X0011321Y0028774D01*
X0011476Y0028810D01*
X0011631Y0028841D01*
X0011787Y0028869D01*
X0011943Y0028893D01*
X0012100Y0028913D01*
X0012258Y0028929D01*
X0012415Y0028941D01*
X0012574Y0028949D01*
X0012732Y0028953D01*
X0012890Y0028953D01*
X0013048Y0028949D01*
X0013207Y0028941D01*
X0013364Y0028929D01*
X0013522Y0028913D01*
X0013679Y0028893D01*
X0013835Y0028869D01*
X0013991Y0028841D01*
X0014146Y0028810D01*
X0014301Y0028774D01*
X0014454Y0028735D01*
X0014606Y0028692D01*
X0014757Y0028645D01*
X0014907Y0028594D01*
X0015056Y0028539D01*
X0015203Y0028481D01*
X0015349Y0028419D01*
X0015493Y0028354D01*
X0015635Y0028284D01*
X0015776Y0028212D01*
X0015915Y0028135D01*
X0016051Y0028056D01*
X0016186Y0027972D01*
X0016319Y0027886D01*
X0016449Y0027796D01*
X0016577Y0027703D01*
X0016703Y0027607D01*
X0016826Y0027507D01*
X0016947Y0027405D01*
X0017065Y0027300D01*
X0017180Y0027191D01*
X0017293Y0027080D01*
X0017403Y0026966D01*
X0017510Y0026849D01*
X0017614Y0026730D01*
X0017715Y0026608D01*
X0017812Y0026483D01*
X0017907Y0026356D01*
X0017998Y0026227D01*
X0018087Y0026096D01*
X0018171Y0025962D01*
X0018253Y0025826D01*
X0018331Y0025689D01*
X0018405Y0025549D01*
X0018476Y0025407D01*
X0018544Y0025264D01*
X0018608Y0025119D01*
X0018668Y0024973D01*
X0018724Y0024825D01*
X0018777Y0024676D01*
X0018826Y0024525D01*
X0018871Y0024373D01*
X0018912Y0024220D01*
X0018950Y0024067D01*
X0018983Y0023912D01*
X0019013Y0023756D01*
X0019039Y0023600D01*
X0019060Y0023443D01*
X0019078Y0023286D01*
X0019092Y0023128D01*
X0019102Y0022970D01*
X0019108Y0022812D01*
X0019110Y0022654D01*
X0019108Y0022496D01*
X0019102Y0022338D01*
X0019092Y0022180D01*
X0019078Y0022022D01*
X0019060Y0021865D01*
X0019039Y0021708D01*
X0019013Y0021552D01*
X0018983Y0021396D01*
X0018950Y0021241D01*
X0018912Y0021088D01*
X0018871Y0020935D01*
X0018826Y0020783D01*
X0018777Y0020632D01*
X0018724Y0020483D01*
X0018668Y0020335D01*
X0018608Y0020189D01*
X0018544Y0020044D01*
X0018476Y0019901D01*
X0018405Y0019759D01*
X0018331Y0019619D01*
X0018253Y0019482D01*
X0018171Y0019346D01*
X0018087Y0019212D01*
X0017998Y0019081D01*
X0017907Y0018952D01*
X0017812Y0018825D01*
X0017715Y0018700D01*
X0017614Y0018578D01*
X0017510Y0018459D01*
X0017403Y0018342D01*
X0017293Y0018228D01*
X0017180Y0018117D01*
X0017065Y0018008D01*
X0016947Y0017903D01*
X0016826Y0017801D01*
X0016703Y0017701D01*
X0016577Y0017605D01*
X0016449Y0017512D01*
X0016319Y0017422D01*
X0016186Y0017336D01*
X0016051Y0017252D01*
X0015915Y0017173D01*
X0015776Y0017096D01*
X0015635Y0017024D01*
X0015493Y0016954D01*
X0015349Y0016889D01*
X0015203Y0016827D01*
X0015056Y0016769D01*
X0014907Y0016714D01*
X0014757Y0016663D01*
X0014606Y0016616D01*
X0014454Y0016573D01*
X0014301Y0016534D01*
X0014146Y0016498D01*
X0013991Y0016467D01*
X0013835Y0016439D01*
X0013679Y0016415D01*
X0013522Y0016395D01*
X0013364Y0016379D01*
X0013207Y0016367D01*
X0013048Y0016359D01*
X0012890Y0016355D01*
X0012732Y0016355D01*
X0012574Y0016359D01*
X0012415Y0016367D01*
X0012258Y0016379D01*
X0012100Y0016395D01*
X0011943Y0016415D01*
X0011787Y0016439D01*
X0011631Y0016467D01*
X0011476Y0016498D01*
X0011321Y0016534D01*
X0011168Y0016573D01*
X0011016Y0016616D01*
X0010865Y0016663D01*
X0010715Y0016714D01*
X0010566Y0016769D01*
X0010419Y0016827D01*
X0010273Y0016889D01*
X0010129Y0016954D01*
X0009987Y0017024D01*
X0009846Y0017096D01*
X0009707Y0017173D01*
X0009571Y0017252D01*
X0009436Y0017336D01*
X0009303Y0017422D01*
X0009173Y0017512D01*
X0009045Y0017605D01*
X0008919Y0017701D01*
X0008796Y0017801D01*
X0008675Y0017903D01*
X0008557Y0018008D01*
X0008442Y0018117D01*
X0008329Y0018228D01*
X0008219Y0018342D01*
X0008112Y0018459D01*
X0008008Y0018578D01*
X0007907Y0018700D01*
X0007810Y0018825D01*
X0007715Y0018952D01*
X0007624Y0019081D01*
X0007535Y0019212D01*
X0007451Y0019346D01*
X0007369Y0019482D01*
X0007291Y0019619D01*
X0007217Y0019759D01*
X0007146Y0019901D01*
X0007078Y0020044D01*
X0007014Y0020189D01*
X0006954Y0020335D01*
X0006898Y0020483D01*
X0006845Y0020632D01*
X0006796Y0020783D01*
X0006751Y0020935D01*
X0006710Y0021088D01*
X0006672Y0021241D01*
X0006639Y0021396D01*
X0006609Y0021552D01*
X0006583Y0021708D01*
X0006562Y0021865D01*
X0006544Y0022022D01*
X0006530Y0022180D01*
X0006520Y0022338D01*
X0006514Y0022496D01*
X0006512Y0022654D01*
X0104937Y0022654D02*
X0104939Y0022812D01*
X0104945Y0022970D01*
X0104955Y0023128D01*
X0104969Y0023286D01*
X0104987Y0023443D01*
X0105008Y0023600D01*
X0105034Y0023756D01*
X0105064Y0023912D01*
X0105097Y0024067D01*
X0105135Y0024220D01*
X0105176Y0024373D01*
X0105221Y0024525D01*
X0105270Y0024676D01*
X0105323Y0024825D01*
X0105379Y0024973D01*
X0105439Y0025119D01*
X0105503Y0025264D01*
X0105571Y0025407D01*
X0105642Y0025549D01*
X0105716Y0025689D01*
X0105794Y0025826D01*
X0105876Y0025962D01*
X0105960Y0026096D01*
X0106049Y0026227D01*
X0106140Y0026356D01*
X0106235Y0026483D01*
X0106332Y0026608D01*
X0106433Y0026730D01*
X0106537Y0026849D01*
X0106644Y0026966D01*
X0106754Y0027080D01*
X0106867Y0027191D01*
X0106982Y0027300D01*
X0107100Y0027405D01*
X0107221Y0027507D01*
X0107344Y0027607D01*
X0107470Y0027703D01*
X0107598Y0027796D01*
X0107728Y0027886D01*
X0107861Y0027972D01*
X0107996Y0028056D01*
X0108132Y0028135D01*
X0108271Y0028212D01*
X0108412Y0028284D01*
X0108554Y0028354D01*
X0108698Y0028419D01*
X0108844Y0028481D01*
X0108991Y0028539D01*
X0109140Y0028594D01*
X0109290Y0028645D01*
X0109441Y0028692D01*
X0109593Y0028735D01*
X0109746Y0028774D01*
X0109901Y0028810D01*
X0110056Y0028841D01*
X0110212Y0028869D01*
X0110368Y0028893D01*
X0110525Y0028913D01*
X0110683Y0028929D01*
X0110840Y0028941D01*
X0110999Y0028949D01*
X0111157Y0028953D01*
X0111315Y0028953D01*
X0111473Y0028949D01*
X0111632Y0028941D01*
X0111789Y0028929D01*
X0111947Y0028913D01*
X0112104Y0028893D01*
X0112260Y0028869D01*
X0112416Y0028841D01*
X0112571Y0028810D01*
X0112726Y0028774D01*
X0112879Y0028735D01*
X0113031Y0028692D01*
X0113182Y0028645D01*
X0113332Y0028594D01*
X0113481Y0028539D01*
X0113628Y0028481D01*
X0113774Y0028419D01*
X0113918Y0028354D01*
X0114060Y0028284D01*
X0114201Y0028212D01*
X0114340Y0028135D01*
X0114476Y0028056D01*
X0114611Y0027972D01*
X0114744Y0027886D01*
X0114874Y0027796D01*
X0115002Y0027703D01*
X0115128Y0027607D01*
X0115251Y0027507D01*
X0115372Y0027405D01*
X0115490Y0027300D01*
X0115605Y0027191D01*
X0115718Y0027080D01*
X0115828Y0026966D01*
X0115935Y0026849D01*
X0116039Y0026730D01*
X0116140Y0026608D01*
X0116237Y0026483D01*
X0116332Y0026356D01*
X0116423Y0026227D01*
X0116512Y0026096D01*
X0116596Y0025962D01*
X0116678Y0025826D01*
X0116756Y0025689D01*
X0116830Y0025549D01*
X0116901Y0025407D01*
X0116969Y0025264D01*
X0117033Y0025119D01*
X0117093Y0024973D01*
X0117149Y0024825D01*
X0117202Y0024676D01*
X0117251Y0024525D01*
X0117296Y0024373D01*
X0117337Y0024220D01*
X0117375Y0024067D01*
X0117408Y0023912D01*
X0117438Y0023756D01*
X0117464Y0023600D01*
X0117485Y0023443D01*
X0117503Y0023286D01*
X0117517Y0023128D01*
X0117527Y0022970D01*
X0117533Y0022812D01*
X0117535Y0022654D01*
X0117533Y0022496D01*
X0117527Y0022338D01*
X0117517Y0022180D01*
X0117503Y0022022D01*
X0117485Y0021865D01*
X0117464Y0021708D01*
X0117438Y0021552D01*
X0117408Y0021396D01*
X0117375Y0021241D01*
X0117337Y0021088D01*
X0117296Y0020935D01*
X0117251Y0020783D01*
X0117202Y0020632D01*
X0117149Y0020483D01*
X0117093Y0020335D01*
X0117033Y0020189D01*
X0116969Y0020044D01*
X0116901Y0019901D01*
X0116830Y0019759D01*
X0116756Y0019619D01*
X0116678Y0019482D01*
X0116596Y0019346D01*
X0116512Y0019212D01*
X0116423Y0019081D01*
X0116332Y0018952D01*
X0116237Y0018825D01*
X0116140Y0018700D01*
X0116039Y0018578D01*
X0115935Y0018459D01*
X0115828Y0018342D01*
X0115718Y0018228D01*
X0115605Y0018117D01*
X0115490Y0018008D01*
X0115372Y0017903D01*
X0115251Y0017801D01*
X0115128Y0017701D01*
X0115002Y0017605D01*
X0114874Y0017512D01*
X0114744Y0017422D01*
X0114611Y0017336D01*
X0114476Y0017252D01*
X0114340Y0017173D01*
X0114201Y0017096D01*
X0114060Y0017024D01*
X0113918Y0016954D01*
X0113774Y0016889D01*
X0113628Y0016827D01*
X0113481Y0016769D01*
X0113332Y0016714D01*
X0113182Y0016663D01*
X0113031Y0016616D01*
X0112879Y0016573D01*
X0112726Y0016534D01*
X0112571Y0016498D01*
X0112416Y0016467D01*
X0112260Y0016439D01*
X0112104Y0016415D01*
X0111947Y0016395D01*
X0111789Y0016379D01*
X0111632Y0016367D01*
X0111473Y0016359D01*
X0111315Y0016355D01*
X0111157Y0016355D01*
X0110999Y0016359D01*
X0110840Y0016367D01*
X0110683Y0016379D01*
X0110525Y0016395D01*
X0110368Y0016415D01*
X0110212Y0016439D01*
X0110056Y0016467D01*
X0109901Y0016498D01*
X0109746Y0016534D01*
X0109593Y0016573D01*
X0109441Y0016616D01*
X0109290Y0016663D01*
X0109140Y0016714D01*
X0108991Y0016769D01*
X0108844Y0016827D01*
X0108698Y0016889D01*
X0108554Y0016954D01*
X0108412Y0017024D01*
X0108271Y0017096D01*
X0108132Y0017173D01*
X0107996Y0017252D01*
X0107861Y0017336D01*
X0107728Y0017422D01*
X0107598Y0017512D01*
X0107470Y0017605D01*
X0107344Y0017701D01*
X0107221Y0017801D01*
X0107100Y0017903D01*
X0106982Y0018008D01*
X0106867Y0018117D01*
X0106754Y0018228D01*
X0106644Y0018342D01*
X0106537Y0018459D01*
X0106433Y0018578D01*
X0106332Y0018700D01*
X0106235Y0018825D01*
X0106140Y0018952D01*
X0106049Y0019081D01*
X0105960Y0019212D01*
X0105876Y0019346D01*
X0105794Y0019482D01*
X0105716Y0019619D01*
X0105642Y0019759D01*
X0105571Y0019901D01*
X0105503Y0020044D01*
X0105439Y0020189D01*
X0105379Y0020335D01*
X0105323Y0020483D01*
X0105270Y0020632D01*
X0105221Y0020783D01*
X0105176Y0020935D01*
X0105135Y0021088D01*
X0105097Y0021241D01*
X0105064Y0021396D01*
X0105034Y0021552D01*
X0105008Y0021708D01*
X0104987Y0021865D01*
X0104969Y0022022D01*
X0104955Y0022180D01*
X0104945Y0022338D01*
X0104939Y0022496D01*
X0104937Y0022654D01*
X0132496Y0130921D02*
X0132498Y0131079D01*
X0132504Y0131237D01*
X0132514Y0131395D01*
X0132528Y0131553D01*
X0132546Y0131710D01*
X0132567Y0131867D01*
X0132593Y0132023D01*
X0132623Y0132179D01*
X0132656Y0132334D01*
X0132694Y0132487D01*
X0132735Y0132640D01*
X0132780Y0132792D01*
X0132829Y0132943D01*
X0132882Y0133092D01*
X0132938Y0133240D01*
X0132998Y0133386D01*
X0133062Y0133531D01*
X0133130Y0133674D01*
X0133201Y0133816D01*
X0133275Y0133956D01*
X0133353Y0134093D01*
X0133435Y0134229D01*
X0133519Y0134363D01*
X0133608Y0134494D01*
X0133699Y0134623D01*
X0133794Y0134750D01*
X0133891Y0134875D01*
X0133992Y0134997D01*
X0134096Y0135116D01*
X0134203Y0135233D01*
X0134313Y0135347D01*
X0134426Y0135458D01*
X0134541Y0135567D01*
X0134659Y0135672D01*
X0134780Y0135774D01*
X0134903Y0135874D01*
X0135029Y0135970D01*
X0135157Y0136063D01*
X0135287Y0136153D01*
X0135420Y0136239D01*
X0135555Y0136323D01*
X0135691Y0136402D01*
X0135830Y0136479D01*
X0135971Y0136551D01*
X0136113Y0136621D01*
X0136257Y0136686D01*
X0136403Y0136748D01*
X0136550Y0136806D01*
X0136699Y0136861D01*
X0136849Y0136912D01*
X0137000Y0136959D01*
X0137152Y0137002D01*
X0137305Y0137041D01*
X0137460Y0137077D01*
X0137615Y0137108D01*
X0137771Y0137136D01*
X0137927Y0137160D01*
X0138084Y0137180D01*
X0138242Y0137196D01*
X0138399Y0137208D01*
X0138558Y0137216D01*
X0138716Y0137220D01*
X0138874Y0137220D01*
X0139032Y0137216D01*
X0139191Y0137208D01*
X0139348Y0137196D01*
X0139506Y0137180D01*
X0139663Y0137160D01*
X0139819Y0137136D01*
X0139975Y0137108D01*
X0140130Y0137077D01*
X0140285Y0137041D01*
X0140438Y0137002D01*
X0140590Y0136959D01*
X0140741Y0136912D01*
X0140891Y0136861D01*
X0141040Y0136806D01*
X0141187Y0136748D01*
X0141333Y0136686D01*
X0141477Y0136621D01*
X0141619Y0136551D01*
X0141760Y0136479D01*
X0141899Y0136402D01*
X0142035Y0136323D01*
X0142170Y0136239D01*
X0142303Y0136153D01*
X0142433Y0136063D01*
X0142561Y0135970D01*
X0142687Y0135874D01*
X0142810Y0135774D01*
X0142931Y0135672D01*
X0143049Y0135567D01*
X0143164Y0135458D01*
X0143277Y0135347D01*
X0143387Y0135233D01*
X0143494Y0135116D01*
X0143598Y0134997D01*
X0143699Y0134875D01*
X0143796Y0134750D01*
X0143891Y0134623D01*
X0143982Y0134494D01*
X0144071Y0134363D01*
X0144155Y0134229D01*
X0144237Y0134093D01*
X0144315Y0133956D01*
X0144389Y0133816D01*
X0144460Y0133674D01*
X0144528Y0133531D01*
X0144592Y0133386D01*
X0144652Y0133240D01*
X0144708Y0133092D01*
X0144761Y0132943D01*
X0144810Y0132792D01*
X0144855Y0132640D01*
X0144896Y0132487D01*
X0144934Y0132334D01*
X0144967Y0132179D01*
X0144997Y0132023D01*
X0145023Y0131867D01*
X0145044Y0131710D01*
X0145062Y0131553D01*
X0145076Y0131395D01*
X0145086Y0131237D01*
X0145092Y0131079D01*
X0145094Y0130921D01*
X0145092Y0130763D01*
X0145086Y0130605D01*
X0145076Y0130447D01*
X0145062Y0130289D01*
X0145044Y0130132D01*
X0145023Y0129975D01*
X0144997Y0129819D01*
X0144967Y0129663D01*
X0144934Y0129508D01*
X0144896Y0129355D01*
X0144855Y0129202D01*
X0144810Y0129050D01*
X0144761Y0128899D01*
X0144708Y0128750D01*
X0144652Y0128602D01*
X0144592Y0128456D01*
X0144528Y0128311D01*
X0144460Y0128168D01*
X0144389Y0128026D01*
X0144315Y0127886D01*
X0144237Y0127749D01*
X0144155Y0127613D01*
X0144071Y0127479D01*
X0143982Y0127348D01*
X0143891Y0127219D01*
X0143796Y0127092D01*
X0143699Y0126967D01*
X0143598Y0126845D01*
X0143494Y0126726D01*
X0143387Y0126609D01*
X0143277Y0126495D01*
X0143164Y0126384D01*
X0143049Y0126275D01*
X0142931Y0126170D01*
X0142810Y0126068D01*
X0142687Y0125968D01*
X0142561Y0125872D01*
X0142433Y0125779D01*
X0142303Y0125689D01*
X0142170Y0125603D01*
X0142035Y0125519D01*
X0141899Y0125440D01*
X0141760Y0125363D01*
X0141619Y0125291D01*
X0141477Y0125221D01*
X0141333Y0125156D01*
X0141187Y0125094D01*
X0141040Y0125036D01*
X0140891Y0124981D01*
X0140741Y0124930D01*
X0140590Y0124883D01*
X0140438Y0124840D01*
X0140285Y0124801D01*
X0140130Y0124765D01*
X0139975Y0124734D01*
X0139819Y0124706D01*
X0139663Y0124682D01*
X0139506Y0124662D01*
X0139348Y0124646D01*
X0139191Y0124634D01*
X0139032Y0124626D01*
X0138874Y0124622D01*
X0138716Y0124622D01*
X0138558Y0124626D01*
X0138399Y0124634D01*
X0138242Y0124646D01*
X0138084Y0124662D01*
X0137927Y0124682D01*
X0137771Y0124706D01*
X0137615Y0124734D01*
X0137460Y0124765D01*
X0137305Y0124801D01*
X0137152Y0124840D01*
X0137000Y0124883D01*
X0136849Y0124930D01*
X0136699Y0124981D01*
X0136550Y0125036D01*
X0136403Y0125094D01*
X0136257Y0125156D01*
X0136113Y0125221D01*
X0135971Y0125291D01*
X0135830Y0125363D01*
X0135691Y0125440D01*
X0135555Y0125519D01*
X0135420Y0125603D01*
X0135287Y0125689D01*
X0135157Y0125779D01*
X0135029Y0125872D01*
X0134903Y0125968D01*
X0134780Y0126068D01*
X0134659Y0126170D01*
X0134541Y0126275D01*
X0134426Y0126384D01*
X0134313Y0126495D01*
X0134203Y0126609D01*
X0134096Y0126726D01*
X0133992Y0126845D01*
X0133891Y0126967D01*
X0133794Y0127092D01*
X0133699Y0127219D01*
X0133608Y0127348D01*
X0133519Y0127479D01*
X0133435Y0127613D01*
X0133353Y0127749D01*
X0133275Y0127886D01*
X0133201Y0128026D01*
X0133130Y0128168D01*
X0133062Y0128311D01*
X0132998Y0128456D01*
X0132938Y0128602D01*
X0132882Y0128750D01*
X0132829Y0128899D01*
X0132780Y0129050D01*
X0132735Y0129202D01*
X0132694Y0129355D01*
X0132656Y0129508D01*
X0132623Y0129663D01*
X0132593Y0129819D01*
X0132567Y0129975D01*
X0132546Y0130132D01*
X0132528Y0130289D01*
X0132514Y0130447D01*
X0132504Y0130605D01*
X0132498Y0130763D01*
X0132496Y0130921D01*
X0104937Y0258874D02*
X0104939Y0259032D01*
X0104945Y0259190D01*
X0104955Y0259348D01*
X0104969Y0259506D01*
X0104987Y0259663D01*
X0105008Y0259820D01*
X0105034Y0259976D01*
X0105064Y0260132D01*
X0105097Y0260287D01*
X0105135Y0260440D01*
X0105176Y0260593D01*
X0105221Y0260745D01*
X0105270Y0260896D01*
X0105323Y0261045D01*
X0105379Y0261193D01*
X0105439Y0261339D01*
X0105503Y0261484D01*
X0105571Y0261627D01*
X0105642Y0261769D01*
X0105716Y0261909D01*
X0105794Y0262046D01*
X0105876Y0262182D01*
X0105960Y0262316D01*
X0106049Y0262447D01*
X0106140Y0262576D01*
X0106235Y0262703D01*
X0106332Y0262828D01*
X0106433Y0262950D01*
X0106537Y0263069D01*
X0106644Y0263186D01*
X0106754Y0263300D01*
X0106867Y0263411D01*
X0106982Y0263520D01*
X0107100Y0263625D01*
X0107221Y0263727D01*
X0107344Y0263827D01*
X0107470Y0263923D01*
X0107598Y0264016D01*
X0107728Y0264106D01*
X0107861Y0264192D01*
X0107996Y0264276D01*
X0108132Y0264355D01*
X0108271Y0264432D01*
X0108412Y0264504D01*
X0108554Y0264574D01*
X0108698Y0264639D01*
X0108844Y0264701D01*
X0108991Y0264759D01*
X0109140Y0264814D01*
X0109290Y0264865D01*
X0109441Y0264912D01*
X0109593Y0264955D01*
X0109746Y0264994D01*
X0109901Y0265030D01*
X0110056Y0265061D01*
X0110212Y0265089D01*
X0110368Y0265113D01*
X0110525Y0265133D01*
X0110683Y0265149D01*
X0110840Y0265161D01*
X0110999Y0265169D01*
X0111157Y0265173D01*
X0111315Y0265173D01*
X0111473Y0265169D01*
X0111632Y0265161D01*
X0111789Y0265149D01*
X0111947Y0265133D01*
X0112104Y0265113D01*
X0112260Y0265089D01*
X0112416Y0265061D01*
X0112571Y0265030D01*
X0112726Y0264994D01*
X0112879Y0264955D01*
X0113031Y0264912D01*
X0113182Y0264865D01*
X0113332Y0264814D01*
X0113481Y0264759D01*
X0113628Y0264701D01*
X0113774Y0264639D01*
X0113918Y0264574D01*
X0114060Y0264504D01*
X0114201Y0264432D01*
X0114340Y0264355D01*
X0114476Y0264276D01*
X0114611Y0264192D01*
X0114744Y0264106D01*
X0114874Y0264016D01*
X0115002Y0263923D01*
X0115128Y0263827D01*
X0115251Y0263727D01*
X0115372Y0263625D01*
X0115490Y0263520D01*
X0115605Y0263411D01*
X0115718Y0263300D01*
X0115828Y0263186D01*
X0115935Y0263069D01*
X0116039Y0262950D01*
X0116140Y0262828D01*
X0116237Y0262703D01*
X0116332Y0262576D01*
X0116423Y0262447D01*
X0116512Y0262316D01*
X0116596Y0262182D01*
X0116678Y0262046D01*
X0116756Y0261909D01*
X0116830Y0261769D01*
X0116901Y0261627D01*
X0116969Y0261484D01*
X0117033Y0261339D01*
X0117093Y0261193D01*
X0117149Y0261045D01*
X0117202Y0260896D01*
X0117251Y0260745D01*
X0117296Y0260593D01*
X0117337Y0260440D01*
X0117375Y0260287D01*
X0117408Y0260132D01*
X0117438Y0259976D01*
X0117464Y0259820D01*
X0117485Y0259663D01*
X0117503Y0259506D01*
X0117517Y0259348D01*
X0117527Y0259190D01*
X0117533Y0259032D01*
X0117535Y0258874D01*
X0117533Y0258716D01*
X0117527Y0258558D01*
X0117517Y0258400D01*
X0117503Y0258242D01*
X0117485Y0258085D01*
X0117464Y0257928D01*
X0117438Y0257772D01*
X0117408Y0257616D01*
X0117375Y0257461D01*
X0117337Y0257308D01*
X0117296Y0257155D01*
X0117251Y0257003D01*
X0117202Y0256852D01*
X0117149Y0256703D01*
X0117093Y0256555D01*
X0117033Y0256409D01*
X0116969Y0256264D01*
X0116901Y0256121D01*
X0116830Y0255979D01*
X0116756Y0255839D01*
X0116678Y0255702D01*
X0116596Y0255566D01*
X0116512Y0255432D01*
X0116423Y0255301D01*
X0116332Y0255172D01*
X0116237Y0255045D01*
X0116140Y0254920D01*
X0116039Y0254798D01*
X0115935Y0254679D01*
X0115828Y0254562D01*
X0115718Y0254448D01*
X0115605Y0254337D01*
X0115490Y0254228D01*
X0115372Y0254123D01*
X0115251Y0254021D01*
X0115128Y0253921D01*
X0115002Y0253825D01*
X0114874Y0253732D01*
X0114744Y0253642D01*
X0114611Y0253556D01*
X0114476Y0253472D01*
X0114340Y0253393D01*
X0114201Y0253316D01*
X0114060Y0253244D01*
X0113918Y0253174D01*
X0113774Y0253109D01*
X0113628Y0253047D01*
X0113481Y0252989D01*
X0113332Y0252934D01*
X0113182Y0252883D01*
X0113031Y0252836D01*
X0112879Y0252793D01*
X0112726Y0252754D01*
X0112571Y0252718D01*
X0112416Y0252687D01*
X0112260Y0252659D01*
X0112104Y0252635D01*
X0111947Y0252615D01*
X0111789Y0252599D01*
X0111632Y0252587D01*
X0111473Y0252579D01*
X0111315Y0252575D01*
X0111157Y0252575D01*
X0110999Y0252579D01*
X0110840Y0252587D01*
X0110683Y0252599D01*
X0110525Y0252615D01*
X0110368Y0252635D01*
X0110212Y0252659D01*
X0110056Y0252687D01*
X0109901Y0252718D01*
X0109746Y0252754D01*
X0109593Y0252793D01*
X0109441Y0252836D01*
X0109290Y0252883D01*
X0109140Y0252934D01*
X0108991Y0252989D01*
X0108844Y0253047D01*
X0108698Y0253109D01*
X0108554Y0253174D01*
X0108412Y0253244D01*
X0108271Y0253316D01*
X0108132Y0253393D01*
X0107996Y0253472D01*
X0107861Y0253556D01*
X0107728Y0253642D01*
X0107598Y0253732D01*
X0107470Y0253825D01*
X0107344Y0253921D01*
X0107221Y0254021D01*
X0107100Y0254123D01*
X0106982Y0254228D01*
X0106867Y0254337D01*
X0106754Y0254448D01*
X0106644Y0254562D01*
X0106537Y0254679D01*
X0106433Y0254798D01*
X0106332Y0254920D01*
X0106235Y0255045D01*
X0106140Y0255172D01*
X0106049Y0255301D01*
X0105960Y0255432D01*
X0105876Y0255566D01*
X0105794Y0255702D01*
X0105716Y0255839D01*
X0105642Y0255979D01*
X0105571Y0256121D01*
X0105503Y0256264D01*
X0105439Y0256409D01*
X0105379Y0256555D01*
X0105323Y0256703D01*
X0105270Y0256852D01*
X0105221Y0257003D01*
X0105176Y0257155D01*
X0105135Y0257308D01*
X0105097Y0257461D01*
X0105064Y0257616D01*
X0105034Y0257772D01*
X0105008Y0257928D01*
X0104987Y0258085D01*
X0104969Y0258242D01*
X0104955Y0258400D01*
X0104945Y0258558D01*
X0104939Y0258716D01*
X0104937Y0258874D01*
X0132496Y0323835D02*
X0132498Y0323993D01*
X0132504Y0324151D01*
X0132514Y0324309D01*
X0132528Y0324467D01*
X0132546Y0324624D01*
X0132567Y0324781D01*
X0132593Y0324937D01*
X0132623Y0325093D01*
X0132656Y0325248D01*
X0132694Y0325401D01*
X0132735Y0325554D01*
X0132780Y0325706D01*
X0132829Y0325857D01*
X0132882Y0326006D01*
X0132938Y0326154D01*
X0132998Y0326300D01*
X0133062Y0326445D01*
X0133130Y0326588D01*
X0133201Y0326730D01*
X0133275Y0326870D01*
X0133353Y0327007D01*
X0133435Y0327143D01*
X0133519Y0327277D01*
X0133608Y0327408D01*
X0133699Y0327537D01*
X0133794Y0327664D01*
X0133891Y0327789D01*
X0133992Y0327911D01*
X0134096Y0328030D01*
X0134203Y0328147D01*
X0134313Y0328261D01*
X0134426Y0328372D01*
X0134541Y0328481D01*
X0134659Y0328586D01*
X0134780Y0328688D01*
X0134903Y0328788D01*
X0135029Y0328884D01*
X0135157Y0328977D01*
X0135287Y0329067D01*
X0135420Y0329153D01*
X0135555Y0329237D01*
X0135691Y0329316D01*
X0135830Y0329393D01*
X0135971Y0329465D01*
X0136113Y0329535D01*
X0136257Y0329600D01*
X0136403Y0329662D01*
X0136550Y0329720D01*
X0136699Y0329775D01*
X0136849Y0329826D01*
X0137000Y0329873D01*
X0137152Y0329916D01*
X0137305Y0329955D01*
X0137460Y0329991D01*
X0137615Y0330022D01*
X0137771Y0330050D01*
X0137927Y0330074D01*
X0138084Y0330094D01*
X0138242Y0330110D01*
X0138399Y0330122D01*
X0138558Y0330130D01*
X0138716Y0330134D01*
X0138874Y0330134D01*
X0139032Y0330130D01*
X0139191Y0330122D01*
X0139348Y0330110D01*
X0139506Y0330094D01*
X0139663Y0330074D01*
X0139819Y0330050D01*
X0139975Y0330022D01*
X0140130Y0329991D01*
X0140285Y0329955D01*
X0140438Y0329916D01*
X0140590Y0329873D01*
X0140741Y0329826D01*
X0140891Y0329775D01*
X0141040Y0329720D01*
X0141187Y0329662D01*
X0141333Y0329600D01*
X0141477Y0329535D01*
X0141619Y0329465D01*
X0141760Y0329393D01*
X0141899Y0329316D01*
X0142035Y0329237D01*
X0142170Y0329153D01*
X0142303Y0329067D01*
X0142433Y0328977D01*
X0142561Y0328884D01*
X0142687Y0328788D01*
X0142810Y0328688D01*
X0142931Y0328586D01*
X0143049Y0328481D01*
X0143164Y0328372D01*
X0143277Y0328261D01*
X0143387Y0328147D01*
X0143494Y0328030D01*
X0143598Y0327911D01*
X0143699Y0327789D01*
X0143796Y0327664D01*
X0143891Y0327537D01*
X0143982Y0327408D01*
X0144071Y0327277D01*
X0144155Y0327143D01*
X0144237Y0327007D01*
X0144315Y0326870D01*
X0144389Y0326730D01*
X0144460Y0326588D01*
X0144528Y0326445D01*
X0144592Y0326300D01*
X0144652Y0326154D01*
X0144708Y0326006D01*
X0144761Y0325857D01*
X0144810Y0325706D01*
X0144855Y0325554D01*
X0144896Y0325401D01*
X0144934Y0325248D01*
X0144967Y0325093D01*
X0144997Y0324937D01*
X0145023Y0324781D01*
X0145044Y0324624D01*
X0145062Y0324467D01*
X0145076Y0324309D01*
X0145086Y0324151D01*
X0145092Y0323993D01*
X0145094Y0323835D01*
X0145092Y0323677D01*
X0145086Y0323519D01*
X0145076Y0323361D01*
X0145062Y0323203D01*
X0145044Y0323046D01*
X0145023Y0322889D01*
X0144997Y0322733D01*
X0144967Y0322577D01*
X0144934Y0322422D01*
X0144896Y0322269D01*
X0144855Y0322116D01*
X0144810Y0321964D01*
X0144761Y0321813D01*
X0144708Y0321664D01*
X0144652Y0321516D01*
X0144592Y0321370D01*
X0144528Y0321225D01*
X0144460Y0321082D01*
X0144389Y0320940D01*
X0144315Y0320800D01*
X0144237Y0320663D01*
X0144155Y0320527D01*
X0144071Y0320393D01*
X0143982Y0320262D01*
X0143891Y0320133D01*
X0143796Y0320006D01*
X0143699Y0319881D01*
X0143598Y0319759D01*
X0143494Y0319640D01*
X0143387Y0319523D01*
X0143277Y0319409D01*
X0143164Y0319298D01*
X0143049Y0319189D01*
X0142931Y0319084D01*
X0142810Y0318982D01*
X0142687Y0318882D01*
X0142561Y0318786D01*
X0142433Y0318693D01*
X0142303Y0318603D01*
X0142170Y0318517D01*
X0142035Y0318433D01*
X0141899Y0318354D01*
X0141760Y0318277D01*
X0141619Y0318205D01*
X0141477Y0318135D01*
X0141333Y0318070D01*
X0141187Y0318008D01*
X0141040Y0317950D01*
X0140891Y0317895D01*
X0140741Y0317844D01*
X0140590Y0317797D01*
X0140438Y0317754D01*
X0140285Y0317715D01*
X0140130Y0317679D01*
X0139975Y0317648D01*
X0139819Y0317620D01*
X0139663Y0317596D01*
X0139506Y0317576D01*
X0139348Y0317560D01*
X0139191Y0317548D01*
X0139032Y0317540D01*
X0138874Y0317536D01*
X0138716Y0317536D01*
X0138558Y0317540D01*
X0138399Y0317548D01*
X0138242Y0317560D01*
X0138084Y0317576D01*
X0137927Y0317596D01*
X0137771Y0317620D01*
X0137615Y0317648D01*
X0137460Y0317679D01*
X0137305Y0317715D01*
X0137152Y0317754D01*
X0137000Y0317797D01*
X0136849Y0317844D01*
X0136699Y0317895D01*
X0136550Y0317950D01*
X0136403Y0318008D01*
X0136257Y0318070D01*
X0136113Y0318135D01*
X0135971Y0318205D01*
X0135830Y0318277D01*
X0135691Y0318354D01*
X0135555Y0318433D01*
X0135420Y0318517D01*
X0135287Y0318603D01*
X0135157Y0318693D01*
X0135029Y0318786D01*
X0134903Y0318882D01*
X0134780Y0318982D01*
X0134659Y0319084D01*
X0134541Y0319189D01*
X0134426Y0319298D01*
X0134313Y0319409D01*
X0134203Y0319523D01*
X0134096Y0319640D01*
X0133992Y0319759D01*
X0133891Y0319881D01*
X0133794Y0320006D01*
X0133699Y0320133D01*
X0133608Y0320262D01*
X0133519Y0320393D01*
X0133435Y0320527D01*
X0133353Y0320663D01*
X0133275Y0320800D01*
X0133201Y0320940D01*
X0133130Y0321082D01*
X0133062Y0321225D01*
X0132998Y0321370D01*
X0132938Y0321516D01*
X0132882Y0321664D01*
X0132829Y0321813D01*
X0132780Y0321964D01*
X0132735Y0322116D01*
X0132694Y0322269D01*
X0132656Y0322422D01*
X0132623Y0322577D01*
X0132593Y0322733D01*
X0132567Y0322889D01*
X0132546Y0323046D01*
X0132528Y0323203D01*
X0132514Y0323361D01*
X0132504Y0323519D01*
X0132498Y0323677D01*
X0132496Y0323835D01*
X0230921Y0323835D02*
X0230923Y0323993D01*
X0230929Y0324151D01*
X0230939Y0324309D01*
X0230953Y0324467D01*
X0230971Y0324624D01*
X0230992Y0324781D01*
X0231018Y0324937D01*
X0231048Y0325093D01*
X0231081Y0325248D01*
X0231119Y0325401D01*
X0231160Y0325554D01*
X0231205Y0325706D01*
X0231254Y0325857D01*
X0231307Y0326006D01*
X0231363Y0326154D01*
X0231423Y0326300D01*
X0231487Y0326445D01*
X0231555Y0326588D01*
X0231626Y0326730D01*
X0231700Y0326870D01*
X0231778Y0327007D01*
X0231860Y0327143D01*
X0231944Y0327277D01*
X0232033Y0327408D01*
X0232124Y0327537D01*
X0232219Y0327664D01*
X0232316Y0327789D01*
X0232417Y0327911D01*
X0232521Y0328030D01*
X0232628Y0328147D01*
X0232738Y0328261D01*
X0232851Y0328372D01*
X0232966Y0328481D01*
X0233084Y0328586D01*
X0233205Y0328688D01*
X0233328Y0328788D01*
X0233454Y0328884D01*
X0233582Y0328977D01*
X0233712Y0329067D01*
X0233845Y0329153D01*
X0233980Y0329237D01*
X0234116Y0329316D01*
X0234255Y0329393D01*
X0234396Y0329465D01*
X0234538Y0329535D01*
X0234682Y0329600D01*
X0234828Y0329662D01*
X0234975Y0329720D01*
X0235124Y0329775D01*
X0235274Y0329826D01*
X0235425Y0329873D01*
X0235577Y0329916D01*
X0235730Y0329955D01*
X0235885Y0329991D01*
X0236040Y0330022D01*
X0236196Y0330050D01*
X0236352Y0330074D01*
X0236509Y0330094D01*
X0236667Y0330110D01*
X0236824Y0330122D01*
X0236983Y0330130D01*
X0237141Y0330134D01*
X0237299Y0330134D01*
X0237457Y0330130D01*
X0237616Y0330122D01*
X0237773Y0330110D01*
X0237931Y0330094D01*
X0238088Y0330074D01*
X0238244Y0330050D01*
X0238400Y0330022D01*
X0238555Y0329991D01*
X0238710Y0329955D01*
X0238863Y0329916D01*
X0239015Y0329873D01*
X0239166Y0329826D01*
X0239316Y0329775D01*
X0239465Y0329720D01*
X0239612Y0329662D01*
X0239758Y0329600D01*
X0239902Y0329535D01*
X0240044Y0329465D01*
X0240185Y0329393D01*
X0240324Y0329316D01*
X0240460Y0329237D01*
X0240595Y0329153D01*
X0240728Y0329067D01*
X0240858Y0328977D01*
X0240986Y0328884D01*
X0241112Y0328788D01*
X0241235Y0328688D01*
X0241356Y0328586D01*
X0241474Y0328481D01*
X0241589Y0328372D01*
X0241702Y0328261D01*
X0241812Y0328147D01*
X0241919Y0328030D01*
X0242023Y0327911D01*
X0242124Y0327789D01*
X0242221Y0327664D01*
X0242316Y0327537D01*
X0242407Y0327408D01*
X0242496Y0327277D01*
X0242580Y0327143D01*
X0242662Y0327007D01*
X0242740Y0326870D01*
X0242814Y0326730D01*
X0242885Y0326588D01*
X0242953Y0326445D01*
X0243017Y0326300D01*
X0243077Y0326154D01*
X0243133Y0326006D01*
X0243186Y0325857D01*
X0243235Y0325706D01*
X0243280Y0325554D01*
X0243321Y0325401D01*
X0243359Y0325248D01*
X0243392Y0325093D01*
X0243422Y0324937D01*
X0243448Y0324781D01*
X0243469Y0324624D01*
X0243487Y0324467D01*
X0243501Y0324309D01*
X0243511Y0324151D01*
X0243517Y0323993D01*
X0243519Y0323835D01*
X0243517Y0323677D01*
X0243511Y0323519D01*
X0243501Y0323361D01*
X0243487Y0323203D01*
X0243469Y0323046D01*
X0243448Y0322889D01*
X0243422Y0322733D01*
X0243392Y0322577D01*
X0243359Y0322422D01*
X0243321Y0322269D01*
X0243280Y0322116D01*
X0243235Y0321964D01*
X0243186Y0321813D01*
X0243133Y0321664D01*
X0243077Y0321516D01*
X0243017Y0321370D01*
X0242953Y0321225D01*
X0242885Y0321082D01*
X0242814Y0320940D01*
X0242740Y0320800D01*
X0242662Y0320663D01*
X0242580Y0320527D01*
X0242496Y0320393D01*
X0242407Y0320262D01*
X0242316Y0320133D01*
X0242221Y0320006D01*
X0242124Y0319881D01*
X0242023Y0319759D01*
X0241919Y0319640D01*
X0241812Y0319523D01*
X0241702Y0319409D01*
X0241589Y0319298D01*
X0241474Y0319189D01*
X0241356Y0319084D01*
X0241235Y0318982D01*
X0241112Y0318882D01*
X0240986Y0318786D01*
X0240858Y0318693D01*
X0240728Y0318603D01*
X0240595Y0318517D01*
X0240460Y0318433D01*
X0240324Y0318354D01*
X0240185Y0318277D01*
X0240044Y0318205D01*
X0239902Y0318135D01*
X0239758Y0318070D01*
X0239612Y0318008D01*
X0239465Y0317950D01*
X0239316Y0317895D01*
X0239166Y0317844D01*
X0239015Y0317797D01*
X0238863Y0317754D01*
X0238710Y0317715D01*
X0238555Y0317679D01*
X0238400Y0317648D01*
X0238244Y0317620D01*
X0238088Y0317596D01*
X0237931Y0317576D01*
X0237773Y0317560D01*
X0237616Y0317548D01*
X0237457Y0317540D01*
X0237299Y0317536D01*
X0237141Y0317536D01*
X0236983Y0317540D01*
X0236824Y0317548D01*
X0236667Y0317560D01*
X0236509Y0317576D01*
X0236352Y0317596D01*
X0236196Y0317620D01*
X0236040Y0317648D01*
X0235885Y0317679D01*
X0235730Y0317715D01*
X0235577Y0317754D01*
X0235425Y0317797D01*
X0235274Y0317844D01*
X0235124Y0317895D01*
X0234975Y0317950D01*
X0234828Y0318008D01*
X0234682Y0318070D01*
X0234538Y0318135D01*
X0234396Y0318205D01*
X0234255Y0318277D01*
X0234116Y0318354D01*
X0233980Y0318433D01*
X0233845Y0318517D01*
X0233712Y0318603D01*
X0233582Y0318693D01*
X0233454Y0318786D01*
X0233328Y0318882D01*
X0233205Y0318982D01*
X0233084Y0319084D01*
X0232966Y0319189D01*
X0232851Y0319298D01*
X0232738Y0319409D01*
X0232628Y0319523D01*
X0232521Y0319640D01*
X0232417Y0319759D01*
X0232316Y0319881D01*
X0232219Y0320006D01*
X0232124Y0320133D01*
X0232033Y0320262D01*
X0231944Y0320393D01*
X0231860Y0320527D01*
X0231778Y0320663D01*
X0231700Y0320800D01*
X0231626Y0320940D01*
X0231555Y0321082D01*
X0231487Y0321225D01*
X0231423Y0321370D01*
X0231363Y0321516D01*
X0231307Y0321664D01*
X0231254Y0321813D01*
X0231205Y0321964D01*
X0231160Y0322116D01*
X0231119Y0322269D01*
X0231081Y0322422D01*
X0231048Y0322577D01*
X0231018Y0322733D01*
X0230992Y0322889D01*
X0230971Y0323046D01*
X0230953Y0323203D01*
X0230939Y0323361D01*
X0230929Y0323519D01*
X0230923Y0323677D01*
X0230921Y0323835D01*
X0230921Y0130921D02*
X0230923Y0131079D01*
X0230929Y0131237D01*
X0230939Y0131395D01*
X0230953Y0131553D01*
X0230971Y0131710D01*
X0230992Y0131867D01*
X0231018Y0132023D01*
X0231048Y0132179D01*
X0231081Y0132334D01*
X0231119Y0132487D01*
X0231160Y0132640D01*
X0231205Y0132792D01*
X0231254Y0132943D01*
X0231307Y0133092D01*
X0231363Y0133240D01*
X0231423Y0133386D01*
X0231487Y0133531D01*
X0231555Y0133674D01*
X0231626Y0133816D01*
X0231700Y0133956D01*
X0231778Y0134093D01*
X0231860Y0134229D01*
X0231944Y0134363D01*
X0232033Y0134494D01*
X0232124Y0134623D01*
X0232219Y0134750D01*
X0232316Y0134875D01*
X0232417Y0134997D01*
X0232521Y0135116D01*
X0232628Y0135233D01*
X0232738Y0135347D01*
X0232851Y0135458D01*
X0232966Y0135567D01*
X0233084Y0135672D01*
X0233205Y0135774D01*
X0233328Y0135874D01*
X0233454Y0135970D01*
X0233582Y0136063D01*
X0233712Y0136153D01*
X0233845Y0136239D01*
X0233980Y0136323D01*
X0234116Y0136402D01*
X0234255Y0136479D01*
X0234396Y0136551D01*
X0234538Y0136621D01*
X0234682Y0136686D01*
X0234828Y0136748D01*
X0234975Y0136806D01*
X0235124Y0136861D01*
X0235274Y0136912D01*
X0235425Y0136959D01*
X0235577Y0137002D01*
X0235730Y0137041D01*
X0235885Y0137077D01*
X0236040Y0137108D01*
X0236196Y0137136D01*
X0236352Y0137160D01*
X0236509Y0137180D01*
X0236667Y0137196D01*
X0236824Y0137208D01*
X0236983Y0137216D01*
X0237141Y0137220D01*
X0237299Y0137220D01*
X0237457Y0137216D01*
X0237616Y0137208D01*
X0237773Y0137196D01*
X0237931Y0137180D01*
X0238088Y0137160D01*
X0238244Y0137136D01*
X0238400Y0137108D01*
X0238555Y0137077D01*
X0238710Y0137041D01*
X0238863Y0137002D01*
X0239015Y0136959D01*
X0239166Y0136912D01*
X0239316Y0136861D01*
X0239465Y0136806D01*
X0239612Y0136748D01*
X0239758Y0136686D01*
X0239902Y0136621D01*
X0240044Y0136551D01*
X0240185Y0136479D01*
X0240324Y0136402D01*
X0240460Y0136323D01*
X0240595Y0136239D01*
X0240728Y0136153D01*
X0240858Y0136063D01*
X0240986Y0135970D01*
X0241112Y0135874D01*
X0241235Y0135774D01*
X0241356Y0135672D01*
X0241474Y0135567D01*
X0241589Y0135458D01*
X0241702Y0135347D01*
X0241812Y0135233D01*
X0241919Y0135116D01*
X0242023Y0134997D01*
X0242124Y0134875D01*
X0242221Y0134750D01*
X0242316Y0134623D01*
X0242407Y0134494D01*
X0242496Y0134363D01*
X0242580Y0134229D01*
X0242662Y0134093D01*
X0242740Y0133956D01*
X0242814Y0133816D01*
X0242885Y0133674D01*
X0242953Y0133531D01*
X0243017Y0133386D01*
X0243077Y0133240D01*
X0243133Y0133092D01*
X0243186Y0132943D01*
X0243235Y0132792D01*
X0243280Y0132640D01*
X0243321Y0132487D01*
X0243359Y0132334D01*
X0243392Y0132179D01*
X0243422Y0132023D01*
X0243448Y0131867D01*
X0243469Y0131710D01*
X0243487Y0131553D01*
X0243501Y0131395D01*
X0243511Y0131237D01*
X0243517Y0131079D01*
X0243519Y0130921D01*
X0243517Y0130763D01*
X0243511Y0130605D01*
X0243501Y0130447D01*
X0243487Y0130289D01*
X0243469Y0130132D01*
X0243448Y0129975D01*
X0243422Y0129819D01*
X0243392Y0129663D01*
X0243359Y0129508D01*
X0243321Y0129355D01*
X0243280Y0129202D01*
X0243235Y0129050D01*
X0243186Y0128899D01*
X0243133Y0128750D01*
X0243077Y0128602D01*
X0243017Y0128456D01*
X0242953Y0128311D01*
X0242885Y0128168D01*
X0242814Y0128026D01*
X0242740Y0127886D01*
X0242662Y0127749D01*
X0242580Y0127613D01*
X0242496Y0127479D01*
X0242407Y0127348D01*
X0242316Y0127219D01*
X0242221Y0127092D01*
X0242124Y0126967D01*
X0242023Y0126845D01*
X0241919Y0126726D01*
X0241812Y0126609D01*
X0241702Y0126495D01*
X0241589Y0126384D01*
X0241474Y0126275D01*
X0241356Y0126170D01*
X0241235Y0126068D01*
X0241112Y0125968D01*
X0240986Y0125872D01*
X0240858Y0125779D01*
X0240728Y0125689D01*
X0240595Y0125603D01*
X0240460Y0125519D01*
X0240324Y0125440D01*
X0240185Y0125363D01*
X0240044Y0125291D01*
X0239902Y0125221D01*
X0239758Y0125156D01*
X0239612Y0125094D01*
X0239465Y0125036D01*
X0239316Y0124981D01*
X0239166Y0124930D01*
X0239015Y0124883D01*
X0238863Y0124840D01*
X0238710Y0124801D01*
X0238555Y0124765D01*
X0238400Y0124734D01*
X0238244Y0124706D01*
X0238088Y0124682D01*
X0237931Y0124662D01*
X0237773Y0124646D01*
X0237616Y0124634D01*
X0237457Y0124626D01*
X0237299Y0124622D01*
X0237141Y0124622D01*
X0236983Y0124626D01*
X0236824Y0124634D01*
X0236667Y0124646D01*
X0236509Y0124662D01*
X0236352Y0124682D01*
X0236196Y0124706D01*
X0236040Y0124734D01*
X0235885Y0124765D01*
X0235730Y0124801D01*
X0235577Y0124840D01*
X0235425Y0124883D01*
X0235274Y0124930D01*
X0235124Y0124981D01*
X0234975Y0125036D01*
X0234828Y0125094D01*
X0234682Y0125156D01*
X0234538Y0125221D01*
X0234396Y0125291D01*
X0234255Y0125363D01*
X0234116Y0125440D01*
X0233980Y0125519D01*
X0233845Y0125603D01*
X0233712Y0125689D01*
X0233582Y0125779D01*
X0233454Y0125872D01*
X0233328Y0125968D01*
X0233205Y0126068D01*
X0233084Y0126170D01*
X0232966Y0126275D01*
X0232851Y0126384D01*
X0232738Y0126495D01*
X0232628Y0126609D01*
X0232521Y0126726D01*
X0232417Y0126845D01*
X0232316Y0126967D01*
X0232219Y0127092D01*
X0232124Y0127219D01*
X0232033Y0127348D01*
X0231944Y0127479D01*
X0231860Y0127613D01*
X0231778Y0127749D01*
X0231700Y0127886D01*
X0231626Y0128026D01*
X0231555Y0128168D01*
X0231487Y0128311D01*
X0231423Y0128456D01*
X0231363Y0128602D01*
X0231307Y0128750D01*
X0231254Y0128899D01*
X0231205Y0129050D01*
X0231160Y0129202D01*
X0231119Y0129355D01*
X0231081Y0129508D01*
X0231048Y0129663D01*
X0231018Y0129819D01*
X0230992Y0129975D01*
X0230971Y0130132D01*
X0230953Y0130289D01*
X0230939Y0130447D01*
X0230929Y0130605D01*
X0230923Y0130763D01*
X0230921Y0130921D01*
X0006512Y0258874D02*
X0006514Y0259032D01*
X0006520Y0259190D01*
X0006530Y0259348D01*
X0006544Y0259506D01*
X0006562Y0259663D01*
X0006583Y0259820D01*
X0006609Y0259976D01*
X0006639Y0260132D01*
X0006672Y0260287D01*
X0006710Y0260440D01*
X0006751Y0260593D01*
X0006796Y0260745D01*
X0006845Y0260896D01*
X0006898Y0261045D01*
X0006954Y0261193D01*
X0007014Y0261339D01*
X0007078Y0261484D01*
X0007146Y0261627D01*
X0007217Y0261769D01*
X0007291Y0261909D01*
X0007369Y0262046D01*
X0007451Y0262182D01*
X0007535Y0262316D01*
X0007624Y0262447D01*
X0007715Y0262576D01*
X0007810Y0262703D01*
X0007907Y0262828D01*
X0008008Y0262950D01*
X0008112Y0263069D01*
X0008219Y0263186D01*
X0008329Y0263300D01*
X0008442Y0263411D01*
X0008557Y0263520D01*
X0008675Y0263625D01*
X0008796Y0263727D01*
X0008919Y0263827D01*
X0009045Y0263923D01*
X0009173Y0264016D01*
X0009303Y0264106D01*
X0009436Y0264192D01*
X0009571Y0264276D01*
X0009707Y0264355D01*
X0009846Y0264432D01*
X0009987Y0264504D01*
X0010129Y0264574D01*
X0010273Y0264639D01*
X0010419Y0264701D01*
X0010566Y0264759D01*
X0010715Y0264814D01*
X0010865Y0264865D01*
X0011016Y0264912D01*
X0011168Y0264955D01*
X0011321Y0264994D01*
X0011476Y0265030D01*
X0011631Y0265061D01*
X0011787Y0265089D01*
X0011943Y0265113D01*
X0012100Y0265133D01*
X0012258Y0265149D01*
X0012415Y0265161D01*
X0012574Y0265169D01*
X0012732Y0265173D01*
X0012890Y0265173D01*
X0013048Y0265169D01*
X0013207Y0265161D01*
X0013364Y0265149D01*
X0013522Y0265133D01*
X0013679Y0265113D01*
X0013835Y0265089D01*
X0013991Y0265061D01*
X0014146Y0265030D01*
X0014301Y0264994D01*
X0014454Y0264955D01*
X0014606Y0264912D01*
X0014757Y0264865D01*
X0014907Y0264814D01*
X0015056Y0264759D01*
X0015203Y0264701D01*
X0015349Y0264639D01*
X0015493Y0264574D01*
X0015635Y0264504D01*
X0015776Y0264432D01*
X0015915Y0264355D01*
X0016051Y0264276D01*
X0016186Y0264192D01*
X0016319Y0264106D01*
X0016449Y0264016D01*
X0016577Y0263923D01*
X0016703Y0263827D01*
X0016826Y0263727D01*
X0016947Y0263625D01*
X0017065Y0263520D01*
X0017180Y0263411D01*
X0017293Y0263300D01*
X0017403Y0263186D01*
X0017510Y0263069D01*
X0017614Y0262950D01*
X0017715Y0262828D01*
X0017812Y0262703D01*
X0017907Y0262576D01*
X0017998Y0262447D01*
X0018087Y0262316D01*
X0018171Y0262182D01*
X0018253Y0262046D01*
X0018331Y0261909D01*
X0018405Y0261769D01*
X0018476Y0261627D01*
X0018544Y0261484D01*
X0018608Y0261339D01*
X0018668Y0261193D01*
X0018724Y0261045D01*
X0018777Y0260896D01*
X0018826Y0260745D01*
X0018871Y0260593D01*
X0018912Y0260440D01*
X0018950Y0260287D01*
X0018983Y0260132D01*
X0019013Y0259976D01*
X0019039Y0259820D01*
X0019060Y0259663D01*
X0019078Y0259506D01*
X0019092Y0259348D01*
X0019102Y0259190D01*
X0019108Y0259032D01*
X0019110Y0258874D01*
X0019108Y0258716D01*
X0019102Y0258558D01*
X0019092Y0258400D01*
X0019078Y0258242D01*
X0019060Y0258085D01*
X0019039Y0257928D01*
X0019013Y0257772D01*
X0018983Y0257616D01*
X0018950Y0257461D01*
X0018912Y0257308D01*
X0018871Y0257155D01*
X0018826Y0257003D01*
X0018777Y0256852D01*
X0018724Y0256703D01*
X0018668Y0256555D01*
X0018608Y0256409D01*
X0018544Y0256264D01*
X0018476Y0256121D01*
X0018405Y0255979D01*
X0018331Y0255839D01*
X0018253Y0255702D01*
X0018171Y0255566D01*
X0018087Y0255432D01*
X0017998Y0255301D01*
X0017907Y0255172D01*
X0017812Y0255045D01*
X0017715Y0254920D01*
X0017614Y0254798D01*
X0017510Y0254679D01*
X0017403Y0254562D01*
X0017293Y0254448D01*
X0017180Y0254337D01*
X0017065Y0254228D01*
X0016947Y0254123D01*
X0016826Y0254021D01*
X0016703Y0253921D01*
X0016577Y0253825D01*
X0016449Y0253732D01*
X0016319Y0253642D01*
X0016186Y0253556D01*
X0016051Y0253472D01*
X0015915Y0253393D01*
X0015776Y0253316D01*
X0015635Y0253244D01*
X0015493Y0253174D01*
X0015349Y0253109D01*
X0015203Y0253047D01*
X0015056Y0252989D01*
X0014907Y0252934D01*
X0014757Y0252883D01*
X0014606Y0252836D01*
X0014454Y0252793D01*
X0014301Y0252754D01*
X0014146Y0252718D01*
X0013991Y0252687D01*
X0013835Y0252659D01*
X0013679Y0252635D01*
X0013522Y0252615D01*
X0013364Y0252599D01*
X0013207Y0252587D01*
X0013048Y0252579D01*
X0012890Y0252575D01*
X0012732Y0252575D01*
X0012574Y0252579D01*
X0012415Y0252587D01*
X0012258Y0252599D01*
X0012100Y0252615D01*
X0011943Y0252635D01*
X0011787Y0252659D01*
X0011631Y0252687D01*
X0011476Y0252718D01*
X0011321Y0252754D01*
X0011168Y0252793D01*
X0011016Y0252836D01*
X0010865Y0252883D01*
X0010715Y0252934D01*
X0010566Y0252989D01*
X0010419Y0253047D01*
X0010273Y0253109D01*
X0010129Y0253174D01*
X0009987Y0253244D01*
X0009846Y0253316D01*
X0009707Y0253393D01*
X0009571Y0253472D01*
X0009436Y0253556D01*
X0009303Y0253642D01*
X0009173Y0253732D01*
X0009045Y0253825D01*
X0008919Y0253921D01*
X0008796Y0254021D01*
X0008675Y0254123D01*
X0008557Y0254228D01*
X0008442Y0254337D01*
X0008329Y0254448D01*
X0008219Y0254562D01*
X0008112Y0254679D01*
X0008008Y0254798D01*
X0007907Y0254920D01*
X0007810Y0255045D01*
X0007715Y0255172D01*
X0007624Y0255301D01*
X0007535Y0255432D01*
X0007451Y0255566D01*
X0007369Y0255702D01*
X0007291Y0255839D01*
X0007217Y0255979D01*
X0007146Y0256121D01*
X0007078Y0256264D01*
X0007014Y0256409D01*
X0006954Y0256555D01*
X0006898Y0256703D01*
X0006845Y0256852D01*
X0006796Y0257003D01*
X0006751Y0257155D01*
X0006710Y0257308D01*
X0006672Y0257461D01*
X0006639Y0257616D01*
X0006609Y0257772D01*
X0006583Y0257928D01*
X0006562Y0258085D01*
X0006544Y0258242D01*
X0006530Y0258400D01*
X0006520Y0258558D01*
X0006514Y0258716D01*
X0006512Y0258874D01*
D11*
X0013967Y0234330D03*
X0053967Y0234330D03*
D12*
X0066039Y0235057D02*
X0066039Y0239857D01*
X0066039Y0209857D02*
X0066039Y0205057D01*
X0044346Y0210450D02*
X0044346Y0215250D01*
X0034346Y0215250D02*
X0034346Y0210450D01*
X0024346Y0210450D02*
X0024346Y0215250D01*
X0014346Y0215250D02*
X0014346Y0210450D01*
X0014346Y0185250D02*
X0014346Y0180450D01*
X0024346Y0180450D02*
X0024346Y0185250D01*
X0034346Y0185250D02*
X0034346Y0180450D01*
X0044346Y0180450D02*
X0044346Y0185250D01*
X0093835Y0205214D02*
X0093835Y0210014D01*
X0093835Y0235214D02*
X0093835Y0240014D01*
X0156828Y0232535D02*
X0161628Y0232535D01*
X0161628Y0222535D02*
X0156828Y0222535D01*
X0156828Y0212535D02*
X0161628Y0212535D01*
X0161628Y0202535D02*
X0156828Y0202535D01*
X0186828Y0202535D02*
X0191628Y0202535D01*
X0191628Y0212535D02*
X0186828Y0212535D01*
X0186828Y0222535D02*
X0191628Y0222535D01*
X0191628Y0232535D02*
X0186828Y0232535D01*
X0224978Y0238126D02*
X0229778Y0238126D01*
X0229778Y0248126D02*
X0224978Y0248126D01*
X0224978Y0269622D02*
X0229778Y0269622D01*
X0229778Y0279622D02*
X0224978Y0279622D01*
X0224978Y0301118D02*
X0229778Y0301118D01*
X0229778Y0311118D02*
X0224978Y0311118D01*
X0224978Y0216630D02*
X0229778Y0216630D01*
X0229778Y0206630D02*
X0224978Y0206630D01*
X0224978Y0185134D02*
X0229778Y0185134D01*
X0229778Y0175134D02*
X0224978Y0175134D01*
X0224978Y0153638D02*
X0229778Y0153638D01*
X0229778Y0143638D02*
X0224978Y0143638D01*
X0078756Y0063164D02*
X0078756Y0058364D01*
X0068756Y0058364D02*
X0068756Y0063164D01*
X0046630Y0063164D02*
X0046630Y0058364D01*
X0036630Y0058364D02*
X0036630Y0063164D01*
D13*
X0017732Y0077142D03*
X0017732Y0087142D03*
X0017732Y0097142D03*
X0017732Y0107142D03*
X0017732Y0117142D03*
X0017732Y0127142D03*
X0017732Y0137142D03*
X0017732Y0147142D03*
X0017732Y0157142D03*
X0017732Y0167142D03*
X0007732Y0167102D03*
X0007732Y0157102D03*
X0007732Y0147102D03*
X0007732Y0137102D03*
X0007732Y0127102D03*
X0007732Y0117102D03*
X0007732Y0107102D03*
X0007732Y0097102D03*
X0107732Y0097142D03*
X0107732Y0107142D03*
X0107732Y0117142D03*
X0107732Y0127142D03*
X0107732Y0137142D03*
X0107732Y0147142D03*
X0107732Y0157142D03*
X0107732Y0167142D03*
X0117732Y0167102D03*
X0117732Y0157102D03*
X0117732Y0147102D03*
X0117732Y0137102D03*
X0117732Y0127102D03*
X0117732Y0117102D03*
X0117732Y0107102D03*
X0117732Y0097102D03*
X0107732Y0087142D03*
X0107732Y0077142D03*
D14*
X0161669Y0176512D03*
D15*
X0161669Y0166512D03*
X0161669Y0156512D03*
X0171669Y0156512D03*
X0171669Y0166512D03*
X0171669Y0176512D03*
D16*
X0192685Y0285409D02*
X0198685Y0285409D01*
X0198685Y0295409D02*
X0192685Y0295409D01*
X0109630Y0057614D02*
X0103630Y0057614D01*
X0103630Y0047614D02*
X0109630Y0047614D01*
X0109630Y0037614D02*
X0103630Y0037614D01*
X0077929Y0036795D02*
X0077929Y0030795D01*
X0067929Y0030795D02*
X0067929Y0036795D01*
X0057929Y0036795D02*
X0057929Y0030795D01*
X0047929Y0030795D02*
X0047929Y0036795D01*
X0037929Y0036795D02*
X0037929Y0030795D01*
X0020417Y0039307D02*
X0014417Y0039307D01*
X0014417Y0049307D02*
X0020417Y0049307D01*
X0020417Y0059307D02*
X0014417Y0059307D01*
D17*
X0036433Y0084425D03*
X0036433Y0114425D03*
X0036433Y0132732D03*
X0036433Y0152732D03*
X0060055Y0121236D03*
X0063992Y0139543D03*
X0083677Y0114425D03*
X0083677Y0084425D03*
X0060055Y0101236D03*
X0063992Y0169543D03*
X0060803Y0189976D03*
X0090803Y0189976D03*
X0111236Y0194661D03*
X0111236Y0224661D03*
X0146669Y0220724D03*
X0146669Y0234031D03*
X0146669Y0264031D03*
X0146669Y0277339D03*
X0146669Y0307339D03*
X0167102Y0312024D03*
X0170291Y0274780D03*
X0170291Y0254780D03*
X0194269Y0258632D03*
X0201769Y0263632D03*
X0194269Y0268632D03*
X0197102Y0312024D03*
X0146669Y0190724D03*
X0192608Y0185020D03*
X0200108Y0180020D03*
X0192608Y0175020D03*
X0193074Y0153764D03*
X0200574Y0148764D03*
X0193074Y0143764D03*
D18*
X0081709Y0254780D03*
X0072366Y0254780D03*
X0063492Y0254780D03*
X0054150Y0254780D03*
D19*
X0058821Y0260291D02*
X0058228Y0260883D01*
X0055582Y0261980D01*
X0053505Y0261980D01*
X0054542Y0263017D01*
X0091965Y0263017D01*
X0093725Y0259497D01*
X0093725Y0247898D01*
X0094593Y0245803D01*
X0095970Y0244425D01*
X0095716Y0244555D01*
X0094982Y0244794D01*
X0094220Y0244914D01*
X0093835Y0244914D01*
X0093835Y0237614D01*
X0093835Y0237614D01*
X0098735Y0237614D01*
X0098735Y0234829D01*
X0098614Y0234067D01*
X0098376Y0233333D01*
X0098025Y0232646D01*
X0097572Y0232022D01*
X0097027Y0231477D01*
X0096403Y0231023D01*
X0095716Y0230673D01*
X0094982Y0230435D01*
X0094220Y0230314D01*
X0093835Y0230314D01*
X0093835Y0237614D01*
X0093835Y0237614D01*
X0098735Y0237614D01*
X0098735Y0240400D01*
X0098614Y0241162D01*
X0098376Y0241895D01*
X0098246Y0242150D01*
X0108834Y0231561D01*
X0108378Y0231561D01*
X0104336Y0227519D01*
X0104336Y0227172D01*
X0094354Y0227172D01*
X0092259Y0226305D01*
X0090656Y0224701D01*
X0079300Y0213345D01*
X0079300Y0230934D01*
X0078432Y0233029D01*
X0073411Y0238050D01*
X0076232Y0240871D01*
X0077100Y0242966D01*
X0077100Y0249331D01*
X0078470Y0250701D01*
X0078471Y0250704D01*
X0078983Y0250332D01*
X0079713Y0249960D01*
X0080491Y0249708D01*
X0081299Y0249580D01*
X0081709Y0249580D01*
X0082118Y0249580D01*
X0082926Y0249708D01*
X0083705Y0249960D01*
X0084434Y0250332D01*
X0085096Y0250813D01*
X0085675Y0251392D01*
X0086156Y0252054D01*
X0086528Y0252783D01*
X0086781Y0253562D01*
X0086909Y0254370D01*
X0086909Y0254779D01*
X0081709Y0254779D01*
X0081709Y0249580D01*
X0081709Y0254779D01*
X0081709Y0254779D01*
X0081709Y0254780D01*
X0081709Y0254780D01*
X0081709Y0259980D01*
X0082118Y0259980D01*
X0082926Y0259851D01*
X0083705Y0259599D01*
X0084434Y0259227D01*
X0085096Y0258746D01*
X0085675Y0258167D01*
X0086156Y0257505D01*
X0086528Y0256776D01*
X0086781Y0255997D01*
X0086909Y0255189D01*
X0086909Y0254780D01*
X0081709Y0254780D01*
X0081709Y0259980D01*
X0081299Y0259980D01*
X0080491Y0259851D01*
X0079713Y0259599D01*
X0078983Y0259227D01*
X0078471Y0258855D01*
X0078470Y0258858D01*
X0076445Y0260883D01*
X0073798Y0261980D01*
X0070934Y0261980D01*
X0068288Y0260883D01*
X0067929Y0260525D01*
X0067571Y0260883D01*
X0064924Y0261980D01*
X0062060Y0261980D01*
X0059414Y0260883D01*
X0058821Y0260291D01*
X0055845Y0261870D02*
X0061797Y0261870D01*
X0065188Y0261870D02*
X0070671Y0261870D01*
X0074062Y0261870D02*
X0092538Y0261870D01*
X0093725Y0258872D02*
X0084923Y0258872D01*
X0081709Y0258872D02*
X0081709Y0258872D01*
X0081709Y0255873D02*
X0081709Y0255873D01*
X0081709Y0252875D02*
X0081709Y0252875D01*
X0081709Y0249876D02*
X0081709Y0249876D01*
X0083446Y0249876D02*
X0093725Y0249876D01*
X0093725Y0252875D02*
X0086557Y0252875D01*
X0086800Y0255873D02*
X0093725Y0255873D01*
X0094148Y0246878D02*
X0077100Y0246878D01*
X0077100Y0243879D02*
X0090818Y0243879D01*
X0090643Y0243752D02*
X0090097Y0243206D01*
X0089644Y0242582D01*
X0089294Y0241895D01*
X0089055Y0241162D01*
X0088935Y0240400D01*
X0088935Y0237614D01*
X0088935Y0234829D01*
X0089055Y0234067D01*
X0089294Y0233333D01*
X0089644Y0232646D01*
X0090097Y0232022D01*
X0090643Y0231477D01*
X0091266Y0231023D01*
X0091954Y0230673D01*
X0092687Y0230435D01*
X0093449Y0230314D01*
X0093835Y0230314D01*
X0093835Y0237614D01*
X0091551Y0237220D01*
X0087614Y0237220D01*
X0079740Y0229346D01*
X0079300Y0228887D02*
X0105704Y0228887D01*
X0108510Y0231885D02*
X0097435Y0231885D01*
X0098735Y0234884D02*
X0105512Y0234884D01*
X0102513Y0237882D02*
X0098735Y0237882D01*
X0098658Y0240881D02*
X0099515Y0240881D01*
X0094500Y0237500D02*
X0093835Y0237614D01*
X0093835Y0237614D01*
X0088935Y0237614D01*
X0093835Y0237614D01*
X0093835Y0237614D01*
X0093835Y0244914D01*
X0093449Y0244914D01*
X0092687Y0244794D01*
X0091954Y0244555D01*
X0091266Y0244205D01*
X0090643Y0243752D01*
X0093835Y0243879D02*
X0093835Y0243879D01*
X0093835Y0240881D02*
X0093835Y0240881D01*
X0093835Y0237882D02*
X0093835Y0237882D01*
X0093835Y0234884D02*
X0093835Y0234884D01*
X0093835Y0231885D02*
X0093835Y0231885D01*
X0090234Y0231885D02*
X0078906Y0231885D01*
X0076577Y0234884D02*
X0088935Y0234884D01*
X0088935Y0237882D02*
X0073579Y0237882D01*
X0076236Y0240881D02*
X0089011Y0240881D01*
X0079971Y0249876D02*
X0077645Y0249876D01*
X0078456Y0258872D02*
X0078495Y0258872D01*
X0061211Y0230127D02*
X0062131Y0229207D01*
X0064667Y0228157D01*
X0067182Y0228157D01*
X0067900Y0227439D01*
X0067900Y0214404D01*
X0067187Y0214636D01*
X0066425Y0214757D01*
X0066039Y0214757D01*
X0065654Y0214757D01*
X0064892Y0214636D01*
X0064158Y0214398D01*
X0063471Y0214048D01*
X0062847Y0213594D01*
X0062302Y0213049D01*
X0061849Y0212425D01*
X0061498Y0211738D01*
X0061260Y0211004D01*
X0061139Y0210242D01*
X0061139Y0208522D01*
X0060600Y0209061D01*
X0060600Y0229224D01*
X0061004Y0229628D01*
X0061211Y0230127D01*
X0060600Y0228887D02*
X0062904Y0228887D01*
X0060600Y0225888D02*
X0067900Y0225888D01*
X0067900Y0222890D02*
X0060600Y0222890D01*
X0060600Y0219891D02*
X0067900Y0219891D01*
X0067900Y0216893D02*
X0060600Y0216893D01*
X0060600Y0213894D02*
X0063260Y0213894D01*
X0061243Y0210896D02*
X0060600Y0210896D01*
X0063992Y0209661D02*
X0063992Y0217535D01*
X0066039Y0214757D02*
X0066039Y0207457D01*
X0066039Y0207457D01*
X0066039Y0214757D01*
X0066039Y0213894D02*
X0066039Y0213894D01*
X0066039Y0210896D02*
X0066039Y0210896D01*
X0063992Y0209661D02*
X0066039Y0207457D01*
X0066039Y0207897D02*
X0066039Y0207897D01*
X0054700Y0198839D02*
X0054700Y0193631D01*
X0053903Y0192834D01*
X0053903Y0187118D01*
X0054700Y0186321D01*
X0054700Y0177161D01*
X0053368Y0175829D01*
X0052500Y0173734D01*
X0052500Y0131866D01*
X0053368Y0129771D01*
X0057514Y0125625D01*
X0055155Y0123266D01*
X0055155Y0121236D01*
X0055155Y0119207D01*
X0058025Y0116336D01*
X0060055Y0116336D01*
X0060055Y0121236D01*
X0060055Y0121236D01*
X0055155Y0121236D01*
X0060055Y0121236D01*
X0060055Y0121236D01*
X0060055Y0116336D01*
X0062085Y0116336D01*
X0064444Y0118695D01*
X0072300Y0110839D01*
X0072300Y0098866D01*
X0073168Y0096771D01*
X0081131Y0088808D01*
X0078777Y0086455D01*
X0078777Y0084425D01*
X0078777Y0082396D01*
X0081648Y0079525D01*
X0083677Y0079525D01*
X0083677Y0084425D01*
X0083677Y0084425D01*
X0078777Y0084425D01*
X0083677Y0084425D01*
X0083677Y0084425D01*
X0083677Y0079525D01*
X0085707Y0079525D01*
X0087700Y0081518D01*
X0087700Y0039661D01*
X0085429Y0037390D01*
X0085429Y0038287D01*
X0084288Y0041044D01*
X0082178Y0043153D01*
X0079421Y0044295D01*
X0076438Y0044295D01*
X0073681Y0043153D01*
X0072929Y0042402D01*
X0072178Y0043153D01*
X0069421Y0044295D01*
X0066438Y0044295D01*
X0063681Y0043153D01*
X0061571Y0041044D01*
X0061538Y0040964D01*
X0061512Y0040990D01*
X0060812Y0041499D01*
X0060041Y0041892D01*
X0059217Y0042160D01*
X0058362Y0042295D01*
X0057930Y0042295D01*
X0057930Y0033795D01*
X0057929Y0033795D02*
X0058200Y0034000D01*
X0058200Y0038400D01*
X0067550Y0047750D01*
X0061500Y0053800D01*
X0061500Y0058200D01*
X0049400Y0070300D01*
X0040600Y0070300D01*
X0024100Y0086800D01*
X0018600Y0086800D01*
X0017732Y0087142D01*
X0017732Y0087142D01*
X0011732Y0087142D01*
X0011732Y0089627D01*
X0012833Y0090728D01*
X0012752Y0090808D01*
X0011046Y0089102D01*
X0004500Y0089102D01*
X0004500Y0088816D01*
X0004937Y0087614D01*
X0004937Y0028638D01*
X0007260Y0030961D01*
X0010862Y0032453D01*
X0011367Y0032453D01*
X0010169Y0032949D01*
X0008059Y0035059D01*
X0006917Y0037815D01*
X0006917Y0040799D01*
X0008059Y0043555D01*
X0008811Y0044307D01*
X0008059Y0045059D01*
X0006917Y0047815D01*
X0006917Y0050799D01*
X0008059Y0053555D01*
X0008811Y0054307D01*
X0008059Y0055059D01*
X0006917Y0057815D01*
X0006917Y0060799D01*
X0008059Y0063555D01*
X0010169Y0065665D01*
X0012925Y0066807D01*
X0021909Y0066807D01*
X0024666Y0065665D01*
X0025331Y0065000D01*
X0026334Y0065000D01*
X0028429Y0064132D01*
X0029730Y0062831D01*
X0029730Y0064536D01*
X0030780Y0067072D01*
X0032721Y0069013D01*
X0035257Y0070064D01*
X0038002Y0070064D01*
X0040538Y0069013D01*
X0041630Y0067922D01*
X0042721Y0069013D01*
X0045257Y0070064D01*
X0048002Y0070064D01*
X0050538Y0069013D01*
X0052479Y0067072D01*
X0053530Y0064536D01*
X0053530Y0056991D01*
X0052479Y0054455D01*
X0050538Y0052514D01*
X0048002Y0051464D01*
X0045257Y0051464D01*
X0042721Y0052514D01*
X0041630Y0053606D01*
X0040538Y0052514D01*
X0040191Y0052370D01*
X0048266Y0044295D01*
X0049421Y0044295D01*
X0052178Y0043153D01*
X0054288Y0041044D01*
X0054320Y0040964D01*
X0054346Y0040990D01*
X0055047Y0041499D01*
X0055818Y0041892D01*
X0056642Y0042160D01*
X0057497Y0042295D01*
X0057929Y0042295D01*
X0057929Y0033795D01*
X0057930Y0033795D01*
X0057929Y0033984D02*
X0057930Y0033984D01*
X0057929Y0036982D02*
X0057930Y0036982D01*
X0057929Y0039981D02*
X0057930Y0039981D01*
X0063507Y0042979D02*
X0052352Y0042979D01*
X0046583Y0045978D02*
X0087700Y0045978D01*
X0087700Y0048976D02*
X0043585Y0048976D01*
X0044024Y0051975D02*
X0040586Y0051975D01*
X0049236Y0051975D02*
X0066150Y0051975D01*
X0067383Y0051464D02*
X0070128Y0051464D01*
X0072664Y0052514D01*
X0073756Y0053606D01*
X0074847Y0052514D01*
X0077383Y0051464D01*
X0080128Y0051464D01*
X0082664Y0052514D01*
X0084605Y0054455D01*
X0085656Y0056991D01*
X0085656Y0064536D01*
X0084605Y0067072D01*
X0082664Y0069013D01*
X0080128Y0070064D01*
X0077383Y0070064D01*
X0074847Y0069013D01*
X0073800Y0067966D01*
X0073800Y0068134D01*
X0072932Y0070229D01*
X0026111Y0117050D01*
X0030032Y0120971D01*
X0030900Y0123066D01*
X0030900Y0128507D01*
X0033575Y0125832D01*
X0039291Y0125832D01*
X0043333Y0129874D01*
X0043333Y0135590D01*
X0039291Y0139632D01*
X0033575Y0139632D01*
X0030900Y0136957D01*
X0030900Y0174409D01*
X0032974Y0173550D01*
X0035719Y0173550D01*
X0038255Y0174601D01*
X0039346Y0175692D01*
X0040438Y0174601D01*
X0042974Y0173550D01*
X0045719Y0173550D01*
X0048255Y0174601D01*
X0050196Y0176542D01*
X0051246Y0179078D01*
X0051246Y0186623D01*
X0050196Y0189159D01*
X0048255Y0191100D01*
X0045719Y0192150D01*
X0042974Y0192150D01*
X0040438Y0191100D01*
X0039346Y0190008D01*
X0038255Y0191100D01*
X0035719Y0192150D01*
X0032974Y0192150D01*
X0030438Y0191100D01*
X0029346Y0190008D01*
X0028255Y0191100D01*
X0025719Y0192150D01*
X0022974Y0192150D01*
X0020438Y0191100D01*
X0019346Y0190008D01*
X0018255Y0191100D01*
X0015719Y0192150D01*
X0012974Y0192150D01*
X0010438Y0191100D01*
X0008497Y0189159D01*
X0007446Y0186623D01*
X0007446Y0179078D01*
X0008497Y0176542D01*
X0009936Y0175102D01*
X0004500Y0175102D01*
X0004500Y0196649D01*
X0004937Y0197850D01*
X0004937Y0252890D01*
X0007260Y0250567D01*
X0010862Y0249075D01*
X0014760Y0249075D01*
X0018362Y0250567D01*
X0021118Y0253323D01*
X0022610Y0256925D01*
X0022610Y0260823D01*
X0021118Y0264425D01*
X0018362Y0267181D01*
X0014760Y0268673D01*
X0010862Y0268673D01*
X0007260Y0267181D01*
X0004937Y0264858D01*
X0004937Y0268717D01*
X0044120Y0268717D01*
X0041077Y0265673D01*
X0041074Y0265672D01*
X0040277Y0264873D01*
X0039475Y0264071D01*
X0039474Y0264069D01*
X0039472Y0264067D01*
X0039040Y0263022D01*
X0038607Y0261976D01*
X0038607Y0261974D01*
X0038606Y0261972D01*
X0038607Y0260841D01*
X0038607Y0259709D01*
X0038608Y0259706D01*
X0038640Y0220715D01*
X0038255Y0221100D01*
X0035719Y0222150D01*
X0032974Y0222150D01*
X0030438Y0221100D01*
X0029346Y0220008D01*
X0028255Y0221100D01*
X0025719Y0222150D01*
X0022974Y0222150D01*
X0020438Y0221100D01*
X0018497Y0219159D01*
X0018158Y0218341D01*
X0018084Y0218443D01*
X0017539Y0218988D01*
X0016915Y0219441D01*
X0016227Y0219791D01*
X0015494Y0220030D01*
X0014732Y0220150D01*
X0014347Y0220150D01*
X0014347Y0212851D01*
X0014346Y0212851D01*
X0014346Y0220150D01*
X0013961Y0220150D01*
X0013199Y0220030D01*
X0012466Y0219791D01*
X0011778Y0219441D01*
X0011154Y0218988D01*
X0010609Y0218443D01*
X0010156Y0217819D01*
X0009805Y0217131D01*
X0009567Y0216398D01*
X0009446Y0215636D01*
X0009446Y0212850D01*
X0009446Y0210065D01*
X0009567Y0209303D01*
X0009805Y0208569D01*
X0010156Y0207882D01*
X0010609Y0207258D01*
X0011154Y0206713D01*
X0011778Y0206260D01*
X0012466Y0205909D01*
X0013199Y0205671D01*
X0013961Y0205550D01*
X0014346Y0205550D01*
X0014346Y0212850D01*
X0009446Y0212850D01*
X0014346Y0212850D01*
X0014346Y0212850D01*
X0014347Y0212850D01*
X0014347Y0205550D01*
X0014732Y0205550D01*
X0015494Y0205671D01*
X0016227Y0205909D01*
X0016915Y0206260D01*
X0017539Y0206713D01*
X0018084Y0207258D01*
X0018158Y0207360D01*
X0018497Y0206542D01*
X0020438Y0204601D01*
X0022974Y0203550D01*
X0025719Y0203550D01*
X0028255Y0204601D01*
X0029346Y0205692D01*
X0030438Y0204601D01*
X0032974Y0203550D01*
X0035719Y0203550D01*
X0038255Y0204601D01*
X0039346Y0205692D01*
X0040438Y0204601D01*
X0042974Y0203550D01*
X0045719Y0203550D01*
X0048255Y0204601D01*
X0049206Y0205552D01*
X0050068Y0203471D01*
X0051671Y0201868D01*
X0054700Y0198839D01*
X0054637Y0198902D02*
X0004937Y0198902D01*
X0004937Y0201900D02*
X0051639Y0201900D01*
X0049476Y0204899D02*
X0048553Y0204899D01*
X0054700Y0195903D02*
X0004500Y0195903D01*
X0004500Y0192905D02*
X0053973Y0192905D01*
X0053903Y0189906D02*
X0049449Y0189906D01*
X0051128Y0186908D02*
X0054114Y0186908D01*
X0054700Y0183909D02*
X0051246Y0183909D01*
X0051246Y0180911D02*
X0054700Y0180911D01*
X0054700Y0177912D02*
X0050764Y0177912D01*
X0048568Y0174914D02*
X0052989Y0174914D01*
X0052500Y0171915D02*
X0030900Y0171915D01*
X0030900Y0168917D02*
X0052500Y0168917D01*
X0052500Y0165918D02*
X0030900Y0165918D01*
X0030900Y0162920D02*
X0052500Y0162920D01*
X0052500Y0159921D02*
X0030900Y0159921D01*
X0030900Y0156923D02*
X0033694Y0156923D01*
X0034403Y0157632D02*
X0031533Y0154762D01*
X0031533Y0152732D01*
X0031533Y0150703D01*
X0034403Y0147832D01*
X0036433Y0147832D01*
X0036433Y0152732D01*
X0036433Y0152732D01*
X0036433Y0147832D01*
X0038463Y0147832D01*
X0041333Y0150703D01*
X0041333Y0152732D01*
X0036433Y0152732D01*
X0031533Y0152732D01*
X0036433Y0152732D01*
X0036433Y0152732D01*
X0036433Y0152732D01*
X0037300Y0151700D01*
X0037300Y0141800D01*
X0043900Y0135200D01*
X0043900Y0115400D01*
X0037300Y0115400D01*
X0036433Y0114425D01*
X0036433Y0114425D01*
X0036433Y0109525D01*
X0034403Y0109525D01*
X0031533Y0112396D01*
X0031533Y0114425D01*
X0036433Y0114425D01*
X0036433Y0114425D01*
X0036433Y0109525D01*
X0038463Y0109525D01*
X0041333Y0112396D01*
X0041333Y0114425D01*
X0036433Y0114425D01*
X0036433Y0114425D01*
X0031533Y0114425D01*
X0031533Y0116455D01*
X0034403Y0119325D01*
X0036433Y0119325D01*
X0036433Y0114425D01*
X0041333Y0114425D01*
X0041333Y0116455D01*
X0038463Y0119325D01*
X0036433Y0119325D01*
X0036433Y0114425D01*
X0036433Y0114425D01*
X0036433Y0114943D02*
X0036433Y0114943D01*
X0036433Y0111945D02*
X0036433Y0111945D01*
X0034215Y0108946D02*
X0072300Y0108946D01*
X0072300Y0105948D02*
X0065101Y0105948D01*
X0066955Y0104094D02*
X0062913Y0108136D01*
X0057197Y0108136D01*
X0053155Y0104094D01*
X0053155Y0098378D01*
X0057197Y0094336D01*
X0062913Y0094336D01*
X0066955Y0098378D01*
X0066955Y0104094D01*
X0066955Y0102949D02*
X0072300Y0102949D01*
X0071400Y0101100D02*
X0071400Y0097800D01*
X0083500Y0085700D01*
X0083677Y0084425D01*
X0084600Y0083500D01*
X0085700Y0082400D01*
X0085700Y0054900D01*
X0081300Y0050500D01*
X0070300Y0050500D01*
X0067550Y0047750D01*
X0067383Y0051464D02*
X0064847Y0052514D01*
X0062906Y0054455D01*
X0061856Y0056991D01*
X0061856Y0064536D01*
X0062045Y0064994D01*
X0043333Y0083706D01*
X0043333Y0081567D01*
X0039291Y0077525D01*
X0033575Y0077525D01*
X0029533Y0081567D01*
X0029533Y0087283D01*
X0033575Y0091325D01*
X0035714Y0091325D01*
X0024472Y0102567D01*
X0024046Y0102142D01*
X0025732Y0100455D01*
X0025732Y0093828D01*
X0022632Y0090728D01*
X0023732Y0089627D01*
X0023732Y0087142D01*
X0017732Y0087142D01*
X0011732Y0087142D01*
X0011732Y0084656D01*
X0012833Y0083556D01*
X0009732Y0080455D01*
X0009732Y0073828D01*
X0014419Y0069142D01*
X0021046Y0069142D01*
X0025732Y0073828D01*
X0025732Y0080455D01*
X0022632Y0083556D01*
X0023732Y0084656D01*
X0023732Y0087142D01*
X0017732Y0087142D01*
X0017732Y0087142D01*
X0011732Y0087957D02*
X0004812Y0087957D01*
X0004937Y0084958D02*
X0011732Y0084958D01*
X0011237Y0081960D02*
X0004937Y0081960D01*
X0004937Y0078961D02*
X0009732Y0078961D01*
X0009732Y0075963D02*
X0004937Y0075963D01*
X0004937Y0072964D02*
X0010596Y0072964D01*
X0013595Y0069966D02*
X0004937Y0069966D01*
X0004937Y0066967D02*
X0030737Y0066967D01*
X0029730Y0063969D02*
X0028592Y0063969D01*
X0035021Y0069966D02*
X0021870Y0069966D01*
X0024869Y0072964D02*
X0054075Y0072964D01*
X0057073Y0069966D02*
X0048239Y0069966D01*
X0045021Y0069966D02*
X0038239Y0069966D01*
X0040727Y0078961D02*
X0048078Y0078961D01*
X0045079Y0081960D02*
X0043333Y0081960D01*
X0051076Y0075963D02*
X0025732Y0075963D01*
X0025732Y0078961D02*
X0032139Y0078961D01*
X0029533Y0081960D02*
X0024228Y0081960D01*
X0023732Y0084958D02*
X0029533Y0084958D01*
X0030207Y0087957D02*
X0023732Y0087957D01*
X0022860Y0090955D02*
X0033205Y0090955D01*
X0033085Y0093954D02*
X0025732Y0093954D01*
X0025732Y0096952D02*
X0030087Y0096952D01*
X0027088Y0099951D02*
X0025732Y0099951D01*
X0037213Y0105948D02*
X0055009Y0105948D01*
X0053155Y0102949D02*
X0040212Y0102949D01*
X0043210Y0099951D02*
X0053155Y0099951D01*
X0054581Y0096952D02*
X0046209Y0096952D01*
X0049207Y0093954D02*
X0075985Y0093954D01*
X0073093Y0096952D02*
X0065529Y0096952D01*
X0066955Y0099951D02*
X0072300Y0099951D01*
X0071400Y0101100D02*
X0055450Y0117050D01*
X0053800Y0115400D01*
X0043900Y0115400D01*
X0041333Y0114943D02*
X0068196Y0114943D01*
X0065197Y0117942D02*
X0063690Y0117942D01*
X0060055Y0117942D02*
X0060055Y0117942D01*
X0060055Y0120940D02*
X0060055Y0120940D01*
X0060055Y0121236D02*
X0059300Y0120900D01*
X0055450Y0117050D01*
X0056420Y0117942D02*
X0039846Y0117942D01*
X0036433Y0117942D02*
X0036433Y0117942D01*
X0033020Y0117942D02*
X0027003Y0117942D01*
X0028218Y0114943D02*
X0031533Y0114943D01*
X0031216Y0111945D02*
X0031984Y0111945D01*
X0030001Y0120940D02*
X0055155Y0120940D01*
X0055828Y0123939D02*
X0030900Y0123939D01*
X0030900Y0126937D02*
X0032470Y0126937D01*
X0040396Y0126937D02*
X0056201Y0126937D01*
X0053300Y0129936D02*
X0043333Y0129936D01*
X0043333Y0132934D02*
X0052500Y0132934D01*
X0052500Y0135933D02*
X0042990Y0135933D01*
X0039992Y0138932D02*
X0052500Y0138932D01*
X0052500Y0141930D02*
X0030900Y0141930D01*
X0030900Y0138932D02*
X0032874Y0138932D01*
X0030900Y0144929D02*
X0052500Y0144929D01*
X0052500Y0147927D02*
X0038557Y0147927D01*
X0036433Y0147927D02*
X0036433Y0147927D01*
X0034309Y0147927D02*
X0030900Y0147927D01*
X0030900Y0150926D02*
X0031533Y0150926D01*
X0031533Y0153924D02*
X0030900Y0153924D01*
X0034403Y0157632D02*
X0036433Y0157632D01*
X0036433Y0152732D01*
X0041333Y0152732D01*
X0041333Y0154762D01*
X0038463Y0157632D01*
X0036433Y0157632D01*
X0036433Y0152732D01*
X0036433Y0152732D01*
X0036433Y0153924D02*
X0036433Y0153924D01*
X0036433Y0150926D02*
X0036433Y0150926D01*
X0041333Y0150926D02*
X0052500Y0150926D01*
X0052500Y0153924D02*
X0041333Y0153924D01*
X0039172Y0156923D02*
X0052500Y0156923D01*
X0040125Y0174914D02*
X0038568Y0174914D01*
X0036433Y0156923D02*
X0036433Y0156923D01*
X0007929Y0177912D02*
X0004500Y0177912D01*
X0004500Y0180911D02*
X0007446Y0180911D01*
X0007446Y0183909D02*
X0004500Y0183909D01*
X0004500Y0186908D02*
X0007564Y0186908D01*
X0009244Y0189906D02*
X0004500Y0189906D01*
X0004937Y0204899D02*
X0020140Y0204899D01*
X0014347Y0207897D02*
X0014346Y0207897D01*
X0014346Y0210896D02*
X0014347Y0210896D01*
X0014346Y0213894D02*
X0014347Y0213894D01*
X0014346Y0216893D02*
X0014347Y0216893D01*
X0014346Y0219891D02*
X0014347Y0219891D01*
X0015920Y0219891D02*
X0019229Y0219891D01*
X0012773Y0219891D02*
X0004937Y0219891D01*
X0004937Y0216893D02*
X0009728Y0216893D01*
X0009446Y0213894D02*
X0004937Y0213894D01*
X0004937Y0210896D02*
X0009446Y0210896D01*
X0010148Y0207897D02*
X0004937Y0207897D01*
X0004937Y0222890D02*
X0038638Y0222890D01*
X0038636Y0225888D02*
X0004937Y0225888D01*
X0004937Y0228887D02*
X0007672Y0228887D01*
X0006931Y0229628D02*
X0009266Y0227293D01*
X0012316Y0226030D01*
X0015618Y0226030D01*
X0018669Y0227293D01*
X0021004Y0229628D01*
X0022267Y0232679D01*
X0022267Y0235981D01*
X0021004Y0239031D01*
X0018669Y0241366D01*
X0015618Y0242630D01*
X0012316Y0242630D01*
X0009266Y0241366D01*
X0006931Y0239031D01*
X0005667Y0235981D01*
X0005667Y0232679D01*
X0006931Y0229628D01*
X0005996Y0231885D02*
X0004937Y0231885D01*
X0004937Y0234884D02*
X0005667Y0234884D01*
X0004937Y0237882D02*
X0006455Y0237882D01*
X0004937Y0240881D02*
X0008781Y0240881D01*
X0004937Y0243879D02*
X0038621Y0243879D01*
X0038623Y0240881D02*
X0019154Y0240881D01*
X0021480Y0237882D02*
X0038626Y0237882D01*
X0038628Y0234884D02*
X0022267Y0234884D01*
X0021939Y0231885D02*
X0038631Y0231885D01*
X0038633Y0228887D02*
X0020263Y0228887D01*
X0004937Y0246878D02*
X0038619Y0246878D01*
X0038616Y0249876D02*
X0016696Y0249876D01*
X0020670Y0252875D02*
X0038614Y0252875D01*
X0038611Y0255873D02*
X0022175Y0255873D01*
X0022610Y0258872D02*
X0038609Y0258872D01*
X0038606Y0261870D02*
X0022176Y0261870D01*
X0020674Y0264869D02*
X0040273Y0264869D01*
X0043271Y0267868D02*
X0016705Y0267868D01*
X0008917Y0267868D02*
X0004937Y0267868D01*
X0004937Y0264869D02*
X0004948Y0264869D01*
X0004937Y0252875D02*
X0004952Y0252875D01*
X0004937Y0249876D02*
X0008927Y0249876D01*
X0028553Y0204899D02*
X0030140Y0204899D01*
X0038553Y0204899D02*
X0040140Y0204899D01*
X0076829Y0165568D02*
X0070500Y0159239D01*
X0070500Y0142793D01*
X0070892Y0142401D01*
X0070892Y0136685D01*
X0066850Y0132643D01*
X0066618Y0132643D01*
X0079377Y0119884D01*
X0080819Y0121325D01*
X0086535Y0121325D01*
X0090577Y0117283D01*
X0090577Y0111567D01*
X0086535Y0107525D01*
X0083700Y0107525D01*
X0083700Y0102361D01*
X0096629Y0089432D01*
X0098232Y0087829D01*
X0099100Y0085734D01*
X0099100Y0063691D01*
X0099382Y0063972D01*
X0102138Y0065114D01*
X0111122Y0065114D01*
X0113878Y0063972D01*
X0115988Y0061863D01*
X0117130Y0059106D01*
X0117130Y0056122D01*
X0115988Y0053366D01*
X0115237Y0052614D01*
X0115988Y0051863D01*
X0117130Y0049106D01*
X0117130Y0046122D01*
X0115988Y0043366D01*
X0115237Y0042614D01*
X0115988Y0041863D01*
X0117130Y0039106D01*
X0117130Y0036122D01*
X0115988Y0033366D01*
X0114522Y0031899D01*
X0116787Y0030961D01*
X0119544Y0028204D01*
X0121035Y0024603D01*
X0121035Y0020704D01*
X0119544Y0017103D01*
X0116787Y0014346D01*
X0113185Y0012854D01*
X0109287Y0012854D01*
X0105685Y0014346D01*
X0102929Y0017103D01*
X0101437Y0020704D01*
X0101437Y0024603D01*
X0102929Y0028204D01*
X0104839Y0030114D01*
X0102138Y0030114D01*
X0099382Y0031256D01*
X0099037Y0031600D01*
X0095761Y0031600D01*
X0079532Y0015371D01*
X0077929Y0013768D01*
X0075834Y0012900D01*
X0036166Y0012900D01*
X0034071Y0013768D01*
X0022168Y0025671D01*
X0022610Y0024603D01*
X0022610Y0020704D01*
X0021118Y0017103D01*
X0018362Y0014346D01*
X0014760Y0012854D01*
X0010862Y0012854D01*
X0007260Y0014346D01*
X0004937Y0016669D01*
X0004937Y0012811D01*
X0123047Y0012811D01*
X0121861Y0089917D01*
X0121046Y0089102D01*
X0114419Y0089102D01*
X0112713Y0090808D01*
X0112632Y0090728D01*
X0113732Y0089627D01*
X0113732Y0087142D01*
X0107732Y0087142D01*
X0107732Y0087142D01*
X0101732Y0087142D01*
X0101732Y0089627D01*
X0102833Y0090728D01*
X0099732Y0093828D01*
X0099732Y0100455D01*
X0101419Y0102142D01*
X0099732Y0103828D01*
X0099732Y0110455D01*
X0101419Y0112142D01*
X0099732Y0113828D01*
X0099732Y0120455D01*
X0101419Y0122142D01*
X0099732Y0123828D01*
X0099732Y0130455D01*
X0101419Y0132142D01*
X0099732Y0133828D01*
X0099732Y0140455D01*
X0101419Y0142142D01*
X0099732Y0143828D01*
X0099732Y0150455D01*
X0101419Y0152142D01*
X0099732Y0153828D01*
X0099732Y0160455D01*
X0102833Y0163556D01*
X0101732Y0164656D01*
X0101732Y0167142D01*
X0107732Y0167142D01*
X0107732Y0167142D01*
X0101732Y0167142D01*
X0101732Y0169627D01*
X0104571Y0172465D01*
X0089975Y0172465D01*
X0089377Y0171867D01*
X0089377Y0167721D01*
X0089466Y0167506D01*
X0089466Y0165203D01*
X0088585Y0163075D01*
X0086956Y0161447D01*
X0084829Y0160565D01*
X0082526Y0160565D01*
X0080398Y0161447D01*
X0078770Y0163075D01*
X0077888Y0165203D01*
X0077888Y0166627D01*
X0076829Y0165568D01*
X0077179Y0165918D02*
X0077888Y0165918D01*
X0078925Y0162920D02*
X0074181Y0162920D01*
X0071182Y0159921D02*
X0099732Y0159921D01*
X0098900Y0160500D02*
X0106600Y0168200D01*
X0107732Y0167142D01*
X0107700Y0168200D01*
X0104020Y0171915D02*
X0089425Y0171915D01*
X0089377Y0168917D02*
X0101732Y0168917D01*
X0101732Y0165918D02*
X0089466Y0165918D01*
X0088429Y0162920D02*
X0102196Y0162920D01*
X0098900Y0160500D02*
X0098900Y0094500D01*
X0105500Y0087900D01*
X0107700Y0087900D01*
X0107732Y0087142D01*
X0101732Y0087142D01*
X0101732Y0084656D01*
X0102833Y0083556D01*
X0099732Y0080455D01*
X0099732Y0073828D01*
X0104419Y0069142D01*
X0111046Y0069142D01*
X0115732Y0073828D01*
X0115732Y0080455D01*
X0112632Y0083556D01*
X0113732Y0084656D01*
X0113732Y0087142D01*
X0107732Y0087142D01*
X0107732Y0087142D01*
X0101732Y0087957D02*
X0098104Y0087957D01*
X0099100Y0084958D02*
X0101732Y0084958D01*
X0101237Y0081960D02*
X0099100Y0081960D01*
X0099100Y0078961D02*
X0099732Y0078961D01*
X0099732Y0075963D02*
X0099100Y0075963D01*
X0099100Y0072964D02*
X0100596Y0072964D01*
X0099100Y0069966D02*
X0103595Y0069966D01*
X0099100Y0066967D02*
X0122214Y0066967D01*
X0122260Y0063969D02*
X0113882Y0063969D01*
X0116358Y0060970D02*
X0122306Y0060970D01*
X0122352Y0057972D02*
X0117130Y0057972D01*
X0116654Y0054973D02*
X0122399Y0054973D01*
X0122445Y0051975D02*
X0115876Y0051975D01*
X0117130Y0048976D02*
X0122491Y0048976D01*
X0122537Y0045978D02*
X0117070Y0045978D01*
X0115601Y0042979D02*
X0122583Y0042979D01*
X0122629Y0039981D02*
X0116768Y0039981D01*
X0117130Y0036982D02*
X0122675Y0036982D01*
X0122722Y0033984D02*
X0116244Y0033984D01*
X0116729Y0030985D02*
X0122768Y0030985D01*
X0122814Y0027987D02*
X0119634Y0027987D01*
X0120876Y0024988D02*
X0122860Y0024988D01*
X0122906Y0021990D02*
X0121035Y0021990D01*
X0120326Y0018991D02*
X0122952Y0018991D01*
X0122998Y0015993D02*
X0118433Y0015993D01*
X0123044Y0012994D02*
X0113523Y0012994D01*
X0108950Y0012994D02*
X0076061Y0012994D01*
X0080154Y0015993D02*
X0104039Y0015993D01*
X0102147Y0018991D02*
X0083152Y0018991D01*
X0086151Y0021990D02*
X0101437Y0021990D01*
X0101597Y0024988D02*
X0089149Y0024988D01*
X0092148Y0027987D02*
X0102839Y0027987D01*
X0100035Y0030985D02*
X0095146Y0030985D01*
X0087700Y0039981D02*
X0084728Y0039981D01*
X0082352Y0042979D02*
X0087700Y0042979D01*
X0087700Y0051975D02*
X0081362Y0051975D01*
X0084820Y0054973D02*
X0087700Y0054973D01*
X0087700Y0057972D02*
X0085656Y0057972D01*
X0085656Y0060970D02*
X0087700Y0060970D01*
X0087700Y0063969D02*
X0085656Y0063969D01*
X0084649Y0066967D02*
X0087700Y0066967D01*
X0087700Y0069966D02*
X0080365Y0069966D01*
X0077147Y0069966D02*
X0073041Y0069966D01*
X0070197Y0072964D02*
X0087700Y0072964D01*
X0087700Y0075963D02*
X0067198Y0075963D01*
X0064200Y0078961D02*
X0087700Y0078961D01*
X0083677Y0081960D02*
X0083677Y0081960D01*
X0079213Y0081960D02*
X0061201Y0081960D01*
X0058203Y0084958D02*
X0078777Y0084958D01*
X0080279Y0087957D02*
X0055204Y0087957D01*
X0052206Y0090955D02*
X0078984Y0090955D01*
X0086110Y0099951D02*
X0099732Y0099951D01*
X0099732Y0096952D02*
X0089109Y0096952D01*
X0092107Y0093954D02*
X0099732Y0093954D01*
X0102605Y0090955D02*
X0095106Y0090955D01*
X0100611Y0102949D02*
X0083700Y0102949D01*
X0083700Y0105948D02*
X0099732Y0105948D01*
X0099732Y0108946D02*
X0087956Y0108946D01*
X0090577Y0111945D02*
X0101222Y0111945D01*
X0099732Y0114943D02*
X0090577Y0114943D01*
X0089918Y0117942D02*
X0099732Y0117942D01*
X0100217Y0120940D02*
X0086920Y0120940D01*
X0080434Y0120940D02*
X0078321Y0120940D01*
X0075322Y0123939D02*
X0099732Y0123939D01*
X0099732Y0126937D02*
X0072324Y0126937D01*
X0069325Y0129936D02*
X0099732Y0129936D01*
X0100626Y0132934D02*
X0067141Y0132934D01*
X0070140Y0135933D02*
X0099732Y0135933D01*
X0099732Y0138932D02*
X0070892Y0138932D01*
X0070892Y0141930D02*
X0101207Y0141930D01*
X0099732Y0144929D02*
X0070500Y0144929D01*
X0070500Y0147927D02*
X0099732Y0147927D01*
X0100202Y0150926D02*
X0070500Y0150926D01*
X0070500Y0153924D02*
X0099732Y0153924D01*
X0099732Y0156923D02*
X0070500Y0156923D01*
X0071194Y0111945D02*
X0040882Y0111945D01*
X0052523Y0066967D02*
X0060072Y0066967D01*
X0061856Y0063969D02*
X0053530Y0063969D01*
X0053530Y0060970D02*
X0061856Y0060970D01*
X0061856Y0057972D02*
X0053530Y0057972D01*
X0052694Y0054973D02*
X0062692Y0054973D01*
X0071362Y0051975D02*
X0076150Y0051975D01*
X0073507Y0042979D02*
X0072352Y0042979D01*
X0099100Y0063969D02*
X0099378Y0063969D01*
X0111870Y0069966D02*
X0122168Y0069966D01*
X0122122Y0072964D02*
X0114869Y0072964D01*
X0115732Y0075963D02*
X0122076Y0075963D01*
X0122030Y0078961D02*
X0115732Y0078961D01*
X0114228Y0081960D02*
X0121983Y0081960D01*
X0121937Y0084958D02*
X0113732Y0084958D01*
X0113732Y0087957D02*
X0121891Y0087957D01*
X0144779Y0123047D02*
X0147103Y0125370D01*
X0148594Y0128972D01*
X0148594Y0132870D01*
X0147103Y0136472D01*
X0144346Y0139229D01*
X0140744Y0140720D01*
X0136846Y0140720D01*
X0133244Y0139229D01*
X0130921Y0136905D01*
X0130921Y0317850D01*
X0133244Y0315527D01*
X0136846Y0314035D01*
X0140744Y0314035D01*
X0144346Y0315527D01*
X0147103Y0318284D01*
X0148594Y0321885D01*
X0148594Y0325784D01*
X0147103Y0329385D01*
X0144779Y0331709D01*
X0231236Y0331709D01*
X0228913Y0329385D01*
X0227421Y0325784D01*
X0227421Y0321885D01*
X0228913Y0318284D01*
X0229179Y0318018D01*
X0223605Y0318018D01*
X0221069Y0316968D01*
X0219128Y0315027D01*
X0218078Y0312491D01*
X0218078Y0309746D01*
X0219128Y0307210D01*
X0220220Y0306118D01*
X0219128Y0305027D01*
X0218078Y0302491D01*
X0218078Y0299746D01*
X0219128Y0297210D01*
X0221069Y0295269D01*
X0221900Y0294925D01*
X0221900Y0290861D01*
X0204429Y0308332D01*
X0203538Y0308701D01*
X0204002Y0309166D01*
X0204002Y0314882D01*
X0199960Y0318924D01*
X0194244Y0318924D01*
X0190202Y0314882D01*
X0190202Y0309200D01*
X0174002Y0309200D01*
X0174002Y0314882D01*
X0169960Y0318924D01*
X0164244Y0318924D01*
X0160202Y0314882D01*
X0160202Y0312500D01*
X0151266Y0312500D01*
X0149527Y0314239D01*
X0143811Y0314239D01*
X0139769Y0310197D01*
X0139769Y0304481D01*
X0143811Y0300439D01*
X0149527Y0300439D01*
X0150189Y0301100D01*
X0161439Y0301100D01*
X0162268Y0300271D01*
X0163871Y0298668D01*
X0165966Y0297800D01*
X0173815Y0297800D01*
X0154450Y0278435D01*
X0153569Y0279316D01*
X0153569Y0280197D01*
X0149527Y0284239D01*
X0143811Y0284239D01*
X0139769Y0280197D01*
X0139769Y0274481D01*
X0143565Y0270685D01*
X0139769Y0266890D01*
X0139769Y0261173D01*
X0143811Y0257131D01*
X0149527Y0257131D01*
X0153569Y0261173D01*
X0153569Y0262345D01*
X0160815Y0255100D01*
X0147046Y0241332D01*
X0146521Y0241368D01*
X0146319Y0241300D01*
X0146107Y0241300D01*
X0145217Y0240931D01*
X0143811Y0240931D01*
X0139769Y0236890D01*
X0139769Y0235155D01*
X0134513Y0229899D01*
X0133600Y0227693D01*
X0133600Y0216507D01*
X0134513Y0214301D01*
X0140200Y0208615D01*
X0140200Y0194013D01*
X0139769Y0193582D01*
X0139769Y0187866D01*
X0143811Y0183824D01*
X0149527Y0183824D01*
X0150052Y0184349D01*
X0149300Y0182534D01*
X0149300Y0171466D01*
X0150168Y0169371D01*
X0154169Y0165370D01*
X0154169Y0163405D01*
X0156063Y0161512D01*
X0154169Y0159618D01*
X0154169Y0153405D01*
X0158563Y0149012D01*
X0164776Y0149012D01*
X0168084Y0152319D01*
X0169391Y0151012D01*
X0171669Y0151012D01*
X0171669Y0156512D01*
X0172600Y0156100D01*
X0179200Y0162700D01*
X0179200Y0171500D01*
X0192400Y0184700D01*
X0192608Y0185020D01*
X0193500Y0185800D01*
X0205600Y0197900D01*
X0205600Y0229800D01*
X0180850Y0254550D01*
X0172600Y0246300D01*
X0172600Y0213300D01*
X0162700Y0203400D01*
X0159400Y0203400D01*
X0159228Y0202535D01*
X0159228Y0202535D01*
X0159228Y0197635D01*
X0156443Y0197635D01*
X0155681Y0197756D01*
X0154947Y0197994D01*
X0154260Y0198345D01*
X0153636Y0198798D01*
X0153091Y0199343D01*
X0152637Y0199967D01*
X0152287Y0200654D01*
X0152200Y0200923D01*
X0152200Y0194952D01*
X0153569Y0193582D01*
X0153569Y0188030D01*
X0163558Y0198020D01*
X0163509Y0197994D01*
X0162776Y0197756D01*
X0162014Y0197635D01*
X0159228Y0197635D01*
X0159228Y0202535D01*
X0159228Y0202535D01*
X0166528Y0202535D01*
X0166528Y0202150D01*
X0166408Y0201388D01*
X0166169Y0200654D01*
X0166144Y0200605D01*
X0173500Y0207961D01*
X0173500Y0214434D01*
X0174368Y0216529D01*
X0175971Y0218132D01*
X0179928Y0222089D01*
X0179928Y0223908D01*
X0180979Y0226444D01*
X0182070Y0227535D01*
X0180979Y0228627D01*
X0179928Y0231163D01*
X0179928Y0233908D01*
X0180979Y0236444D01*
X0182920Y0238385D01*
X0185456Y0239435D01*
X0193001Y0239435D01*
X0195537Y0238385D01*
X0197478Y0236444D01*
X0198211Y0234674D01*
X0204087Y0228799D01*
X0205000Y0226593D01*
X0205000Y0198907D01*
X0204087Y0196701D01*
X0202399Y0195013D01*
X0196899Y0189513D01*
X0195587Y0188970D01*
X0197508Y0187050D01*
X0197508Y0186920D01*
X0202966Y0186920D01*
X0207008Y0182878D01*
X0207008Y0177162D01*
X0203103Y0173258D01*
X0215500Y0160861D01*
X0223087Y0168448D01*
X0221069Y0169284D01*
X0219128Y0171225D01*
X0218078Y0173761D01*
X0218078Y0176506D01*
X0219128Y0179042D01*
X0220220Y0180134D01*
X0219128Y0181225D01*
X0218078Y0183761D01*
X0218078Y0186506D01*
X0219128Y0189042D01*
X0221069Y0190983D01*
X0221900Y0191327D01*
X0221900Y0196834D01*
X0222768Y0198929D01*
X0223580Y0199741D01*
X0221069Y0200780D01*
X0219128Y0202721D01*
X0218078Y0205257D01*
X0218078Y0208002D01*
X0219128Y0210538D01*
X0220220Y0211630D01*
X0219128Y0212721D01*
X0218078Y0215257D01*
X0218078Y0218002D01*
X0219128Y0220538D01*
X0220800Y0222210D01*
X0220800Y0225239D01*
X0215571Y0230468D01*
X0213968Y0232071D01*
X0213100Y0234166D01*
X0213100Y0243034D01*
X0213968Y0245129D01*
X0217889Y0249050D01*
X0213968Y0252971D01*
X0213100Y0255066D01*
X0213100Y0283539D01*
X0205171Y0291468D01*
X0205043Y0291161D01*
X0202933Y0289051D01*
X0202854Y0289018D01*
X0202880Y0288992D01*
X0203389Y0288292D01*
X0203782Y0287521D01*
X0204050Y0286697D01*
X0204185Y0285842D01*
X0204185Y0285409D01*
X0195685Y0285409D01*
X0195685Y0279909D01*
X0195685Y0285409D01*
X0195685Y0285409D01*
X0187185Y0285409D01*
X0187185Y0284977D01*
X0187320Y0284122D01*
X0187588Y0283298D01*
X0187981Y0282527D01*
X0188490Y0281826D01*
X0189102Y0281214D01*
X0189802Y0280705D01*
X0190574Y0280312D01*
X0191397Y0280045D01*
X0192252Y0279909D01*
X0195685Y0279909D01*
X0199118Y0279909D01*
X0199973Y0280045D01*
X0200796Y0280312D01*
X0201568Y0280705D01*
X0202268Y0281214D01*
X0202880Y0281826D01*
X0203389Y0282527D01*
X0203782Y0283298D01*
X0204050Y0284122D01*
X0204185Y0284977D01*
X0204185Y0285409D01*
X0195685Y0285409D01*
X0195685Y0285409D01*
X0195685Y0285409D01*
X0194600Y0284800D01*
X0194600Y0269400D01*
X0194269Y0268632D01*
X0193500Y0268300D01*
X0186900Y0261700D01*
X0186900Y0260600D01*
X0185250Y0258950D01*
X0170400Y0273800D01*
X0170291Y0274780D01*
X0175191Y0274780D01*
X0175191Y0276809D01*
X0172493Y0279508D01*
X0181685Y0288700D01*
X0188277Y0288700D01*
X0187981Y0288292D01*
X0187588Y0287521D01*
X0187320Y0286697D01*
X0187185Y0285842D01*
X0187185Y0285409D01*
X0195685Y0285409D01*
X0195685Y0282860D02*
X0195685Y0282860D01*
X0202979Y0288857D02*
X0207782Y0288857D01*
X0210780Y0285859D02*
X0204182Y0285859D01*
X0203559Y0282860D02*
X0213100Y0282860D01*
X0213100Y0279862D02*
X0172847Y0279862D01*
X0175137Y0276863D02*
X0213100Y0276863D01*
X0213100Y0273865D02*
X0175191Y0273865D01*
X0175191Y0274779D02*
X0170291Y0274779D01*
X0170291Y0274779D01*
X0170291Y0269880D01*
X0168262Y0269880D01*
X0165563Y0272578D01*
X0162935Y0269950D01*
X0171206Y0261680D01*
X0173149Y0261680D01*
X0177191Y0257638D01*
X0177191Y0251921D01*
X0173149Y0247880D01*
X0170565Y0247880D01*
X0162121Y0239435D01*
X0163001Y0239435D01*
X0165537Y0238385D01*
X0167478Y0236444D01*
X0168528Y0233908D01*
X0168528Y0231163D01*
X0167478Y0228627D01*
X0166386Y0227535D01*
X0167478Y0226444D01*
X0168528Y0223908D01*
X0168528Y0221163D01*
X0167478Y0218627D01*
X0166386Y0217535D01*
X0167478Y0216444D01*
X0168528Y0213908D01*
X0168528Y0211163D01*
X0167478Y0208627D01*
X0165537Y0206686D01*
X0164719Y0206347D01*
X0164820Y0206273D01*
X0165366Y0205728D01*
X0165819Y0205104D01*
X0166169Y0204416D01*
X0166408Y0203683D01*
X0166528Y0202921D01*
X0166528Y0202535D01*
X0159228Y0202535D01*
X0159228Y0201900D02*
X0159228Y0201900D01*
X0159228Y0198902D02*
X0159228Y0198902D01*
X0161442Y0195903D02*
X0152200Y0195903D01*
X0152200Y0198902D02*
X0153532Y0198902D01*
X0153569Y0192905D02*
X0158444Y0192905D01*
X0155445Y0189906D02*
X0153569Y0189906D01*
X0149870Y0183909D02*
X0149612Y0183909D01*
X0149300Y0180911D02*
X0130921Y0180911D01*
X0130921Y0183909D02*
X0143726Y0183909D01*
X0140728Y0186908D02*
X0130921Y0186908D01*
X0130921Y0189906D02*
X0139769Y0189906D01*
X0139769Y0192905D02*
X0130921Y0192905D01*
X0130921Y0195903D02*
X0140200Y0195903D01*
X0140200Y0198902D02*
X0130921Y0198902D01*
X0130921Y0201900D02*
X0140200Y0201900D01*
X0140200Y0204899D02*
X0130921Y0204899D01*
X0130921Y0207897D02*
X0140200Y0207897D01*
X0137919Y0210896D02*
X0130921Y0210896D01*
X0130921Y0213894D02*
X0134920Y0213894D01*
X0133600Y0216893D02*
X0130921Y0216893D01*
X0130921Y0219891D02*
X0133600Y0219891D01*
X0133600Y0222890D02*
X0130921Y0222890D01*
X0130921Y0225888D02*
X0133600Y0225888D01*
X0134094Y0228887D02*
X0130921Y0228887D01*
X0130921Y0231885D02*
X0136500Y0231885D01*
X0139499Y0234884D02*
X0130921Y0234884D01*
X0130921Y0237882D02*
X0140762Y0237882D01*
X0143761Y0240881D02*
X0130921Y0240881D01*
X0130921Y0243879D02*
X0149594Y0243879D01*
X0152593Y0246878D02*
X0130921Y0246878D01*
X0130921Y0249876D02*
X0155591Y0249876D01*
X0158590Y0252875D02*
X0130921Y0252875D01*
X0130921Y0255873D02*
X0160041Y0255873D01*
X0157043Y0258872D02*
X0151268Y0258872D01*
X0153569Y0261870D02*
X0154044Y0261870D01*
X0154450Y0269950D02*
X0179200Y0294700D01*
X0194600Y0294700D01*
X0195685Y0295409D01*
X0187188Y0285859D02*
X0178844Y0285859D01*
X0175845Y0282860D02*
X0187811Y0282860D01*
X0192239Y0273532D02*
X0189369Y0270662D01*
X0189369Y0268632D01*
X0189369Y0266602D01*
X0190925Y0265046D01*
X0187369Y0261490D01*
X0187369Y0255774D01*
X0191411Y0251732D01*
X0197127Y0251732D01*
X0201169Y0255774D01*
X0201169Y0256732D01*
X0204627Y0256732D01*
X0208669Y0260774D01*
X0208669Y0266490D01*
X0204627Y0270532D01*
X0199169Y0270532D01*
X0199169Y0270662D01*
X0196299Y0273532D01*
X0194269Y0273532D01*
X0194269Y0268632D01*
X0194269Y0268632D01*
X0189369Y0268632D01*
X0194269Y0268632D01*
X0194269Y0268632D01*
X0194269Y0273532D01*
X0192239Y0273532D01*
X0194269Y0270866D02*
X0194269Y0270866D01*
X0198965Y0270866D02*
X0213100Y0270866D01*
X0213100Y0267868D02*
X0207291Y0267868D01*
X0208669Y0264869D02*
X0213100Y0264869D01*
X0213100Y0261870D02*
X0208669Y0261870D01*
X0206767Y0258872D02*
X0213100Y0258872D01*
X0213100Y0255873D02*
X0201169Y0255873D01*
X0198270Y0252875D02*
X0214064Y0252875D01*
X0217063Y0249876D02*
X0175146Y0249876D01*
X0177191Y0252875D02*
X0190268Y0252875D01*
X0187369Y0255873D02*
X0177191Y0255873D01*
X0175957Y0258872D02*
X0187369Y0258872D01*
X0185250Y0258950D02*
X0180850Y0254550D01*
X0187749Y0261870D02*
X0171015Y0261870D01*
X0168016Y0264869D02*
X0190748Y0264869D01*
X0189369Y0267868D02*
X0165018Y0267868D01*
X0163851Y0270866D02*
X0167275Y0270866D01*
X0170291Y0270866D02*
X0170291Y0270866D01*
X0170291Y0269880D02*
X0172321Y0269880D01*
X0175191Y0272750D01*
X0175191Y0274779D01*
X0173307Y0270866D02*
X0189573Y0270866D01*
X0170291Y0269880D02*
X0170291Y0274779D01*
X0170291Y0274780D01*
X0170291Y0273865D02*
X0170291Y0273865D01*
X0161873Y0285859D02*
X0130921Y0285859D01*
X0130921Y0288857D02*
X0164872Y0288857D01*
X0167870Y0291856D02*
X0130921Y0291856D01*
X0130921Y0294854D02*
X0170869Y0294854D01*
X0165839Y0297853D02*
X0130921Y0297853D01*
X0130921Y0300851D02*
X0143399Y0300851D01*
X0140400Y0303850D02*
X0130921Y0303850D01*
X0130921Y0306848D02*
X0139769Y0306848D01*
X0139769Y0309847D02*
X0130921Y0309847D01*
X0130921Y0312845D02*
X0142418Y0312845D01*
X0144662Y0315844D02*
X0161164Y0315844D01*
X0160202Y0312845D02*
X0150921Y0312845D01*
X0147334Y0318842D02*
X0164163Y0318842D01*
X0170042Y0318842D02*
X0194163Y0318842D01*
X0191164Y0315844D02*
X0173040Y0315844D01*
X0174002Y0312845D02*
X0190202Y0312845D01*
X0190202Y0309847D02*
X0174002Y0309847D01*
X0161688Y0300851D02*
X0149940Y0300851D01*
X0150906Y0282860D02*
X0158875Y0282860D01*
X0155876Y0279862D02*
X0153569Y0279862D01*
X0147300Y0277100D02*
X0154450Y0269950D01*
X0169300Y0255100D01*
X0170291Y0254780D01*
X0168200Y0254000D01*
X0149500Y0235300D01*
X0147300Y0235300D01*
X0146669Y0234031D01*
X0146200Y0233100D01*
X0139600Y0226500D01*
X0139600Y0217700D01*
X0146200Y0211100D01*
X0146200Y0191300D01*
X0146669Y0190724D01*
X0149300Y0177912D02*
X0130921Y0177912D01*
X0130921Y0174914D02*
X0149300Y0174914D01*
X0149300Y0171915D02*
X0130921Y0171915D01*
X0130921Y0168917D02*
X0150622Y0168917D01*
X0153621Y0165918D02*
X0130921Y0165918D01*
X0130921Y0162920D02*
X0154655Y0162920D01*
X0154472Y0159921D02*
X0130921Y0159921D01*
X0130921Y0156923D02*
X0154169Y0156923D01*
X0154169Y0153924D02*
X0130921Y0153924D01*
X0130921Y0150926D02*
X0156649Y0150926D01*
X0166690Y0150926D02*
X0188983Y0150926D01*
X0189730Y0150179D02*
X0186174Y0146622D01*
X0186174Y0140906D01*
X0190216Y0136864D01*
X0195932Y0136864D01*
X0199974Y0140906D01*
X0199974Y0141864D01*
X0203432Y0141864D01*
X0207474Y0145906D01*
X0207474Y0151622D01*
X0203432Y0155664D01*
X0197974Y0155664D01*
X0197974Y0155794D01*
X0195103Y0158664D01*
X0193074Y0158664D01*
X0193074Y0153764D01*
X0193074Y0153764D01*
X0193073Y0153764D02*
X0188174Y0153764D01*
X0188174Y0151735D01*
X0189730Y0150179D01*
X0187478Y0147927D02*
X0130921Y0147927D01*
X0130921Y0144929D02*
X0186174Y0144929D01*
X0186174Y0141930D02*
X0130921Y0141930D01*
X0130921Y0138932D02*
X0132947Y0138932D01*
X0144643Y0138932D02*
X0188148Y0138932D01*
X0197999Y0138932D02*
X0219926Y0138932D01*
X0219128Y0139729D02*
X0221069Y0137788D01*
X0223605Y0136738D01*
X0229179Y0136738D01*
X0228913Y0136472D01*
X0227421Y0132870D01*
X0227421Y0128972D01*
X0228913Y0125370D01*
X0231236Y0123047D01*
X0144779Y0123047D01*
X0145671Y0123939D02*
X0230345Y0123939D01*
X0228264Y0126937D02*
X0147752Y0126937D01*
X0148594Y0129936D02*
X0227421Y0129936D01*
X0227448Y0132934D02*
X0148568Y0132934D01*
X0147326Y0135933D02*
X0228690Y0135933D01*
X0219128Y0139729D02*
X0218152Y0142087D01*
X0212271Y0147968D01*
X0210668Y0149571D01*
X0192119Y0168120D01*
X0189750Y0168120D01*
X0185708Y0172162D01*
X0185708Y0177878D01*
X0189264Y0181434D01*
X0188492Y0182207D01*
X0178199Y0171913D01*
X0177309Y0171545D01*
X0177276Y0171512D01*
X0179169Y0169618D01*
X0179169Y0163405D01*
X0175862Y0160098D01*
X0177169Y0158790D01*
X0177169Y0156512D01*
X0171669Y0156512D01*
X0171669Y0156512D01*
X0171669Y0156512D01*
X0171669Y0151012D01*
X0173947Y0151012D01*
X0177169Y0154234D01*
X0177169Y0156512D01*
X0171669Y0156512D01*
X0171669Y0153924D02*
X0171669Y0153924D01*
X0176860Y0153924D02*
X0188174Y0153924D01*
X0188174Y0153764D02*
X0193073Y0153764D01*
X0193073Y0153764D01*
X0193074Y0153764D02*
X0193074Y0158664D01*
X0191044Y0158664D01*
X0188174Y0155794D01*
X0188174Y0153764D01*
X0189302Y0156923D02*
X0177169Y0156923D01*
X0176038Y0159921D02*
X0200318Y0159921D01*
X0203316Y0156923D02*
X0196845Y0156923D01*
X0193074Y0156923D02*
X0193074Y0156923D01*
X0193074Y0153924D02*
X0193074Y0153924D01*
X0197319Y0162920D02*
X0178684Y0162920D01*
X0179169Y0165918D02*
X0194321Y0165918D01*
X0188953Y0168917D02*
X0179169Y0168917D01*
X0178200Y0171915D02*
X0185955Y0171915D01*
X0185708Y0174914D02*
X0181199Y0174914D01*
X0184197Y0177912D02*
X0185742Y0177912D01*
X0187196Y0180911D02*
X0188740Y0180911D01*
X0197291Y0189906D02*
X0219992Y0189906D01*
X0218244Y0186908D02*
X0202978Y0186908D01*
X0205977Y0183909D02*
X0218078Y0183909D01*
X0219443Y0180911D02*
X0207008Y0180911D01*
X0207008Y0177912D02*
X0218660Y0177912D01*
X0218078Y0174914D02*
X0204759Y0174914D01*
X0204446Y0171915D02*
X0218843Y0171915D01*
X0221957Y0168917D02*
X0207444Y0168917D01*
X0210443Y0165918D02*
X0220557Y0165918D01*
X0217559Y0162920D02*
X0213441Y0162920D01*
X0206315Y0153924D02*
X0205172Y0153924D01*
X0207474Y0150926D02*
X0209313Y0150926D01*
X0207474Y0147927D02*
X0212312Y0147927D01*
X0215310Y0144929D02*
X0206496Y0144929D01*
X0203497Y0141930D02*
X0218217Y0141930D01*
X0221900Y0192905D02*
X0200290Y0192905D01*
X0203289Y0195903D02*
X0221900Y0195903D01*
X0222757Y0198902D02*
X0204998Y0198902D01*
X0205000Y0201900D02*
X0219950Y0201900D01*
X0218227Y0204899D02*
X0205000Y0204899D01*
X0205000Y0207897D02*
X0218078Y0207897D01*
X0219486Y0210896D02*
X0205000Y0210896D01*
X0205000Y0213894D02*
X0218643Y0213894D01*
X0218078Y0216893D02*
X0205000Y0216893D01*
X0205000Y0219891D02*
X0218860Y0219891D01*
X0220800Y0222890D02*
X0205000Y0222890D01*
X0205000Y0225888D02*
X0220151Y0225888D01*
X0217152Y0228887D02*
X0203998Y0228887D01*
X0201000Y0231885D02*
X0214154Y0231885D01*
X0213100Y0234884D02*
X0198124Y0234884D01*
X0196039Y0237882D02*
X0213100Y0237882D01*
X0213100Y0240881D02*
X0163566Y0240881D01*
X0166039Y0237882D02*
X0182417Y0237882D01*
X0180333Y0234884D02*
X0168124Y0234884D01*
X0168528Y0231885D02*
X0179928Y0231885D01*
X0180871Y0228887D02*
X0167586Y0228887D01*
X0167708Y0225888D02*
X0180749Y0225888D01*
X0179928Y0222890D02*
X0168528Y0222890D01*
X0168002Y0219891D02*
X0177730Y0219891D01*
X0174732Y0216893D02*
X0167029Y0216893D01*
X0168528Y0213894D02*
X0173500Y0213894D01*
X0173500Y0210896D02*
X0168418Y0210896D01*
X0166748Y0207897D02*
X0173436Y0207897D01*
X0170438Y0204899D02*
X0165924Y0204899D01*
X0166489Y0201900D02*
X0167439Y0201900D01*
X0172600Y0177000D02*
X0171669Y0176512D01*
X0172600Y0177000D02*
X0174800Y0177000D01*
X0192400Y0194600D01*
X0193500Y0194600D01*
X0199000Y0200100D01*
X0199000Y0225400D01*
X0192400Y0232000D01*
X0190200Y0232000D01*
X0189228Y0232535D01*
X0169563Y0246878D02*
X0215717Y0246878D01*
X0213450Y0243879D02*
X0166565Y0243879D01*
X0143384Y0270866D02*
X0130921Y0270866D01*
X0130921Y0267868D02*
X0140747Y0267868D01*
X0139769Y0264869D02*
X0130921Y0264869D01*
X0130921Y0261870D02*
X0139769Y0261870D01*
X0142071Y0258872D02*
X0130921Y0258872D01*
X0130921Y0273865D02*
X0140385Y0273865D01*
X0139769Y0276863D02*
X0130921Y0276863D01*
X0130921Y0279862D02*
X0139769Y0279862D01*
X0142433Y0282860D02*
X0130921Y0282860D01*
X0146669Y0277339D02*
X0147300Y0277100D01*
X0132928Y0315844D02*
X0130921Y0315844D01*
X0145652Y0330836D02*
X0230364Y0330836D01*
X0228272Y0327838D02*
X0147744Y0327838D01*
X0148594Y0324839D02*
X0227421Y0324839D01*
X0227440Y0321841D02*
X0148576Y0321841D01*
X0200042Y0318842D02*
X0228682Y0318842D01*
X0219945Y0315844D02*
X0203040Y0315844D01*
X0204002Y0312845D02*
X0218225Y0312845D01*
X0218078Y0309847D02*
X0204002Y0309847D01*
X0205913Y0306848D02*
X0219490Y0306848D01*
X0218641Y0303850D02*
X0208911Y0303850D01*
X0211910Y0300851D02*
X0218078Y0300851D01*
X0218862Y0297853D02*
X0214908Y0297853D01*
X0217907Y0294854D02*
X0221900Y0294854D01*
X0221900Y0291856D02*
X0220905Y0291856D01*
X0120485Y0179353D02*
X0120587Y0172733D01*
X0120218Y0173102D01*
X0117732Y0173102D01*
X0115247Y0173102D01*
X0112752Y0170607D01*
X0110894Y0172465D01*
X0112370Y0172465D01*
X0114465Y0173333D01*
X0116068Y0174937D01*
X0120485Y0179353D01*
X0120507Y0177912D02*
X0119044Y0177912D01*
X0120553Y0174914D02*
X0116046Y0174914D01*
X0117732Y0173102D02*
X0117732Y0167102D01*
X0117732Y0167102D01*
X0117732Y0173102D01*
X0117732Y0171915D02*
X0117732Y0171915D01*
X0117732Y0168917D02*
X0117732Y0168917D01*
X0114060Y0171915D02*
X0111444Y0171915D01*
X0079849Y0213894D02*
X0079300Y0213894D01*
X0079300Y0216893D02*
X0082848Y0216893D01*
X0085846Y0219891D02*
X0079300Y0219891D01*
X0079300Y0222890D02*
X0088845Y0222890D01*
X0091843Y0225888D02*
X0079300Y0225888D01*
X0008472Y0063969D02*
X0004937Y0063969D01*
X0004937Y0060970D02*
X0006988Y0060970D01*
X0006917Y0057972D02*
X0004937Y0057972D01*
X0004937Y0054973D02*
X0008145Y0054973D01*
X0007404Y0051975D02*
X0004937Y0051975D01*
X0004937Y0048976D02*
X0006917Y0048976D01*
X0007678Y0045978D02*
X0004937Y0045978D01*
X0004937Y0042979D02*
X0007820Y0042979D01*
X0006917Y0039981D02*
X0004937Y0039981D01*
X0004937Y0036982D02*
X0007262Y0036982D01*
X0009134Y0033984D02*
X0004937Y0033984D01*
X0004937Y0030985D02*
X0007319Y0030985D01*
X0005614Y0015993D02*
X0004937Y0015993D01*
X0004937Y0012994D02*
X0010525Y0012994D01*
X0015098Y0012994D02*
X0035939Y0012994D01*
X0031846Y0015993D02*
X0020008Y0015993D01*
X0021901Y0018991D02*
X0028848Y0018991D01*
X0025849Y0021990D02*
X0022610Y0021990D01*
X0022451Y0024988D02*
X0022851Y0024988D01*
D20*
X0017500Y0038400D02*
X0017417Y0039307D01*
X0017500Y0038400D02*
X0037300Y0018600D01*
X0074700Y0018600D01*
X0093400Y0037300D01*
X0093400Y0084600D01*
X0078000Y0100000D01*
X0078000Y0113200D01*
X0058200Y0133000D01*
X0058200Y0172600D01*
X0060400Y0174800D01*
X0060400Y0189100D01*
X0060803Y0189976D01*
X0060400Y0190200D01*
X0060400Y0201200D01*
X0054900Y0206700D01*
X0054900Y0234200D01*
X0053967Y0234330D01*
X0066039Y0237457D02*
X0065900Y0238600D01*
X0071400Y0244100D01*
X0071400Y0254000D01*
X0072366Y0254780D01*
X0066039Y0237457D02*
X0067000Y0236400D01*
X0073600Y0229800D01*
X0073600Y0170400D01*
X0064800Y0161600D01*
X0064800Y0139600D01*
X0063992Y0139543D01*
X0083677Y0166354D02*
X0083677Y0174228D01*
X0087614Y0178165D01*
X0111236Y0178165D01*
X0119110Y0186039D01*
X0119110Y0229346D01*
X0099425Y0249031D01*
X0099425Y0260843D01*
X0095488Y0268717D01*
X0052181Y0268717D01*
X0044307Y0260843D01*
X0044346Y0212850D01*
X0025200Y0182500D02*
X0024346Y0182850D01*
X0025200Y0182500D02*
X0025200Y0124200D01*
X0018600Y0117600D01*
X0017732Y0117142D01*
X0018600Y0116500D01*
X0068100Y0067000D01*
X0068100Y0061500D01*
X0068756Y0060764D01*
X0067929Y0033795D02*
X0067000Y0032900D01*
X0067000Y0029600D01*
X0060400Y0023000D01*
X0046100Y0023000D01*
X0038400Y0030700D01*
X0038400Y0032900D01*
X0037929Y0033795D01*
X0047200Y0034000D02*
X0047929Y0033795D01*
X0047200Y0034000D02*
X0047200Y0037300D01*
X0025200Y0059300D01*
X0017500Y0059300D01*
X0017417Y0059307D01*
X0093400Y0037300D02*
X0106600Y0037300D01*
X0106630Y0037614D01*
X0117732Y0127102D02*
X0118700Y0127500D01*
X0161600Y0166000D02*
X0155000Y0172600D01*
X0155000Y0181400D01*
X0179200Y0205600D01*
X0179200Y0213300D01*
X0184700Y0218800D01*
X0185800Y0218800D01*
X0189100Y0222100D01*
X0189228Y0222535D01*
X0218800Y0235300D02*
X0218800Y0241900D01*
X0225400Y0248500D01*
X0227378Y0248126D01*
X0226500Y0248500D01*
X0218800Y0256200D01*
X0218800Y0285900D01*
X0201200Y0303500D01*
X0167100Y0303500D01*
X0163800Y0306800D01*
X0147300Y0306800D01*
X0146669Y0307339D01*
X0111236Y0225409D02*
X0111236Y0224661D01*
X0111236Y0225409D02*
X0107299Y0221472D01*
X0095488Y0221472D01*
X0079740Y0205724D01*
X0079740Y0182102D01*
X0161669Y0166512D02*
X0161600Y0166000D01*
X0192608Y0175020D02*
X0193500Y0174800D01*
X0215500Y0152800D01*
X0240800Y0178100D01*
X0240800Y0277100D01*
X0227600Y0290300D01*
X0227600Y0300200D01*
X0227378Y0301118D01*
X0227600Y0310100D02*
X0227378Y0311118D01*
X0227600Y0310100D02*
X0229800Y0310100D01*
X0245200Y0294700D01*
X0245200Y0171500D01*
X0227600Y0153900D01*
X0227378Y0153638D01*
X0226500Y0144000D02*
X0224300Y0144000D01*
X0215500Y0152800D01*
X0226500Y0144000D02*
X0227378Y0143638D01*
X0227378Y0185134D02*
X0227600Y0185800D01*
X0227600Y0195700D01*
X0236400Y0204500D01*
X0236400Y0271600D01*
X0227600Y0280400D01*
X0227378Y0279622D01*
X0218800Y0235300D02*
X0226500Y0227600D01*
X0226500Y0217700D01*
X0227378Y0216630D01*
D21*
X0083677Y0166354D03*
X0079740Y0182102D03*
X0063992Y0217535D03*
X0079740Y0229346D03*
M02*
