%
M48
M72
T01C0.0138
T02C0.0320
T03C0.0360
T04C0.0400
T05C0.0440
T06C0.1260
%
T01
X8368Y16635
X7974Y18210
X6399Y21754
X7974Y22935
T02
X6604Y23746
X6604Y20746
X6080Y18998
X4435Y18285
X3435Y18285
X2435Y18285
X1435Y18285
X1435Y21285
X2435Y21285
X3435Y21285
X4435Y21285
X6399Y16954
X6399Y13954
X6006Y12124
X6006Y10124
X8368Y11443
X8368Y8443
X7876Y6076
X6876Y6076
X4663Y6076
X3663Y6076
X3643Y8443
X3643Y11443
X3643Y13273
X3643Y15273
X9080Y18998
X9383Y20761
X11124Y19466
X11124Y22466
X9383Y23761
X14667Y23403
X14667Y22072
X15923Y22254
X15923Y23254
X15923Y21254
X15923Y20254
X14667Y19072
X18923Y20254
X18923Y21254
X18923Y22254
X18923Y23254
X19427Y25863
X20177Y26363
X19427Y26863
X17029Y27478
X17029Y25478
X14667Y26403
X14667Y27734
X14667Y30734
X16710Y31202
X19710Y31202
X22738Y31112
X22738Y30112
X22738Y27962
X22738Y26962
X22738Y24813
X22738Y23813
X22738Y21663
X22738Y20663
X22738Y18513
X22738Y17513
X22738Y15364
X22738Y14364
X20057Y14876
X19307Y14376
X19307Y15376
X19261Y17502
X20011Y18002
X19261Y18502
T03
X8171Y25478
X7237Y25478
X6349Y25478
X5415Y25478
T04
X1773Y16714
X773Y16710
X773Y15710
X773Y14710
X773Y13710
X773Y12710
X773Y11710
X773Y10710
X773Y9710
X1773Y9714
X1773Y8714
X1773Y7714
X1742Y5931
X1742Y4931
X1742Y3931
X3793Y3380
X4793Y3380
X5793Y3380
X6793Y3380
X7793Y3380
X10663Y3761
X10663Y4761
X10663Y5761
X10773Y7714
X10773Y8714
X10773Y9714
X10773Y10714
X10773Y11714
X10773Y12714
X10773Y13714
X10773Y14714
X10773Y15714
X10773Y16714
X11773Y16710
X11773Y15710
X11773Y14710
X11773Y13710
X11773Y12710
X11773Y11710
X11773Y10710
X11773Y9710
X16167Y15651
X16167Y16651
X16167Y17651
X17167Y17651
X17167Y16651
X17167Y15651
X19569Y28541
X19569Y29541
X1773Y15714
X1773Y14714
X1773Y13714
X1773Y12714
X1773Y11714
X1773Y10714
T05
X1397Y23433
X5397Y23433
T06
X1281Y2265
X11124Y2265
X13880Y13092
X11124Y25887
X13880Y32383
X23722Y32383
X23722Y13092
X1281Y25887
M30
