G75*
%MOIN*%
%OFA0B0*%
%FSLAX25Y25*%
%IPPOS*%
%LPD*%
%AMOC8*
5,1,8,0,0,1.08239X$1,22.5*
%
%ADD10C,0.00000*%
%ADD11C,0.03937*%
D10*
X0001000Y0001000D02*
X0001000Y0335646D01*
X0252969Y0335646D01*
X0252969Y0001000D01*
X0001000Y0001000D01*
X0006512Y0022654D02*
X0006514Y0022812D01*
X0006520Y0022970D01*
X0006530Y0023128D01*
X0006544Y0023286D01*
X0006562Y0023443D01*
X0006583Y0023600D01*
X0006609Y0023756D01*
X0006639Y0023912D01*
X0006672Y0024067D01*
X0006710Y0024220D01*
X0006751Y0024373D01*
X0006796Y0024525D01*
X0006845Y0024676D01*
X0006898Y0024825D01*
X0006954Y0024973D01*
X0007014Y0025119D01*
X0007078Y0025264D01*
X0007146Y0025407D01*
X0007217Y0025549D01*
X0007291Y0025689D01*
X0007369Y0025826D01*
X0007451Y0025962D01*
X0007535Y0026096D01*
X0007624Y0026227D01*
X0007715Y0026356D01*
X0007810Y0026483D01*
X0007907Y0026608D01*
X0008008Y0026730D01*
X0008112Y0026849D01*
X0008219Y0026966D01*
X0008329Y0027080D01*
X0008442Y0027191D01*
X0008557Y0027300D01*
X0008675Y0027405D01*
X0008796Y0027507D01*
X0008919Y0027607D01*
X0009045Y0027703D01*
X0009173Y0027796D01*
X0009303Y0027886D01*
X0009436Y0027972D01*
X0009571Y0028056D01*
X0009707Y0028135D01*
X0009846Y0028212D01*
X0009987Y0028284D01*
X0010129Y0028354D01*
X0010273Y0028419D01*
X0010419Y0028481D01*
X0010566Y0028539D01*
X0010715Y0028594D01*
X0010865Y0028645D01*
X0011016Y0028692D01*
X0011168Y0028735D01*
X0011321Y0028774D01*
X0011476Y0028810D01*
X0011631Y0028841D01*
X0011787Y0028869D01*
X0011943Y0028893D01*
X0012100Y0028913D01*
X0012258Y0028929D01*
X0012415Y0028941D01*
X0012574Y0028949D01*
X0012732Y0028953D01*
X0012890Y0028953D01*
X0013048Y0028949D01*
X0013207Y0028941D01*
X0013364Y0028929D01*
X0013522Y0028913D01*
X0013679Y0028893D01*
X0013835Y0028869D01*
X0013991Y0028841D01*
X0014146Y0028810D01*
X0014301Y0028774D01*
X0014454Y0028735D01*
X0014606Y0028692D01*
X0014757Y0028645D01*
X0014907Y0028594D01*
X0015056Y0028539D01*
X0015203Y0028481D01*
X0015349Y0028419D01*
X0015493Y0028354D01*
X0015635Y0028284D01*
X0015776Y0028212D01*
X0015915Y0028135D01*
X0016051Y0028056D01*
X0016186Y0027972D01*
X0016319Y0027886D01*
X0016449Y0027796D01*
X0016577Y0027703D01*
X0016703Y0027607D01*
X0016826Y0027507D01*
X0016947Y0027405D01*
X0017065Y0027300D01*
X0017180Y0027191D01*
X0017293Y0027080D01*
X0017403Y0026966D01*
X0017510Y0026849D01*
X0017614Y0026730D01*
X0017715Y0026608D01*
X0017812Y0026483D01*
X0017907Y0026356D01*
X0017998Y0026227D01*
X0018087Y0026096D01*
X0018171Y0025962D01*
X0018253Y0025826D01*
X0018331Y0025689D01*
X0018405Y0025549D01*
X0018476Y0025407D01*
X0018544Y0025264D01*
X0018608Y0025119D01*
X0018668Y0024973D01*
X0018724Y0024825D01*
X0018777Y0024676D01*
X0018826Y0024525D01*
X0018871Y0024373D01*
X0018912Y0024220D01*
X0018950Y0024067D01*
X0018983Y0023912D01*
X0019013Y0023756D01*
X0019039Y0023600D01*
X0019060Y0023443D01*
X0019078Y0023286D01*
X0019092Y0023128D01*
X0019102Y0022970D01*
X0019108Y0022812D01*
X0019110Y0022654D01*
X0019108Y0022496D01*
X0019102Y0022338D01*
X0019092Y0022180D01*
X0019078Y0022022D01*
X0019060Y0021865D01*
X0019039Y0021708D01*
X0019013Y0021552D01*
X0018983Y0021396D01*
X0018950Y0021241D01*
X0018912Y0021088D01*
X0018871Y0020935D01*
X0018826Y0020783D01*
X0018777Y0020632D01*
X0018724Y0020483D01*
X0018668Y0020335D01*
X0018608Y0020189D01*
X0018544Y0020044D01*
X0018476Y0019901D01*
X0018405Y0019759D01*
X0018331Y0019619D01*
X0018253Y0019482D01*
X0018171Y0019346D01*
X0018087Y0019212D01*
X0017998Y0019081D01*
X0017907Y0018952D01*
X0017812Y0018825D01*
X0017715Y0018700D01*
X0017614Y0018578D01*
X0017510Y0018459D01*
X0017403Y0018342D01*
X0017293Y0018228D01*
X0017180Y0018117D01*
X0017065Y0018008D01*
X0016947Y0017903D01*
X0016826Y0017801D01*
X0016703Y0017701D01*
X0016577Y0017605D01*
X0016449Y0017512D01*
X0016319Y0017422D01*
X0016186Y0017336D01*
X0016051Y0017252D01*
X0015915Y0017173D01*
X0015776Y0017096D01*
X0015635Y0017024D01*
X0015493Y0016954D01*
X0015349Y0016889D01*
X0015203Y0016827D01*
X0015056Y0016769D01*
X0014907Y0016714D01*
X0014757Y0016663D01*
X0014606Y0016616D01*
X0014454Y0016573D01*
X0014301Y0016534D01*
X0014146Y0016498D01*
X0013991Y0016467D01*
X0013835Y0016439D01*
X0013679Y0016415D01*
X0013522Y0016395D01*
X0013364Y0016379D01*
X0013207Y0016367D01*
X0013048Y0016359D01*
X0012890Y0016355D01*
X0012732Y0016355D01*
X0012574Y0016359D01*
X0012415Y0016367D01*
X0012258Y0016379D01*
X0012100Y0016395D01*
X0011943Y0016415D01*
X0011787Y0016439D01*
X0011631Y0016467D01*
X0011476Y0016498D01*
X0011321Y0016534D01*
X0011168Y0016573D01*
X0011016Y0016616D01*
X0010865Y0016663D01*
X0010715Y0016714D01*
X0010566Y0016769D01*
X0010419Y0016827D01*
X0010273Y0016889D01*
X0010129Y0016954D01*
X0009987Y0017024D01*
X0009846Y0017096D01*
X0009707Y0017173D01*
X0009571Y0017252D01*
X0009436Y0017336D01*
X0009303Y0017422D01*
X0009173Y0017512D01*
X0009045Y0017605D01*
X0008919Y0017701D01*
X0008796Y0017801D01*
X0008675Y0017903D01*
X0008557Y0018008D01*
X0008442Y0018117D01*
X0008329Y0018228D01*
X0008219Y0018342D01*
X0008112Y0018459D01*
X0008008Y0018578D01*
X0007907Y0018700D01*
X0007810Y0018825D01*
X0007715Y0018952D01*
X0007624Y0019081D01*
X0007535Y0019212D01*
X0007451Y0019346D01*
X0007369Y0019482D01*
X0007291Y0019619D01*
X0007217Y0019759D01*
X0007146Y0019901D01*
X0007078Y0020044D01*
X0007014Y0020189D01*
X0006954Y0020335D01*
X0006898Y0020483D01*
X0006845Y0020632D01*
X0006796Y0020783D01*
X0006751Y0020935D01*
X0006710Y0021088D01*
X0006672Y0021241D01*
X0006639Y0021396D01*
X0006609Y0021552D01*
X0006583Y0021708D01*
X0006562Y0021865D01*
X0006544Y0022022D01*
X0006530Y0022180D01*
X0006520Y0022338D01*
X0006514Y0022496D01*
X0006512Y0022654D01*
X0104937Y0022654D02*
X0104939Y0022812D01*
X0104945Y0022970D01*
X0104955Y0023128D01*
X0104969Y0023286D01*
X0104987Y0023443D01*
X0105008Y0023600D01*
X0105034Y0023756D01*
X0105064Y0023912D01*
X0105097Y0024067D01*
X0105135Y0024220D01*
X0105176Y0024373D01*
X0105221Y0024525D01*
X0105270Y0024676D01*
X0105323Y0024825D01*
X0105379Y0024973D01*
X0105439Y0025119D01*
X0105503Y0025264D01*
X0105571Y0025407D01*
X0105642Y0025549D01*
X0105716Y0025689D01*
X0105794Y0025826D01*
X0105876Y0025962D01*
X0105960Y0026096D01*
X0106049Y0026227D01*
X0106140Y0026356D01*
X0106235Y0026483D01*
X0106332Y0026608D01*
X0106433Y0026730D01*
X0106537Y0026849D01*
X0106644Y0026966D01*
X0106754Y0027080D01*
X0106867Y0027191D01*
X0106982Y0027300D01*
X0107100Y0027405D01*
X0107221Y0027507D01*
X0107344Y0027607D01*
X0107470Y0027703D01*
X0107598Y0027796D01*
X0107728Y0027886D01*
X0107861Y0027972D01*
X0107996Y0028056D01*
X0108132Y0028135D01*
X0108271Y0028212D01*
X0108412Y0028284D01*
X0108554Y0028354D01*
X0108698Y0028419D01*
X0108844Y0028481D01*
X0108991Y0028539D01*
X0109140Y0028594D01*
X0109290Y0028645D01*
X0109441Y0028692D01*
X0109593Y0028735D01*
X0109746Y0028774D01*
X0109901Y0028810D01*
X0110056Y0028841D01*
X0110212Y0028869D01*
X0110368Y0028893D01*
X0110525Y0028913D01*
X0110683Y0028929D01*
X0110840Y0028941D01*
X0110999Y0028949D01*
X0111157Y0028953D01*
X0111315Y0028953D01*
X0111473Y0028949D01*
X0111632Y0028941D01*
X0111789Y0028929D01*
X0111947Y0028913D01*
X0112104Y0028893D01*
X0112260Y0028869D01*
X0112416Y0028841D01*
X0112571Y0028810D01*
X0112726Y0028774D01*
X0112879Y0028735D01*
X0113031Y0028692D01*
X0113182Y0028645D01*
X0113332Y0028594D01*
X0113481Y0028539D01*
X0113628Y0028481D01*
X0113774Y0028419D01*
X0113918Y0028354D01*
X0114060Y0028284D01*
X0114201Y0028212D01*
X0114340Y0028135D01*
X0114476Y0028056D01*
X0114611Y0027972D01*
X0114744Y0027886D01*
X0114874Y0027796D01*
X0115002Y0027703D01*
X0115128Y0027607D01*
X0115251Y0027507D01*
X0115372Y0027405D01*
X0115490Y0027300D01*
X0115605Y0027191D01*
X0115718Y0027080D01*
X0115828Y0026966D01*
X0115935Y0026849D01*
X0116039Y0026730D01*
X0116140Y0026608D01*
X0116237Y0026483D01*
X0116332Y0026356D01*
X0116423Y0026227D01*
X0116512Y0026096D01*
X0116596Y0025962D01*
X0116678Y0025826D01*
X0116756Y0025689D01*
X0116830Y0025549D01*
X0116901Y0025407D01*
X0116969Y0025264D01*
X0117033Y0025119D01*
X0117093Y0024973D01*
X0117149Y0024825D01*
X0117202Y0024676D01*
X0117251Y0024525D01*
X0117296Y0024373D01*
X0117337Y0024220D01*
X0117375Y0024067D01*
X0117408Y0023912D01*
X0117438Y0023756D01*
X0117464Y0023600D01*
X0117485Y0023443D01*
X0117503Y0023286D01*
X0117517Y0023128D01*
X0117527Y0022970D01*
X0117533Y0022812D01*
X0117535Y0022654D01*
X0117533Y0022496D01*
X0117527Y0022338D01*
X0117517Y0022180D01*
X0117503Y0022022D01*
X0117485Y0021865D01*
X0117464Y0021708D01*
X0117438Y0021552D01*
X0117408Y0021396D01*
X0117375Y0021241D01*
X0117337Y0021088D01*
X0117296Y0020935D01*
X0117251Y0020783D01*
X0117202Y0020632D01*
X0117149Y0020483D01*
X0117093Y0020335D01*
X0117033Y0020189D01*
X0116969Y0020044D01*
X0116901Y0019901D01*
X0116830Y0019759D01*
X0116756Y0019619D01*
X0116678Y0019482D01*
X0116596Y0019346D01*
X0116512Y0019212D01*
X0116423Y0019081D01*
X0116332Y0018952D01*
X0116237Y0018825D01*
X0116140Y0018700D01*
X0116039Y0018578D01*
X0115935Y0018459D01*
X0115828Y0018342D01*
X0115718Y0018228D01*
X0115605Y0018117D01*
X0115490Y0018008D01*
X0115372Y0017903D01*
X0115251Y0017801D01*
X0115128Y0017701D01*
X0115002Y0017605D01*
X0114874Y0017512D01*
X0114744Y0017422D01*
X0114611Y0017336D01*
X0114476Y0017252D01*
X0114340Y0017173D01*
X0114201Y0017096D01*
X0114060Y0017024D01*
X0113918Y0016954D01*
X0113774Y0016889D01*
X0113628Y0016827D01*
X0113481Y0016769D01*
X0113332Y0016714D01*
X0113182Y0016663D01*
X0113031Y0016616D01*
X0112879Y0016573D01*
X0112726Y0016534D01*
X0112571Y0016498D01*
X0112416Y0016467D01*
X0112260Y0016439D01*
X0112104Y0016415D01*
X0111947Y0016395D01*
X0111789Y0016379D01*
X0111632Y0016367D01*
X0111473Y0016359D01*
X0111315Y0016355D01*
X0111157Y0016355D01*
X0110999Y0016359D01*
X0110840Y0016367D01*
X0110683Y0016379D01*
X0110525Y0016395D01*
X0110368Y0016415D01*
X0110212Y0016439D01*
X0110056Y0016467D01*
X0109901Y0016498D01*
X0109746Y0016534D01*
X0109593Y0016573D01*
X0109441Y0016616D01*
X0109290Y0016663D01*
X0109140Y0016714D01*
X0108991Y0016769D01*
X0108844Y0016827D01*
X0108698Y0016889D01*
X0108554Y0016954D01*
X0108412Y0017024D01*
X0108271Y0017096D01*
X0108132Y0017173D01*
X0107996Y0017252D01*
X0107861Y0017336D01*
X0107728Y0017422D01*
X0107598Y0017512D01*
X0107470Y0017605D01*
X0107344Y0017701D01*
X0107221Y0017801D01*
X0107100Y0017903D01*
X0106982Y0018008D01*
X0106867Y0018117D01*
X0106754Y0018228D01*
X0106644Y0018342D01*
X0106537Y0018459D01*
X0106433Y0018578D01*
X0106332Y0018700D01*
X0106235Y0018825D01*
X0106140Y0018952D01*
X0106049Y0019081D01*
X0105960Y0019212D01*
X0105876Y0019346D01*
X0105794Y0019482D01*
X0105716Y0019619D01*
X0105642Y0019759D01*
X0105571Y0019901D01*
X0105503Y0020044D01*
X0105439Y0020189D01*
X0105379Y0020335D01*
X0105323Y0020483D01*
X0105270Y0020632D01*
X0105221Y0020783D01*
X0105176Y0020935D01*
X0105135Y0021088D01*
X0105097Y0021241D01*
X0105064Y0021396D01*
X0105034Y0021552D01*
X0105008Y0021708D01*
X0104987Y0021865D01*
X0104969Y0022022D01*
X0104955Y0022180D01*
X0104945Y0022338D01*
X0104939Y0022496D01*
X0104937Y0022654D01*
X0132496Y0130921D02*
X0132498Y0131079D01*
X0132504Y0131237D01*
X0132514Y0131395D01*
X0132528Y0131553D01*
X0132546Y0131710D01*
X0132567Y0131867D01*
X0132593Y0132023D01*
X0132623Y0132179D01*
X0132656Y0132334D01*
X0132694Y0132487D01*
X0132735Y0132640D01*
X0132780Y0132792D01*
X0132829Y0132943D01*
X0132882Y0133092D01*
X0132938Y0133240D01*
X0132998Y0133386D01*
X0133062Y0133531D01*
X0133130Y0133674D01*
X0133201Y0133816D01*
X0133275Y0133956D01*
X0133353Y0134093D01*
X0133435Y0134229D01*
X0133519Y0134363D01*
X0133608Y0134494D01*
X0133699Y0134623D01*
X0133794Y0134750D01*
X0133891Y0134875D01*
X0133992Y0134997D01*
X0134096Y0135116D01*
X0134203Y0135233D01*
X0134313Y0135347D01*
X0134426Y0135458D01*
X0134541Y0135567D01*
X0134659Y0135672D01*
X0134780Y0135774D01*
X0134903Y0135874D01*
X0135029Y0135970D01*
X0135157Y0136063D01*
X0135287Y0136153D01*
X0135420Y0136239D01*
X0135555Y0136323D01*
X0135691Y0136402D01*
X0135830Y0136479D01*
X0135971Y0136551D01*
X0136113Y0136621D01*
X0136257Y0136686D01*
X0136403Y0136748D01*
X0136550Y0136806D01*
X0136699Y0136861D01*
X0136849Y0136912D01*
X0137000Y0136959D01*
X0137152Y0137002D01*
X0137305Y0137041D01*
X0137460Y0137077D01*
X0137615Y0137108D01*
X0137771Y0137136D01*
X0137927Y0137160D01*
X0138084Y0137180D01*
X0138242Y0137196D01*
X0138399Y0137208D01*
X0138558Y0137216D01*
X0138716Y0137220D01*
X0138874Y0137220D01*
X0139032Y0137216D01*
X0139191Y0137208D01*
X0139348Y0137196D01*
X0139506Y0137180D01*
X0139663Y0137160D01*
X0139819Y0137136D01*
X0139975Y0137108D01*
X0140130Y0137077D01*
X0140285Y0137041D01*
X0140438Y0137002D01*
X0140590Y0136959D01*
X0140741Y0136912D01*
X0140891Y0136861D01*
X0141040Y0136806D01*
X0141187Y0136748D01*
X0141333Y0136686D01*
X0141477Y0136621D01*
X0141619Y0136551D01*
X0141760Y0136479D01*
X0141899Y0136402D01*
X0142035Y0136323D01*
X0142170Y0136239D01*
X0142303Y0136153D01*
X0142433Y0136063D01*
X0142561Y0135970D01*
X0142687Y0135874D01*
X0142810Y0135774D01*
X0142931Y0135672D01*
X0143049Y0135567D01*
X0143164Y0135458D01*
X0143277Y0135347D01*
X0143387Y0135233D01*
X0143494Y0135116D01*
X0143598Y0134997D01*
X0143699Y0134875D01*
X0143796Y0134750D01*
X0143891Y0134623D01*
X0143982Y0134494D01*
X0144071Y0134363D01*
X0144155Y0134229D01*
X0144237Y0134093D01*
X0144315Y0133956D01*
X0144389Y0133816D01*
X0144460Y0133674D01*
X0144528Y0133531D01*
X0144592Y0133386D01*
X0144652Y0133240D01*
X0144708Y0133092D01*
X0144761Y0132943D01*
X0144810Y0132792D01*
X0144855Y0132640D01*
X0144896Y0132487D01*
X0144934Y0132334D01*
X0144967Y0132179D01*
X0144997Y0132023D01*
X0145023Y0131867D01*
X0145044Y0131710D01*
X0145062Y0131553D01*
X0145076Y0131395D01*
X0145086Y0131237D01*
X0145092Y0131079D01*
X0145094Y0130921D01*
X0145092Y0130763D01*
X0145086Y0130605D01*
X0145076Y0130447D01*
X0145062Y0130289D01*
X0145044Y0130132D01*
X0145023Y0129975D01*
X0144997Y0129819D01*
X0144967Y0129663D01*
X0144934Y0129508D01*
X0144896Y0129355D01*
X0144855Y0129202D01*
X0144810Y0129050D01*
X0144761Y0128899D01*
X0144708Y0128750D01*
X0144652Y0128602D01*
X0144592Y0128456D01*
X0144528Y0128311D01*
X0144460Y0128168D01*
X0144389Y0128026D01*
X0144315Y0127886D01*
X0144237Y0127749D01*
X0144155Y0127613D01*
X0144071Y0127479D01*
X0143982Y0127348D01*
X0143891Y0127219D01*
X0143796Y0127092D01*
X0143699Y0126967D01*
X0143598Y0126845D01*
X0143494Y0126726D01*
X0143387Y0126609D01*
X0143277Y0126495D01*
X0143164Y0126384D01*
X0143049Y0126275D01*
X0142931Y0126170D01*
X0142810Y0126068D01*
X0142687Y0125968D01*
X0142561Y0125872D01*
X0142433Y0125779D01*
X0142303Y0125689D01*
X0142170Y0125603D01*
X0142035Y0125519D01*
X0141899Y0125440D01*
X0141760Y0125363D01*
X0141619Y0125291D01*
X0141477Y0125221D01*
X0141333Y0125156D01*
X0141187Y0125094D01*
X0141040Y0125036D01*
X0140891Y0124981D01*
X0140741Y0124930D01*
X0140590Y0124883D01*
X0140438Y0124840D01*
X0140285Y0124801D01*
X0140130Y0124765D01*
X0139975Y0124734D01*
X0139819Y0124706D01*
X0139663Y0124682D01*
X0139506Y0124662D01*
X0139348Y0124646D01*
X0139191Y0124634D01*
X0139032Y0124626D01*
X0138874Y0124622D01*
X0138716Y0124622D01*
X0138558Y0124626D01*
X0138399Y0124634D01*
X0138242Y0124646D01*
X0138084Y0124662D01*
X0137927Y0124682D01*
X0137771Y0124706D01*
X0137615Y0124734D01*
X0137460Y0124765D01*
X0137305Y0124801D01*
X0137152Y0124840D01*
X0137000Y0124883D01*
X0136849Y0124930D01*
X0136699Y0124981D01*
X0136550Y0125036D01*
X0136403Y0125094D01*
X0136257Y0125156D01*
X0136113Y0125221D01*
X0135971Y0125291D01*
X0135830Y0125363D01*
X0135691Y0125440D01*
X0135555Y0125519D01*
X0135420Y0125603D01*
X0135287Y0125689D01*
X0135157Y0125779D01*
X0135029Y0125872D01*
X0134903Y0125968D01*
X0134780Y0126068D01*
X0134659Y0126170D01*
X0134541Y0126275D01*
X0134426Y0126384D01*
X0134313Y0126495D01*
X0134203Y0126609D01*
X0134096Y0126726D01*
X0133992Y0126845D01*
X0133891Y0126967D01*
X0133794Y0127092D01*
X0133699Y0127219D01*
X0133608Y0127348D01*
X0133519Y0127479D01*
X0133435Y0127613D01*
X0133353Y0127749D01*
X0133275Y0127886D01*
X0133201Y0128026D01*
X0133130Y0128168D01*
X0133062Y0128311D01*
X0132998Y0128456D01*
X0132938Y0128602D01*
X0132882Y0128750D01*
X0132829Y0128899D01*
X0132780Y0129050D01*
X0132735Y0129202D01*
X0132694Y0129355D01*
X0132656Y0129508D01*
X0132623Y0129663D01*
X0132593Y0129819D01*
X0132567Y0129975D01*
X0132546Y0130132D01*
X0132528Y0130289D01*
X0132514Y0130447D01*
X0132504Y0130605D01*
X0132498Y0130763D01*
X0132496Y0130921D01*
X0104937Y0258874D02*
X0104939Y0259032D01*
X0104945Y0259190D01*
X0104955Y0259348D01*
X0104969Y0259506D01*
X0104987Y0259663D01*
X0105008Y0259820D01*
X0105034Y0259976D01*
X0105064Y0260132D01*
X0105097Y0260287D01*
X0105135Y0260440D01*
X0105176Y0260593D01*
X0105221Y0260745D01*
X0105270Y0260896D01*
X0105323Y0261045D01*
X0105379Y0261193D01*
X0105439Y0261339D01*
X0105503Y0261484D01*
X0105571Y0261627D01*
X0105642Y0261769D01*
X0105716Y0261909D01*
X0105794Y0262046D01*
X0105876Y0262182D01*
X0105960Y0262316D01*
X0106049Y0262447D01*
X0106140Y0262576D01*
X0106235Y0262703D01*
X0106332Y0262828D01*
X0106433Y0262950D01*
X0106537Y0263069D01*
X0106644Y0263186D01*
X0106754Y0263300D01*
X0106867Y0263411D01*
X0106982Y0263520D01*
X0107100Y0263625D01*
X0107221Y0263727D01*
X0107344Y0263827D01*
X0107470Y0263923D01*
X0107598Y0264016D01*
X0107728Y0264106D01*
X0107861Y0264192D01*
X0107996Y0264276D01*
X0108132Y0264355D01*
X0108271Y0264432D01*
X0108412Y0264504D01*
X0108554Y0264574D01*
X0108698Y0264639D01*
X0108844Y0264701D01*
X0108991Y0264759D01*
X0109140Y0264814D01*
X0109290Y0264865D01*
X0109441Y0264912D01*
X0109593Y0264955D01*
X0109746Y0264994D01*
X0109901Y0265030D01*
X0110056Y0265061D01*
X0110212Y0265089D01*
X0110368Y0265113D01*
X0110525Y0265133D01*
X0110683Y0265149D01*
X0110840Y0265161D01*
X0110999Y0265169D01*
X0111157Y0265173D01*
X0111315Y0265173D01*
X0111473Y0265169D01*
X0111632Y0265161D01*
X0111789Y0265149D01*
X0111947Y0265133D01*
X0112104Y0265113D01*
X0112260Y0265089D01*
X0112416Y0265061D01*
X0112571Y0265030D01*
X0112726Y0264994D01*
X0112879Y0264955D01*
X0113031Y0264912D01*
X0113182Y0264865D01*
X0113332Y0264814D01*
X0113481Y0264759D01*
X0113628Y0264701D01*
X0113774Y0264639D01*
X0113918Y0264574D01*
X0114060Y0264504D01*
X0114201Y0264432D01*
X0114340Y0264355D01*
X0114476Y0264276D01*
X0114611Y0264192D01*
X0114744Y0264106D01*
X0114874Y0264016D01*
X0115002Y0263923D01*
X0115128Y0263827D01*
X0115251Y0263727D01*
X0115372Y0263625D01*
X0115490Y0263520D01*
X0115605Y0263411D01*
X0115718Y0263300D01*
X0115828Y0263186D01*
X0115935Y0263069D01*
X0116039Y0262950D01*
X0116140Y0262828D01*
X0116237Y0262703D01*
X0116332Y0262576D01*
X0116423Y0262447D01*
X0116512Y0262316D01*
X0116596Y0262182D01*
X0116678Y0262046D01*
X0116756Y0261909D01*
X0116830Y0261769D01*
X0116901Y0261627D01*
X0116969Y0261484D01*
X0117033Y0261339D01*
X0117093Y0261193D01*
X0117149Y0261045D01*
X0117202Y0260896D01*
X0117251Y0260745D01*
X0117296Y0260593D01*
X0117337Y0260440D01*
X0117375Y0260287D01*
X0117408Y0260132D01*
X0117438Y0259976D01*
X0117464Y0259820D01*
X0117485Y0259663D01*
X0117503Y0259506D01*
X0117517Y0259348D01*
X0117527Y0259190D01*
X0117533Y0259032D01*
X0117535Y0258874D01*
X0117533Y0258716D01*
X0117527Y0258558D01*
X0117517Y0258400D01*
X0117503Y0258242D01*
X0117485Y0258085D01*
X0117464Y0257928D01*
X0117438Y0257772D01*
X0117408Y0257616D01*
X0117375Y0257461D01*
X0117337Y0257308D01*
X0117296Y0257155D01*
X0117251Y0257003D01*
X0117202Y0256852D01*
X0117149Y0256703D01*
X0117093Y0256555D01*
X0117033Y0256409D01*
X0116969Y0256264D01*
X0116901Y0256121D01*
X0116830Y0255979D01*
X0116756Y0255839D01*
X0116678Y0255702D01*
X0116596Y0255566D01*
X0116512Y0255432D01*
X0116423Y0255301D01*
X0116332Y0255172D01*
X0116237Y0255045D01*
X0116140Y0254920D01*
X0116039Y0254798D01*
X0115935Y0254679D01*
X0115828Y0254562D01*
X0115718Y0254448D01*
X0115605Y0254337D01*
X0115490Y0254228D01*
X0115372Y0254123D01*
X0115251Y0254021D01*
X0115128Y0253921D01*
X0115002Y0253825D01*
X0114874Y0253732D01*
X0114744Y0253642D01*
X0114611Y0253556D01*
X0114476Y0253472D01*
X0114340Y0253393D01*
X0114201Y0253316D01*
X0114060Y0253244D01*
X0113918Y0253174D01*
X0113774Y0253109D01*
X0113628Y0253047D01*
X0113481Y0252989D01*
X0113332Y0252934D01*
X0113182Y0252883D01*
X0113031Y0252836D01*
X0112879Y0252793D01*
X0112726Y0252754D01*
X0112571Y0252718D01*
X0112416Y0252687D01*
X0112260Y0252659D01*
X0112104Y0252635D01*
X0111947Y0252615D01*
X0111789Y0252599D01*
X0111632Y0252587D01*
X0111473Y0252579D01*
X0111315Y0252575D01*
X0111157Y0252575D01*
X0110999Y0252579D01*
X0110840Y0252587D01*
X0110683Y0252599D01*
X0110525Y0252615D01*
X0110368Y0252635D01*
X0110212Y0252659D01*
X0110056Y0252687D01*
X0109901Y0252718D01*
X0109746Y0252754D01*
X0109593Y0252793D01*
X0109441Y0252836D01*
X0109290Y0252883D01*
X0109140Y0252934D01*
X0108991Y0252989D01*
X0108844Y0253047D01*
X0108698Y0253109D01*
X0108554Y0253174D01*
X0108412Y0253244D01*
X0108271Y0253316D01*
X0108132Y0253393D01*
X0107996Y0253472D01*
X0107861Y0253556D01*
X0107728Y0253642D01*
X0107598Y0253732D01*
X0107470Y0253825D01*
X0107344Y0253921D01*
X0107221Y0254021D01*
X0107100Y0254123D01*
X0106982Y0254228D01*
X0106867Y0254337D01*
X0106754Y0254448D01*
X0106644Y0254562D01*
X0106537Y0254679D01*
X0106433Y0254798D01*
X0106332Y0254920D01*
X0106235Y0255045D01*
X0106140Y0255172D01*
X0106049Y0255301D01*
X0105960Y0255432D01*
X0105876Y0255566D01*
X0105794Y0255702D01*
X0105716Y0255839D01*
X0105642Y0255979D01*
X0105571Y0256121D01*
X0105503Y0256264D01*
X0105439Y0256409D01*
X0105379Y0256555D01*
X0105323Y0256703D01*
X0105270Y0256852D01*
X0105221Y0257003D01*
X0105176Y0257155D01*
X0105135Y0257308D01*
X0105097Y0257461D01*
X0105064Y0257616D01*
X0105034Y0257772D01*
X0105008Y0257928D01*
X0104987Y0258085D01*
X0104969Y0258242D01*
X0104955Y0258400D01*
X0104945Y0258558D01*
X0104939Y0258716D01*
X0104937Y0258874D01*
X0132496Y0323835D02*
X0132498Y0323993D01*
X0132504Y0324151D01*
X0132514Y0324309D01*
X0132528Y0324467D01*
X0132546Y0324624D01*
X0132567Y0324781D01*
X0132593Y0324937D01*
X0132623Y0325093D01*
X0132656Y0325248D01*
X0132694Y0325401D01*
X0132735Y0325554D01*
X0132780Y0325706D01*
X0132829Y0325857D01*
X0132882Y0326006D01*
X0132938Y0326154D01*
X0132998Y0326300D01*
X0133062Y0326445D01*
X0133130Y0326588D01*
X0133201Y0326730D01*
X0133275Y0326870D01*
X0133353Y0327007D01*
X0133435Y0327143D01*
X0133519Y0327277D01*
X0133608Y0327408D01*
X0133699Y0327537D01*
X0133794Y0327664D01*
X0133891Y0327789D01*
X0133992Y0327911D01*
X0134096Y0328030D01*
X0134203Y0328147D01*
X0134313Y0328261D01*
X0134426Y0328372D01*
X0134541Y0328481D01*
X0134659Y0328586D01*
X0134780Y0328688D01*
X0134903Y0328788D01*
X0135029Y0328884D01*
X0135157Y0328977D01*
X0135287Y0329067D01*
X0135420Y0329153D01*
X0135555Y0329237D01*
X0135691Y0329316D01*
X0135830Y0329393D01*
X0135971Y0329465D01*
X0136113Y0329535D01*
X0136257Y0329600D01*
X0136403Y0329662D01*
X0136550Y0329720D01*
X0136699Y0329775D01*
X0136849Y0329826D01*
X0137000Y0329873D01*
X0137152Y0329916D01*
X0137305Y0329955D01*
X0137460Y0329991D01*
X0137615Y0330022D01*
X0137771Y0330050D01*
X0137927Y0330074D01*
X0138084Y0330094D01*
X0138242Y0330110D01*
X0138399Y0330122D01*
X0138558Y0330130D01*
X0138716Y0330134D01*
X0138874Y0330134D01*
X0139032Y0330130D01*
X0139191Y0330122D01*
X0139348Y0330110D01*
X0139506Y0330094D01*
X0139663Y0330074D01*
X0139819Y0330050D01*
X0139975Y0330022D01*
X0140130Y0329991D01*
X0140285Y0329955D01*
X0140438Y0329916D01*
X0140590Y0329873D01*
X0140741Y0329826D01*
X0140891Y0329775D01*
X0141040Y0329720D01*
X0141187Y0329662D01*
X0141333Y0329600D01*
X0141477Y0329535D01*
X0141619Y0329465D01*
X0141760Y0329393D01*
X0141899Y0329316D01*
X0142035Y0329237D01*
X0142170Y0329153D01*
X0142303Y0329067D01*
X0142433Y0328977D01*
X0142561Y0328884D01*
X0142687Y0328788D01*
X0142810Y0328688D01*
X0142931Y0328586D01*
X0143049Y0328481D01*
X0143164Y0328372D01*
X0143277Y0328261D01*
X0143387Y0328147D01*
X0143494Y0328030D01*
X0143598Y0327911D01*
X0143699Y0327789D01*
X0143796Y0327664D01*
X0143891Y0327537D01*
X0143982Y0327408D01*
X0144071Y0327277D01*
X0144155Y0327143D01*
X0144237Y0327007D01*
X0144315Y0326870D01*
X0144389Y0326730D01*
X0144460Y0326588D01*
X0144528Y0326445D01*
X0144592Y0326300D01*
X0144652Y0326154D01*
X0144708Y0326006D01*
X0144761Y0325857D01*
X0144810Y0325706D01*
X0144855Y0325554D01*
X0144896Y0325401D01*
X0144934Y0325248D01*
X0144967Y0325093D01*
X0144997Y0324937D01*
X0145023Y0324781D01*
X0145044Y0324624D01*
X0145062Y0324467D01*
X0145076Y0324309D01*
X0145086Y0324151D01*
X0145092Y0323993D01*
X0145094Y0323835D01*
X0145092Y0323677D01*
X0145086Y0323519D01*
X0145076Y0323361D01*
X0145062Y0323203D01*
X0145044Y0323046D01*
X0145023Y0322889D01*
X0144997Y0322733D01*
X0144967Y0322577D01*
X0144934Y0322422D01*
X0144896Y0322269D01*
X0144855Y0322116D01*
X0144810Y0321964D01*
X0144761Y0321813D01*
X0144708Y0321664D01*
X0144652Y0321516D01*
X0144592Y0321370D01*
X0144528Y0321225D01*
X0144460Y0321082D01*
X0144389Y0320940D01*
X0144315Y0320800D01*
X0144237Y0320663D01*
X0144155Y0320527D01*
X0144071Y0320393D01*
X0143982Y0320262D01*
X0143891Y0320133D01*
X0143796Y0320006D01*
X0143699Y0319881D01*
X0143598Y0319759D01*
X0143494Y0319640D01*
X0143387Y0319523D01*
X0143277Y0319409D01*
X0143164Y0319298D01*
X0143049Y0319189D01*
X0142931Y0319084D01*
X0142810Y0318982D01*
X0142687Y0318882D01*
X0142561Y0318786D01*
X0142433Y0318693D01*
X0142303Y0318603D01*
X0142170Y0318517D01*
X0142035Y0318433D01*
X0141899Y0318354D01*
X0141760Y0318277D01*
X0141619Y0318205D01*
X0141477Y0318135D01*
X0141333Y0318070D01*
X0141187Y0318008D01*
X0141040Y0317950D01*
X0140891Y0317895D01*
X0140741Y0317844D01*
X0140590Y0317797D01*
X0140438Y0317754D01*
X0140285Y0317715D01*
X0140130Y0317679D01*
X0139975Y0317648D01*
X0139819Y0317620D01*
X0139663Y0317596D01*
X0139506Y0317576D01*
X0139348Y0317560D01*
X0139191Y0317548D01*
X0139032Y0317540D01*
X0138874Y0317536D01*
X0138716Y0317536D01*
X0138558Y0317540D01*
X0138399Y0317548D01*
X0138242Y0317560D01*
X0138084Y0317576D01*
X0137927Y0317596D01*
X0137771Y0317620D01*
X0137615Y0317648D01*
X0137460Y0317679D01*
X0137305Y0317715D01*
X0137152Y0317754D01*
X0137000Y0317797D01*
X0136849Y0317844D01*
X0136699Y0317895D01*
X0136550Y0317950D01*
X0136403Y0318008D01*
X0136257Y0318070D01*
X0136113Y0318135D01*
X0135971Y0318205D01*
X0135830Y0318277D01*
X0135691Y0318354D01*
X0135555Y0318433D01*
X0135420Y0318517D01*
X0135287Y0318603D01*
X0135157Y0318693D01*
X0135029Y0318786D01*
X0134903Y0318882D01*
X0134780Y0318982D01*
X0134659Y0319084D01*
X0134541Y0319189D01*
X0134426Y0319298D01*
X0134313Y0319409D01*
X0134203Y0319523D01*
X0134096Y0319640D01*
X0133992Y0319759D01*
X0133891Y0319881D01*
X0133794Y0320006D01*
X0133699Y0320133D01*
X0133608Y0320262D01*
X0133519Y0320393D01*
X0133435Y0320527D01*
X0133353Y0320663D01*
X0133275Y0320800D01*
X0133201Y0320940D01*
X0133130Y0321082D01*
X0133062Y0321225D01*
X0132998Y0321370D01*
X0132938Y0321516D01*
X0132882Y0321664D01*
X0132829Y0321813D01*
X0132780Y0321964D01*
X0132735Y0322116D01*
X0132694Y0322269D01*
X0132656Y0322422D01*
X0132623Y0322577D01*
X0132593Y0322733D01*
X0132567Y0322889D01*
X0132546Y0323046D01*
X0132528Y0323203D01*
X0132514Y0323361D01*
X0132504Y0323519D01*
X0132498Y0323677D01*
X0132496Y0323835D01*
X0230921Y0323835D02*
X0230923Y0323993D01*
X0230929Y0324151D01*
X0230939Y0324309D01*
X0230953Y0324467D01*
X0230971Y0324624D01*
X0230992Y0324781D01*
X0231018Y0324937D01*
X0231048Y0325093D01*
X0231081Y0325248D01*
X0231119Y0325401D01*
X0231160Y0325554D01*
X0231205Y0325706D01*
X0231254Y0325857D01*
X0231307Y0326006D01*
X0231363Y0326154D01*
X0231423Y0326300D01*
X0231487Y0326445D01*
X0231555Y0326588D01*
X0231626Y0326730D01*
X0231700Y0326870D01*
X0231778Y0327007D01*
X0231860Y0327143D01*
X0231944Y0327277D01*
X0232033Y0327408D01*
X0232124Y0327537D01*
X0232219Y0327664D01*
X0232316Y0327789D01*
X0232417Y0327911D01*
X0232521Y0328030D01*
X0232628Y0328147D01*
X0232738Y0328261D01*
X0232851Y0328372D01*
X0232966Y0328481D01*
X0233084Y0328586D01*
X0233205Y0328688D01*
X0233328Y0328788D01*
X0233454Y0328884D01*
X0233582Y0328977D01*
X0233712Y0329067D01*
X0233845Y0329153D01*
X0233980Y0329237D01*
X0234116Y0329316D01*
X0234255Y0329393D01*
X0234396Y0329465D01*
X0234538Y0329535D01*
X0234682Y0329600D01*
X0234828Y0329662D01*
X0234975Y0329720D01*
X0235124Y0329775D01*
X0235274Y0329826D01*
X0235425Y0329873D01*
X0235577Y0329916D01*
X0235730Y0329955D01*
X0235885Y0329991D01*
X0236040Y0330022D01*
X0236196Y0330050D01*
X0236352Y0330074D01*
X0236509Y0330094D01*
X0236667Y0330110D01*
X0236824Y0330122D01*
X0236983Y0330130D01*
X0237141Y0330134D01*
X0237299Y0330134D01*
X0237457Y0330130D01*
X0237616Y0330122D01*
X0237773Y0330110D01*
X0237931Y0330094D01*
X0238088Y0330074D01*
X0238244Y0330050D01*
X0238400Y0330022D01*
X0238555Y0329991D01*
X0238710Y0329955D01*
X0238863Y0329916D01*
X0239015Y0329873D01*
X0239166Y0329826D01*
X0239316Y0329775D01*
X0239465Y0329720D01*
X0239612Y0329662D01*
X0239758Y0329600D01*
X0239902Y0329535D01*
X0240044Y0329465D01*
X0240185Y0329393D01*
X0240324Y0329316D01*
X0240460Y0329237D01*
X0240595Y0329153D01*
X0240728Y0329067D01*
X0240858Y0328977D01*
X0240986Y0328884D01*
X0241112Y0328788D01*
X0241235Y0328688D01*
X0241356Y0328586D01*
X0241474Y0328481D01*
X0241589Y0328372D01*
X0241702Y0328261D01*
X0241812Y0328147D01*
X0241919Y0328030D01*
X0242023Y0327911D01*
X0242124Y0327789D01*
X0242221Y0327664D01*
X0242316Y0327537D01*
X0242407Y0327408D01*
X0242496Y0327277D01*
X0242580Y0327143D01*
X0242662Y0327007D01*
X0242740Y0326870D01*
X0242814Y0326730D01*
X0242885Y0326588D01*
X0242953Y0326445D01*
X0243017Y0326300D01*
X0243077Y0326154D01*
X0243133Y0326006D01*
X0243186Y0325857D01*
X0243235Y0325706D01*
X0243280Y0325554D01*
X0243321Y0325401D01*
X0243359Y0325248D01*
X0243392Y0325093D01*
X0243422Y0324937D01*
X0243448Y0324781D01*
X0243469Y0324624D01*
X0243487Y0324467D01*
X0243501Y0324309D01*
X0243511Y0324151D01*
X0243517Y0323993D01*
X0243519Y0323835D01*
X0243517Y0323677D01*
X0243511Y0323519D01*
X0243501Y0323361D01*
X0243487Y0323203D01*
X0243469Y0323046D01*
X0243448Y0322889D01*
X0243422Y0322733D01*
X0243392Y0322577D01*
X0243359Y0322422D01*
X0243321Y0322269D01*
X0243280Y0322116D01*
X0243235Y0321964D01*
X0243186Y0321813D01*
X0243133Y0321664D01*
X0243077Y0321516D01*
X0243017Y0321370D01*
X0242953Y0321225D01*
X0242885Y0321082D01*
X0242814Y0320940D01*
X0242740Y0320800D01*
X0242662Y0320663D01*
X0242580Y0320527D01*
X0242496Y0320393D01*
X0242407Y0320262D01*
X0242316Y0320133D01*
X0242221Y0320006D01*
X0242124Y0319881D01*
X0242023Y0319759D01*
X0241919Y0319640D01*
X0241812Y0319523D01*
X0241702Y0319409D01*
X0241589Y0319298D01*
X0241474Y0319189D01*
X0241356Y0319084D01*
X0241235Y0318982D01*
X0241112Y0318882D01*
X0240986Y0318786D01*
X0240858Y0318693D01*
X0240728Y0318603D01*
X0240595Y0318517D01*
X0240460Y0318433D01*
X0240324Y0318354D01*
X0240185Y0318277D01*
X0240044Y0318205D01*
X0239902Y0318135D01*
X0239758Y0318070D01*
X0239612Y0318008D01*
X0239465Y0317950D01*
X0239316Y0317895D01*
X0239166Y0317844D01*
X0239015Y0317797D01*
X0238863Y0317754D01*
X0238710Y0317715D01*
X0238555Y0317679D01*
X0238400Y0317648D01*
X0238244Y0317620D01*
X0238088Y0317596D01*
X0237931Y0317576D01*
X0237773Y0317560D01*
X0237616Y0317548D01*
X0237457Y0317540D01*
X0237299Y0317536D01*
X0237141Y0317536D01*
X0236983Y0317540D01*
X0236824Y0317548D01*
X0236667Y0317560D01*
X0236509Y0317576D01*
X0236352Y0317596D01*
X0236196Y0317620D01*
X0236040Y0317648D01*
X0235885Y0317679D01*
X0235730Y0317715D01*
X0235577Y0317754D01*
X0235425Y0317797D01*
X0235274Y0317844D01*
X0235124Y0317895D01*
X0234975Y0317950D01*
X0234828Y0318008D01*
X0234682Y0318070D01*
X0234538Y0318135D01*
X0234396Y0318205D01*
X0234255Y0318277D01*
X0234116Y0318354D01*
X0233980Y0318433D01*
X0233845Y0318517D01*
X0233712Y0318603D01*
X0233582Y0318693D01*
X0233454Y0318786D01*
X0233328Y0318882D01*
X0233205Y0318982D01*
X0233084Y0319084D01*
X0232966Y0319189D01*
X0232851Y0319298D01*
X0232738Y0319409D01*
X0232628Y0319523D01*
X0232521Y0319640D01*
X0232417Y0319759D01*
X0232316Y0319881D01*
X0232219Y0320006D01*
X0232124Y0320133D01*
X0232033Y0320262D01*
X0231944Y0320393D01*
X0231860Y0320527D01*
X0231778Y0320663D01*
X0231700Y0320800D01*
X0231626Y0320940D01*
X0231555Y0321082D01*
X0231487Y0321225D01*
X0231423Y0321370D01*
X0231363Y0321516D01*
X0231307Y0321664D01*
X0231254Y0321813D01*
X0231205Y0321964D01*
X0231160Y0322116D01*
X0231119Y0322269D01*
X0231081Y0322422D01*
X0231048Y0322577D01*
X0231018Y0322733D01*
X0230992Y0322889D01*
X0230971Y0323046D01*
X0230953Y0323203D01*
X0230939Y0323361D01*
X0230929Y0323519D01*
X0230923Y0323677D01*
X0230921Y0323835D01*
X0230921Y0130921D02*
X0230923Y0131079D01*
X0230929Y0131237D01*
X0230939Y0131395D01*
X0230953Y0131553D01*
X0230971Y0131710D01*
X0230992Y0131867D01*
X0231018Y0132023D01*
X0231048Y0132179D01*
X0231081Y0132334D01*
X0231119Y0132487D01*
X0231160Y0132640D01*
X0231205Y0132792D01*
X0231254Y0132943D01*
X0231307Y0133092D01*
X0231363Y0133240D01*
X0231423Y0133386D01*
X0231487Y0133531D01*
X0231555Y0133674D01*
X0231626Y0133816D01*
X0231700Y0133956D01*
X0231778Y0134093D01*
X0231860Y0134229D01*
X0231944Y0134363D01*
X0232033Y0134494D01*
X0232124Y0134623D01*
X0232219Y0134750D01*
X0232316Y0134875D01*
X0232417Y0134997D01*
X0232521Y0135116D01*
X0232628Y0135233D01*
X0232738Y0135347D01*
X0232851Y0135458D01*
X0232966Y0135567D01*
X0233084Y0135672D01*
X0233205Y0135774D01*
X0233328Y0135874D01*
X0233454Y0135970D01*
X0233582Y0136063D01*
X0233712Y0136153D01*
X0233845Y0136239D01*
X0233980Y0136323D01*
X0234116Y0136402D01*
X0234255Y0136479D01*
X0234396Y0136551D01*
X0234538Y0136621D01*
X0234682Y0136686D01*
X0234828Y0136748D01*
X0234975Y0136806D01*
X0235124Y0136861D01*
X0235274Y0136912D01*
X0235425Y0136959D01*
X0235577Y0137002D01*
X0235730Y0137041D01*
X0235885Y0137077D01*
X0236040Y0137108D01*
X0236196Y0137136D01*
X0236352Y0137160D01*
X0236509Y0137180D01*
X0236667Y0137196D01*
X0236824Y0137208D01*
X0236983Y0137216D01*
X0237141Y0137220D01*
X0237299Y0137220D01*
X0237457Y0137216D01*
X0237616Y0137208D01*
X0237773Y0137196D01*
X0237931Y0137180D01*
X0238088Y0137160D01*
X0238244Y0137136D01*
X0238400Y0137108D01*
X0238555Y0137077D01*
X0238710Y0137041D01*
X0238863Y0137002D01*
X0239015Y0136959D01*
X0239166Y0136912D01*
X0239316Y0136861D01*
X0239465Y0136806D01*
X0239612Y0136748D01*
X0239758Y0136686D01*
X0239902Y0136621D01*
X0240044Y0136551D01*
X0240185Y0136479D01*
X0240324Y0136402D01*
X0240460Y0136323D01*
X0240595Y0136239D01*
X0240728Y0136153D01*
X0240858Y0136063D01*
X0240986Y0135970D01*
X0241112Y0135874D01*
X0241235Y0135774D01*
X0241356Y0135672D01*
X0241474Y0135567D01*
X0241589Y0135458D01*
X0241702Y0135347D01*
X0241812Y0135233D01*
X0241919Y0135116D01*
X0242023Y0134997D01*
X0242124Y0134875D01*
X0242221Y0134750D01*
X0242316Y0134623D01*
X0242407Y0134494D01*
X0242496Y0134363D01*
X0242580Y0134229D01*
X0242662Y0134093D01*
X0242740Y0133956D01*
X0242814Y0133816D01*
X0242885Y0133674D01*
X0242953Y0133531D01*
X0243017Y0133386D01*
X0243077Y0133240D01*
X0243133Y0133092D01*
X0243186Y0132943D01*
X0243235Y0132792D01*
X0243280Y0132640D01*
X0243321Y0132487D01*
X0243359Y0132334D01*
X0243392Y0132179D01*
X0243422Y0132023D01*
X0243448Y0131867D01*
X0243469Y0131710D01*
X0243487Y0131553D01*
X0243501Y0131395D01*
X0243511Y0131237D01*
X0243517Y0131079D01*
X0243519Y0130921D01*
X0243517Y0130763D01*
X0243511Y0130605D01*
X0243501Y0130447D01*
X0243487Y0130289D01*
X0243469Y0130132D01*
X0243448Y0129975D01*
X0243422Y0129819D01*
X0243392Y0129663D01*
X0243359Y0129508D01*
X0243321Y0129355D01*
X0243280Y0129202D01*
X0243235Y0129050D01*
X0243186Y0128899D01*
X0243133Y0128750D01*
X0243077Y0128602D01*
X0243017Y0128456D01*
X0242953Y0128311D01*
X0242885Y0128168D01*
X0242814Y0128026D01*
X0242740Y0127886D01*
X0242662Y0127749D01*
X0242580Y0127613D01*
X0242496Y0127479D01*
X0242407Y0127348D01*
X0242316Y0127219D01*
X0242221Y0127092D01*
X0242124Y0126967D01*
X0242023Y0126845D01*
X0241919Y0126726D01*
X0241812Y0126609D01*
X0241702Y0126495D01*
X0241589Y0126384D01*
X0241474Y0126275D01*
X0241356Y0126170D01*
X0241235Y0126068D01*
X0241112Y0125968D01*
X0240986Y0125872D01*
X0240858Y0125779D01*
X0240728Y0125689D01*
X0240595Y0125603D01*
X0240460Y0125519D01*
X0240324Y0125440D01*
X0240185Y0125363D01*
X0240044Y0125291D01*
X0239902Y0125221D01*
X0239758Y0125156D01*
X0239612Y0125094D01*
X0239465Y0125036D01*
X0239316Y0124981D01*
X0239166Y0124930D01*
X0239015Y0124883D01*
X0238863Y0124840D01*
X0238710Y0124801D01*
X0238555Y0124765D01*
X0238400Y0124734D01*
X0238244Y0124706D01*
X0238088Y0124682D01*
X0237931Y0124662D01*
X0237773Y0124646D01*
X0237616Y0124634D01*
X0237457Y0124626D01*
X0237299Y0124622D01*
X0237141Y0124622D01*
X0236983Y0124626D01*
X0236824Y0124634D01*
X0236667Y0124646D01*
X0236509Y0124662D01*
X0236352Y0124682D01*
X0236196Y0124706D01*
X0236040Y0124734D01*
X0235885Y0124765D01*
X0235730Y0124801D01*
X0235577Y0124840D01*
X0235425Y0124883D01*
X0235274Y0124930D01*
X0235124Y0124981D01*
X0234975Y0125036D01*
X0234828Y0125094D01*
X0234682Y0125156D01*
X0234538Y0125221D01*
X0234396Y0125291D01*
X0234255Y0125363D01*
X0234116Y0125440D01*
X0233980Y0125519D01*
X0233845Y0125603D01*
X0233712Y0125689D01*
X0233582Y0125779D01*
X0233454Y0125872D01*
X0233328Y0125968D01*
X0233205Y0126068D01*
X0233084Y0126170D01*
X0232966Y0126275D01*
X0232851Y0126384D01*
X0232738Y0126495D01*
X0232628Y0126609D01*
X0232521Y0126726D01*
X0232417Y0126845D01*
X0232316Y0126967D01*
X0232219Y0127092D01*
X0232124Y0127219D01*
X0232033Y0127348D01*
X0231944Y0127479D01*
X0231860Y0127613D01*
X0231778Y0127749D01*
X0231700Y0127886D01*
X0231626Y0128026D01*
X0231555Y0128168D01*
X0231487Y0128311D01*
X0231423Y0128456D01*
X0231363Y0128602D01*
X0231307Y0128750D01*
X0231254Y0128899D01*
X0231205Y0129050D01*
X0231160Y0129202D01*
X0231119Y0129355D01*
X0231081Y0129508D01*
X0231048Y0129663D01*
X0231018Y0129819D01*
X0230992Y0129975D01*
X0230971Y0130132D01*
X0230953Y0130289D01*
X0230939Y0130447D01*
X0230929Y0130605D01*
X0230923Y0130763D01*
X0230921Y0130921D01*
X0006512Y0258874D02*
X0006514Y0259032D01*
X0006520Y0259190D01*
X0006530Y0259348D01*
X0006544Y0259506D01*
X0006562Y0259663D01*
X0006583Y0259820D01*
X0006609Y0259976D01*
X0006639Y0260132D01*
X0006672Y0260287D01*
X0006710Y0260440D01*
X0006751Y0260593D01*
X0006796Y0260745D01*
X0006845Y0260896D01*
X0006898Y0261045D01*
X0006954Y0261193D01*
X0007014Y0261339D01*
X0007078Y0261484D01*
X0007146Y0261627D01*
X0007217Y0261769D01*
X0007291Y0261909D01*
X0007369Y0262046D01*
X0007451Y0262182D01*
X0007535Y0262316D01*
X0007624Y0262447D01*
X0007715Y0262576D01*
X0007810Y0262703D01*
X0007907Y0262828D01*
X0008008Y0262950D01*
X0008112Y0263069D01*
X0008219Y0263186D01*
X0008329Y0263300D01*
X0008442Y0263411D01*
X0008557Y0263520D01*
X0008675Y0263625D01*
X0008796Y0263727D01*
X0008919Y0263827D01*
X0009045Y0263923D01*
X0009173Y0264016D01*
X0009303Y0264106D01*
X0009436Y0264192D01*
X0009571Y0264276D01*
X0009707Y0264355D01*
X0009846Y0264432D01*
X0009987Y0264504D01*
X0010129Y0264574D01*
X0010273Y0264639D01*
X0010419Y0264701D01*
X0010566Y0264759D01*
X0010715Y0264814D01*
X0010865Y0264865D01*
X0011016Y0264912D01*
X0011168Y0264955D01*
X0011321Y0264994D01*
X0011476Y0265030D01*
X0011631Y0265061D01*
X0011787Y0265089D01*
X0011943Y0265113D01*
X0012100Y0265133D01*
X0012258Y0265149D01*
X0012415Y0265161D01*
X0012574Y0265169D01*
X0012732Y0265173D01*
X0012890Y0265173D01*
X0013048Y0265169D01*
X0013207Y0265161D01*
X0013364Y0265149D01*
X0013522Y0265133D01*
X0013679Y0265113D01*
X0013835Y0265089D01*
X0013991Y0265061D01*
X0014146Y0265030D01*
X0014301Y0264994D01*
X0014454Y0264955D01*
X0014606Y0264912D01*
X0014757Y0264865D01*
X0014907Y0264814D01*
X0015056Y0264759D01*
X0015203Y0264701D01*
X0015349Y0264639D01*
X0015493Y0264574D01*
X0015635Y0264504D01*
X0015776Y0264432D01*
X0015915Y0264355D01*
X0016051Y0264276D01*
X0016186Y0264192D01*
X0016319Y0264106D01*
X0016449Y0264016D01*
X0016577Y0263923D01*
X0016703Y0263827D01*
X0016826Y0263727D01*
X0016947Y0263625D01*
X0017065Y0263520D01*
X0017180Y0263411D01*
X0017293Y0263300D01*
X0017403Y0263186D01*
X0017510Y0263069D01*
X0017614Y0262950D01*
X0017715Y0262828D01*
X0017812Y0262703D01*
X0017907Y0262576D01*
X0017998Y0262447D01*
X0018087Y0262316D01*
X0018171Y0262182D01*
X0018253Y0262046D01*
X0018331Y0261909D01*
X0018405Y0261769D01*
X0018476Y0261627D01*
X0018544Y0261484D01*
X0018608Y0261339D01*
X0018668Y0261193D01*
X0018724Y0261045D01*
X0018777Y0260896D01*
X0018826Y0260745D01*
X0018871Y0260593D01*
X0018912Y0260440D01*
X0018950Y0260287D01*
X0018983Y0260132D01*
X0019013Y0259976D01*
X0019039Y0259820D01*
X0019060Y0259663D01*
X0019078Y0259506D01*
X0019092Y0259348D01*
X0019102Y0259190D01*
X0019108Y0259032D01*
X0019110Y0258874D01*
X0019108Y0258716D01*
X0019102Y0258558D01*
X0019092Y0258400D01*
X0019078Y0258242D01*
X0019060Y0258085D01*
X0019039Y0257928D01*
X0019013Y0257772D01*
X0018983Y0257616D01*
X0018950Y0257461D01*
X0018912Y0257308D01*
X0018871Y0257155D01*
X0018826Y0257003D01*
X0018777Y0256852D01*
X0018724Y0256703D01*
X0018668Y0256555D01*
X0018608Y0256409D01*
X0018544Y0256264D01*
X0018476Y0256121D01*
X0018405Y0255979D01*
X0018331Y0255839D01*
X0018253Y0255702D01*
X0018171Y0255566D01*
X0018087Y0255432D01*
X0017998Y0255301D01*
X0017907Y0255172D01*
X0017812Y0255045D01*
X0017715Y0254920D01*
X0017614Y0254798D01*
X0017510Y0254679D01*
X0017403Y0254562D01*
X0017293Y0254448D01*
X0017180Y0254337D01*
X0017065Y0254228D01*
X0016947Y0254123D01*
X0016826Y0254021D01*
X0016703Y0253921D01*
X0016577Y0253825D01*
X0016449Y0253732D01*
X0016319Y0253642D01*
X0016186Y0253556D01*
X0016051Y0253472D01*
X0015915Y0253393D01*
X0015776Y0253316D01*
X0015635Y0253244D01*
X0015493Y0253174D01*
X0015349Y0253109D01*
X0015203Y0253047D01*
X0015056Y0252989D01*
X0014907Y0252934D01*
X0014757Y0252883D01*
X0014606Y0252836D01*
X0014454Y0252793D01*
X0014301Y0252754D01*
X0014146Y0252718D01*
X0013991Y0252687D01*
X0013835Y0252659D01*
X0013679Y0252635D01*
X0013522Y0252615D01*
X0013364Y0252599D01*
X0013207Y0252587D01*
X0013048Y0252579D01*
X0012890Y0252575D01*
X0012732Y0252575D01*
X0012574Y0252579D01*
X0012415Y0252587D01*
X0012258Y0252599D01*
X0012100Y0252615D01*
X0011943Y0252635D01*
X0011787Y0252659D01*
X0011631Y0252687D01*
X0011476Y0252718D01*
X0011321Y0252754D01*
X0011168Y0252793D01*
X0011016Y0252836D01*
X0010865Y0252883D01*
X0010715Y0252934D01*
X0010566Y0252989D01*
X0010419Y0253047D01*
X0010273Y0253109D01*
X0010129Y0253174D01*
X0009987Y0253244D01*
X0009846Y0253316D01*
X0009707Y0253393D01*
X0009571Y0253472D01*
X0009436Y0253556D01*
X0009303Y0253642D01*
X0009173Y0253732D01*
X0009045Y0253825D01*
X0008919Y0253921D01*
X0008796Y0254021D01*
X0008675Y0254123D01*
X0008557Y0254228D01*
X0008442Y0254337D01*
X0008329Y0254448D01*
X0008219Y0254562D01*
X0008112Y0254679D01*
X0008008Y0254798D01*
X0007907Y0254920D01*
X0007810Y0255045D01*
X0007715Y0255172D01*
X0007624Y0255301D01*
X0007535Y0255432D01*
X0007451Y0255566D01*
X0007369Y0255702D01*
X0007291Y0255839D01*
X0007217Y0255979D01*
X0007146Y0256121D01*
X0007078Y0256264D01*
X0007014Y0256409D01*
X0006954Y0256555D01*
X0006898Y0256703D01*
X0006845Y0256852D01*
X0006796Y0257003D01*
X0006751Y0257155D01*
X0006710Y0257308D01*
X0006672Y0257461D01*
X0006639Y0257616D01*
X0006609Y0257772D01*
X0006583Y0257928D01*
X0006562Y0258085D01*
X0006544Y0258242D01*
X0006530Y0258400D01*
X0006520Y0258558D01*
X0006514Y0258716D01*
X0006512Y0258874D01*
D11*
X0004937Y0274622D02*
X0035449Y0274622D01*
X0041354Y0274622D02*
X0041354Y0331709D01*
X0094504Y0331709D02*
X0094504Y0274622D01*
X0100409Y0274622D02*
X0121079Y0274622D01*
X0126984Y0331709D02*
X0126984Y0010843D01*
X0126984Y0004937D02*
X0004937Y0004937D01*
X0132890Y0115173D02*
X0249031Y0115173D01*
M02*
