G75*
%MOIN*%
%OFA0B0*%
%FSLAX25Y25*%
%IPPOS*%
%LPD*%
%AMOC8*
5,1,8,0,0,1.08239X$1,22.5*
%
%ADD10C,0.00000*%
%ADD11C,0.07600*%
%ADD12C,0.04800*%
%ADD13OC8,0.07000*%
%ADD14R,0.06000X0.06000*%
%ADD15OC8,0.06000*%
%ADD16C,0.06000*%
%ADD17OC8,0.07600*%
%ADD18OC8,0.04800*%
%ADD19C,0.05600*%
%ADD20C,0.05400*%
%ADD21C,0.02400*%
%ADD22C,0.02400*%
%ADD23C,0.03000*%
%ADD24C,0.02578*%
D10*
X0001000Y0001000D02*
X0001000Y0335646D01*
X0252969Y0335646D01*
X0252969Y0001000D01*
X0001000Y0001000D01*
X0006512Y0022654D02*
X0006514Y0022812D01*
X0006520Y0022970D01*
X0006530Y0023128D01*
X0006544Y0023286D01*
X0006562Y0023443D01*
X0006583Y0023600D01*
X0006609Y0023756D01*
X0006639Y0023912D01*
X0006672Y0024067D01*
X0006710Y0024220D01*
X0006751Y0024373D01*
X0006796Y0024525D01*
X0006845Y0024676D01*
X0006898Y0024825D01*
X0006954Y0024973D01*
X0007014Y0025119D01*
X0007078Y0025264D01*
X0007146Y0025407D01*
X0007217Y0025549D01*
X0007291Y0025689D01*
X0007369Y0025826D01*
X0007451Y0025962D01*
X0007535Y0026096D01*
X0007624Y0026227D01*
X0007715Y0026356D01*
X0007810Y0026483D01*
X0007907Y0026608D01*
X0008008Y0026730D01*
X0008112Y0026849D01*
X0008219Y0026966D01*
X0008329Y0027080D01*
X0008442Y0027191D01*
X0008557Y0027300D01*
X0008675Y0027405D01*
X0008796Y0027507D01*
X0008919Y0027607D01*
X0009045Y0027703D01*
X0009173Y0027796D01*
X0009303Y0027886D01*
X0009436Y0027972D01*
X0009571Y0028056D01*
X0009707Y0028135D01*
X0009846Y0028212D01*
X0009987Y0028284D01*
X0010129Y0028354D01*
X0010273Y0028419D01*
X0010419Y0028481D01*
X0010566Y0028539D01*
X0010715Y0028594D01*
X0010865Y0028645D01*
X0011016Y0028692D01*
X0011168Y0028735D01*
X0011321Y0028774D01*
X0011476Y0028810D01*
X0011631Y0028841D01*
X0011787Y0028869D01*
X0011943Y0028893D01*
X0012100Y0028913D01*
X0012258Y0028929D01*
X0012415Y0028941D01*
X0012574Y0028949D01*
X0012732Y0028953D01*
X0012890Y0028953D01*
X0013048Y0028949D01*
X0013207Y0028941D01*
X0013364Y0028929D01*
X0013522Y0028913D01*
X0013679Y0028893D01*
X0013835Y0028869D01*
X0013991Y0028841D01*
X0014146Y0028810D01*
X0014301Y0028774D01*
X0014454Y0028735D01*
X0014606Y0028692D01*
X0014757Y0028645D01*
X0014907Y0028594D01*
X0015056Y0028539D01*
X0015203Y0028481D01*
X0015349Y0028419D01*
X0015493Y0028354D01*
X0015635Y0028284D01*
X0015776Y0028212D01*
X0015915Y0028135D01*
X0016051Y0028056D01*
X0016186Y0027972D01*
X0016319Y0027886D01*
X0016449Y0027796D01*
X0016577Y0027703D01*
X0016703Y0027607D01*
X0016826Y0027507D01*
X0016947Y0027405D01*
X0017065Y0027300D01*
X0017180Y0027191D01*
X0017293Y0027080D01*
X0017403Y0026966D01*
X0017510Y0026849D01*
X0017614Y0026730D01*
X0017715Y0026608D01*
X0017812Y0026483D01*
X0017907Y0026356D01*
X0017998Y0026227D01*
X0018087Y0026096D01*
X0018171Y0025962D01*
X0018253Y0025826D01*
X0018331Y0025689D01*
X0018405Y0025549D01*
X0018476Y0025407D01*
X0018544Y0025264D01*
X0018608Y0025119D01*
X0018668Y0024973D01*
X0018724Y0024825D01*
X0018777Y0024676D01*
X0018826Y0024525D01*
X0018871Y0024373D01*
X0018912Y0024220D01*
X0018950Y0024067D01*
X0018983Y0023912D01*
X0019013Y0023756D01*
X0019039Y0023600D01*
X0019060Y0023443D01*
X0019078Y0023286D01*
X0019092Y0023128D01*
X0019102Y0022970D01*
X0019108Y0022812D01*
X0019110Y0022654D01*
X0019108Y0022496D01*
X0019102Y0022338D01*
X0019092Y0022180D01*
X0019078Y0022022D01*
X0019060Y0021865D01*
X0019039Y0021708D01*
X0019013Y0021552D01*
X0018983Y0021396D01*
X0018950Y0021241D01*
X0018912Y0021088D01*
X0018871Y0020935D01*
X0018826Y0020783D01*
X0018777Y0020632D01*
X0018724Y0020483D01*
X0018668Y0020335D01*
X0018608Y0020189D01*
X0018544Y0020044D01*
X0018476Y0019901D01*
X0018405Y0019759D01*
X0018331Y0019619D01*
X0018253Y0019482D01*
X0018171Y0019346D01*
X0018087Y0019212D01*
X0017998Y0019081D01*
X0017907Y0018952D01*
X0017812Y0018825D01*
X0017715Y0018700D01*
X0017614Y0018578D01*
X0017510Y0018459D01*
X0017403Y0018342D01*
X0017293Y0018228D01*
X0017180Y0018117D01*
X0017065Y0018008D01*
X0016947Y0017903D01*
X0016826Y0017801D01*
X0016703Y0017701D01*
X0016577Y0017605D01*
X0016449Y0017512D01*
X0016319Y0017422D01*
X0016186Y0017336D01*
X0016051Y0017252D01*
X0015915Y0017173D01*
X0015776Y0017096D01*
X0015635Y0017024D01*
X0015493Y0016954D01*
X0015349Y0016889D01*
X0015203Y0016827D01*
X0015056Y0016769D01*
X0014907Y0016714D01*
X0014757Y0016663D01*
X0014606Y0016616D01*
X0014454Y0016573D01*
X0014301Y0016534D01*
X0014146Y0016498D01*
X0013991Y0016467D01*
X0013835Y0016439D01*
X0013679Y0016415D01*
X0013522Y0016395D01*
X0013364Y0016379D01*
X0013207Y0016367D01*
X0013048Y0016359D01*
X0012890Y0016355D01*
X0012732Y0016355D01*
X0012574Y0016359D01*
X0012415Y0016367D01*
X0012258Y0016379D01*
X0012100Y0016395D01*
X0011943Y0016415D01*
X0011787Y0016439D01*
X0011631Y0016467D01*
X0011476Y0016498D01*
X0011321Y0016534D01*
X0011168Y0016573D01*
X0011016Y0016616D01*
X0010865Y0016663D01*
X0010715Y0016714D01*
X0010566Y0016769D01*
X0010419Y0016827D01*
X0010273Y0016889D01*
X0010129Y0016954D01*
X0009987Y0017024D01*
X0009846Y0017096D01*
X0009707Y0017173D01*
X0009571Y0017252D01*
X0009436Y0017336D01*
X0009303Y0017422D01*
X0009173Y0017512D01*
X0009045Y0017605D01*
X0008919Y0017701D01*
X0008796Y0017801D01*
X0008675Y0017903D01*
X0008557Y0018008D01*
X0008442Y0018117D01*
X0008329Y0018228D01*
X0008219Y0018342D01*
X0008112Y0018459D01*
X0008008Y0018578D01*
X0007907Y0018700D01*
X0007810Y0018825D01*
X0007715Y0018952D01*
X0007624Y0019081D01*
X0007535Y0019212D01*
X0007451Y0019346D01*
X0007369Y0019482D01*
X0007291Y0019619D01*
X0007217Y0019759D01*
X0007146Y0019901D01*
X0007078Y0020044D01*
X0007014Y0020189D01*
X0006954Y0020335D01*
X0006898Y0020483D01*
X0006845Y0020632D01*
X0006796Y0020783D01*
X0006751Y0020935D01*
X0006710Y0021088D01*
X0006672Y0021241D01*
X0006639Y0021396D01*
X0006609Y0021552D01*
X0006583Y0021708D01*
X0006562Y0021865D01*
X0006544Y0022022D01*
X0006530Y0022180D01*
X0006520Y0022338D01*
X0006514Y0022496D01*
X0006512Y0022654D01*
X0104937Y0022654D02*
X0104939Y0022812D01*
X0104945Y0022970D01*
X0104955Y0023128D01*
X0104969Y0023286D01*
X0104987Y0023443D01*
X0105008Y0023600D01*
X0105034Y0023756D01*
X0105064Y0023912D01*
X0105097Y0024067D01*
X0105135Y0024220D01*
X0105176Y0024373D01*
X0105221Y0024525D01*
X0105270Y0024676D01*
X0105323Y0024825D01*
X0105379Y0024973D01*
X0105439Y0025119D01*
X0105503Y0025264D01*
X0105571Y0025407D01*
X0105642Y0025549D01*
X0105716Y0025689D01*
X0105794Y0025826D01*
X0105876Y0025962D01*
X0105960Y0026096D01*
X0106049Y0026227D01*
X0106140Y0026356D01*
X0106235Y0026483D01*
X0106332Y0026608D01*
X0106433Y0026730D01*
X0106537Y0026849D01*
X0106644Y0026966D01*
X0106754Y0027080D01*
X0106867Y0027191D01*
X0106982Y0027300D01*
X0107100Y0027405D01*
X0107221Y0027507D01*
X0107344Y0027607D01*
X0107470Y0027703D01*
X0107598Y0027796D01*
X0107728Y0027886D01*
X0107861Y0027972D01*
X0107996Y0028056D01*
X0108132Y0028135D01*
X0108271Y0028212D01*
X0108412Y0028284D01*
X0108554Y0028354D01*
X0108698Y0028419D01*
X0108844Y0028481D01*
X0108991Y0028539D01*
X0109140Y0028594D01*
X0109290Y0028645D01*
X0109441Y0028692D01*
X0109593Y0028735D01*
X0109746Y0028774D01*
X0109901Y0028810D01*
X0110056Y0028841D01*
X0110212Y0028869D01*
X0110368Y0028893D01*
X0110525Y0028913D01*
X0110683Y0028929D01*
X0110840Y0028941D01*
X0110999Y0028949D01*
X0111157Y0028953D01*
X0111315Y0028953D01*
X0111473Y0028949D01*
X0111632Y0028941D01*
X0111789Y0028929D01*
X0111947Y0028913D01*
X0112104Y0028893D01*
X0112260Y0028869D01*
X0112416Y0028841D01*
X0112571Y0028810D01*
X0112726Y0028774D01*
X0112879Y0028735D01*
X0113031Y0028692D01*
X0113182Y0028645D01*
X0113332Y0028594D01*
X0113481Y0028539D01*
X0113628Y0028481D01*
X0113774Y0028419D01*
X0113918Y0028354D01*
X0114060Y0028284D01*
X0114201Y0028212D01*
X0114340Y0028135D01*
X0114476Y0028056D01*
X0114611Y0027972D01*
X0114744Y0027886D01*
X0114874Y0027796D01*
X0115002Y0027703D01*
X0115128Y0027607D01*
X0115251Y0027507D01*
X0115372Y0027405D01*
X0115490Y0027300D01*
X0115605Y0027191D01*
X0115718Y0027080D01*
X0115828Y0026966D01*
X0115935Y0026849D01*
X0116039Y0026730D01*
X0116140Y0026608D01*
X0116237Y0026483D01*
X0116332Y0026356D01*
X0116423Y0026227D01*
X0116512Y0026096D01*
X0116596Y0025962D01*
X0116678Y0025826D01*
X0116756Y0025689D01*
X0116830Y0025549D01*
X0116901Y0025407D01*
X0116969Y0025264D01*
X0117033Y0025119D01*
X0117093Y0024973D01*
X0117149Y0024825D01*
X0117202Y0024676D01*
X0117251Y0024525D01*
X0117296Y0024373D01*
X0117337Y0024220D01*
X0117375Y0024067D01*
X0117408Y0023912D01*
X0117438Y0023756D01*
X0117464Y0023600D01*
X0117485Y0023443D01*
X0117503Y0023286D01*
X0117517Y0023128D01*
X0117527Y0022970D01*
X0117533Y0022812D01*
X0117535Y0022654D01*
X0117533Y0022496D01*
X0117527Y0022338D01*
X0117517Y0022180D01*
X0117503Y0022022D01*
X0117485Y0021865D01*
X0117464Y0021708D01*
X0117438Y0021552D01*
X0117408Y0021396D01*
X0117375Y0021241D01*
X0117337Y0021088D01*
X0117296Y0020935D01*
X0117251Y0020783D01*
X0117202Y0020632D01*
X0117149Y0020483D01*
X0117093Y0020335D01*
X0117033Y0020189D01*
X0116969Y0020044D01*
X0116901Y0019901D01*
X0116830Y0019759D01*
X0116756Y0019619D01*
X0116678Y0019482D01*
X0116596Y0019346D01*
X0116512Y0019212D01*
X0116423Y0019081D01*
X0116332Y0018952D01*
X0116237Y0018825D01*
X0116140Y0018700D01*
X0116039Y0018578D01*
X0115935Y0018459D01*
X0115828Y0018342D01*
X0115718Y0018228D01*
X0115605Y0018117D01*
X0115490Y0018008D01*
X0115372Y0017903D01*
X0115251Y0017801D01*
X0115128Y0017701D01*
X0115002Y0017605D01*
X0114874Y0017512D01*
X0114744Y0017422D01*
X0114611Y0017336D01*
X0114476Y0017252D01*
X0114340Y0017173D01*
X0114201Y0017096D01*
X0114060Y0017024D01*
X0113918Y0016954D01*
X0113774Y0016889D01*
X0113628Y0016827D01*
X0113481Y0016769D01*
X0113332Y0016714D01*
X0113182Y0016663D01*
X0113031Y0016616D01*
X0112879Y0016573D01*
X0112726Y0016534D01*
X0112571Y0016498D01*
X0112416Y0016467D01*
X0112260Y0016439D01*
X0112104Y0016415D01*
X0111947Y0016395D01*
X0111789Y0016379D01*
X0111632Y0016367D01*
X0111473Y0016359D01*
X0111315Y0016355D01*
X0111157Y0016355D01*
X0110999Y0016359D01*
X0110840Y0016367D01*
X0110683Y0016379D01*
X0110525Y0016395D01*
X0110368Y0016415D01*
X0110212Y0016439D01*
X0110056Y0016467D01*
X0109901Y0016498D01*
X0109746Y0016534D01*
X0109593Y0016573D01*
X0109441Y0016616D01*
X0109290Y0016663D01*
X0109140Y0016714D01*
X0108991Y0016769D01*
X0108844Y0016827D01*
X0108698Y0016889D01*
X0108554Y0016954D01*
X0108412Y0017024D01*
X0108271Y0017096D01*
X0108132Y0017173D01*
X0107996Y0017252D01*
X0107861Y0017336D01*
X0107728Y0017422D01*
X0107598Y0017512D01*
X0107470Y0017605D01*
X0107344Y0017701D01*
X0107221Y0017801D01*
X0107100Y0017903D01*
X0106982Y0018008D01*
X0106867Y0018117D01*
X0106754Y0018228D01*
X0106644Y0018342D01*
X0106537Y0018459D01*
X0106433Y0018578D01*
X0106332Y0018700D01*
X0106235Y0018825D01*
X0106140Y0018952D01*
X0106049Y0019081D01*
X0105960Y0019212D01*
X0105876Y0019346D01*
X0105794Y0019482D01*
X0105716Y0019619D01*
X0105642Y0019759D01*
X0105571Y0019901D01*
X0105503Y0020044D01*
X0105439Y0020189D01*
X0105379Y0020335D01*
X0105323Y0020483D01*
X0105270Y0020632D01*
X0105221Y0020783D01*
X0105176Y0020935D01*
X0105135Y0021088D01*
X0105097Y0021241D01*
X0105064Y0021396D01*
X0105034Y0021552D01*
X0105008Y0021708D01*
X0104987Y0021865D01*
X0104969Y0022022D01*
X0104955Y0022180D01*
X0104945Y0022338D01*
X0104939Y0022496D01*
X0104937Y0022654D01*
X0132496Y0130921D02*
X0132498Y0131079D01*
X0132504Y0131237D01*
X0132514Y0131395D01*
X0132528Y0131553D01*
X0132546Y0131710D01*
X0132567Y0131867D01*
X0132593Y0132023D01*
X0132623Y0132179D01*
X0132656Y0132334D01*
X0132694Y0132487D01*
X0132735Y0132640D01*
X0132780Y0132792D01*
X0132829Y0132943D01*
X0132882Y0133092D01*
X0132938Y0133240D01*
X0132998Y0133386D01*
X0133062Y0133531D01*
X0133130Y0133674D01*
X0133201Y0133816D01*
X0133275Y0133956D01*
X0133353Y0134093D01*
X0133435Y0134229D01*
X0133519Y0134363D01*
X0133608Y0134494D01*
X0133699Y0134623D01*
X0133794Y0134750D01*
X0133891Y0134875D01*
X0133992Y0134997D01*
X0134096Y0135116D01*
X0134203Y0135233D01*
X0134313Y0135347D01*
X0134426Y0135458D01*
X0134541Y0135567D01*
X0134659Y0135672D01*
X0134780Y0135774D01*
X0134903Y0135874D01*
X0135029Y0135970D01*
X0135157Y0136063D01*
X0135287Y0136153D01*
X0135420Y0136239D01*
X0135555Y0136323D01*
X0135691Y0136402D01*
X0135830Y0136479D01*
X0135971Y0136551D01*
X0136113Y0136621D01*
X0136257Y0136686D01*
X0136403Y0136748D01*
X0136550Y0136806D01*
X0136699Y0136861D01*
X0136849Y0136912D01*
X0137000Y0136959D01*
X0137152Y0137002D01*
X0137305Y0137041D01*
X0137460Y0137077D01*
X0137615Y0137108D01*
X0137771Y0137136D01*
X0137927Y0137160D01*
X0138084Y0137180D01*
X0138242Y0137196D01*
X0138399Y0137208D01*
X0138558Y0137216D01*
X0138716Y0137220D01*
X0138874Y0137220D01*
X0139032Y0137216D01*
X0139191Y0137208D01*
X0139348Y0137196D01*
X0139506Y0137180D01*
X0139663Y0137160D01*
X0139819Y0137136D01*
X0139975Y0137108D01*
X0140130Y0137077D01*
X0140285Y0137041D01*
X0140438Y0137002D01*
X0140590Y0136959D01*
X0140741Y0136912D01*
X0140891Y0136861D01*
X0141040Y0136806D01*
X0141187Y0136748D01*
X0141333Y0136686D01*
X0141477Y0136621D01*
X0141619Y0136551D01*
X0141760Y0136479D01*
X0141899Y0136402D01*
X0142035Y0136323D01*
X0142170Y0136239D01*
X0142303Y0136153D01*
X0142433Y0136063D01*
X0142561Y0135970D01*
X0142687Y0135874D01*
X0142810Y0135774D01*
X0142931Y0135672D01*
X0143049Y0135567D01*
X0143164Y0135458D01*
X0143277Y0135347D01*
X0143387Y0135233D01*
X0143494Y0135116D01*
X0143598Y0134997D01*
X0143699Y0134875D01*
X0143796Y0134750D01*
X0143891Y0134623D01*
X0143982Y0134494D01*
X0144071Y0134363D01*
X0144155Y0134229D01*
X0144237Y0134093D01*
X0144315Y0133956D01*
X0144389Y0133816D01*
X0144460Y0133674D01*
X0144528Y0133531D01*
X0144592Y0133386D01*
X0144652Y0133240D01*
X0144708Y0133092D01*
X0144761Y0132943D01*
X0144810Y0132792D01*
X0144855Y0132640D01*
X0144896Y0132487D01*
X0144934Y0132334D01*
X0144967Y0132179D01*
X0144997Y0132023D01*
X0145023Y0131867D01*
X0145044Y0131710D01*
X0145062Y0131553D01*
X0145076Y0131395D01*
X0145086Y0131237D01*
X0145092Y0131079D01*
X0145094Y0130921D01*
X0145092Y0130763D01*
X0145086Y0130605D01*
X0145076Y0130447D01*
X0145062Y0130289D01*
X0145044Y0130132D01*
X0145023Y0129975D01*
X0144997Y0129819D01*
X0144967Y0129663D01*
X0144934Y0129508D01*
X0144896Y0129355D01*
X0144855Y0129202D01*
X0144810Y0129050D01*
X0144761Y0128899D01*
X0144708Y0128750D01*
X0144652Y0128602D01*
X0144592Y0128456D01*
X0144528Y0128311D01*
X0144460Y0128168D01*
X0144389Y0128026D01*
X0144315Y0127886D01*
X0144237Y0127749D01*
X0144155Y0127613D01*
X0144071Y0127479D01*
X0143982Y0127348D01*
X0143891Y0127219D01*
X0143796Y0127092D01*
X0143699Y0126967D01*
X0143598Y0126845D01*
X0143494Y0126726D01*
X0143387Y0126609D01*
X0143277Y0126495D01*
X0143164Y0126384D01*
X0143049Y0126275D01*
X0142931Y0126170D01*
X0142810Y0126068D01*
X0142687Y0125968D01*
X0142561Y0125872D01*
X0142433Y0125779D01*
X0142303Y0125689D01*
X0142170Y0125603D01*
X0142035Y0125519D01*
X0141899Y0125440D01*
X0141760Y0125363D01*
X0141619Y0125291D01*
X0141477Y0125221D01*
X0141333Y0125156D01*
X0141187Y0125094D01*
X0141040Y0125036D01*
X0140891Y0124981D01*
X0140741Y0124930D01*
X0140590Y0124883D01*
X0140438Y0124840D01*
X0140285Y0124801D01*
X0140130Y0124765D01*
X0139975Y0124734D01*
X0139819Y0124706D01*
X0139663Y0124682D01*
X0139506Y0124662D01*
X0139348Y0124646D01*
X0139191Y0124634D01*
X0139032Y0124626D01*
X0138874Y0124622D01*
X0138716Y0124622D01*
X0138558Y0124626D01*
X0138399Y0124634D01*
X0138242Y0124646D01*
X0138084Y0124662D01*
X0137927Y0124682D01*
X0137771Y0124706D01*
X0137615Y0124734D01*
X0137460Y0124765D01*
X0137305Y0124801D01*
X0137152Y0124840D01*
X0137000Y0124883D01*
X0136849Y0124930D01*
X0136699Y0124981D01*
X0136550Y0125036D01*
X0136403Y0125094D01*
X0136257Y0125156D01*
X0136113Y0125221D01*
X0135971Y0125291D01*
X0135830Y0125363D01*
X0135691Y0125440D01*
X0135555Y0125519D01*
X0135420Y0125603D01*
X0135287Y0125689D01*
X0135157Y0125779D01*
X0135029Y0125872D01*
X0134903Y0125968D01*
X0134780Y0126068D01*
X0134659Y0126170D01*
X0134541Y0126275D01*
X0134426Y0126384D01*
X0134313Y0126495D01*
X0134203Y0126609D01*
X0134096Y0126726D01*
X0133992Y0126845D01*
X0133891Y0126967D01*
X0133794Y0127092D01*
X0133699Y0127219D01*
X0133608Y0127348D01*
X0133519Y0127479D01*
X0133435Y0127613D01*
X0133353Y0127749D01*
X0133275Y0127886D01*
X0133201Y0128026D01*
X0133130Y0128168D01*
X0133062Y0128311D01*
X0132998Y0128456D01*
X0132938Y0128602D01*
X0132882Y0128750D01*
X0132829Y0128899D01*
X0132780Y0129050D01*
X0132735Y0129202D01*
X0132694Y0129355D01*
X0132656Y0129508D01*
X0132623Y0129663D01*
X0132593Y0129819D01*
X0132567Y0129975D01*
X0132546Y0130132D01*
X0132528Y0130289D01*
X0132514Y0130447D01*
X0132504Y0130605D01*
X0132498Y0130763D01*
X0132496Y0130921D01*
X0104937Y0258874D02*
X0104939Y0259032D01*
X0104945Y0259190D01*
X0104955Y0259348D01*
X0104969Y0259506D01*
X0104987Y0259663D01*
X0105008Y0259820D01*
X0105034Y0259976D01*
X0105064Y0260132D01*
X0105097Y0260287D01*
X0105135Y0260440D01*
X0105176Y0260593D01*
X0105221Y0260745D01*
X0105270Y0260896D01*
X0105323Y0261045D01*
X0105379Y0261193D01*
X0105439Y0261339D01*
X0105503Y0261484D01*
X0105571Y0261627D01*
X0105642Y0261769D01*
X0105716Y0261909D01*
X0105794Y0262046D01*
X0105876Y0262182D01*
X0105960Y0262316D01*
X0106049Y0262447D01*
X0106140Y0262576D01*
X0106235Y0262703D01*
X0106332Y0262828D01*
X0106433Y0262950D01*
X0106537Y0263069D01*
X0106644Y0263186D01*
X0106754Y0263300D01*
X0106867Y0263411D01*
X0106982Y0263520D01*
X0107100Y0263625D01*
X0107221Y0263727D01*
X0107344Y0263827D01*
X0107470Y0263923D01*
X0107598Y0264016D01*
X0107728Y0264106D01*
X0107861Y0264192D01*
X0107996Y0264276D01*
X0108132Y0264355D01*
X0108271Y0264432D01*
X0108412Y0264504D01*
X0108554Y0264574D01*
X0108698Y0264639D01*
X0108844Y0264701D01*
X0108991Y0264759D01*
X0109140Y0264814D01*
X0109290Y0264865D01*
X0109441Y0264912D01*
X0109593Y0264955D01*
X0109746Y0264994D01*
X0109901Y0265030D01*
X0110056Y0265061D01*
X0110212Y0265089D01*
X0110368Y0265113D01*
X0110525Y0265133D01*
X0110683Y0265149D01*
X0110840Y0265161D01*
X0110999Y0265169D01*
X0111157Y0265173D01*
X0111315Y0265173D01*
X0111473Y0265169D01*
X0111632Y0265161D01*
X0111789Y0265149D01*
X0111947Y0265133D01*
X0112104Y0265113D01*
X0112260Y0265089D01*
X0112416Y0265061D01*
X0112571Y0265030D01*
X0112726Y0264994D01*
X0112879Y0264955D01*
X0113031Y0264912D01*
X0113182Y0264865D01*
X0113332Y0264814D01*
X0113481Y0264759D01*
X0113628Y0264701D01*
X0113774Y0264639D01*
X0113918Y0264574D01*
X0114060Y0264504D01*
X0114201Y0264432D01*
X0114340Y0264355D01*
X0114476Y0264276D01*
X0114611Y0264192D01*
X0114744Y0264106D01*
X0114874Y0264016D01*
X0115002Y0263923D01*
X0115128Y0263827D01*
X0115251Y0263727D01*
X0115372Y0263625D01*
X0115490Y0263520D01*
X0115605Y0263411D01*
X0115718Y0263300D01*
X0115828Y0263186D01*
X0115935Y0263069D01*
X0116039Y0262950D01*
X0116140Y0262828D01*
X0116237Y0262703D01*
X0116332Y0262576D01*
X0116423Y0262447D01*
X0116512Y0262316D01*
X0116596Y0262182D01*
X0116678Y0262046D01*
X0116756Y0261909D01*
X0116830Y0261769D01*
X0116901Y0261627D01*
X0116969Y0261484D01*
X0117033Y0261339D01*
X0117093Y0261193D01*
X0117149Y0261045D01*
X0117202Y0260896D01*
X0117251Y0260745D01*
X0117296Y0260593D01*
X0117337Y0260440D01*
X0117375Y0260287D01*
X0117408Y0260132D01*
X0117438Y0259976D01*
X0117464Y0259820D01*
X0117485Y0259663D01*
X0117503Y0259506D01*
X0117517Y0259348D01*
X0117527Y0259190D01*
X0117533Y0259032D01*
X0117535Y0258874D01*
X0117533Y0258716D01*
X0117527Y0258558D01*
X0117517Y0258400D01*
X0117503Y0258242D01*
X0117485Y0258085D01*
X0117464Y0257928D01*
X0117438Y0257772D01*
X0117408Y0257616D01*
X0117375Y0257461D01*
X0117337Y0257308D01*
X0117296Y0257155D01*
X0117251Y0257003D01*
X0117202Y0256852D01*
X0117149Y0256703D01*
X0117093Y0256555D01*
X0117033Y0256409D01*
X0116969Y0256264D01*
X0116901Y0256121D01*
X0116830Y0255979D01*
X0116756Y0255839D01*
X0116678Y0255702D01*
X0116596Y0255566D01*
X0116512Y0255432D01*
X0116423Y0255301D01*
X0116332Y0255172D01*
X0116237Y0255045D01*
X0116140Y0254920D01*
X0116039Y0254798D01*
X0115935Y0254679D01*
X0115828Y0254562D01*
X0115718Y0254448D01*
X0115605Y0254337D01*
X0115490Y0254228D01*
X0115372Y0254123D01*
X0115251Y0254021D01*
X0115128Y0253921D01*
X0115002Y0253825D01*
X0114874Y0253732D01*
X0114744Y0253642D01*
X0114611Y0253556D01*
X0114476Y0253472D01*
X0114340Y0253393D01*
X0114201Y0253316D01*
X0114060Y0253244D01*
X0113918Y0253174D01*
X0113774Y0253109D01*
X0113628Y0253047D01*
X0113481Y0252989D01*
X0113332Y0252934D01*
X0113182Y0252883D01*
X0113031Y0252836D01*
X0112879Y0252793D01*
X0112726Y0252754D01*
X0112571Y0252718D01*
X0112416Y0252687D01*
X0112260Y0252659D01*
X0112104Y0252635D01*
X0111947Y0252615D01*
X0111789Y0252599D01*
X0111632Y0252587D01*
X0111473Y0252579D01*
X0111315Y0252575D01*
X0111157Y0252575D01*
X0110999Y0252579D01*
X0110840Y0252587D01*
X0110683Y0252599D01*
X0110525Y0252615D01*
X0110368Y0252635D01*
X0110212Y0252659D01*
X0110056Y0252687D01*
X0109901Y0252718D01*
X0109746Y0252754D01*
X0109593Y0252793D01*
X0109441Y0252836D01*
X0109290Y0252883D01*
X0109140Y0252934D01*
X0108991Y0252989D01*
X0108844Y0253047D01*
X0108698Y0253109D01*
X0108554Y0253174D01*
X0108412Y0253244D01*
X0108271Y0253316D01*
X0108132Y0253393D01*
X0107996Y0253472D01*
X0107861Y0253556D01*
X0107728Y0253642D01*
X0107598Y0253732D01*
X0107470Y0253825D01*
X0107344Y0253921D01*
X0107221Y0254021D01*
X0107100Y0254123D01*
X0106982Y0254228D01*
X0106867Y0254337D01*
X0106754Y0254448D01*
X0106644Y0254562D01*
X0106537Y0254679D01*
X0106433Y0254798D01*
X0106332Y0254920D01*
X0106235Y0255045D01*
X0106140Y0255172D01*
X0106049Y0255301D01*
X0105960Y0255432D01*
X0105876Y0255566D01*
X0105794Y0255702D01*
X0105716Y0255839D01*
X0105642Y0255979D01*
X0105571Y0256121D01*
X0105503Y0256264D01*
X0105439Y0256409D01*
X0105379Y0256555D01*
X0105323Y0256703D01*
X0105270Y0256852D01*
X0105221Y0257003D01*
X0105176Y0257155D01*
X0105135Y0257308D01*
X0105097Y0257461D01*
X0105064Y0257616D01*
X0105034Y0257772D01*
X0105008Y0257928D01*
X0104987Y0258085D01*
X0104969Y0258242D01*
X0104955Y0258400D01*
X0104945Y0258558D01*
X0104939Y0258716D01*
X0104937Y0258874D01*
X0132496Y0323835D02*
X0132498Y0323993D01*
X0132504Y0324151D01*
X0132514Y0324309D01*
X0132528Y0324467D01*
X0132546Y0324624D01*
X0132567Y0324781D01*
X0132593Y0324937D01*
X0132623Y0325093D01*
X0132656Y0325248D01*
X0132694Y0325401D01*
X0132735Y0325554D01*
X0132780Y0325706D01*
X0132829Y0325857D01*
X0132882Y0326006D01*
X0132938Y0326154D01*
X0132998Y0326300D01*
X0133062Y0326445D01*
X0133130Y0326588D01*
X0133201Y0326730D01*
X0133275Y0326870D01*
X0133353Y0327007D01*
X0133435Y0327143D01*
X0133519Y0327277D01*
X0133608Y0327408D01*
X0133699Y0327537D01*
X0133794Y0327664D01*
X0133891Y0327789D01*
X0133992Y0327911D01*
X0134096Y0328030D01*
X0134203Y0328147D01*
X0134313Y0328261D01*
X0134426Y0328372D01*
X0134541Y0328481D01*
X0134659Y0328586D01*
X0134780Y0328688D01*
X0134903Y0328788D01*
X0135029Y0328884D01*
X0135157Y0328977D01*
X0135287Y0329067D01*
X0135420Y0329153D01*
X0135555Y0329237D01*
X0135691Y0329316D01*
X0135830Y0329393D01*
X0135971Y0329465D01*
X0136113Y0329535D01*
X0136257Y0329600D01*
X0136403Y0329662D01*
X0136550Y0329720D01*
X0136699Y0329775D01*
X0136849Y0329826D01*
X0137000Y0329873D01*
X0137152Y0329916D01*
X0137305Y0329955D01*
X0137460Y0329991D01*
X0137615Y0330022D01*
X0137771Y0330050D01*
X0137927Y0330074D01*
X0138084Y0330094D01*
X0138242Y0330110D01*
X0138399Y0330122D01*
X0138558Y0330130D01*
X0138716Y0330134D01*
X0138874Y0330134D01*
X0139032Y0330130D01*
X0139191Y0330122D01*
X0139348Y0330110D01*
X0139506Y0330094D01*
X0139663Y0330074D01*
X0139819Y0330050D01*
X0139975Y0330022D01*
X0140130Y0329991D01*
X0140285Y0329955D01*
X0140438Y0329916D01*
X0140590Y0329873D01*
X0140741Y0329826D01*
X0140891Y0329775D01*
X0141040Y0329720D01*
X0141187Y0329662D01*
X0141333Y0329600D01*
X0141477Y0329535D01*
X0141619Y0329465D01*
X0141760Y0329393D01*
X0141899Y0329316D01*
X0142035Y0329237D01*
X0142170Y0329153D01*
X0142303Y0329067D01*
X0142433Y0328977D01*
X0142561Y0328884D01*
X0142687Y0328788D01*
X0142810Y0328688D01*
X0142931Y0328586D01*
X0143049Y0328481D01*
X0143164Y0328372D01*
X0143277Y0328261D01*
X0143387Y0328147D01*
X0143494Y0328030D01*
X0143598Y0327911D01*
X0143699Y0327789D01*
X0143796Y0327664D01*
X0143891Y0327537D01*
X0143982Y0327408D01*
X0144071Y0327277D01*
X0144155Y0327143D01*
X0144237Y0327007D01*
X0144315Y0326870D01*
X0144389Y0326730D01*
X0144460Y0326588D01*
X0144528Y0326445D01*
X0144592Y0326300D01*
X0144652Y0326154D01*
X0144708Y0326006D01*
X0144761Y0325857D01*
X0144810Y0325706D01*
X0144855Y0325554D01*
X0144896Y0325401D01*
X0144934Y0325248D01*
X0144967Y0325093D01*
X0144997Y0324937D01*
X0145023Y0324781D01*
X0145044Y0324624D01*
X0145062Y0324467D01*
X0145076Y0324309D01*
X0145086Y0324151D01*
X0145092Y0323993D01*
X0145094Y0323835D01*
X0145092Y0323677D01*
X0145086Y0323519D01*
X0145076Y0323361D01*
X0145062Y0323203D01*
X0145044Y0323046D01*
X0145023Y0322889D01*
X0144997Y0322733D01*
X0144967Y0322577D01*
X0144934Y0322422D01*
X0144896Y0322269D01*
X0144855Y0322116D01*
X0144810Y0321964D01*
X0144761Y0321813D01*
X0144708Y0321664D01*
X0144652Y0321516D01*
X0144592Y0321370D01*
X0144528Y0321225D01*
X0144460Y0321082D01*
X0144389Y0320940D01*
X0144315Y0320800D01*
X0144237Y0320663D01*
X0144155Y0320527D01*
X0144071Y0320393D01*
X0143982Y0320262D01*
X0143891Y0320133D01*
X0143796Y0320006D01*
X0143699Y0319881D01*
X0143598Y0319759D01*
X0143494Y0319640D01*
X0143387Y0319523D01*
X0143277Y0319409D01*
X0143164Y0319298D01*
X0143049Y0319189D01*
X0142931Y0319084D01*
X0142810Y0318982D01*
X0142687Y0318882D01*
X0142561Y0318786D01*
X0142433Y0318693D01*
X0142303Y0318603D01*
X0142170Y0318517D01*
X0142035Y0318433D01*
X0141899Y0318354D01*
X0141760Y0318277D01*
X0141619Y0318205D01*
X0141477Y0318135D01*
X0141333Y0318070D01*
X0141187Y0318008D01*
X0141040Y0317950D01*
X0140891Y0317895D01*
X0140741Y0317844D01*
X0140590Y0317797D01*
X0140438Y0317754D01*
X0140285Y0317715D01*
X0140130Y0317679D01*
X0139975Y0317648D01*
X0139819Y0317620D01*
X0139663Y0317596D01*
X0139506Y0317576D01*
X0139348Y0317560D01*
X0139191Y0317548D01*
X0139032Y0317540D01*
X0138874Y0317536D01*
X0138716Y0317536D01*
X0138558Y0317540D01*
X0138399Y0317548D01*
X0138242Y0317560D01*
X0138084Y0317576D01*
X0137927Y0317596D01*
X0137771Y0317620D01*
X0137615Y0317648D01*
X0137460Y0317679D01*
X0137305Y0317715D01*
X0137152Y0317754D01*
X0137000Y0317797D01*
X0136849Y0317844D01*
X0136699Y0317895D01*
X0136550Y0317950D01*
X0136403Y0318008D01*
X0136257Y0318070D01*
X0136113Y0318135D01*
X0135971Y0318205D01*
X0135830Y0318277D01*
X0135691Y0318354D01*
X0135555Y0318433D01*
X0135420Y0318517D01*
X0135287Y0318603D01*
X0135157Y0318693D01*
X0135029Y0318786D01*
X0134903Y0318882D01*
X0134780Y0318982D01*
X0134659Y0319084D01*
X0134541Y0319189D01*
X0134426Y0319298D01*
X0134313Y0319409D01*
X0134203Y0319523D01*
X0134096Y0319640D01*
X0133992Y0319759D01*
X0133891Y0319881D01*
X0133794Y0320006D01*
X0133699Y0320133D01*
X0133608Y0320262D01*
X0133519Y0320393D01*
X0133435Y0320527D01*
X0133353Y0320663D01*
X0133275Y0320800D01*
X0133201Y0320940D01*
X0133130Y0321082D01*
X0133062Y0321225D01*
X0132998Y0321370D01*
X0132938Y0321516D01*
X0132882Y0321664D01*
X0132829Y0321813D01*
X0132780Y0321964D01*
X0132735Y0322116D01*
X0132694Y0322269D01*
X0132656Y0322422D01*
X0132623Y0322577D01*
X0132593Y0322733D01*
X0132567Y0322889D01*
X0132546Y0323046D01*
X0132528Y0323203D01*
X0132514Y0323361D01*
X0132504Y0323519D01*
X0132498Y0323677D01*
X0132496Y0323835D01*
X0230921Y0323835D02*
X0230923Y0323993D01*
X0230929Y0324151D01*
X0230939Y0324309D01*
X0230953Y0324467D01*
X0230971Y0324624D01*
X0230992Y0324781D01*
X0231018Y0324937D01*
X0231048Y0325093D01*
X0231081Y0325248D01*
X0231119Y0325401D01*
X0231160Y0325554D01*
X0231205Y0325706D01*
X0231254Y0325857D01*
X0231307Y0326006D01*
X0231363Y0326154D01*
X0231423Y0326300D01*
X0231487Y0326445D01*
X0231555Y0326588D01*
X0231626Y0326730D01*
X0231700Y0326870D01*
X0231778Y0327007D01*
X0231860Y0327143D01*
X0231944Y0327277D01*
X0232033Y0327408D01*
X0232124Y0327537D01*
X0232219Y0327664D01*
X0232316Y0327789D01*
X0232417Y0327911D01*
X0232521Y0328030D01*
X0232628Y0328147D01*
X0232738Y0328261D01*
X0232851Y0328372D01*
X0232966Y0328481D01*
X0233084Y0328586D01*
X0233205Y0328688D01*
X0233328Y0328788D01*
X0233454Y0328884D01*
X0233582Y0328977D01*
X0233712Y0329067D01*
X0233845Y0329153D01*
X0233980Y0329237D01*
X0234116Y0329316D01*
X0234255Y0329393D01*
X0234396Y0329465D01*
X0234538Y0329535D01*
X0234682Y0329600D01*
X0234828Y0329662D01*
X0234975Y0329720D01*
X0235124Y0329775D01*
X0235274Y0329826D01*
X0235425Y0329873D01*
X0235577Y0329916D01*
X0235730Y0329955D01*
X0235885Y0329991D01*
X0236040Y0330022D01*
X0236196Y0330050D01*
X0236352Y0330074D01*
X0236509Y0330094D01*
X0236667Y0330110D01*
X0236824Y0330122D01*
X0236983Y0330130D01*
X0237141Y0330134D01*
X0237299Y0330134D01*
X0237457Y0330130D01*
X0237616Y0330122D01*
X0237773Y0330110D01*
X0237931Y0330094D01*
X0238088Y0330074D01*
X0238244Y0330050D01*
X0238400Y0330022D01*
X0238555Y0329991D01*
X0238710Y0329955D01*
X0238863Y0329916D01*
X0239015Y0329873D01*
X0239166Y0329826D01*
X0239316Y0329775D01*
X0239465Y0329720D01*
X0239612Y0329662D01*
X0239758Y0329600D01*
X0239902Y0329535D01*
X0240044Y0329465D01*
X0240185Y0329393D01*
X0240324Y0329316D01*
X0240460Y0329237D01*
X0240595Y0329153D01*
X0240728Y0329067D01*
X0240858Y0328977D01*
X0240986Y0328884D01*
X0241112Y0328788D01*
X0241235Y0328688D01*
X0241356Y0328586D01*
X0241474Y0328481D01*
X0241589Y0328372D01*
X0241702Y0328261D01*
X0241812Y0328147D01*
X0241919Y0328030D01*
X0242023Y0327911D01*
X0242124Y0327789D01*
X0242221Y0327664D01*
X0242316Y0327537D01*
X0242407Y0327408D01*
X0242496Y0327277D01*
X0242580Y0327143D01*
X0242662Y0327007D01*
X0242740Y0326870D01*
X0242814Y0326730D01*
X0242885Y0326588D01*
X0242953Y0326445D01*
X0243017Y0326300D01*
X0243077Y0326154D01*
X0243133Y0326006D01*
X0243186Y0325857D01*
X0243235Y0325706D01*
X0243280Y0325554D01*
X0243321Y0325401D01*
X0243359Y0325248D01*
X0243392Y0325093D01*
X0243422Y0324937D01*
X0243448Y0324781D01*
X0243469Y0324624D01*
X0243487Y0324467D01*
X0243501Y0324309D01*
X0243511Y0324151D01*
X0243517Y0323993D01*
X0243519Y0323835D01*
X0243517Y0323677D01*
X0243511Y0323519D01*
X0243501Y0323361D01*
X0243487Y0323203D01*
X0243469Y0323046D01*
X0243448Y0322889D01*
X0243422Y0322733D01*
X0243392Y0322577D01*
X0243359Y0322422D01*
X0243321Y0322269D01*
X0243280Y0322116D01*
X0243235Y0321964D01*
X0243186Y0321813D01*
X0243133Y0321664D01*
X0243077Y0321516D01*
X0243017Y0321370D01*
X0242953Y0321225D01*
X0242885Y0321082D01*
X0242814Y0320940D01*
X0242740Y0320800D01*
X0242662Y0320663D01*
X0242580Y0320527D01*
X0242496Y0320393D01*
X0242407Y0320262D01*
X0242316Y0320133D01*
X0242221Y0320006D01*
X0242124Y0319881D01*
X0242023Y0319759D01*
X0241919Y0319640D01*
X0241812Y0319523D01*
X0241702Y0319409D01*
X0241589Y0319298D01*
X0241474Y0319189D01*
X0241356Y0319084D01*
X0241235Y0318982D01*
X0241112Y0318882D01*
X0240986Y0318786D01*
X0240858Y0318693D01*
X0240728Y0318603D01*
X0240595Y0318517D01*
X0240460Y0318433D01*
X0240324Y0318354D01*
X0240185Y0318277D01*
X0240044Y0318205D01*
X0239902Y0318135D01*
X0239758Y0318070D01*
X0239612Y0318008D01*
X0239465Y0317950D01*
X0239316Y0317895D01*
X0239166Y0317844D01*
X0239015Y0317797D01*
X0238863Y0317754D01*
X0238710Y0317715D01*
X0238555Y0317679D01*
X0238400Y0317648D01*
X0238244Y0317620D01*
X0238088Y0317596D01*
X0237931Y0317576D01*
X0237773Y0317560D01*
X0237616Y0317548D01*
X0237457Y0317540D01*
X0237299Y0317536D01*
X0237141Y0317536D01*
X0236983Y0317540D01*
X0236824Y0317548D01*
X0236667Y0317560D01*
X0236509Y0317576D01*
X0236352Y0317596D01*
X0236196Y0317620D01*
X0236040Y0317648D01*
X0235885Y0317679D01*
X0235730Y0317715D01*
X0235577Y0317754D01*
X0235425Y0317797D01*
X0235274Y0317844D01*
X0235124Y0317895D01*
X0234975Y0317950D01*
X0234828Y0318008D01*
X0234682Y0318070D01*
X0234538Y0318135D01*
X0234396Y0318205D01*
X0234255Y0318277D01*
X0234116Y0318354D01*
X0233980Y0318433D01*
X0233845Y0318517D01*
X0233712Y0318603D01*
X0233582Y0318693D01*
X0233454Y0318786D01*
X0233328Y0318882D01*
X0233205Y0318982D01*
X0233084Y0319084D01*
X0232966Y0319189D01*
X0232851Y0319298D01*
X0232738Y0319409D01*
X0232628Y0319523D01*
X0232521Y0319640D01*
X0232417Y0319759D01*
X0232316Y0319881D01*
X0232219Y0320006D01*
X0232124Y0320133D01*
X0232033Y0320262D01*
X0231944Y0320393D01*
X0231860Y0320527D01*
X0231778Y0320663D01*
X0231700Y0320800D01*
X0231626Y0320940D01*
X0231555Y0321082D01*
X0231487Y0321225D01*
X0231423Y0321370D01*
X0231363Y0321516D01*
X0231307Y0321664D01*
X0231254Y0321813D01*
X0231205Y0321964D01*
X0231160Y0322116D01*
X0231119Y0322269D01*
X0231081Y0322422D01*
X0231048Y0322577D01*
X0231018Y0322733D01*
X0230992Y0322889D01*
X0230971Y0323046D01*
X0230953Y0323203D01*
X0230939Y0323361D01*
X0230929Y0323519D01*
X0230923Y0323677D01*
X0230921Y0323835D01*
X0230921Y0130921D02*
X0230923Y0131079D01*
X0230929Y0131237D01*
X0230939Y0131395D01*
X0230953Y0131553D01*
X0230971Y0131710D01*
X0230992Y0131867D01*
X0231018Y0132023D01*
X0231048Y0132179D01*
X0231081Y0132334D01*
X0231119Y0132487D01*
X0231160Y0132640D01*
X0231205Y0132792D01*
X0231254Y0132943D01*
X0231307Y0133092D01*
X0231363Y0133240D01*
X0231423Y0133386D01*
X0231487Y0133531D01*
X0231555Y0133674D01*
X0231626Y0133816D01*
X0231700Y0133956D01*
X0231778Y0134093D01*
X0231860Y0134229D01*
X0231944Y0134363D01*
X0232033Y0134494D01*
X0232124Y0134623D01*
X0232219Y0134750D01*
X0232316Y0134875D01*
X0232417Y0134997D01*
X0232521Y0135116D01*
X0232628Y0135233D01*
X0232738Y0135347D01*
X0232851Y0135458D01*
X0232966Y0135567D01*
X0233084Y0135672D01*
X0233205Y0135774D01*
X0233328Y0135874D01*
X0233454Y0135970D01*
X0233582Y0136063D01*
X0233712Y0136153D01*
X0233845Y0136239D01*
X0233980Y0136323D01*
X0234116Y0136402D01*
X0234255Y0136479D01*
X0234396Y0136551D01*
X0234538Y0136621D01*
X0234682Y0136686D01*
X0234828Y0136748D01*
X0234975Y0136806D01*
X0235124Y0136861D01*
X0235274Y0136912D01*
X0235425Y0136959D01*
X0235577Y0137002D01*
X0235730Y0137041D01*
X0235885Y0137077D01*
X0236040Y0137108D01*
X0236196Y0137136D01*
X0236352Y0137160D01*
X0236509Y0137180D01*
X0236667Y0137196D01*
X0236824Y0137208D01*
X0236983Y0137216D01*
X0237141Y0137220D01*
X0237299Y0137220D01*
X0237457Y0137216D01*
X0237616Y0137208D01*
X0237773Y0137196D01*
X0237931Y0137180D01*
X0238088Y0137160D01*
X0238244Y0137136D01*
X0238400Y0137108D01*
X0238555Y0137077D01*
X0238710Y0137041D01*
X0238863Y0137002D01*
X0239015Y0136959D01*
X0239166Y0136912D01*
X0239316Y0136861D01*
X0239465Y0136806D01*
X0239612Y0136748D01*
X0239758Y0136686D01*
X0239902Y0136621D01*
X0240044Y0136551D01*
X0240185Y0136479D01*
X0240324Y0136402D01*
X0240460Y0136323D01*
X0240595Y0136239D01*
X0240728Y0136153D01*
X0240858Y0136063D01*
X0240986Y0135970D01*
X0241112Y0135874D01*
X0241235Y0135774D01*
X0241356Y0135672D01*
X0241474Y0135567D01*
X0241589Y0135458D01*
X0241702Y0135347D01*
X0241812Y0135233D01*
X0241919Y0135116D01*
X0242023Y0134997D01*
X0242124Y0134875D01*
X0242221Y0134750D01*
X0242316Y0134623D01*
X0242407Y0134494D01*
X0242496Y0134363D01*
X0242580Y0134229D01*
X0242662Y0134093D01*
X0242740Y0133956D01*
X0242814Y0133816D01*
X0242885Y0133674D01*
X0242953Y0133531D01*
X0243017Y0133386D01*
X0243077Y0133240D01*
X0243133Y0133092D01*
X0243186Y0132943D01*
X0243235Y0132792D01*
X0243280Y0132640D01*
X0243321Y0132487D01*
X0243359Y0132334D01*
X0243392Y0132179D01*
X0243422Y0132023D01*
X0243448Y0131867D01*
X0243469Y0131710D01*
X0243487Y0131553D01*
X0243501Y0131395D01*
X0243511Y0131237D01*
X0243517Y0131079D01*
X0243519Y0130921D01*
X0243517Y0130763D01*
X0243511Y0130605D01*
X0243501Y0130447D01*
X0243487Y0130289D01*
X0243469Y0130132D01*
X0243448Y0129975D01*
X0243422Y0129819D01*
X0243392Y0129663D01*
X0243359Y0129508D01*
X0243321Y0129355D01*
X0243280Y0129202D01*
X0243235Y0129050D01*
X0243186Y0128899D01*
X0243133Y0128750D01*
X0243077Y0128602D01*
X0243017Y0128456D01*
X0242953Y0128311D01*
X0242885Y0128168D01*
X0242814Y0128026D01*
X0242740Y0127886D01*
X0242662Y0127749D01*
X0242580Y0127613D01*
X0242496Y0127479D01*
X0242407Y0127348D01*
X0242316Y0127219D01*
X0242221Y0127092D01*
X0242124Y0126967D01*
X0242023Y0126845D01*
X0241919Y0126726D01*
X0241812Y0126609D01*
X0241702Y0126495D01*
X0241589Y0126384D01*
X0241474Y0126275D01*
X0241356Y0126170D01*
X0241235Y0126068D01*
X0241112Y0125968D01*
X0240986Y0125872D01*
X0240858Y0125779D01*
X0240728Y0125689D01*
X0240595Y0125603D01*
X0240460Y0125519D01*
X0240324Y0125440D01*
X0240185Y0125363D01*
X0240044Y0125291D01*
X0239902Y0125221D01*
X0239758Y0125156D01*
X0239612Y0125094D01*
X0239465Y0125036D01*
X0239316Y0124981D01*
X0239166Y0124930D01*
X0239015Y0124883D01*
X0238863Y0124840D01*
X0238710Y0124801D01*
X0238555Y0124765D01*
X0238400Y0124734D01*
X0238244Y0124706D01*
X0238088Y0124682D01*
X0237931Y0124662D01*
X0237773Y0124646D01*
X0237616Y0124634D01*
X0237457Y0124626D01*
X0237299Y0124622D01*
X0237141Y0124622D01*
X0236983Y0124626D01*
X0236824Y0124634D01*
X0236667Y0124646D01*
X0236509Y0124662D01*
X0236352Y0124682D01*
X0236196Y0124706D01*
X0236040Y0124734D01*
X0235885Y0124765D01*
X0235730Y0124801D01*
X0235577Y0124840D01*
X0235425Y0124883D01*
X0235274Y0124930D01*
X0235124Y0124981D01*
X0234975Y0125036D01*
X0234828Y0125094D01*
X0234682Y0125156D01*
X0234538Y0125221D01*
X0234396Y0125291D01*
X0234255Y0125363D01*
X0234116Y0125440D01*
X0233980Y0125519D01*
X0233845Y0125603D01*
X0233712Y0125689D01*
X0233582Y0125779D01*
X0233454Y0125872D01*
X0233328Y0125968D01*
X0233205Y0126068D01*
X0233084Y0126170D01*
X0232966Y0126275D01*
X0232851Y0126384D01*
X0232738Y0126495D01*
X0232628Y0126609D01*
X0232521Y0126726D01*
X0232417Y0126845D01*
X0232316Y0126967D01*
X0232219Y0127092D01*
X0232124Y0127219D01*
X0232033Y0127348D01*
X0231944Y0127479D01*
X0231860Y0127613D01*
X0231778Y0127749D01*
X0231700Y0127886D01*
X0231626Y0128026D01*
X0231555Y0128168D01*
X0231487Y0128311D01*
X0231423Y0128456D01*
X0231363Y0128602D01*
X0231307Y0128750D01*
X0231254Y0128899D01*
X0231205Y0129050D01*
X0231160Y0129202D01*
X0231119Y0129355D01*
X0231081Y0129508D01*
X0231048Y0129663D01*
X0231018Y0129819D01*
X0230992Y0129975D01*
X0230971Y0130132D01*
X0230953Y0130289D01*
X0230939Y0130447D01*
X0230929Y0130605D01*
X0230923Y0130763D01*
X0230921Y0130921D01*
X0006512Y0258874D02*
X0006514Y0259032D01*
X0006520Y0259190D01*
X0006530Y0259348D01*
X0006544Y0259506D01*
X0006562Y0259663D01*
X0006583Y0259820D01*
X0006609Y0259976D01*
X0006639Y0260132D01*
X0006672Y0260287D01*
X0006710Y0260440D01*
X0006751Y0260593D01*
X0006796Y0260745D01*
X0006845Y0260896D01*
X0006898Y0261045D01*
X0006954Y0261193D01*
X0007014Y0261339D01*
X0007078Y0261484D01*
X0007146Y0261627D01*
X0007217Y0261769D01*
X0007291Y0261909D01*
X0007369Y0262046D01*
X0007451Y0262182D01*
X0007535Y0262316D01*
X0007624Y0262447D01*
X0007715Y0262576D01*
X0007810Y0262703D01*
X0007907Y0262828D01*
X0008008Y0262950D01*
X0008112Y0263069D01*
X0008219Y0263186D01*
X0008329Y0263300D01*
X0008442Y0263411D01*
X0008557Y0263520D01*
X0008675Y0263625D01*
X0008796Y0263727D01*
X0008919Y0263827D01*
X0009045Y0263923D01*
X0009173Y0264016D01*
X0009303Y0264106D01*
X0009436Y0264192D01*
X0009571Y0264276D01*
X0009707Y0264355D01*
X0009846Y0264432D01*
X0009987Y0264504D01*
X0010129Y0264574D01*
X0010273Y0264639D01*
X0010419Y0264701D01*
X0010566Y0264759D01*
X0010715Y0264814D01*
X0010865Y0264865D01*
X0011016Y0264912D01*
X0011168Y0264955D01*
X0011321Y0264994D01*
X0011476Y0265030D01*
X0011631Y0265061D01*
X0011787Y0265089D01*
X0011943Y0265113D01*
X0012100Y0265133D01*
X0012258Y0265149D01*
X0012415Y0265161D01*
X0012574Y0265169D01*
X0012732Y0265173D01*
X0012890Y0265173D01*
X0013048Y0265169D01*
X0013207Y0265161D01*
X0013364Y0265149D01*
X0013522Y0265133D01*
X0013679Y0265113D01*
X0013835Y0265089D01*
X0013991Y0265061D01*
X0014146Y0265030D01*
X0014301Y0264994D01*
X0014454Y0264955D01*
X0014606Y0264912D01*
X0014757Y0264865D01*
X0014907Y0264814D01*
X0015056Y0264759D01*
X0015203Y0264701D01*
X0015349Y0264639D01*
X0015493Y0264574D01*
X0015635Y0264504D01*
X0015776Y0264432D01*
X0015915Y0264355D01*
X0016051Y0264276D01*
X0016186Y0264192D01*
X0016319Y0264106D01*
X0016449Y0264016D01*
X0016577Y0263923D01*
X0016703Y0263827D01*
X0016826Y0263727D01*
X0016947Y0263625D01*
X0017065Y0263520D01*
X0017180Y0263411D01*
X0017293Y0263300D01*
X0017403Y0263186D01*
X0017510Y0263069D01*
X0017614Y0262950D01*
X0017715Y0262828D01*
X0017812Y0262703D01*
X0017907Y0262576D01*
X0017998Y0262447D01*
X0018087Y0262316D01*
X0018171Y0262182D01*
X0018253Y0262046D01*
X0018331Y0261909D01*
X0018405Y0261769D01*
X0018476Y0261627D01*
X0018544Y0261484D01*
X0018608Y0261339D01*
X0018668Y0261193D01*
X0018724Y0261045D01*
X0018777Y0260896D01*
X0018826Y0260745D01*
X0018871Y0260593D01*
X0018912Y0260440D01*
X0018950Y0260287D01*
X0018983Y0260132D01*
X0019013Y0259976D01*
X0019039Y0259820D01*
X0019060Y0259663D01*
X0019078Y0259506D01*
X0019092Y0259348D01*
X0019102Y0259190D01*
X0019108Y0259032D01*
X0019110Y0258874D01*
X0019108Y0258716D01*
X0019102Y0258558D01*
X0019092Y0258400D01*
X0019078Y0258242D01*
X0019060Y0258085D01*
X0019039Y0257928D01*
X0019013Y0257772D01*
X0018983Y0257616D01*
X0018950Y0257461D01*
X0018912Y0257308D01*
X0018871Y0257155D01*
X0018826Y0257003D01*
X0018777Y0256852D01*
X0018724Y0256703D01*
X0018668Y0256555D01*
X0018608Y0256409D01*
X0018544Y0256264D01*
X0018476Y0256121D01*
X0018405Y0255979D01*
X0018331Y0255839D01*
X0018253Y0255702D01*
X0018171Y0255566D01*
X0018087Y0255432D01*
X0017998Y0255301D01*
X0017907Y0255172D01*
X0017812Y0255045D01*
X0017715Y0254920D01*
X0017614Y0254798D01*
X0017510Y0254679D01*
X0017403Y0254562D01*
X0017293Y0254448D01*
X0017180Y0254337D01*
X0017065Y0254228D01*
X0016947Y0254123D01*
X0016826Y0254021D01*
X0016703Y0253921D01*
X0016577Y0253825D01*
X0016449Y0253732D01*
X0016319Y0253642D01*
X0016186Y0253556D01*
X0016051Y0253472D01*
X0015915Y0253393D01*
X0015776Y0253316D01*
X0015635Y0253244D01*
X0015493Y0253174D01*
X0015349Y0253109D01*
X0015203Y0253047D01*
X0015056Y0252989D01*
X0014907Y0252934D01*
X0014757Y0252883D01*
X0014606Y0252836D01*
X0014454Y0252793D01*
X0014301Y0252754D01*
X0014146Y0252718D01*
X0013991Y0252687D01*
X0013835Y0252659D01*
X0013679Y0252635D01*
X0013522Y0252615D01*
X0013364Y0252599D01*
X0013207Y0252587D01*
X0013048Y0252579D01*
X0012890Y0252575D01*
X0012732Y0252575D01*
X0012574Y0252579D01*
X0012415Y0252587D01*
X0012258Y0252599D01*
X0012100Y0252615D01*
X0011943Y0252635D01*
X0011787Y0252659D01*
X0011631Y0252687D01*
X0011476Y0252718D01*
X0011321Y0252754D01*
X0011168Y0252793D01*
X0011016Y0252836D01*
X0010865Y0252883D01*
X0010715Y0252934D01*
X0010566Y0252989D01*
X0010419Y0253047D01*
X0010273Y0253109D01*
X0010129Y0253174D01*
X0009987Y0253244D01*
X0009846Y0253316D01*
X0009707Y0253393D01*
X0009571Y0253472D01*
X0009436Y0253556D01*
X0009303Y0253642D01*
X0009173Y0253732D01*
X0009045Y0253825D01*
X0008919Y0253921D01*
X0008796Y0254021D01*
X0008675Y0254123D01*
X0008557Y0254228D01*
X0008442Y0254337D01*
X0008329Y0254448D01*
X0008219Y0254562D01*
X0008112Y0254679D01*
X0008008Y0254798D01*
X0007907Y0254920D01*
X0007810Y0255045D01*
X0007715Y0255172D01*
X0007624Y0255301D01*
X0007535Y0255432D01*
X0007451Y0255566D01*
X0007369Y0255702D01*
X0007291Y0255839D01*
X0007217Y0255979D01*
X0007146Y0256121D01*
X0007078Y0256264D01*
X0007014Y0256409D01*
X0006954Y0256555D01*
X0006898Y0256703D01*
X0006845Y0256852D01*
X0006796Y0257003D01*
X0006751Y0257155D01*
X0006710Y0257308D01*
X0006672Y0257461D01*
X0006639Y0257616D01*
X0006609Y0257772D01*
X0006583Y0257928D01*
X0006562Y0258085D01*
X0006544Y0258242D01*
X0006530Y0258400D01*
X0006520Y0258558D01*
X0006514Y0258716D01*
X0006512Y0258874D01*
D11*
X0013967Y0234330D03*
X0053967Y0234330D03*
X0061197Y0187732D03*
X0073165Y0168126D03*
X0091197Y0187732D03*
X0109726Y0200890D03*
X0109726Y0230890D03*
X0154543Y0228598D03*
X0154543Y0245843D03*
X0154543Y0275843D03*
X0154543Y0293087D03*
X0167886Y0310599D03*
X0154543Y0323087D03*
X0176512Y0272772D03*
X0176512Y0252772D03*
X0154543Y0198598D03*
X0081906Y0115183D03*
X0073165Y0138126D03*
X0060331Y0131984D03*
X0047815Y0144618D03*
X0047815Y0164618D03*
X0042142Y0123047D03*
X0060331Y0111984D03*
X0042142Y0093047D03*
X0081906Y0085183D03*
X0227378Y0153638D03*
X0227378Y0185134D03*
X0227378Y0216630D03*
X0227378Y0248126D03*
X0227378Y0279622D03*
X0227378Y0311118D03*
X0197886Y0310599D03*
D12*
X0093835Y0240014D02*
X0093835Y0235214D01*
X0093835Y0210014D02*
X0093835Y0205214D01*
X0066039Y0205057D02*
X0066039Y0209857D01*
X0066039Y0235057D02*
X0066039Y0239857D01*
X0068756Y0063164D02*
X0068756Y0058364D01*
X0078756Y0058364D02*
X0078756Y0063164D01*
X0046630Y0063164D02*
X0046630Y0058364D01*
X0036630Y0058364D02*
X0036630Y0063164D01*
D13*
X0017732Y0077142D03*
X0017732Y0087142D03*
X0017732Y0097142D03*
X0017732Y0107142D03*
X0017732Y0117142D03*
X0017732Y0127142D03*
X0017732Y0137142D03*
X0017732Y0147142D03*
X0017732Y0157142D03*
X0017732Y0167142D03*
X0007732Y0167102D03*
X0007732Y0157102D03*
X0007732Y0147102D03*
X0007732Y0137102D03*
X0007732Y0127102D03*
X0007732Y0117102D03*
X0007732Y0107102D03*
X0007732Y0097102D03*
X0107732Y0097142D03*
X0107732Y0107142D03*
X0107732Y0117142D03*
X0107732Y0127142D03*
X0107732Y0137142D03*
X0107732Y0147142D03*
X0107732Y0157142D03*
X0107732Y0167142D03*
X0117732Y0167102D03*
X0117732Y0157102D03*
X0117732Y0147102D03*
X0117732Y0137102D03*
X0117732Y0127102D03*
X0117732Y0117102D03*
X0117732Y0107102D03*
X0117732Y0097102D03*
X0107732Y0087142D03*
X0107732Y0077142D03*
D14*
X0161669Y0176512D03*
D15*
X0161669Y0166512D03*
X0161669Y0156512D03*
X0171669Y0156512D03*
X0171669Y0166512D03*
X0171669Y0176512D03*
D16*
X0192685Y0285409D02*
X0198685Y0285409D01*
X0198685Y0295409D02*
X0192685Y0295409D01*
X0109630Y0057614D02*
X0103630Y0057614D01*
X0103630Y0047614D02*
X0109630Y0047614D01*
X0109630Y0037614D02*
X0103630Y0037614D01*
X0077929Y0036795D02*
X0077929Y0030795D01*
X0067929Y0030795D02*
X0067929Y0036795D01*
X0057929Y0036795D02*
X0057929Y0030795D01*
X0047929Y0030795D02*
X0047929Y0036795D01*
X0037929Y0036795D02*
X0037929Y0030795D01*
X0020417Y0039307D02*
X0014417Y0039307D01*
X0014417Y0049307D02*
X0020417Y0049307D01*
X0020417Y0059307D02*
X0014417Y0059307D01*
D17*
X0227378Y0143638D03*
X0227378Y0175134D03*
X0227378Y0206630D03*
X0227378Y0238126D03*
X0227378Y0269622D03*
X0227378Y0301118D03*
D18*
X0201769Y0263632D03*
X0194269Y0258632D03*
X0194269Y0268632D03*
X0192608Y0185020D03*
X0200108Y0180020D03*
X0192608Y0175020D03*
X0193074Y0153764D03*
X0200574Y0148764D03*
X0193074Y0143764D03*
D19*
X0203554Y0205055D02*
X0209154Y0205055D01*
X0209154Y0215055D02*
X0203554Y0215055D01*
X0203554Y0225055D02*
X0209154Y0225055D01*
X0209154Y0235055D02*
X0203554Y0235055D01*
X0179154Y0235055D02*
X0173554Y0235055D01*
X0173554Y0225055D02*
X0179154Y0225055D01*
X0179154Y0215055D02*
X0173554Y0215055D01*
X0173554Y0205055D02*
X0179154Y0205055D01*
X0044898Y0210641D02*
X0044898Y0216241D01*
X0034898Y0216241D02*
X0034898Y0210641D01*
X0024898Y0210641D02*
X0024898Y0216241D01*
X0014898Y0216241D02*
X0014898Y0210641D01*
X0014898Y0186241D02*
X0014898Y0180641D01*
X0024898Y0180641D02*
X0024898Y0186241D01*
X0034898Y0186241D02*
X0034898Y0180641D01*
X0044898Y0180641D02*
X0044898Y0186241D01*
D20*
X0054150Y0254780D03*
X0063492Y0254780D03*
X0072366Y0254780D03*
X0081709Y0254780D03*
D21*
X0087992Y0257641D02*
X0101737Y0257641D01*
X0101737Y0256984D02*
X0103183Y0253493D01*
X0105855Y0250821D01*
X0109347Y0249375D01*
X0113126Y0249375D01*
X0116617Y0250821D01*
X0119110Y0253314D01*
X0119110Y0186039D01*
X0123047Y0182102D01*
X0123047Y0172677D01*
X0120922Y0174802D01*
X0114543Y0174802D01*
X0113400Y0173659D01*
X0113400Y0184734D01*
X0112532Y0186829D01*
X0103111Y0196250D01*
X0103790Y0196929D01*
X0103792Y0196925D01*
X0105761Y0194956D01*
X0108333Y0193890D01*
X0111118Y0193890D01*
X0113691Y0194956D01*
X0115660Y0196925D01*
X0116726Y0199498D01*
X0116726Y0202282D01*
X0115660Y0204855D01*
X0113691Y0206824D01*
X0111118Y0207890D01*
X0108333Y0207890D01*
X0106800Y0207255D01*
X0106800Y0219934D01*
X0105932Y0222029D01*
X0104329Y0223632D01*
X0100200Y0227761D01*
X0100200Y0233335D01*
X0100435Y0233901D01*
X0100435Y0241327D01*
X0099430Y0243753D01*
X0097573Y0245609D01*
X0095147Y0246614D01*
X0092522Y0246614D01*
X0090096Y0245609D01*
X0088239Y0243753D01*
X0087235Y0241327D01*
X0087235Y0233901D01*
X0088239Y0231476D01*
X0088800Y0230915D01*
X0088800Y0228523D01*
X0076900Y0240423D01*
X0076900Y0246075D01*
X0076230Y0247692D01*
X0074603Y0249320D01*
X0075708Y0249778D01*
X0076330Y0250400D01*
X0077800Y0248930D01*
X0080336Y0247880D01*
X0083081Y0247880D01*
X0085617Y0248930D01*
X0087558Y0250871D01*
X0088609Y0253407D01*
X0088609Y0256152D01*
X0087558Y0258688D01*
X0085617Y0260629D01*
X0083081Y0261680D01*
X0080336Y0261680D01*
X0077800Y0260629D01*
X0076330Y0259159D01*
X0075708Y0259781D01*
X0073540Y0260680D01*
X0071193Y0260680D01*
X0069024Y0259781D01*
X0067929Y0258686D01*
X0066834Y0259781D01*
X0064666Y0260680D01*
X0062319Y0260680D01*
X0060150Y0259781D01*
X0059528Y0259159D01*
X0058058Y0260629D01*
X0055522Y0261680D01*
X0052777Y0261680D01*
X0050241Y0260629D01*
X0048300Y0258688D01*
X0047250Y0256152D01*
X0047250Y0253407D01*
X0048300Y0250871D01*
X0050241Y0248930D01*
X0052777Y0247880D01*
X0055522Y0247880D01*
X0058058Y0248930D01*
X0059528Y0250400D01*
X0060150Y0249778D01*
X0062319Y0248880D01*
X0062598Y0248880D01*
X0066021Y0245457D01*
X0064925Y0245457D01*
X0062867Y0244604D01*
X0061292Y0243029D01*
X0060439Y0240971D01*
X0060439Y0236997D01*
X0059902Y0238295D01*
X0057932Y0240264D01*
X0055360Y0241330D01*
X0052575Y0241330D01*
X0050002Y0240264D01*
X0048033Y0238295D01*
X0046967Y0235722D01*
X0046967Y0232937D01*
X0048033Y0230364D01*
X0048442Y0229955D01*
X0048334Y0230000D01*
X0020833Y0230000D01*
X0021967Y0232738D01*
X0021967Y0235921D01*
X0020749Y0238861D01*
X0018499Y0241112D01*
X0015559Y0242330D01*
X0012376Y0242330D01*
X0009436Y0241112D01*
X0007185Y0238861D01*
X0005967Y0235921D01*
X0005967Y0232738D01*
X0007185Y0229798D01*
X0009436Y0227548D01*
X0012376Y0226330D01*
X0015559Y0226330D01*
X0016088Y0226549D01*
X0012267Y0222728D01*
X0010932Y0222175D01*
X0008963Y0220206D01*
X0007898Y0217633D01*
X0007898Y0209249D01*
X0008963Y0206676D01*
X0010932Y0204707D01*
X0011786Y0204353D01*
X0012071Y0204068D01*
X0015839Y0200300D01*
X0010866Y0200300D01*
X0008771Y0199432D01*
X0007168Y0197829D01*
X0004937Y0195598D01*
X0004937Y0253314D01*
X0007430Y0250821D01*
X0010922Y0249375D01*
X0014701Y0249375D01*
X0018192Y0250821D01*
X0020864Y0253493D01*
X0022310Y0256984D01*
X0022310Y0260764D01*
X0020864Y0264255D01*
X0020339Y0264780D01*
X0048244Y0264780D01*
X0048244Y0331709D01*
X0087614Y0331709D01*
X0087614Y0264780D01*
X0103708Y0264780D01*
X0103183Y0264255D01*
X0101737Y0260764D01*
X0101737Y0256984D01*
X0102459Y0255242D02*
X0088609Y0255242D01*
X0088375Y0252844D02*
X0103833Y0252844D01*
X0106763Y0250445D02*
X0087132Y0250445D01*
X0083485Y0248047D02*
X0119110Y0248047D01*
X0119110Y0250445D02*
X0115710Y0250445D01*
X0118640Y0252844D02*
X0119110Y0252844D01*
X0119110Y0245648D02*
X0097480Y0245648D01*
X0099638Y0243250D02*
X0119110Y0243250D01*
X0119110Y0240851D02*
X0100435Y0240851D01*
X0100435Y0238453D02*
X0119110Y0238453D01*
X0119110Y0236054D02*
X0114461Y0236054D01*
X0113691Y0236824D02*
X0115660Y0234855D01*
X0116726Y0232282D01*
X0116726Y0229498D01*
X0115660Y0226925D01*
X0113691Y0224956D01*
X0111118Y0223890D01*
X0108333Y0223890D01*
X0105761Y0224956D01*
X0103792Y0226925D01*
X0102726Y0229498D01*
X0102726Y0232282D01*
X0103792Y0234855D01*
X0105761Y0236824D01*
X0108333Y0237890D01*
X0111118Y0237890D01*
X0113691Y0236824D01*
X0116157Y0233656D02*
X0119110Y0233656D01*
X0119110Y0231257D02*
X0116726Y0231257D01*
X0116461Y0228859D02*
X0119110Y0228859D01*
X0119110Y0226460D02*
X0115195Y0226460D01*
X0111532Y0224062D02*
X0119110Y0224062D01*
X0119110Y0221663D02*
X0106084Y0221663D01*
X0106800Y0219265D02*
X0119110Y0219265D01*
X0119110Y0216866D02*
X0106800Y0216866D01*
X0106800Y0214468D02*
X0119110Y0214468D01*
X0119110Y0212069D02*
X0106800Y0212069D01*
X0106800Y0209670D02*
X0119110Y0209670D01*
X0119110Y0207272D02*
X0112610Y0207272D01*
X0115642Y0204873D02*
X0119110Y0204873D01*
X0119110Y0202475D02*
X0116646Y0202475D01*
X0116726Y0200076D02*
X0119110Y0200076D01*
X0119110Y0197678D02*
X0115972Y0197678D01*
X0114015Y0195279D02*
X0119110Y0195279D01*
X0119110Y0192881D02*
X0106480Y0192881D01*
X0105437Y0195279D02*
X0104082Y0195279D01*
X0108879Y0190482D02*
X0119110Y0190482D01*
X0119110Y0188084D02*
X0111277Y0188084D01*
X0113006Y0185685D02*
X0119464Y0185685D01*
X0121863Y0183287D02*
X0113400Y0183287D01*
X0113400Y0180888D02*
X0123047Y0180888D01*
X0123047Y0178490D02*
X0113400Y0178490D01*
X0113400Y0176091D02*
X0123047Y0176091D01*
X0123047Y0173693D02*
X0122031Y0173693D01*
X0130921Y0173693D02*
X0138300Y0173693D01*
X0138300Y0176091D02*
X0130921Y0176091D01*
X0130921Y0178490D02*
X0138300Y0178490D01*
X0138300Y0180888D02*
X0130921Y0180888D01*
X0130921Y0183287D02*
X0138300Y0183287D01*
X0138300Y0185685D02*
X0130921Y0185685D01*
X0130921Y0188084D02*
X0138300Y0188084D01*
X0138300Y0190482D02*
X0130921Y0190482D01*
X0130921Y0192881D02*
X0138300Y0192881D01*
X0138300Y0195279D02*
X0130921Y0195279D01*
X0130921Y0197678D02*
X0138300Y0197678D01*
X0138300Y0200076D02*
X0130921Y0200076D01*
X0130921Y0202475D02*
X0138300Y0202475D01*
X0138300Y0204873D02*
X0130921Y0204873D01*
X0130921Y0207272D02*
X0138300Y0207272D01*
X0138300Y0209670D02*
X0130921Y0209670D01*
X0130921Y0212069D02*
X0138300Y0212069D01*
X0138300Y0214468D02*
X0130921Y0214468D01*
X0130921Y0216866D02*
X0138300Y0216866D01*
X0138300Y0218834D02*
X0138300Y0161566D01*
X0139168Y0159471D01*
X0140771Y0157868D01*
X0155071Y0143568D01*
X0157166Y0142700D01*
X0175934Y0142700D01*
X0178029Y0143568D01*
X0179632Y0145171D01*
X0184032Y0149571D01*
X0184900Y0151666D01*
X0184900Y0167277D01*
X0191813Y0160364D01*
X0190340Y0160364D01*
X0186474Y0156498D01*
X0186474Y0151031D01*
X0189447Y0148057D01*
X0187474Y0146084D01*
X0187474Y0141445D01*
X0190754Y0138164D01*
X0195393Y0138164D01*
X0198674Y0141445D01*
X0198674Y0143164D01*
X0202893Y0143164D01*
X0206174Y0146445D01*
X0206174Y0151084D01*
X0204500Y0152758D01*
X0204500Y0159175D01*
X0203830Y0160792D01*
X0195065Y0169558D01*
X0195442Y0169935D01*
X0213970Y0151408D01*
X0215208Y0150170D01*
X0216825Y0149500D01*
X0221616Y0149500D01*
X0222478Y0148638D01*
X0220378Y0146537D01*
X0220378Y0140738D01*
X0224478Y0136638D01*
X0229503Y0136638D01*
X0229167Y0136302D01*
X0227721Y0132811D01*
X0227721Y0129032D01*
X0229167Y0125540D01*
X0231661Y0123047D01*
X0144355Y0123047D01*
X0146848Y0125540D01*
X0148294Y0129032D01*
X0148294Y0132811D01*
X0146848Y0136302D01*
X0144176Y0138974D01*
X0140685Y0140420D01*
X0136906Y0140420D01*
X0133414Y0138974D01*
X0130921Y0136481D01*
X0130921Y0318275D01*
X0133414Y0315782D01*
X0136906Y0314335D01*
X0140685Y0314335D01*
X0144176Y0315782D01*
X0146848Y0318454D01*
X0147867Y0320913D01*
X0148609Y0319121D01*
X0150578Y0317152D01*
X0153151Y0316087D01*
X0155936Y0316087D01*
X0158508Y0317152D01*
X0159156Y0317800D01*
X0165277Y0317800D01*
X0165776Y0317302D01*
X0163920Y0316534D01*
X0161951Y0314564D01*
X0160886Y0311992D01*
X0160886Y0309207D01*
X0161951Y0306634D01*
X0163800Y0304785D01*
X0163800Y0248725D01*
X0164470Y0247108D01*
X0165708Y0245870D01*
X0171061Y0240517D01*
X0170156Y0240142D01*
X0168468Y0238454D01*
X0167554Y0236249D01*
X0167554Y0234277D01*
X0162543Y0229266D01*
X0162543Y0230190D01*
X0161325Y0233130D01*
X0160700Y0233755D01*
X0160700Y0240685D01*
X0161325Y0241311D01*
X0162543Y0244251D01*
X0162543Y0247434D01*
X0161325Y0250374D01*
X0159075Y0252625D01*
X0156135Y0253843D01*
X0152952Y0253843D01*
X0150012Y0252625D01*
X0147761Y0250374D01*
X0146543Y0247434D01*
X0146543Y0244251D01*
X0147761Y0241311D01*
X0149300Y0239772D01*
X0149300Y0234669D01*
X0147761Y0233130D01*
X0146543Y0230190D01*
X0146543Y0228304D01*
X0139168Y0220929D01*
X0138300Y0218834D01*
X0138478Y0219265D02*
X0130921Y0219265D01*
X0130921Y0221663D02*
X0139902Y0221663D01*
X0142301Y0224062D02*
X0130921Y0224062D01*
X0130921Y0226460D02*
X0144699Y0226460D01*
X0146543Y0228859D02*
X0130921Y0228859D01*
X0130921Y0231257D02*
X0146985Y0231257D01*
X0148287Y0233656D02*
X0130921Y0233656D01*
X0130921Y0236054D02*
X0149300Y0236054D01*
X0149300Y0238453D02*
X0130921Y0238453D01*
X0130921Y0240851D02*
X0148221Y0240851D01*
X0146958Y0243250D02*
X0130921Y0243250D01*
X0130921Y0245648D02*
X0146543Y0245648D01*
X0146797Y0248047D02*
X0130921Y0248047D01*
X0130921Y0250445D02*
X0147832Y0250445D01*
X0150541Y0252844D02*
X0130921Y0252844D01*
X0130921Y0255242D02*
X0163800Y0255242D01*
X0163800Y0252844D02*
X0158546Y0252844D01*
X0161254Y0250445D02*
X0163800Y0250445D01*
X0164081Y0248047D02*
X0162289Y0248047D01*
X0162543Y0245648D02*
X0165929Y0245648D01*
X0168328Y0243250D02*
X0162128Y0243250D01*
X0160866Y0240851D02*
X0170726Y0240851D01*
X0168467Y0238453D02*
X0160700Y0238453D01*
X0160700Y0236054D02*
X0167554Y0236054D01*
X0166933Y0233656D02*
X0160800Y0233656D01*
X0162101Y0231257D02*
X0164535Y0231257D01*
X0166000Y0226500D02*
X0174800Y0235300D01*
X0176354Y0235055D01*
X0175900Y0235300D01*
X0175900Y0241900D01*
X0168200Y0249600D01*
X0168200Y0310100D01*
X0167886Y0310599D01*
X0172797Y0305611D02*
X0177467Y0305611D01*
X0179865Y0303212D02*
X0172600Y0303212D01*
X0172600Y0305414D02*
X0173820Y0306634D01*
X0174588Y0308489D01*
X0180300Y0302777D01*
X0180300Y0281725D01*
X0180970Y0280108D01*
X0187570Y0273508D01*
X0188690Y0272387D01*
X0187669Y0271366D01*
X0187669Y0270092D01*
X0184512Y0273249D01*
X0184512Y0274363D01*
X0183294Y0277303D01*
X0181043Y0279554D01*
X0178103Y0280772D01*
X0174920Y0280772D01*
X0172600Y0279810D01*
X0172600Y0305414D01*
X0174390Y0308009D02*
X0175068Y0308009D01*
X0172600Y0300814D02*
X0180300Y0300814D01*
X0180300Y0298415D02*
X0172600Y0298415D01*
X0172600Y0296017D02*
X0180300Y0296017D01*
X0180300Y0293618D02*
X0172600Y0293618D01*
X0172600Y0291220D02*
X0180300Y0291220D01*
X0180300Y0288821D02*
X0172600Y0288821D01*
X0172600Y0286423D02*
X0180300Y0286423D01*
X0180300Y0284024D02*
X0172600Y0284024D01*
X0172600Y0281626D02*
X0180341Y0281626D01*
X0181370Y0279227D02*
X0181850Y0279227D01*
X0183490Y0276829D02*
X0184249Y0276829D01*
X0184484Y0274430D02*
X0186647Y0274430D01*
X0185729Y0272032D02*
X0188335Y0272032D01*
X0191300Y0276000D02*
X0197900Y0276000D01*
X0219900Y0254000D01*
X0219900Y0245200D01*
X0226500Y0238600D01*
X0227378Y0238126D01*
X0226500Y0237500D01*
X0219900Y0230900D01*
X0219900Y0213300D01*
X0226500Y0206700D01*
X0227378Y0206630D01*
X0221633Y0202475D02*
X0214580Y0202475D01*
X0214241Y0201656D02*
X0215154Y0203862D01*
X0215154Y0206249D01*
X0214241Y0208454D01*
X0212640Y0210055D01*
X0214241Y0211656D01*
X0215154Y0213862D01*
X0215154Y0216249D01*
X0214241Y0218454D01*
X0212640Y0220055D01*
X0214241Y0221656D01*
X0215154Y0223862D01*
X0215154Y0226249D01*
X0214241Y0228454D01*
X0213347Y0229348D01*
X0215089Y0231090D01*
X0216154Y0233663D01*
X0216154Y0236448D01*
X0215089Y0239020D01*
X0213120Y0240989D01*
X0210547Y0242055D01*
X0206906Y0242055D01*
X0203942Y0245019D01*
X0204930Y0246008D01*
X0205600Y0247625D01*
X0205600Y0259544D01*
X0206867Y0260811D01*
X0215500Y0252177D01*
X0215500Y0244325D01*
X0216170Y0242708D01*
X0220378Y0238500D01*
X0220378Y0237600D01*
X0216170Y0233392D01*
X0215500Y0231775D01*
X0215500Y0212425D01*
X0216170Y0210808D01*
X0217408Y0209570D01*
X0220378Y0206599D01*
X0220378Y0203730D01*
X0224478Y0199630D01*
X0230277Y0199630D01*
X0230900Y0200252D01*
X0230900Y0195323D01*
X0227711Y0192134D01*
X0225986Y0192134D01*
X0223413Y0191068D01*
X0221444Y0189099D01*
X0220378Y0186526D01*
X0220378Y0183741D01*
X0221444Y0181169D01*
X0222478Y0180134D01*
X0220378Y0178033D01*
X0220378Y0172234D01*
X0224478Y0168134D01*
X0230277Y0168134D01*
X0234378Y0172234D01*
X0234378Y0178033D01*
X0232277Y0180134D01*
X0233312Y0181169D01*
X0234378Y0183741D01*
X0234378Y0186355D01*
X0235300Y0187277D01*
X0235300Y0170023D01*
X0225866Y0160588D01*
X0223413Y0159572D01*
X0222141Y0158300D01*
X0219523Y0158300D01*
X0202915Y0174908D01*
X0205708Y0177700D01*
X0205708Y0182340D01*
X0202427Y0185620D01*
X0199208Y0185620D01*
X0199208Y0187754D01*
X0195342Y0191620D01*
X0190143Y0191620D01*
X0197230Y0198708D01*
X0197900Y0200325D01*
X0197900Y0202677D01*
X0198002Y0202780D01*
X0198468Y0201656D01*
X0200156Y0199969D01*
X0202361Y0199055D01*
X0210348Y0199055D01*
X0212553Y0199969D01*
X0214241Y0201656D01*
X0212661Y0200076D02*
X0224032Y0200076D01*
X0220378Y0204873D02*
X0215154Y0204873D01*
X0214730Y0207272D02*
X0219705Y0207272D01*
X0217307Y0209670D02*
X0213024Y0209670D01*
X0214412Y0212069D02*
X0215647Y0212069D01*
X0215500Y0214468D02*
X0215154Y0214468D01*
X0214899Y0216866D02*
X0215500Y0216866D01*
X0215500Y0219265D02*
X0213430Y0219265D01*
X0214244Y0221663D02*
X0215500Y0221663D01*
X0215500Y0224062D02*
X0215154Y0224062D01*
X0215067Y0226460D02*
X0215500Y0226460D01*
X0215500Y0228859D02*
X0213836Y0228859D01*
X0215158Y0231257D02*
X0215500Y0231257D01*
X0216151Y0233656D02*
X0216433Y0233656D01*
X0216154Y0236054D02*
X0218832Y0236054D01*
X0220378Y0238453D02*
X0215324Y0238453D01*
X0213258Y0240851D02*
X0218026Y0240851D01*
X0215945Y0243250D02*
X0205711Y0243250D01*
X0204571Y0245648D02*
X0215500Y0245648D01*
X0215500Y0248047D02*
X0205600Y0248047D01*
X0205600Y0250445D02*
X0215500Y0250445D01*
X0214834Y0252844D02*
X0205600Y0252844D01*
X0205600Y0255242D02*
X0212435Y0255242D01*
X0210037Y0257641D02*
X0205600Y0257641D01*
X0206096Y0260039D02*
X0207638Y0260039D01*
X0201769Y0263632D02*
X0201200Y0262800D01*
X0201200Y0248500D01*
X0196800Y0252161D02*
X0195929Y0253032D01*
X0196588Y0253032D01*
X0196800Y0253244D01*
X0196800Y0252161D01*
X0196800Y0252844D02*
X0196117Y0252844D01*
X0190400Y0262683D02*
X0190400Y0263167D01*
X0190642Y0262925D01*
X0190400Y0262683D01*
X0191300Y0276000D02*
X0184700Y0282600D01*
X0184700Y0304600D01*
X0167100Y0322200D01*
X0155000Y0322200D01*
X0154543Y0323087D01*
X0150127Y0317603D02*
X0145998Y0317603D01*
X0147490Y0320002D02*
X0148244Y0320002D01*
X0148177Y0326008D02*
X0146848Y0329216D01*
X0144355Y0331709D01*
X0231661Y0331709D01*
X0229167Y0329216D01*
X0227721Y0325724D01*
X0227721Y0321945D01*
X0229167Y0318454D01*
X0230021Y0317600D01*
X0228770Y0318118D01*
X0225986Y0318118D01*
X0223413Y0317052D01*
X0221444Y0315083D01*
X0220378Y0312510D01*
X0220378Y0309726D01*
X0221444Y0307153D01*
X0222478Y0306118D01*
X0220378Y0304018D01*
X0220378Y0298219D01*
X0224478Y0294118D01*
X0230277Y0294118D01*
X0234368Y0298209D01*
X0235300Y0297277D01*
X0235300Y0277823D01*
X0234378Y0278745D01*
X0234378Y0281014D01*
X0233312Y0283587D01*
X0231343Y0285556D01*
X0228770Y0286622D01*
X0225986Y0286622D01*
X0223413Y0285556D01*
X0221444Y0283587D01*
X0220378Y0281014D01*
X0220378Y0278230D01*
X0221444Y0275657D01*
X0222478Y0274622D01*
X0220378Y0272522D01*
X0220378Y0266723D01*
X0224478Y0262622D01*
X0230277Y0262622D01*
X0230900Y0263245D01*
X0230900Y0254244D01*
X0228770Y0255126D01*
X0225986Y0255126D01*
X0224300Y0254428D01*
X0224300Y0254875D01*
X0223630Y0256492D01*
X0222392Y0257730D01*
X0201387Y0278735D01*
X0202764Y0279306D01*
X0204789Y0281331D01*
X0205885Y0283977D01*
X0205885Y0286842D01*
X0204789Y0289488D01*
X0203867Y0290409D01*
X0204789Y0291331D01*
X0205885Y0293977D01*
X0205885Y0296842D01*
X0204789Y0299488D01*
X0202764Y0301513D01*
X0200117Y0302609D01*
X0199502Y0302609D01*
X0202417Y0303817D01*
X0204668Y0306068D01*
X0205886Y0309008D01*
X0205886Y0312191D01*
X0204668Y0315131D01*
X0202417Y0317381D01*
X0199477Y0318599D01*
X0196294Y0318599D01*
X0193354Y0317381D01*
X0191104Y0315131D01*
X0189886Y0312191D01*
X0189886Y0309008D01*
X0191104Y0306068D01*
X0193354Y0303817D01*
X0196270Y0302609D01*
X0191253Y0302609D01*
X0189100Y0301718D01*
X0189100Y0305475D01*
X0188430Y0307092D01*
X0187192Y0308330D01*
X0169592Y0325930D01*
X0167975Y0326600D01*
X0160665Y0326600D01*
X0160478Y0327052D01*
X0158508Y0329021D01*
X0155936Y0330087D01*
X0153151Y0330087D01*
X0150578Y0329021D01*
X0148609Y0327052D01*
X0148177Y0326008D01*
X0147684Y0327198D02*
X0148755Y0327198D01*
X0146468Y0329596D02*
X0151967Y0329596D01*
X0157120Y0329596D02*
X0229548Y0329596D01*
X0228332Y0327198D02*
X0160332Y0327198D01*
X0158960Y0317603D02*
X0165474Y0317603D01*
X0162592Y0315205D02*
X0142784Y0315205D01*
X0134806Y0315205D02*
X0130921Y0315205D01*
X0130921Y0317603D02*
X0131592Y0317603D01*
X0130921Y0312806D02*
X0161223Y0312806D01*
X0160886Y0310408D02*
X0130921Y0310408D01*
X0130921Y0308009D02*
X0161382Y0308009D01*
X0162974Y0305611D02*
X0130921Y0305611D01*
X0130921Y0303212D02*
X0163800Y0303212D01*
X0163800Y0300814D02*
X0156793Y0300814D01*
X0156135Y0301087D02*
X0152952Y0301087D01*
X0150012Y0299869D01*
X0147761Y0297618D01*
X0146543Y0294678D01*
X0146543Y0291495D01*
X0147761Y0288555D01*
X0150012Y0286305D01*
X0152952Y0285087D01*
X0156135Y0285087D01*
X0159075Y0286305D01*
X0161325Y0288555D01*
X0162543Y0291495D01*
X0162543Y0294678D01*
X0161325Y0297618D01*
X0159075Y0299869D01*
X0156135Y0301087D01*
X0152294Y0300814D02*
X0130921Y0300814D01*
X0130921Y0298415D02*
X0148558Y0298415D01*
X0147098Y0296017D02*
X0130921Y0296017D01*
X0130921Y0293618D02*
X0146543Y0293618D01*
X0146657Y0291220D02*
X0130921Y0291220D01*
X0130921Y0288821D02*
X0147651Y0288821D01*
X0149893Y0286423D02*
X0130921Y0286423D01*
X0130921Y0284024D02*
X0163800Y0284024D01*
X0163800Y0281626D02*
X0158659Y0281626D01*
X0158508Y0281777D02*
X0155936Y0282843D01*
X0153151Y0282843D01*
X0150578Y0281777D01*
X0148609Y0279808D01*
X0147543Y0277235D01*
X0147543Y0274450D01*
X0148609Y0271877D01*
X0150578Y0269908D01*
X0153151Y0268843D01*
X0155936Y0268843D01*
X0158508Y0269908D01*
X0160478Y0271877D01*
X0161543Y0274450D01*
X0161543Y0277235D01*
X0160478Y0279808D01*
X0158508Y0281777D01*
X0160718Y0279227D02*
X0163800Y0279227D01*
X0163800Y0276829D02*
X0161543Y0276829D01*
X0161535Y0274430D02*
X0163800Y0274430D01*
X0163800Y0272032D02*
X0160542Y0272032D01*
X0157845Y0269633D02*
X0163800Y0269633D01*
X0163800Y0267235D02*
X0130921Y0267235D01*
X0130921Y0269633D02*
X0151242Y0269633D01*
X0148545Y0272032D02*
X0130921Y0272032D01*
X0130921Y0274430D02*
X0147552Y0274430D01*
X0147543Y0276829D02*
X0130921Y0276829D01*
X0130921Y0279227D02*
X0148369Y0279227D01*
X0150427Y0281626D02*
X0130921Y0281626D01*
X0130921Y0264836D02*
X0163800Y0264836D01*
X0163800Y0262438D02*
X0130921Y0262438D01*
X0130921Y0260039D02*
X0163800Y0260039D01*
X0163800Y0257641D02*
X0130921Y0257641D01*
X0119110Y0264434D02*
X0118765Y0264780D01*
X0119110Y0264780D01*
X0119110Y0264434D01*
X0102430Y0262438D02*
X0021617Y0262438D01*
X0022310Y0260039D02*
X0049651Y0260039D01*
X0047866Y0257641D02*
X0022310Y0257641D01*
X0021589Y0255242D02*
X0047250Y0255242D01*
X0047483Y0252844D02*
X0020215Y0252844D01*
X0017285Y0250445D02*
X0048726Y0250445D01*
X0052374Y0248047D02*
X0004937Y0248047D01*
X0004937Y0250445D02*
X0008337Y0250445D01*
X0005407Y0252844D02*
X0004937Y0252844D01*
X0004937Y0245648D02*
X0065829Y0245648D01*
X0063431Y0248047D02*
X0055926Y0248047D01*
X0056515Y0240851D02*
X0060439Y0240851D01*
X0060439Y0238453D02*
X0059744Y0238453D01*
X0061513Y0243250D02*
X0004937Y0243250D01*
X0004937Y0240851D02*
X0009175Y0240851D01*
X0007016Y0238453D02*
X0004937Y0238453D01*
X0004937Y0236054D02*
X0006023Y0236054D01*
X0005967Y0233656D02*
X0004937Y0233656D01*
X0004937Y0231257D02*
X0006581Y0231257D01*
X0008125Y0228859D02*
X0004937Y0228859D01*
X0004937Y0226460D02*
X0012061Y0226460D01*
X0013601Y0224062D02*
X0004937Y0224062D01*
X0004937Y0221663D02*
X0010420Y0221663D01*
X0008573Y0219265D02*
X0004937Y0219265D01*
X0004937Y0216866D02*
X0007898Y0216866D01*
X0007898Y0214468D02*
X0004937Y0214468D01*
X0004937Y0212069D02*
X0007898Y0212069D01*
X0007898Y0209670D02*
X0004937Y0209670D01*
X0004937Y0207272D02*
X0008716Y0207272D01*
X0010766Y0204873D02*
X0004937Y0204873D01*
X0004937Y0202475D02*
X0013664Y0202475D01*
X0010327Y0200076D02*
X0004937Y0200076D01*
X0004937Y0197678D02*
X0007017Y0197678D01*
X0019898Y0177156D02*
X0020800Y0176253D01*
X0020800Y0173549D01*
X0020508Y0173842D01*
X0014957Y0173842D01*
X0013420Y0172304D01*
X0013300Y0172424D01*
X0013300Y0174808D01*
X0013704Y0174641D01*
X0016091Y0174641D01*
X0018296Y0175554D01*
X0019898Y0177156D01*
X0020800Y0176091D02*
X0018833Y0176091D01*
X0020656Y0173693D02*
X0020800Y0173693D01*
X0014808Y0173693D02*
X0013300Y0173693D01*
X0025200Y0182500D02*
X0024898Y0183441D01*
X0025200Y0182500D02*
X0025200Y0124200D01*
X0018600Y0117600D01*
X0017732Y0117142D01*
X0018600Y0116500D01*
X0025200Y0109900D01*
X0025200Y0100000D01*
X0039500Y0085700D01*
X0043900Y0085700D01*
X0068100Y0061500D01*
X0068756Y0060764D01*
X0073756Y0065726D02*
X0073503Y0066336D01*
X0071928Y0067911D01*
X0069870Y0068764D01*
X0067642Y0068764D01*
X0067230Y0068593D01*
X0047630Y0088192D01*
X0047408Y0088414D01*
X0048076Y0089082D01*
X0049142Y0091655D01*
X0049142Y0094440D01*
X0048076Y0097012D01*
X0046107Y0098982D01*
X0043534Y0100047D01*
X0040749Y0100047D01*
X0038177Y0098982D01*
X0036207Y0097012D01*
X0035681Y0095742D01*
X0029600Y0101823D01*
X0029600Y0110775D01*
X0028930Y0112392D01*
X0024432Y0116890D01*
X0024432Y0117210D01*
X0028930Y0121708D01*
X0029600Y0123325D01*
X0029600Y0176858D01*
X0029898Y0177156D01*
X0031499Y0175554D01*
X0033704Y0174641D01*
X0036091Y0174641D01*
X0038200Y0175514D01*
X0038200Y0174961D01*
X0036271Y0173032D01*
X0034668Y0171429D01*
X0033800Y0169334D01*
X0033800Y0151666D01*
X0034668Y0149571D01*
X0039815Y0144424D01*
X0039815Y0143027D01*
X0041033Y0140087D01*
X0042600Y0138519D01*
X0042600Y0131047D01*
X0040550Y0131047D01*
X0037610Y0129829D01*
X0035360Y0127579D01*
X0034142Y0124639D01*
X0034142Y0121456D01*
X0035360Y0118516D01*
X0037610Y0116265D01*
X0040550Y0115047D01*
X0043733Y0115047D01*
X0046673Y0116265D01*
X0048924Y0118516D01*
X0050142Y0121456D01*
X0050142Y0121997D01*
X0053600Y0118539D01*
X0053600Y0116567D01*
X0053549Y0116516D01*
X0052331Y0113576D01*
X0052331Y0110393D01*
X0053549Y0107453D01*
X0055799Y0105202D01*
X0058739Y0103984D01*
X0061922Y0103984D01*
X0064862Y0105202D01*
X0067113Y0107453D01*
X0067466Y0108306D01*
X0067466Y0106424D01*
X0068136Y0104807D01*
X0080760Y0092183D01*
X0080513Y0092183D01*
X0077940Y0091117D01*
X0075971Y0089148D01*
X0074906Y0086575D01*
X0074906Y0083791D01*
X0075971Y0081218D01*
X0077940Y0079249D01*
X0080513Y0078183D01*
X0083298Y0078183D01*
X0085871Y0079249D01*
X0087840Y0081218D01*
X0088905Y0083791D01*
X0088905Y0084037D01*
X0091088Y0081855D01*
X0091088Y0040906D01*
X0091007Y0040577D01*
X0091088Y0040039D01*
X0091088Y0039495D01*
X0091218Y0039182D01*
X0091269Y0038846D01*
X0091550Y0038380D01*
X0091758Y0037878D01*
X0091998Y0037638D01*
X0092173Y0037348D01*
X0092611Y0037025D01*
X0092996Y0036640D01*
X0093309Y0036510D01*
X0093582Y0036309D01*
X0094110Y0036178D01*
X0094613Y0035970D01*
X0094952Y0035970D01*
X0097902Y0035240D01*
X0098374Y0034102D01*
X0100118Y0032358D01*
X0102397Y0031414D01*
X0107564Y0031414D01*
X0105855Y0030707D01*
X0103183Y0028034D01*
X0101737Y0024543D01*
X0101737Y0020764D01*
X0103183Y0017273D01*
X0105855Y0014600D01*
X0109347Y0013154D01*
X0113126Y0013154D01*
X0116617Y0014600D01*
X0119110Y0017094D01*
X0119110Y0012811D01*
X0004937Y0012811D01*
X0004937Y0017094D01*
X0007430Y0014600D01*
X0010922Y0013154D01*
X0014701Y0013154D01*
X0018192Y0014600D01*
X0020864Y0017273D01*
X0022310Y0020764D01*
X0022310Y0024543D01*
X0020864Y0028034D01*
X0018192Y0030707D01*
X0014701Y0032153D01*
X0010922Y0032153D01*
X0007430Y0030707D01*
X0004937Y0028213D01*
X0004937Y0083677D01*
X0004200Y0084414D01*
X0004200Y0091159D01*
X0004957Y0090402D01*
X0010103Y0090402D01*
X0010032Y0090331D01*
X0010032Y0083952D01*
X0011843Y0082142D01*
X0010032Y0080331D01*
X0010032Y0073952D01*
X0014543Y0069442D01*
X0020922Y0069442D01*
X0025286Y0073806D01*
X0026266Y0073400D01*
X0038239Y0073400D01*
X0043649Y0067990D01*
X0043458Y0067911D01*
X0042291Y0066744D01*
X0042225Y0066902D01*
X0040369Y0068759D01*
X0037943Y0069764D01*
X0035317Y0069764D01*
X0032891Y0068759D01*
X0031035Y0066902D01*
X0030030Y0064477D01*
X0030030Y0060693D01*
X0027692Y0063030D01*
X0026075Y0063700D01*
X0024793Y0063700D01*
X0023929Y0064563D01*
X0021651Y0065507D01*
X0013184Y0065507D01*
X0010905Y0064563D01*
X0009161Y0062819D01*
X0008217Y0060540D01*
X0008217Y0058074D01*
X0009161Y0055795D01*
X0009942Y0055014D01*
X0008313Y0053386D01*
X0007217Y0050739D01*
X0007217Y0047875D01*
X0008313Y0045229D01*
X0009942Y0043600D01*
X0009161Y0042819D01*
X0008217Y0040540D01*
X0008217Y0038074D01*
X0009161Y0035795D01*
X0010905Y0034051D01*
X0013184Y0033107D01*
X0021651Y0033107D01*
X0023929Y0034051D01*
X0025673Y0035795D01*
X0026617Y0038074D01*
X0026617Y0040540D01*
X0025673Y0042819D01*
X0024893Y0043600D01*
X0026521Y0045229D01*
X0027617Y0047875D01*
X0027617Y0050660D01*
X0035696Y0042581D01*
X0034417Y0042051D01*
X0032673Y0040307D01*
X0031729Y0038029D01*
X0031729Y0029562D01*
X0032673Y0027283D01*
X0034417Y0025539D01*
X0036696Y0024595D01*
X0038282Y0024595D01*
X0042370Y0020508D01*
X0043608Y0019270D01*
X0045225Y0018600D01*
X0061275Y0018600D01*
X0062892Y0019270D01*
X0068218Y0024595D01*
X0069163Y0024595D01*
X0071441Y0025539D01*
X0072929Y0027027D01*
X0074417Y0025539D01*
X0076696Y0024595D01*
X0079163Y0024595D01*
X0081441Y0025539D01*
X0083186Y0027283D01*
X0084129Y0029562D01*
X0084129Y0038029D01*
X0083186Y0040307D01*
X0081441Y0042051D01*
X0079163Y0042995D01*
X0076696Y0042995D01*
X0074417Y0042051D01*
X0072929Y0040563D01*
X0071441Y0042051D01*
X0069163Y0042995D01*
X0066696Y0042995D01*
X0064417Y0042051D01*
X0063637Y0041270D01*
X0062800Y0042107D01*
X0062800Y0060577D01*
X0063156Y0060222D01*
X0063156Y0057250D01*
X0064008Y0055192D01*
X0065584Y0053616D01*
X0067642Y0052764D01*
X0069870Y0052764D01*
X0071928Y0053616D01*
X0073503Y0055192D01*
X0073756Y0055801D01*
X0074008Y0055192D01*
X0075584Y0053616D01*
X0077642Y0052764D01*
X0079870Y0052764D01*
X0081928Y0053616D01*
X0083503Y0055192D01*
X0084356Y0057250D01*
X0084356Y0064278D01*
X0083503Y0066336D01*
X0081928Y0067911D01*
X0079870Y0068764D01*
X0077642Y0068764D01*
X0075584Y0067911D01*
X0074008Y0066336D01*
X0073756Y0065726D01*
X0073742Y0065760D02*
X0073770Y0065760D01*
X0076180Y0068158D02*
X0071331Y0068158D01*
X0065266Y0070557D02*
X0091088Y0070557D01*
X0091088Y0072955D02*
X0062867Y0072955D01*
X0060469Y0075354D02*
X0091088Y0075354D01*
X0091088Y0077752D02*
X0058070Y0077752D01*
X0055672Y0080151D02*
X0077038Y0080151D01*
X0075420Y0082549D02*
X0053273Y0082549D01*
X0050875Y0084948D02*
X0074906Y0084948D01*
X0075225Y0087346D02*
X0048476Y0087346D01*
X0048351Y0089745D02*
X0076568Y0089745D01*
X0080417Y0092143D02*
X0049142Y0092143D01*
X0049099Y0094542D02*
X0078401Y0094542D01*
X0076002Y0096940D02*
X0048106Y0096940D01*
X0045244Y0099339D02*
X0073604Y0099339D01*
X0071205Y0101737D02*
X0029685Y0101737D01*
X0029600Y0104136D02*
X0058373Y0104136D01*
X0054467Y0106534D02*
X0029600Y0106534D01*
X0029600Y0108933D02*
X0052935Y0108933D01*
X0052331Y0111332D02*
X0029370Y0111332D01*
X0027592Y0113730D02*
X0052395Y0113730D01*
X0053388Y0116129D02*
X0046344Y0116129D01*
X0048929Y0118527D02*
X0053600Y0118527D01*
X0051213Y0120926D02*
X0049922Y0120926D01*
X0042600Y0132918D02*
X0029600Y0132918D01*
X0029600Y0130520D02*
X0039277Y0130520D01*
X0035902Y0128121D02*
X0029600Y0128121D01*
X0029600Y0125723D02*
X0034591Y0125723D01*
X0034142Y0123324D02*
X0029600Y0123324D01*
X0028148Y0120926D02*
X0034361Y0120926D01*
X0035355Y0118527D02*
X0025750Y0118527D01*
X0025194Y0116129D02*
X0037940Y0116129D01*
X0039039Y0099339D02*
X0032084Y0099339D01*
X0034482Y0096940D02*
X0036178Y0096940D01*
X0029233Y0089745D02*
X0025432Y0089745D01*
X0025432Y0090331D02*
X0025432Y0089129D01*
X0029761Y0084800D01*
X0034177Y0084800D01*
X0024432Y0094545D01*
X0024432Y0094366D01*
X0022915Y0092849D01*
X0025432Y0090331D01*
X0026834Y0092143D02*
X0023620Y0092143D01*
X0024432Y0094542D02*
X0024436Y0094542D01*
X0027215Y0087346D02*
X0031631Y0087346D01*
X0029613Y0084948D02*
X0034030Y0084948D01*
X0038684Y0072955D02*
X0024435Y0072955D01*
X0022037Y0070557D02*
X0041082Y0070557D01*
X0040969Y0068158D02*
X0043481Y0068158D01*
X0042291Y0054783D02*
X0043458Y0053616D01*
X0045516Y0052764D01*
X0047744Y0052764D01*
X0049802Y0053616D01*
X0051377Y0055192D01*
X0051400Y0055246D01*
X0051400Y0042069D01*
X0049163Y0042995D01*
X0047727Y0042995D01*
X0038661Y0052061D01*
X0040369Y0052769D01*
X0042225Y0054625D01*
X0042291Y0054783D01*
X0041367Y0053767D02*
X0043307Y0053767D01*
X0041752Y0048970D02*
X0051400Y0048970D01*
X0051400Y0046572D02*
X0044151Y0046572D01*
X0046549Y0044173D02*
X0051400Y0044173D01*
X0051400Y0051369D02*
X0039354Y0051369D01*
X0034104Y0044173D02*
X0025466Y0044173D01*
X0026106Y0041775D02*
X0034141Y0041775D01*
X0032288Y0039376D02*
X0026617Y0039376D01*
X0026163Y0036978D02*
X0031729Y0036978D01*
X0031729Y0034579D02*
X0024458Y0034579D01*
X0019116Y0029782D02*
X0031729Y0029782D01*
X0031729Y0032181D02*
X0004937Y0032181D01*
X0004937Y0034579D02*
X0010377Y0034579D01*
X0008671Y0036978D02*
X0004937Y0036978D01*
X0004937Y0039376D02*
X0008217Y0039376D01*
X0008729Y0041775D02*
X0004937Y0041775D01*
X0004937Y0044173D02*
X0009369Y0044173D01*
X0007757Y0046572D02*
X0004937Y0046572D01*
X0004937Y0048970D02*
X0007217Y0048970D01*
X0007478Y0051369D02*
X0004937Y0051369D01*
X0004937Y0053767D02*
X0008695Y0053767D01*
X0009008Y0056166D02*
X0004937Y0056166D01*
X0004937Y0058564D02*
X0008217Y0058564D01*
X0008392Y0060963D02*
X0004937Y0060963D01*
X0004937Y0063361D02*
X0009703Y0063361D01*
X0004937Y0065760D02*
X0030561Y0065760D01*
X0030030Y0063361D02*
X0026893Y0063361D01*
X0029760Y0060963D02*
X0030030Y0060963D01*
X0025200Y0059300D02*
X0047200Y0037300D01*
X0047200Y0034000D01*
X0047929Y0033795D01*
X0038400Y0032900D02*
X0037929Y0033795D01*
X0038400Y0032900D02*
X0038400Y0030700D01*
X0046100Y0023000D01*
X0060400Y0023000D01*
X0067000Y0029600D01*
X0067000Y0032900D01*
X0067929Y0033795D01*
X0064141Y0041775D02*
X0063132Y0041775D01*
X0062800Y0044173D02*
X0091088Y0044173D01*
X0091088Y0041775D02*
X0081718Y0041775D01*
X0083571Y0039376D02*
X0091137Y0039376D01*
X0092658Y0036978D02*
X0084129Y0036978D01*
X0084129Y0034579D02*
X0098176Y0034579D01*
X0100546Y0032181D02*
X0084129Y0032181D01*
X0084129Y0029782D02*
X0104931Y0029782D01*
X0102914Y0027384D02*
X0083227Y0027384D01*
X0080104Y0024985D02*
X0101920Y0024985D01*
X0101737Y0022587D02*
X0066209Y0022587D01*
X0063811Y0020188D02*
X0101976Y0020188D01*
X0102969Y0017790D02*
X0021078Y0017790D01*
X0022072Y0020188D02*
X0042689Y0020188D01*
X0040291Y0022587D02*
X0022310Y0022587D01*
X0022127Y0024985D02*
X0035755Y0024985D01*
X0032632Y0027384D02*
X0021134Y0027384D01*
X0018982Y0015391D02*
X0105065Y0015391D01*
X0117408Y0015391D02*
X0119110Y0015391D01*
X0119110Y0012993D02*
X0004937Y0012993D01*
X0004937Y0015391D02*
X0006640Y0015391D01*
X0006506Y0029782D02*
X0004937Y0029782D01*
X0027078Y0046572D02*
X0031706Y0046572D01*
X0029307Y0048970D02*
X0027617Y0048970D01*
X0025200Y0059300D02*
X0017500Y0059300D01*
X0017417Y0059307D01*
X0013428Y0070557D02*
X0004937Y0070557D01*
X0004937Y0072955D02*
X0011029Y0072955D01*
X0010032Y0075354D02*
X0004937Y0075354D01*
X0004937Y0077752D02*
X0010032Y0077752D01*
X0010032Y0080151D02*
X0004937Y0080151D01*
X0004937Y0082549D02*
X0011435Y0082549D01*
X0010032Y0084948D02*
X0004200Y0084948D01*
X0004200Y0087346D02*
X0010032Y0087346D01*
X0010032Y0089745D02*
X0004200Y0089745D01*
X0012713Y0101597D02*
X0012207Y0102102D01*
X0012752Y0102647D01*
X0013257Y0102142D01*
X0012713Y0101597D01*
X0012853Y0101737D02*
X0012572Y0101737D01*
X0012713Y0111597D02*
X0012207Y0112102D01*
X0012752Y0112647D01*
X0013257Y0112142D01*
X0012713Y0111597D01*
X0012713Y0121597D02*
X0012207Y0122102D01*
X0012752Y0122647D01*
X0013257Y0122142D01*
X0012713Y0121597D01*
X0012713Y0131597D02*
X0012207Y0132102D01*
X0012752Y0132647D01*
X0013257Y0132142D01*
X0012713Y0131597D01*
X0012713Y0141597D02*
X0012207Y0142102D01*
X0012752Y0142647D01*
X0013257Y0142142D01*
X0012713Y0141597D01*
X0012617Y0142512D02*
X0012887Y0142512D01*
X0012713Y0151597D02*
X0012207Y0152102D01*
X0012752Y0152647D01*
X0013257Y0152142D01*
X0012713Y0151597D01*
X0012211Y0152106D02*
X0013222Y0152106D01*
X0029600Y0152106D02*
X0033800Y0152106D01*
X0033800Y0154505D02*
X0029600Y0154505D01*
X0029600Y0156903D02*
X0033800Y0156903D01*
X0033800Y0159302D02*
X0029600Y0159302D01*
X0029600Y0161700D02*
X0033800Y0161700D01*
X0033800Y0164099D02*
X0029600Y0164099D01*
X0029600Y0166497D02*
X0033800Y0166497D01*
X0033800Y0168896D02*
X0029600Y0168896D01*
X0029600Y0171294D02*
X0034612Y0171294D01*
X0036271Y0173032D02*
X0036271Y0173032D01*
X0036932Y0173693D02*
X0029600Y0173693D01*
X0029600Y0176091D02*
X0030962Y0176091D01*
X0045200Y0157042D02*
X0046223Y0156618D01*
X0049406Y0156618D01*
X0052346Y0157836D01*
X0054597Y0160087D01*
X0055815Y0163027D01*
X0055815Y0166210D01*
X0055392Y0167231D01*
X0055929Y0167768D01*
X0056797Y0168636D01*
X0056797Y0162151D01*
X0056797Y0160400D01*
X0057467Y0158783D01*
X0071314Y0144936D01*
X0069200Y0144060D01*
X0067231Y0142091D01*
X0066165Y0139518D01*
X0066165Y0137463D01*
X0064862Y0138766D01*
X0061922Y0139984D01*
X0058739Y0139984D01*
X0055799Y0138766D01*
X0054000Y0136967D01*
X0054000Y0139490D01*
X0054597Y0140087D01*
X0055815Y0143027D01*
X0055815Y0146210D01*
X0054597Y0149150D01*
X0052346Y0151400D01*
X0049406Y0152618D01*
X0047743Y0152618D01*
X0045200Y0155161D01*
X0045200Y0157042D01*
X0045200Y0156903D02*
X0045536Y0156903D01*
X0045856Y0154505D02*
X0061745Y0154505D01*
X0059347Y0156903D02*
X0050094Y0156903D01*
X0050642Y0152106D02*
X0064144Y0152106D01*
X0066542Y0149708D02*
X0054039Y0149708D01*
X0055359Y0147309D02*
X0068941Y0147309D01*
X0071253Y0144911D02*
X0055815Y0144911D01*
X0055601Y0142512D02*
X0067652Y0142512D01*
X0066412Y0140114D02*
X0054608Y0140114D01*
X0054748Y0137715D02*
X0054000Y0137715D01*
X0065914Y0137715D02*
X0066165Y0137715D01*
X0068331Y0133061D02*
X0069200Y0132192D01*
X0071773Y0131126D01*
X0074558Y0131126D01*
X0077131Y0132192D01*
X0079100Y0134161D01*
X0079277Y0134589D01*
X0079277Y0132744D01*
X0069374Y0122840D01*
X0068136Y0121603D01*
X0067466Y0119985D01*
X0067466Y0115663D01*
X0067113Y0116516D01*
X0065000Y0118629D01*
X0065000Y0122034D01*
X0064132Y0124129D01*
X0063587Y0124674D01*
X0064862Y0125202D01*
X0067113Y0127453D01*
X0068331Y0130393D01*
X0068331Y0133061D01*
X0068331Y0132918D02*
X0068474Y0132918D01*
X0068331Y0130520D02*
X0077053Y0130520D01*
X0077857Y0132918D02*
X0079277Y0132918D01*
X0083677Y0130921D02*
X0071866Y0119110D01*
X0071866Y0107299D01*
X0095488Y0083677D01*
X0095488Y0040370D01*
X0106630Y0037614D01*
X0112646Y0032153D02*
X0113142Y0032358D01*
X0114886Y0034102D01*
X0115830Y0036381D01*
X0115830Y0038847D01*
X0114886Y0041126D01*
X0113398Y0042614D01*
X0114886Y0044102D01*
X0115830Y0046381D01*
X0115830Y0048847D01*
X0114886Y0051126D01*
X0113398Y0052614D01*
X0114886Y0054102D01*
X0115830Y0056381D01*
X0115830Y0058847D01*
X0114886Y0061126D01*
X0113142Y0062870D01*
X0110863Y0063814D01*
X0102397Y0063814D01*
X0100118Y0062870D01*
X0099888Y0062641D01*
X0099888Y0084552D01*
X0099218Y0086170D01*
X0097981Y0087407D01*
X0076266Y0109122D01*
X0076266Y0109509D01*
X0077374Y0108401D01*
X0080314Y0107183D01*
X0083497Y0107183D01*
X0086437Y0108401D01*
X0087448Y0109412D01*
X0087746Y0108693D01*
X0089008Y0107431D01*
X0090658Y0106747D01*
X0092444Y0106747D01*
X0094094Y0107431D01*
X0095357Y0108693D01*
X0096040Y0110343D01*
X0096040Y0112129D01*
X0095951Y0112344D01*
X0095951Y0125877D01*
X0096040Y0126091D01*
X0096040Y0127877D01*
X0095357Y0129527D01*
X0094094Y0130790D01*
X0092444Y0131473D01*
X0090658Y0131473D01*
X0089008Y0130790D01*
X0087945Y0129726D01*
X0088077Y0130046D01*
X0088077Y0139670D01*
X0087407Y0141288D01*
X0086170Y0142525D01*
X0065597Y0163098D01*
X0065597Y0182233D01*
X0067131Y0183767D01*
X0067799Y0185379D01*
X0095600Y0157577D01*
X0095600Y0134325D01*
X0096270Y0132708D01*
X0101032Y0127945D01*
X0101032Y0124366D01*
X0103257Y0122142D01*
X0101032Y0119917D01*
X0101032Y0114366D01*
X0103257Y0112142D01*
X0101032Y0109917D01*
X0101032Y0104366D01*
X0103257Y0102142D01*
X0101032Y0099917D01*
X0101032Y0094366D01*
X0102550Y0092849D01*
X0100032Y0090331D01*
X0100032Y0083952D01*
X0102550Y0081435D01*
X0101032Y0079917D01*
X0101032Y0074366D01*
X0104957Y0070442D01*
X0110508Y0070442D01*
X0114432Y0074366D01*
X0114432Y0079917D01*
X0112915Y0081435D01*
X0115432Y0083952D01*
X0115432Y0090331D01*
X0115361Y0090402D01*
X0120508Y0090402D01*
X0123047Y0092942D01*
X0123047Y0087614D01*
X0119110Y0083677D01*
X0119110Y0028213D01*
X0116617Y0030707D01*
X0113126Y0032153D01*
X0112646Y0032153D01*
X0112714Y0032181D02*
X0119110Y0032181D01*
X0119110Y0034579D02*
X0115084Y0034579D01*
X0115830Y0036978D02*
X0119110Y0036978D01*
X0119110Y0039376D02*
X0115611Y0039376D01*
X0114237Y0041775D02*
X0119110Y0041775D01*
X0119110Y0044173D02*
X0114915Y0044173D01*
X0115830Y0046572D02*
X0119110Y0046572D01*
X0119110Y0048970D02*
X0115779Y0048970D01*
X0114643Y0051369D02*
X0119110Y0051369D01*
X0119110Y0053767D02*
X0114551Y0053767D01*
X0115741Y0056166D02*
X0119110Y0056166D01*
X0119110Y0058564D02*
X0115830Y0058564D01*
X0114954Y0060963D02*
X0119110Y0060963D01*
X0119110Y0063361D02*
X0111956Y0063361D01*
X0110623Y0070557D02*
X0119110Y0070557D01*
X0119110Y0072955D02*
X0113021Y0072955D01*
X0114432Y0075354D02*
X0119110Y0075354D01*
X0119110Y0077752D02*
X0114432Y0077752D01*
X0114198Y0080151D02*
X0119110Y0080151D01*
X0119110Y0082549D02*
X0114029Y0082549D01*
X0115432Y0084948D02*
X0120381Y0084948D01*
X0122779Y0087346D02*
X0115432Y0087346D01*
X0115432Y0089745D02*
X0123047Y0089745D01*
X0123047Y0092143D02*
X0122249Y0092143D01*
X0123047Y0101263D02*
X0122207Y0102102D01*
X0123047Y0102942D01*
X0123047Y0101263D01*
X0123047Y0101737D02*
X0122572Y0101737D01*
X0118700Y0107700D02*
X0117732Y0107102D01*
X0112752Y0111597D02*
X0112207Y0112142D01*
X0112713Y0112647D01*
X0113257Y0112102D01*
X0112752Y0111597D01*
X0112713Y0102647D02*
X0113257Y0102102D01*
X0112752Y0101597D01*
X0112207Y0102142D01*
X0112713Y0102647D01*
X0112612Y0101737D02*
X0112892Y0101737D01*
X0102853Y0101737D02*
X0083650Y0101737D01*
X0086049Y0099339D02*
X0101032Y0099339D01*
X0101032Y0096940D02*
X0088447Y0096940D01*
X0090846Y0094542D02*
X0101032Y0094542D01*
X0101845Y0092143D02*
X0093244Y0092143D01*
X0095643Y0089745D02*
X0100032Y0089745D01*
X0100032Y0087346D02*
X0098041Y0087346D01*
X0099724Y0084948D02*
X0100032Y0084948D01*
X0099888Y0082549D02*
X0101435Y0082549D01*
X0101266Y0080151D02*
X0099888Y0080151D01*
X0099888Y0077752D02*
X0101032Y0077752D01*
X0101032Y0075354D02*
X0099888Y0075354D01*
X0099888Y0072955D02*
X0102443Y0072955D01*
X0104842Y0070557D02*
X0099888Y0070557D01*
X0099888Y0068158D02*
X0119110Y0068158D01*
X0119110Y0065760D02*
X0099888Y0065760D01*
X0099888Y0063361D02*
X0101303Y0063361D01*
X0091088Y0063361D02*
X0084356Y0063361D01*
X0084356Y0060963D02*
X0091088Y0060963D01*
X0091088Y0058564D02*
X0084356Y0058564D01*
X0083907Y0056166D02*
X0091088Y0056166D01*
X0091088Y0053767D02*
X0082079Y0053767D01*
X0075433Y0053767D02*
X0072079Y0053767D01*
X0065433Y0053767D02*
X0062800Y0053767D01*
X0062800Y0051369D02*
X0091088Y0051369D01*
X0091088Y0048970D02*
X0062800Y0048970D01*
X0062800Y0046572D02*
X0091088Y0046572D01*
X0074141Y0041775D02*
X0071718Y0041775D01*
X0063605Y0056166D02*
X0062800Y0056166D01*
X0062800Y0058564D02*
X0063156Y0058564D01*
X0051400Y0053767D02*
X0049953Y0053767D01*
X0032291Y0068158D02*
X0004937Y0068158D01*
X0029600Y0135317D02*
X0042600Y0135317D01*
X0042600Y0137715D02*
X0029600Y0137715D01*
X0029600Y0140114D02*
X0041021Y0140114D01*
X0040028Y0142512D02*
X0029600Y0142512D01*
X0029600Y0144911D02*
X0039328Y0144911D01*
X0036930Y0147309D02*
X0029600Y0147309D01*
X0029600Y0149708D02*
X0034611Y0149708D01*
X0053812Y0159302D02*
X0057252Y0159302D01*
X0056797Y0161700D02*
X0055265Y0161700D01*
X0055815Y0164099D02*
X0056797Y0164099D01*
X0056797Y0166497D02*
X0055696Y0166497D01*
X0061197Y0161276D02*
X0083677Y0138795D01*
X0083677Y0130921D01*
X0084701Y0125723D02*
X0087151Y0125723D01*
X0087151Y0125877D02*
X0087151Y0121251D01*
X0086437Y0121965D01*
X0083497Y0123183D01*
X0082161Y0123183D01*
X0087208Y0128230D01*
X0087062Y0127877D01*
X0087062Y0126091D01*
X0087151Y0125877D01*
X0087100Y0128121D02*
X0087163Y0128121D01*
X0088077Y0130520D02*
X0088738Y0130520D01*
X0088077Y0132918D02*
X0096183Y0132918D01*
X0095600Y0135317D02*
X0088077Y0135317D01*
X0088077Y0137715D02*
X0095600Y0137715D01*
X0095600Y0140114D02*
X0087894Y0140114D01*
X0086183Y0142512D02*
X0095600Y0142512D01*
X0095600Y0144911D02*
X0083784Y0144911D01*
X0081386Y0147309D02*
X0095600Y0147309D01*
X0095600Y0149708D02*
X0078987Y0149708D01*
X0076589Y0152106D02*
X0095600Y0152106D01*
X0095600Y0154505D02*
X0074190Y0154505D01*
X0071792Y0156903D02*
X0095600Y0156903D01*
X0093876Y0159302D02*
X0069393Y0159302D01*
X0070387Y0161700D02*
X0066995Y0161700D01*
X0069200Y0162192D02*
X0067231Y0164161D01*
X0066165Y0166734D01*
X0066165Y0169518D01*
X0067231Y0172091D01*
X0069200Y0174060D01*
X0071773Y0175126D01*
X0074558Y0175126D01*
X0077131Y0174060D01*
X0079100Y0172091D01*
X0080165Y0169518D01*
X0080165Y0166734D01*
X0079100Y0164161D01*
X0077131Y0162192D01*
X0074558Y0161126D01*
X0071773Y0161126D01*
X0069200Y0162192D01*
X0067293Y0164099D02*
X0065597Y0164099D01*
X0065597Y0166497D02*
X0066263Y0166497D01*
X0066165Y0168896D02*
X0065597Y0168896D01*
X0065597Y0171294D02*
X0066901Y0171294D01*
X0065597Y0173693D02*
X0068833Y0173693D01*
X0065597Y0176091D02*
X0077086Y0176091D01*
X0077498Y0173693D02*
X0079485Y0173693D01*
X0079430Y0171294D02*
X0081883Y0171294D01*
X0080165Y0168896D02*
X0084282Y0168896D01*
X0086680Y0166497D02*
X0080067Y0166497D01*
X0079038Y0164099D02*
X0089079Y0164099D01*
X0091477Y0161700D02*
X0075944Y0161700D01*
X0061197Y0161276D02*
X0061197Y0187732D01*
X0058066Y0194012D02*
X0057232Y0193667D01*
X0056713Y0193148D01*
X0045220Y0204641D01*
X0046091Y0204641D01*
X0047042Y0205035D01*
X0058066Y0194012D01*
X0056798Y0195279D02*
X0054582Y0195279D01*
X0054400Y0197678D02*
X0052183Y0197678D01*
X0052001Y0200076D02*
X0049785Y0200076D01*
X0049603Y0202475D02*
X0047386Y0202475D01*
X0047204Y0204873D02*
X0046652Y0204873D01*
X0045000Y0213300D02*
X0044898Y0213441D01*
X0045000Y0213300D02*
X0062600Y0195700D01*
X0063700Y0195700D01*
X0100000Y0159400D01*
X0100000Y0135200D01*
X0107700Y0127500D01*
X0107732Y0127142D01*
X0112713Y0122647D02*
X0113257Y0122102D01*
X0112752Y0121597D01*
X0112207Y0122142D01*
X0112713Y0122647D01*
X0112752Y0131597D02*
X0112207Y0132142D01*
X0112713Y0132647D01*
X0113257Y0132102D01*
X0112752Y0131597D01*
X0112752Y0141597D02*
X0112207Y0142142D01*
X0112713Y0142647D01*
X0113257Y0142102D01*
X0112752Y0141597D01*
X0112847Y0142512D02*
X0112578Y0142512D01*
X0112752Y0151597D02*
X0112207Y0152142D01*
X0112713Y0152647D01*
X0113257Y0152102D01*
X0112752Y0151597D01*
X0113253Y0152106D02*
X0112243Y0152106D01*
X0122207Y0152102D02*
X0123047Y0151263D01*
X0123047Y0152942D01*
X0122207Y0152102D01*
X0122211Y0152106D02*
X0123047Y0152106D01*
X0123047Y0161263D02*
X0122915Y0161395D01*
X0123047Y0161528D01*
X0123047Y0161263D01*
X0130921Y0161700D02*
X0138300Y0161700D01*
X0138300Y0164099D02*
X0130921Y0164099D01*
X0130921Y0166497D02*
X0138300Y0166497D01*
X0138300Y0168896D02*
X0130921Y0168896D01*
X0130921Y0171294D02*
X0138300Y0171294D01*
X0139337Y0159302D02*
X0130921Y0159302D01*
X0130921Y0156903D02*
X0141736Y0156903D01*
X0144134Y0154505D02*
X0130921Y0154505D01*
X0130921Y0152106D02*
X0146533Y0152106D01*
X0148931Y0149708D02*
X0130921Y0149708D01*
X0130921Y0147309D02*
X0151330Y0147309D01*
X0153728Y0144911D02*
X0130921Y0144911D01*
X0130921Y0142512D02*
X0187474Y0142512D01*
X0187474Y0144911D02*
X0179372Y0144911D01*
X0181770Y0147309D02*
X0188699Y0147309D01*
X0187796Y0149708D02*
X0184089Y0149708D01*
X0184900Y0152106D02*
X0186474Y0152106D01*
X0186474Y0154505D02*
X0184900Y0154505D01*
X0184900Y0156903D02*
X0186879Y0156903D01*
X0184900Y0159302D02*
X0189277Y0159302D01*
X0190477Y0161700D02*
X0184900Y0161700D01*
X0184900Y0164099D02*
X0188079Y0164099D01*
X0185680Y0166497D02*
X0184900Y0166497D01*
X0187145Y0177477D02*
X0181573Y0183050D01*
X0186008Y0187485D01*
X0186008Y0182286D01*
X0188981Y0179313D01*
X0187145Y0177477D01*
X0186133Y0178490D02*
X0188158Y0178490D01*
X0187406Y0180888D02*
X0183734Y0180888D01*
X0181809Y0183287D02*
X0186008Y0183287D01*
X0186008Y0185685D02*
X0184208Y0185685D01*
X0178958Y0192881D02*
X0172703Y0192881D01*
X0173323Y0193500D02*
X0179577Y0193500D01*
X0175001Y0188924D01*
X0174575Y0189100D01*
X0168923Y0189100D01*
X0173323Y0193500D01*
X0170305Y0190482D02*
X0176560Y0190482D01*
X0173700Y0184700D02*
X0169300Y0184700D01*
X0161600Y0177000D01*
X0161669Y0176512D01*
X0166247Y0170702D02*
X0166482Y0170799D01*
X0166841Y0171158D01*
X0167194Y0170805D01*
X0166669Y0170280D01*
X0166247Y0170702D01*
X0161600Y0167100D02*
X0161669Y0166512D01*
X0161600Y0167100D02*
X0159400Y0169300D01*
X0158300Y0169300D01*
X0155000Y0172600D01*
X0155000Y0181400D01*
X0171500Y0197900D01*
X0182500Y0197900D01*
X0189100Y0204500D01*
X0189100Y0210000D01*
X0203400Y0224300D01*
X0205600Y0224300D01*
X0206354Y0225055D01*
X0199362Y0229348D02*
X0198468Y0228454D01*
X0197554Y0226249D01*
X0197554Y0224677D01*
X0185370Y0212492D01*
X0184700Y0210875D01*
X0184700Y0209409D01*
X0183347Y0210762D01*
X0184241Y0211656D01*
X0185154Y0213862D01*
X0185154Y0216249D01*
X0184241Y0218454D01*
X0182640Y0220055D01*
X0184241Y0221656D01*
X0185154Y0223862D01*
X0185154Y0226249D01*
X0184241Y0228454D01*
X0182640Y0230055D01*
X0184241Y0231656D01*
X0185154Y0233862D01*
X0185154Y0236249D01*
X0184241Y0238454D01*
X0182553Y0240142D01*
X0180348Y0241055D01*
X0180300Y0241055D01*
X0180300Y0242775D01*
X0179630Y0244392D01*
X0178915Y0245108D01*
X0181043Y0245990D01*
X0183294Y0248240D01*
X0183676Y0249163D01*
X0196554Y0236285D01*
X0196554Y0233663D01*
X0197620Y0231090D01*
X0199362Y0229348D01*
X0198873Y0228859D02*
X0183836Y0228859D01*
X0183842Y0231257D02*
X0197551Y0231257D01*
X0196557Y0233656D02*
X0185069Y0233656D01*
X0185154Y0236054D02*
X0196554Y0236054D01*
X0194386Y0238453D02*
X0184241Y0238453D01*
X0180840Y0240851D02*
X0191988Y0240851D01*
X0189589Y0243250D02*
X0180103Y0243250D01*
X0180219Y0245648D02*
X0187191Y0245648D01*
X0184792Y0248047D02*
X0183101Y0248047D01*
X0179000Y0260400D02*
X0178103Y0260772D01*
X0174920Y0260772D01*
X0172600Y0259810D01*
X0172600Y0265733D01*
X0174920Y0264772D01*
X0176867Y0264772D01*
X0179000Y0262639D01*
X0179000Y0260400D01*
X0179000Y0262438D02*
X0172600Y0262438D01*
X0172600Y0264836D02*
X0174765Y0264836D01*
X0173152Y0260039D02*
X0172600Y0260039D01*
X0163800Y0286423D02*
X0159193Y0286423D01*
X0161436Y0288821D02*
X0163800Y0288821D01*
X0163800Y0291220D02*
X0162429Y0291220D01*
X0162543Y0293618D02*
X0163800Y0293618D01*
X0163800Y0296017D02*
X0161989Y0296017D01*
X0160528Y0298415D02*
X0163800Y0298415D01*
X0177919Y0317603D02*
X0193890Y0317603D01*
X0191178Y0315205D02*
X0180318Y0315205D01*
X0182716Y0312806D02*
X0190141Y0312806D01*
X0189886Y0310408D02*
X0185115Y0310408D01*
X0187513Y0308009D02*
X0190299Y0308009D01*
X0189044Y0305611D02*
X0191560Y0305611D01*
X0189100Y0303212D02*
X0194814Y0303212D01*
X0200957Y0303212D02*
X0220378Y0303212D01*
X0220378Y0300814D02*
X0203463Y0300814D01*
X0205233Y0298415D02*
X0220378Y0298415D01*
X0222580Y0296017D02*
X0205885Y0296017D01*
X0205736Y0293618D02*
X0235300Y0293618D01*
X0235300Y0291220D02*
X0204678Y0291220D01*
X0205065Y0288821D02*
X0235300Y0288821D01*
X0235300Y0286423D02*
X0229251Y0286423D01*
X0232875Y0284024D02*
X0235300Y0284024D01*
X0235300Y0281626D02*
X0234125Y0281626D01*
X0234378Y0279227D02*
X0235300Y0279227D01*
X0235300Y0271600D02*
X0235300Y0193500D01*
X0227600Y0185800D01*
X0227378Y0185134D01*
X0221023Y0188084D02*
X0198878Y0188084D01*
X0199208Y0185685D02*
X0220378Y0185685D01*
X0220566Y0183287D02*
X0204761Y0183287D01*
X0205708Y0180888D02*
X0221724Y0180888D01*
X0220834Y0178490D02*
X0205708Y0178490D01*
X0204099Y0176091D02*
X0220378Y0176091D01*
X0220378Y0173693D02*
X0204130Y0173693D01*
X0206528Y0171294D02*
X0221318Y0171294D01*
X0223717Y0168896D02*
X0208927Y0168896D01*
X0211325Y0166497D02*
X0231775Y0166497D01*
X0231039Y0168896D02*
X0234173Y0168896D01*
X0233438Y0171294D02*
X0235300Y0171294D01*
X0235300Y0173693D02*
X0234378Y0173693D01*
X0234378Y0176091D02*
X0235300Y0176091D01*
X0235300Y0178490D02*
X0233921Y0178490D01*
X0233032Y0180888D02*
X0235300Y0180888D01*
X0235300Y0183287D02*
X0234190Y0183287D01*
X0234378Y0185685D02*
X0235300Y0185685D01*
X0228458Y0192881D02*
X0191403Y0192881D01*
X0193802Y0195279D02*
X0230857Y0195279D01*
X0230900Y0197678D02*
X0196200Y0197678D01*
X0197797Y0200076D02*
X0200048Y0200076D01*
X0198129Y0202475D02*
X0197900Y0202475D01*
X0193500Y0201200D02*
X0175350Y0183050D01*
X0200100Y0158300D01*
X0200100Y0149500D01*
X0200574Y0148764D01*
X0204640Y0144911D02*
X0220378Y0144911D01*
X0220378Y0142512D02*
X0198674Y0142512D01*
X0197343Y0140114D02*
X0221003Y0140114D01*
X0223401Y0137715D02*
X0145435Y0137715D01*
X0147257Y0135317D02*
X0228759Y0135317D01*
X0227766Y0132918D02*
X0148250Y0132918D01*
X0148294Y0130520D02*
X0227721Y0130520D01*
X0228098Y0128121D02*
X0147917Y0128121D01*
X0146924Y0125723D02*
X0229092Y0125723D01*
X0231384Y0123324D02*
X0144632Y0123324D01*
X0133235Y0123047D02*
X0130921Y0123047D01*
X0130921Y0125361D01*
X0133235Y0123047D01*
X0132959Y0123324D02*
X0130921Y0123324D01*
X0123047Y0122942D02*
X0122207Y0122102D01*
X0123047Y0121263D01*
X0123047Y0122942D01*
X0123047Y0131263D02*
X0122207Y0132102D01*
X0123047Y0132942D01*
X0123047Y0131263D01*
X0123023Y0132918D02*
X0123047Y0132918D01*
X0123047Y0141263D02*
X0122207Y0142102D01*
X0123047Y0142942D01*
X0123047Y0141263D01*
X0123047Y0142512D02*
X0122617Y0142512D01*
X0130921Y0140114D02*
X0136165Y0140114D01*
X0132155Y0137715D02*
X0130921Y0137715D01*
X0141425Y0140114D02*
X0188805Y0140114D01*
X0205151Y0152106D02*
X0213271Y0152106D01*
X0210873Y0154505D02*
X0204500Y0154505D01*
X0204500Y0156903D02*
X0208474Y0156903D01*
X0206076Y0159302D02*
X0204448Y0159302D01*
X0203677Y0161700D02*
X0202922Y0161700D01*
X0201279Y0164099D02*
X0200524Y0164099D01*
X0198880Y0166497D02*
X0198125Y0166497D01*
X0196482Y0168896D02*
X0195727Y0168896D01*
X0196800Y0174800D02*
X0193500Y0174800D01*
X0192608Y0175020D01*
X0196800Y0174800D02*
X0217700Y0153900D01*
X0226500Y0153900D01*
X0227378Y0153638D01*
X0226500Y0155000D01*
X0239700Y0168200D01*
X0239700Y0299100D01*
X0228700Y0310100D01*
X0227600Y0310100D01*
X0227378Y0311118D01*
X0230013Y0317603D02*
X0230018Y0317603D01*
X0228526Y0320002D02*
X0175521Y0320002D01*
X0173122Y0322401D02*
X0227721Y0322401D01*
X0227721Y0324799D02*
X0170723Y0324799D01*
X0201881Y0317603D02*
X0224743Y0317603D01*
X0221565Y0315205D02*
X0204594Y0315205D01*
X0205630Y0312806D02*
X0220501Y0312806D01*
X0220378Y0310408D02*
X0205886Y0310408D01*
X0205472Y0308009D02*
X0221089Y0308009D01*
X0221971Y0305611D02*
X0204211Y0305611D01*
X0205885Y0286423D02*
X0225505Y0286423D01*
X0221881Y0284024D02*
X0205885Y0284024D01*
X0204911Y0281626D02*
X0220631Y0281626D01*
X0220378Y0279227D02*
X0202575Y0279227D01*
X0203294Y0276829D02*
X0220958Y0276829D01*
X0222287Y0274430D02*
X0205692Y0274430D01*
X0208091Y0272032D02*
X0220378Y0272032D01*
X0220378Y0269633D02*
X0210489Y0269633D01*
X0212888Y0267235D02*
X0220378Y0267235D01*
X0222264Y0264836D02*
X0215286Y0264836D01*
X0217685Y0262438D02*
X0230900Y0262438D01*
X0230900Y0260039D02*
X0220083Y0260039D01*
X0222482Y0257641D02*
X0230900Y0257641D01*
X0230900Y0255242D02*
X0224148Y0255242D01*
X0235300Y0271600D02*
X0227600Y0279300D01*
X0227378Y0279622D01*
X0232176Y0296017D02*
X0235300Y0296017D01*
X0244100Y0299975D02*
X0243430Y0301592D01*
X0242192Y0302830D01*
X0234378Y0310645D01*
X0234378Y0312510D01*
X0233312Y0315083D01*
X0233161Y0315234D01*
X0235331Y0314335D01*
X0239110Y0314335D01*
X0242601Y0315782D01*
X0245274Y0318454D01*
X0246720Y0321945D01*
X0246720Y0325724D01*
X0245274Y0329216D01*
X0242780Y0331709D01*
X0249031Y0331709D01*
X0249031Y0123047D01*
X0242780Y0123047D01*
X0245274Y0125540D01*
X0246720Y0129032D01*
X0246720Y0132811D01*
X0245274Y0136302D01*
X0242601Y0138974D01*
X0239110Y0140420D01*
X0235331Y0140420D01*
X0233161Y0139522D01*
X0234378Y0140738D01*
X0234378Y0146537D01*
X0232277Y0148638D01*
X0233312Y0149673D01*
X0234378Y0152245D01*
X0234378Y0155030D01*
X0233902Y0156179D01*
X0243430Y0165708D01*
X0244100Y0167325D01*
X0244100Y0169075D01*
X0244100Y0299975D01*
X0243753Y0300814D02*
X0249031Y0300814D01*
X0249031Y0303212D02*
X0241810Y0303212D01*
X0239412Y0305611D02*
X0249031Y0305611D01*
X0249031Y0308009D02*
X0237013Y0308009D01*
X0234615Y0310408D02*
X0249031Y0310408D01*
X0249031Y0312806D02*
X0234255Y0312806D01*
X0233232Y0315205D02*
X0233191Y0315205D01*
X0241209Y0315205D02*
X0249031Y0315205D01*
X0249031Y0317603D02*
X0244423Y0317603D01*
X0245915Y0320002D02*
X0249031Y0320002D01*
X0249031Y0322401D02*
X0246720Y0322401D01*
X0246720Y0324799D02*
X0249031Y0324799D01*
X0249031Y0327198D02*
X0246109Y0327198D01*
X0244893Y0329596D02*
X0249031Y0329596D01*
X0249031Y0298415D02*
X0244100Y0298415D01*
X0244100Y0296017D02*
X0249031Y0296017D01*
X0249031Y0293618D02*
X0244100Y0293618D01*
X0244100Y0291220D02*
X0249031Y0291220D01*
X0249031Y0288821D02*
X0244100Y0288821D01*
X0244100Y0286423D02*
X0249031Y0286423D01*
X0249031Y0284024D02*
X0244100Y0284024D01*
X0244100Y0281626D02*
X0249031Y0281626D01*
X0249031Y0279227D02*
X0244100Y0279227D01*
X0244100Y0276829D02*
X0249031Y0276829D01*
X0249031Y0274430D02*
X0244100Y0274430D01*
X0244100Y0272032D02*
X0249031Y0272032D01*
X0249031Y0269633D02*
X0244100Y0269633D01*
X0244100Y0267235D02*
X0249031Y0267235D01*
X0249031Y0264836D02*
X0244100Y0264836D01*
X0244100Y0262438D02*
X0249031Y0262438D01*
X0249031Y0260039D02*
X0244100Y0260039D01*
X0244100Y0257641D02*
X0249031Y0257641D01*
X0249031Y0255242D02*
X0244100Y0255242D01*
X0244100Y0252844D02*
X0249031Y0252844D01*
X0249031Y0250445D02*
X0244100Y0250445D01*
X0244100Y0248047D02*
X0249031Y0248047D01*
X0249031Y0245648D02*
X0244100Y0245648D01*
X0244100Y0243250D02*
X0249031Y0243250D01*
X0249031Y0240851D02*
X0244100Y0240851D01*
X0244100Y0238453D02*
X0249031Y0238453D01*
X0249031Y0236054D02*
X0244100Y0236054D01*
X0244100Y0233656D02*
X0249031Y0233656D01*
X0249031Y0231257D02*
X0244100Y0231257D01*
X0244100Y0228859D02*
X0249031Y0228859D01*
X0249031Y0226460D02*
X0244100Y0226460D01*
X0244100Y0224062D02*
X0249031Y0224062D01*
X0249031Y0221663D02*
X0244100Y0221663D01*
X0244100Y0219265D02*
X0249031Y0219265D01*
X0249031Y0216866D02*
X0244100Y0216866D01*
X0244100Y0214468D02*
X0249031Y0214468D01*
X0249031Y0212069D02*
X0244100Y0212069D01*
X0244100Y0209670D02*
X0249031Y0209670D01*
X0249031Y0207272D02*
X0244100Y0207272D01*
X0244100Y0204873D02*
X0249031Y0204873D01*
X0249031Y0202475D02*
X0244100Y0202475D01*
X0244100Y0200076D02*
X0249031Y0200076D01*
X0249031Y0197678D02*
X0244100Y0197678D01*
X0244100Y0195279D02*
X0249031Y0195279D01*
X0249031Y0192881D02*
X0244100Y0192881D01*
X0244100Y0190482D02*
X0249031Y0190482D01*
X0249031Y0188084D02*
X0244100Y0188084D01*
X0244100Y0185685D02*
X0249031Y0185685D01*
X0249031Y0183287D02*
X0244100Y0183287D01*
X0244100Y0180888D02*
X0249031Y0180888D01*
X0249031Y0178490D02*
X0244100Y0178490D01*
X0244100Y0176091D02*
X0249031Y0176091D01*
X0249031Y0173693D02*
X0244100Y0173693D01*
X0244100Y0171294D02*
X0249031Y0171294D01*
X0249031Y0168896D02*
X0244100Y0168896D01*
X0243757Y0166497D02*
X0249031Y0166497D01*
X0249031Y0164099D02*
X0241821Y0164099D01*
X0239423Y0161700D02*
X0249031Y0161700D01*
X0249031Y0159302D02*
X0237024Y0159302D01*
X0234626Y0156903D02*
X0249031Y0156903D01*
X0249031Y0154505D02*
X0234378Y0154505D01*
X0234320Y0152106D02*
X0249031Y0152106D01*
X0249031Y0149708D02*
X0233327Y0149708D01*
X0233606Y0147309D02*
X0249031Y0147309D01*
X0249031Y0144911D02*
X0234378Y0144911D01*
X0234378Y0142512D02*
X0249031Y0142512D01*
X0249031Y0140114D02*
X0239851Y0140114D01*
X0243860Y0137715D02*
X0249031Y0137715D01*
X0249031Y0135317D02*
X0245682Y0135317D01*
X0246675Y0132918D02*
X0249031Y0132918D01*
X0249031Y0130520D02*
X0246720Y0130520D01*
X0246342Y0128121D02*
X0249031Y0128121D01*
X0249031Y0125723D02*
X0245349Y0125723D01*
X0243057Y0123324D02*
X0249031Y0123324D01*
X0234590Y0140114D02*
X0233753Y0140114D01*
X0221150Y0147309D02*
X0206174Y0147309D01*
X0206174Y0149708D02*
X0216323Y0149708D01*
X0218521Y0159302D02*
X0223142Y0159302D01*
X0226978Y0161700D02*
X0216122Y0161700D01*
X0213724Y0164099D02*
X0229376Y0164099D01*
X0222827Y0190482D02*
X0196479Y0190482D01*
X0193500Y0201200D02*
X0193500Y0204500D01*
X0203400Y0214400D01*
X0205600Y0214400D01*
X0206354Y0215055D01*
X0196939Y0224062D02*
X0185154Y0224062D01*
X0185067Y0226460D02*
X0197642Y0226460D01*
X0194541Y0221663D02*
X0184244Y0221663D01*
X0183430Y0219265D02*
X0192142Y0219265D01*
X0189743Y0216866D02*
X0184899Y0216866D01*
X0185154Y0214468D02*
X0187345Y0214468D01*
X0185194Y0212069D02*
X0184412Y0212069D01*
X0184438Y0209670D02*
X0184700Y0209670D01*
X0166000Y0200100D02*
X0166000Y0226500D01*
X0161600Y0224730D02*
X0161600Y0201923D01*
X0160994Y0201317D01*
X0160478Y0202564D01*
X0158508Y0204533D01*
X0155936Y0205598D01*
X0153151Y0205598D01*
X0150578Y0204533D01*
X0149700Y0203655D01*
X0149700Y0215339D01*
X0154959Y0220598D01*
X0156135Y0220598D01*
X0159075Y0221816D01*
X0161325Y0224067D01*
X0161600Y0224730D01*
X0161600Y0224062D02*
X0161320Y0224062D01*
X0161600Y0221663D02*
X0158705Y0221663D01*
X0161600Y0219265D02*
X0153626Y0219265D01*
X0151227Y0216866D02*
X0161600Y0216866D01*
X0161600Y0214468D02*
X0149700Y0214468D01*
X0149700Y0212069D02*
X0161600Y0212069D01*
X0161600Y0209670D02*
X0149700Y0209670D01*
X0149700Y0207272D02*
X0161600Y0207272D01*
X0161600Y0204873D02*
X0157686Y0204873D01*
X0160514Y0202475D02*
X0161600Y0202475D01*
X0166000Y0200100D02*
X0150600Y0184700D01*
X0150600Y0168200D01*
X0161600Y0157200D01*
X0161669Y0156512D01*
X0165962Y0160987D02*
X0167194Y0162219D01*
X0166669Y0162744D01*
X0165437Y0161512D01*
X0165962Y0160987D01*
X0165626Y0161700D02*
X0166675Y0161700D01*
X0175350Y0183050D02*
X0173700Y0184700D01*
X0151825Y0192148D02*
X0149700Y0190023D01*
X0149700Y0193542D01*
X0150578Y0192664D01*
X0151825Y0192148D01*
X0150361Y0192881D02*
X0149700Y0192881D01*
X0149700Y0190482D02*
X0150160Y0190482D01*
X0149700Y0204873D02*
X0151401Y0204873D01*
X0113433Y0173693D02*
X0113400Y0173693D01*
X0102000Y0173693D02*
X0091930Y0173693D01*
X0094328Y0171294D02*
X0100995Y0171294D01*
X0100032Y0170331D02*
X0100032Y0165590D01*
X0067166Y0198457D01*
X0067182Y0198457D01*
X0072571Y0193068D01*
X0074666Y0192200D01*
X0085765Y0192200D01*
X0085263Y0191697D01*
X0084197Y0189125D01*
X0084197Y0186340D01*
X0085263Y0183767D01*
X0087232Y0181798D01*
X0089804Y0180732D01*
X0092589Y0180732D01*
X0095162Y0181798D01*
X0097131Y0183767D01*
X0097817Y0185422D01*
X0102000Y0181239D01*
X0102000Y0172299D01*
X0100032Y0170331D01*
X0100032Y0168896D02*
X0096727Y0168896D01*
X0099125Y0166497D02*
X0100032Y0166497D01*
X0102000Y0176091D02*
X0089531Y0176091D01*
X0087133Y0178490D02*
X0102000Y0178490D01*
X0102000Y0180888D02*
X0092966Y0180888D01*
X0089428Y0180888D02*
X0084734Y0180888D01*
X0085743Y0183287D02*
X0082336Y0183287D01*
X0084468Y0185685D02*
X0079937Y0185685D01*
X0077539Y0188084D02*
X0084197Y0188084D01*
X0084759Y0190482D02*
X0075140Y0190482D01*
X0073022Y0192881D02*
X0072742Y0192881D01*
X0070360Y0195279D02*
X0070343Y0195279D01*
X0067961Y0197678D02*
X0067945Y0197678D01*
X0074489Y0207272D02*
X0088235Y0207272D01*
X0088235Y0209670D02*
X0072639Y0209670D01*
X0072639Y0209122D02*
X0072639Y0211170D01*
X0071635Y0213595D01*
X0069778Y0215452D01*
X0067352Y0216457D01*
X0065292Y0216457D01*
X0065900Y0217925D01*
X0065900Y0228475D01*
X0065493Y0229457D01*
X0067153Y0229457D01*
X0069212Y0230309D01*
X0070787Y0231885D01*
X0071433Y0233445D01*
X0089000Y0215877D01*
X0089000Y0212976D01*
X0088235Y0211128D01*
X0088235Y0204100D01*
X0088442Y0203600D01*
X0078161Y0203600D01*
X0072639Y0209122D01*
X0072267Y0212069D02*
X0088624Y0212069D01*
X0089000Y0214468D02*
X0070762Y0214468D01*
X0065461Y0216866D02*
X0088011Y0216866D01*
X0085613Y0219265D02*
X0065900Y0219265D01*
X0065900Y0221663D02*
X0083214Y0221663D01*
X0080816Y0224062D02*
X0065900Y0224062D01*
X0065900Y0226460D02*
X0078417Y0226460D01*
X0076019Y0228859D02*
X0065741Y0228859D01*
X0061500Y0227600D02*
X0054900Y0234200D01*
X0053967Y0234330D01*
X0051420Y0240851D02*
X0018759Y0240851D01*
X0020919Y0238453D02*
X0048191Y0238453D01*
X0047105Y0236054D02*
X0021912Y0236054D01*
X0021967Y0233656D02*
X0046967Y0233656D01*
X0047663Y0231257D02*
X0021354Y0231257D01*
X0015999Y0226460D02*
X0015874Y0226460D01*
X0004937Y0264434D02*
X0004937Y0264780D01*
X0005283Y0264780D01*
X0004937Y0264434D01*
X0048244Y0264836D02*
X0087614Y0264836D01*
X0087614Y0267235D02*
X0048244Y0267235D01*
X0048244Y0269633D02*
X0087614Y0269633D01*
X0087614Y0272032D02*
X0048244Y0272032D01*
X0048244Y0274430D02*
X0087614Y0274430D01*
X0087614Y0276829D02*
X0048244Y0276829D01*
X0048244Y0279227D02*
X0087614Y0279227D01*
X0087614Y0281626D02*
X0048244Y0281626D01*
X0048244Y0284024D02*
X0087614Y0284024D01*
X0087614Y0286423D02*
X0048244Y0286423D01*
X0048244Y0288821D02*
X0087614Y0288821D01*
X0087614Y0291220D02*
X0048244Y0291220D01*
X0048244Y0293618D02*
X0087614Y0293618D01*
X0087614Y0296017D02*
X0048244Y0296017D01*
X0048244Y0298415D02*
X0087614Y0298415D01*
X0087614Y0300814D02*
X0048244Y0300814D01*
X0048244Y0303212D02*
X0087614Y0303212D01*
X0087614Y0305611D02*
X0048244Y0305611D01*
X0048244Y0308009D02*
X0087614Y0308009D01*
X0087614Y0310408D02*
X0048244Y0310408D01*
X0048244Y0312806D02*
X0087614Y0312806D01*
X0087614Y0315205D02*
X0048244Y0315205D01*
X0048244Y0317603D02*
X0087614Y0317603D01*
X0087614Y0320002D02*
X0048244Y0320002D01*
X0048244Y0322401D02*
X0087614Y0322401D01*
X0087614Y0324799D02*
X0048244Y0324799D01*
X0048244Y0327198D02*
X0087614Y0327198D01*
X0087614Y0329596D02*
X0048244Y0329596D01*
X0058648Y0260039D02*
X0060773Y0260039D01*
X0063492Y0254780D02*
X0063700Y0254000D01*
X0072500Y0245200D01*
X0072500Y0238600D01*
X0093400Y0217700D01*
X0093400Y0207800D01*
X0093835Y0207614D01*
X0088235Y0204873D02*
X0076888Y0204873D01*
X0061500Y0218800D02*
X0061500Y0227600D01*
X0057100Y0225777D02*
X0057100Y0222461D01*
X0052032Y0227529D01*
X0051988Y0227573D01*
X0052575Y0227330D01*
X0055360Y0227330D01*
X0055493Y0227385D01*
X0057100Y0225777D01*
X0056417Y0226460D02*
X0053101Y0226460D01*
X0055499Y0224062D02*
X0057100Y0224062D01*
X0070159Y0231257D02*
X0073620Y0231257D01*
X0078870Y0238453D02*
X0087235Y0238453D01*
X0087235Y0240851D02*
X0076900Y0240851D01*
X0076900Y0243250D02*
X0088031Y0243250D01*
X0090190Y0245648D02*
X0076900Y0245648D01*
X0075876Y0248047D02*
X0079933Y0248047D01*
X0081268Y0236054D02*
X0087235Y0236054D01*
X0087336Y0233656D02*
X0083667Y0233656D01*
X0086065Y0231257D02*
X0088458Y0231257D01*
X0088464Y0228859D02*
X0088800Y0228859D01*
X0100200Y0228859D02*
X0102991Y0228859D01*
X0102726Y0231257D02*
X0100200Y0231257D01*
X0100333Y0233656D02*
X0103295Y0233656D01*
X0104990Y0236054D02*
X0100435Y0236054D01*
X0101501Y0226460D02*
X0104256Y0226460D01*
X0103899Y0224062D02*
X0107919Y0224062D01*
X0106841Y0207272D02*
X0106800Y0207272D01*
X0099952Y0183287D02*
X0096651Y0183287D01*
X0074688Y0178490D02*
X0065597Y0178490D01*
X0065597Y0180888D02*
X0072289Y0180888D01*
X0069891Y0183287D02*
X0066651Y0183287D01*
X0067390Y0128121D02*
X0074654Y0128121D01*
X0072256Y0125723D02*
X0065383Y0125723D01*
X0064466Y0123324D02*
X0069857Y0123324D01*
X0067856Y0120926D02*
X0065000Y0120926D01*
X0065102Y0118527D02*
X0067466Y0118527D01*
X0067466Y0116129D02*
X0067273Y0116129D01*
X0067466Y0106534D02*
X0066195Y0106534D01*
X0068807Y0104136D02*
X0062288Y0104136D01*
X0076455Y0108933D02*
X0076842Y0108933D01*
X0078853Y0106534D02*
X0101032Y0106534D01*
X0101032Y0108933D02*
X0095456Y0108933D01*
X0096040Y0111332D02*
X0102447Y0111332D01*
X0101669Y0113730D02*
X0095951Y0113730D01*
X0095951Y0116129D02*
X0101032Y0116129D01*
X0101032Y0118527D02*
X0095951Y0118527D01*
X0095951Y0120926D02*
X0102041Y0120926D01*
X0102075Y0123324D02*
X0095951Y0123324D01*
X0095951Y0125723D02*
X0101032Y0125723D01*
X0100856Y0128121D02*
X0095939Y0128121D01*
X0094364Y0130520D02*
X0098458Y0130520D01*
X0091551Y0126984D02*
X0091551Y0111236D01*
X0087646Y0108933D02*
X0086969Y0108933D01*
X0081252Y0104136D02*
X0101263Y0104136D01*
X0087151Y0123324D02*
X0082303Y0123324D01*
X0088391Y0082549D02*
X0090393Y0082549D01*
X0091088Y0080151D02*
X0086773Y0080151D01*
X0091088Y0068158D02*
X0081331Y0068158D01*
X0083742Y0065760D02*
X0091088Y0065760D01*
X0117542Y0029782D02*
X0119110Y0029782D01*
X0075755Y0024985D02*
X0070104Y0024985D01*
X0123047Y0111263D02*
X0122207Y0112102D01*
X0123047Y0112942D01*
X0123047Y0111263D01*
X0123047Y0111332D02*
X0122978Y0111332D01*
X0224300Y0222932D02*
X0224300Y0229077D01*
X0226349Y0231126D01*
X0230277Y0231126D01*
X0230900Y0231749D01*
X0230900Y0222748D01*
X0228770Y0223630D01*
X0225986Y0223630D01*
X0224300Y0222932D01*
X0224300Y0224062D02*
X0230900Y0224062D01*
X0230900Y0226460D02*
X0224300Y0226460D01*
X0224300Y0228859D02*
X0230900Y0228859D01*
X0230900Y0231257D02*
X0230409Y0231257D01*
X0230724Y0200076D02*
X0230900Y0200076D01*
X0130921Y0329395D02*
X0130921Y0331709D01*
X0133235Y0331709D01*
X0130921Y0329395D01*
X0130921Y0329596D02*
X0131123Y0329596D01*
X0101737Y0260039D02*
X0086207Y0260039D01*
X0077210Y0260039D02*
X0075086Y0260039D01*
X0069647Y0260039D02*
X0066212Y0260039D01*
D22*
X0061500Y0218800D03*
X0201200Y0248500D03*
D23*
X0205600Y0235300D02*
X0206354Y0235055D01*
X0205600Y0235300D02*
X0184700Y0256200D01*
X0184700Y0265000D01*
X0177000Y0272700D01*
X0176512Y0272772D01*
X0154543Y0245843D02*
X0155000Y0245200D01*
X0155000Y0229800D01*
X0154543Y0228598D01*
X0153900Y0227600D01*
X0144000Y0217700D01*
X0144000Y0162700D01*
X0158300Y0148400D01*
X0174800Y0148400D01*
X0179200Y0152800D01*
X0179200Y0170400D01*
X0175900Y0173700D01*
X0174800Y0173700D01*
X0172600Y0175900D01*
X0171669Y0176512D01*
X0107700Y0183600D02*
X0107700Y0168200D01*
X0107732Y0167142D01*
X0107700Y0183600D02*
X0095050Y0196250D01*
X0101100Y0202300D01*
X0101100Y0218800D01*
X0094500Y0225400D01*
X0094500Y0237500D01*
X0093835Y0237614D01*
X0065900Y0207800D02*
X0066039Y0207457D01*
X0067000Y0206700D01*
X0075800Y0197900D01*
X0093400Y0197900D01*
X0095050Y0196250D01*
X0065900Y0207800D02*
X0063700Y0207800D01*
X0047200Y0224300D01*
X0021900Y0224300D01*
X0015300Y0217700D01*
X0015300Y0214400D01*
X0014898Y0213441D01*
X0015300Y0212200D01*
X0015300Y0208900D01*
X0021900Y0202300D01*
X0039500Y0202300D01*
X0052700Y0189100D01*
X0052700Y0172600D01*
X0048300Y0168200D01*
X0048300Y0164900D01*
X0047815Y0164618D01*
X0043900Y0172600D02*
X0039500Y0168200D01*
X0039500Y0152800D01*
X0047200Y0145100D01*
X0047815Y0144618D01*
X0048300Y0144000D01*
X0048300Y0131900D01*
X0059300Y0120900D01*
X0059300Y0112100D01*
X0060331Y0111984D01*
X0040600Y0079100D02*
X0027400Y0079100D01*
X0018600Y0087900D01*
X0017732Y0087142D01*
X0040600Y0079100D02*
X0057100Y0062600D01*
X0057100Y0034000D01*
X0057929Y0033795D01*
X0007732Y0167102D02*
X0007600Y0168200D01*
X0007600Y0178100D01*
X0006500Y0179200D01*
X0006500Y0189100D01*
X0012000Y0194600D01*
X0037300Y0194600D01*
X0045000Y0186900D01*
X0045000Y0184700D01*
X0044898Y0183441D01*
X0043900Y0182500D01*
X0043900Y0172600D01*
D24*
X0091551Y0126984D03*
X0091551Y0111236D03*
M02*
