%
M48
M72
T01C0.0120
T02C0.0138
T03C0.0197
T04C0.0236
T05C0.0320
T06C0.0360
T07C0.0400
T08C0.0440
T09C0.1260
%
T01
X6150Y21880
X20120Y24850
T02
X9155Y12698
X9155Y11124
T03
X6033Y11198
X6033Y13198
X4781Y14462
X4781Y16462
X17651Y25277
X17651Y27277
T04
X15454Y27584
X15454Y29309
X16789Y31060
X15454Y32309
X19789Y31060
X22738Y31112
X22738Y30112
X22738Y27962
X22738Y26962
X22738Y24813
X22738Y23813
X22738Y21663
X22738Y20663
X22738Y18513
X22738Y17513
X22738Y15364
X22738Y14364
X20635Y20506
X20635Y21506
X20635Y22506
X20635Y23506
X17635Y23506
X17635Y22506
X17635Y21506
X17635Y20506
X15454Y19860
X15454Y22860
X15454Y24584
X10973Y23089
X10973Y20089
X9120Y18773
X7317Y16813
X6120Y18773
X4490Y18344
X3490Y18344
X2490Y18344
X1490Y18344
X1490Y21344
X2490Y21344
X3490Y21344
X4490Y21344
X7317Y13813
X8191Y11518
X8191Y8518
X4214Y9305
X4214Y12305
T05
X4663Y6076
X3663Y6076
X6876Y6076
X7876Y6076
X6604Y20746
X6604Y23746
X9383Y23761
X9383Y20761
X19261Y18502
X20011Y18002
X19261Y17502
X19307Y15376
X20057Y14876
X19307Y14376
X19427Y25863
X20177Y26363
X19427Y26863
T06
X8171Y25478
X7237Y25478
X6349Y25478
X5415Y25478
T07
X1773Y16714
X773Y16710
X773Y15710
X773Y14710
X773Y13710
X773Y12710
X773Y11710
X773Y10710
X773Y9710
X1773Y9714
X1773Y8714
X1773Y7714
X1742Y5931
X1742Y4931
X1742Y3931
X3793Y3380
X4793Y3380
X5793Y3380
X6793Y3380
X7793Y3380
X10663Y3761
X10663Y4761
X10663Y5761
X10773Y7714
X10773Y8714
X10773Y9714
X10773Y10714
X10773Y11714
X10773Y12714
X10773Y13714
X10773Y14714
X10773Y15714
X10773Y16714
X11773Y16710
X11773Y15710
X11773Y14710
X11773Y13710
X11773Y12710
X11773Y11710
X11773Y10710
X11773Y9710
X16167Y15651
X16167Y16651
X16167Y17651
X17167Y17651
X17167Y16651
X17167Y15651
X19569Y28541
X19569Y29541
X1773Y15714
X1773Y14714
X1773Y13714
X1773Y12714
X1773Y11714
X1773Y10714
T08
X1397Y23433
X5397Y23433
T09
X1281Y2265
X11124Y2265
X13880Y13092
X11124Y25887
X13880Y32383
X23722Y32383
X23722Y13092
X1281Y25887
M30
