%
M48
M72
T01C0.0120
T02C0.0197
T03C0.0236
T04C0.0320
T05C0.0360
T06C0.0400
T07C0.0440
T08C0.1260
%
T01
X15080Y17139
X14750Y20989
X16730Y23739
X21020Y27809
X6245Y21677
T02
X4784Y16265
X4784Y14265
X6036Y13002
X6036Y11002
X17654Y25277
X17654Y27277
T03
X15457Y27584
X15457Y29309
X16791Y31060
X15457Y32309
X19791Y31060
X22240Y30612
X23240Y30612
X23240Y27462
X22240Y27462
X22240Y24313
X23240Y24313
X20638Y23506
X20638Y22506
X20638Y21506
X20638Y20506
X22240Y21163
X23240Y21163
X23240Y18013
X22240Y18013
X22240Y14864
X23240Y14864
X17638Y20506
X17638Y21506
X17638Y22506
X17638Y23506
X15457Y22860
X15457Y24584
X15457Y19860
X10975Y19892
X9122Y18576
X7713Y16616
X6122Y18576
X4492Y18147
X3492Y18147
X2492Y18147
X1492Y18147
X1492Y21147
X2492Y21147
X3492Y21147
X4492Y21147
X7713Y13616
X9158Y12305
X8193Y11321
X9276Y10927
X8193Y8321
X4217Y9108
X4217Y12108
X10975Y22892
T04
X9386Y23565
X9386Y20565
X6606Y20549
X6606Y23549
X19263Y18502
X20013Y18002
X19263Y17502
X19310Y15376
X20060Y14876
X19310Y14376
X19429Y25863
X20179Y26363
X19429Y26863
X7878Y5880
X6878Y5880
X4666Y5880
X3666Y5880
T05
X5417Y25380
X6352Y25380
X7239Y25380
X8173Y25380
T06
X10776Y16517
X10776Y15517
X10776Y14517
X10776Y13517
X10776Y12517
X10776Y11517
X10776Y10517
X10776Y9517
X10776Y8517
X10776Y7517
X10666Y5565
X10666Y4565
X10666Y3565
X7795Y3183
X6795Y3183
X5795Y3183
X4795Y3183
X3795Y3183
X1744Y3734
X1744Y4734
X1744Y5734
X1776Y7517
X1776Y8517
X1776Y9517
X776Y9513
X776Y10513
X1776Y10517
X1776Y11517
X776Y11513
X776Y12513
X1776Y12517
X1776Y13517
X776Y13513
X776Y14513
X1776Y14517
X1776Y15517
X776Y15513
X776Y16513
X1776Y16517
X11776Y16513
X11776Y15513
X11776Y14513
X11776Y13513
X11776Y12513
X11776Y11513
X11776Y10513
X11776Y9513
X16169Y15651
X16169Y16651
X16169Y17651
X17169Y17651
X17169Y16651
X17169Y15651
X19571Y28541
X19571Y29541
T07
X5399Y23236
X1399Y23236
T08
X890Y2069
X11126Y2069
X13882Y13092
X11126Y25691
X13882Y32383
X23725Y32383
X23725Y13092
X890Y25691
M30
