G75*
%MOIN*%
%OFA0B0*%
%FSLAX25Y25*%
%IPPOS*%
%LPD*%
%AMOC8*
5,1,8,0,0,1.08239X$1,22.5*
%
%ADD10C,0.00000*%
%ADD11C,0.07600*%
%ADD12C,0.04800*%
%ADD13OC8,0.07000*%
%ADD14R,0.06000X0.06000*%
%ADD15OC8,0.06000*%
%ADD16C,0.06000*%
%ADD17OC8,0.07600*%
%ADD18OC8,0.04800*%
%ADD19C,0.05600*%
%ADD20R,0.03937X0.61811*%
%ADD21R,0.03937X0.57874*%
%ADD22C,0.05400*%
%ADD23C,0.03000*%
%ADD24C,0.02400*%
%ADD25C,0.02400*%
%ADD26C,0.03562*%
D10*
X0001025Y0001000D02*
X0001025Y0335646D01*
X0252994Y0335646D01*
X0252994Y0001000D01*
X0001025Y0001000D01*
X0002600Y0020685D02*
X0002602Y0020843D01*
X0002608Y0021001D01*
X0002618Y0021159D01*
X0002632Y0021317D01*
X0002650Y0021474D01*
X0002671Y0021631D01*
X0002697Y0021787D01*
X0002727Y0021943D01*
X0002760Y0022098D01*
X0002798Y0022251D01*
X0002839Y0022404D01*
X0002884Y0022556D01*
X0002933Y0022707D01*
X0002986Y0022856D01*
X0003042Y0023004D01*
X0003102Y0023150D01*
X0003166Y0023295D01*
X0003234Y0023438D01*
X0003305Y0023580D01*
X0003379Y0023720D01*
X0003457Y0023857D01*
X0003539Y0023993D01*
X0003623Y0024127D01*
X0003712Y0024258D01*
X0003803Y0024387D01*
X0003898Y0024514D01*
X0003995Y0024639D01*
X0004096Y0024761D01*
X0004200Y0024880D01*
X0004307Y0024997D01*
X0004417Y0025111D01*
X0004530Y0025222D01*
X0004645Y0025331D01*
X0004763Y0025436D01*
X0004884Y0025538D01*
X0005007Y0025638D01*
X0005133Y0025734D01*
X0005261Y0025827D01*
X0005391Y0025917D01*
X0005524Y0026003D01*
X0005659Y0026087D01*
X0005795Y0026166D01*
X0005934Y0026243D01*
X0006075Y0026315D01*
X0006217Y0026385D01*
X0006361Y0026450D01*
X0006507Y0026512D01*
X0006654Y0026570D01*
X0006803Y0026625D01*
X0006953Y0026676D01*
X0007104Y0026723D01*
X0007256Y0026766D01*
X0007409Y0026805D01*
X0007564Y0026841D01*
X0007719Y0026872D01*
X0007875Y0026900D01*
X0008031Y0026924D01*
X0008188Y0026944D01*
X0008346Y0026960D01*
X0008503Y0026972D01*
X0008662Y0026980D01*
X0008820Y0026984D01*
X0008978Y0026984D01*
X0009136Y0026980D01*
X0009295Y0026972D01*
X0009452Y0026960D01*
X0009610Y0026944D01*
X0009767Y0026924D01*
X0009923Y0026900D01*
X0010079Y0026872D01*
X0010234Y0026841D01*
X0010389Y0026805D01*
X0010542Y0026766D01*
X0010694Y0026723D01*
X0010845Y0026676D01*
X0010995Y0026625D01*
X0011144Y0026570D01*
X0011291Y0026512D01*
X0011437Y0026450D01*
X0011581Y0026385D01*
X0011723Y0026315D01*
X0011864Y0026243D01*
X0012003Y0026166D01*
X0012139Y0026087D01*
X0012274Y0026003D01*
X0012407Y0025917D01*
X0012537Y0025827D01*
X0012665Y0025734D01*
X0012791Y0025638D01*
X0012914Y0025538D01*
X0013035Y0025436D01*
X0013153Y0025331D01*
X0013268Y0025222D01*
X0013381Y0025111D01*
X0013491Y0024997D01*
X0013598Y0024880D01*
X0013702Y0024761D01*
X0013803Y0024639D01*
X0013900Y0024514D01*
X0013995Y0024387D01*
X0014086Y0024258D01*
X0014175Y0024127D01*
X0014259Y0023993D01*
X0014341Y0023857D01*
X0014419Y0023720D01*
X0014493Y0023580D01*
X0014564Y0023438D01*
X0014632Y0023295D01*
X0014696Y0023150D01*
X0014756Y0023004D01*
X0014812Y0022856D01*
X0014865Y0022707D01*
X0014914Y0022556D01*
X0014959Y0022404D01*
X0015000Y0022251D01*
X0015038Y0022098D01*
X0015071Y0021943D01*
X0015101Y0021787D01*
X0015127Y0021631D01*
X0015148Y0021474D01*
X0015166Y0021317D01*
X0015180Y0021159D01*
X0015190Y0021001D01*
X0015196Y0020843D01*
X0015198Y0020685D01*
X0015196Y0020527D01*
X0015190Y0020369D01*
X0015180Y0020211D01*
X0015166Y0020053D01*
X0015148Y0019896D01*
X0015127Y0019739D01*
X0015101Y0019583D01*
X0015071Y0019427D01*
X0015038Y0019272D01*
X0015000Y0019119D01*
X0014959Y0018966D01*
X0014914Y0018814D01*
X0014865Y0018663D01*
X0014812Y0018514D01*
X0014756Y0018366D01*
X0014696Y0018220D01*
X0014632Y0018075D01*
X0014564Y0017932D01*
X0014493Y0017790D01*
X0014419Y0017650D01*
X0014341Y0017513D01*
X0014259Y0017377D01*
X0014175Y0017243D01*
X0014086Y0017112D01*
X0013995Y0016983D01*
X0013900Y0016856D01*
X0013803Y0016731D01*
X0013702Y0016609D01*
X0013598Y0016490D01*
X0013491Y0016373D01*
X0013381Y0016259D01*
X0013268Y0016148D01*
X0013153Y0016039D01*
X0013035Y0015934D01*
X0012914Y0015832D01*
X0012791Y0015732D01*
X0012665Y0015636D01*
X0012537Y0015543D01*
X0012407Y0015453D01*
X0012274Y0015367D01*
X0012139Y0015283D01*
X0012003Y0015204D01*
X0011864Y0015127D01*
X0011723Y0015055D01*
X0011581Y0014985D01*
X0011437Y0014920D01*
X0011291Y0014858D01*
X0011144Y0014800D01*
X0010995Y0014745D01*
X0010845Y0014694D01*
X0010694Y0014647D01*
X0010542Y0014604D01*
X0010389Y0014565D01*
X0010234Y0014529D01*
X0010079Y0014498D01*
X0009923Y0014470D01*
X0009767Y0014446D01*
X0009610Y0014426D01*
X0009452Y0014410D01*
X0009295Y0014398D01*
X0009136Y0014390D01*
X0008978Y0014386D01*
X0008820Y0014386D01*
X0008662Y0014390D01*
X0008503Y0014398D01*
X0008346Y0014410D01*
X0008188Y0014426D01*
X0008031Y0014446D01*
X0007875Y0014470D01*
X0007719Y0014498D01*
X0007564Y0014529D01*
X0007409Y0014565D01*
X0007256Y0014604D01*
X0007104Y0014647D01*
X0006953Y0014694D01*
X0006803Y0014745D01*
X0006654Y0014800D01*
X0006507Y0014858D01*
X0006361Y0014920D01*
X0006217Y0014985D01*
X0006075Y0015055D01*
X0005934Y0015127D01*
X0005795Y0015204D01*
X0005659Y0015283D01*
X0005524Y0015367D01*
X0005391Y0015453D01*
X0005261Y0015543D01*
X0005133Y0015636D01*
X0005007Y0015732D01*
X0004884Y0015832D01*
X0004763Y0015934D01*
X0004645Y0016039D01*
X0004530Y0016148D01*
X0004417Y0016259D01*
X0004307Y0016373D01*
X0004200Y0016490D01*
X0004096Y0016609D01*
X0003995Y0016731D01*
X0003898Y0016856D01*
X0003803Y0016983D01*
X0003712Y0017112D01*
X0003623Y0017243D01*
X0003539Y0017377D01*
X0003457Y0017513D01*
X0003379Y0017650D01*
X0003305Y0017790D01*
X0003234Y0017932D01*
X0003166Y0018075D01*
X0003102Y0018220D01*
X0003042Y0018366D01*
X0002986Y0018514D01*
X0002933Y0018663D01*
X0002884Y0018814D01*
X0002839Y0018966D01*
X0002798Y0019119D01*
X0002760Y0019272D01*
X0002727Y0019427D01*
X0002697Y0019583D01*
X0002671Y0019739D01*
X0002650Y0019896D01*
X0002632Y0020053D01*
X0002618Y0020211D01*
X0002608Y0020369D01*
X0002602Y0020527D01*
X0002600Y0020685D01*
X0104962Y0020685D02*
X0104964Y0020843D01*
X0104970Y0021001D01*
X0104980Y0021159D01*
X0104994Y0021317D01*
X0105012Y0021474D01*
X0105033Y0021631D01*
X0105059Y0021787D01*
X0105089Y0021943D01*
X0105122Y0022098D01*
X0105160Y0022251D01*
X0105201Y0022404D01*
X0105246Y0022556D01*
X0105295Y0022707D01*
X0105348Y0022856D01*
X0105404Y0023004D01*
X0105464Y0023150D01*
X0105528Y0023295D01*
X0105596Y0023438D01*
X0105667Y0023580D01*
X0105741Y0023720D01*
X0105819Y0023857D01*
X0105901Y0023993D01*
X0105985Y0024127D01*
X0106074Y0024258D01*
X0106165Y0024387D01*
X0106260Y0024514D01*
X0106357Y0024639D01*
X0106458Y0024761D01*
X0106562Y0024880D01*
X0106669Y0024997D01*
X0106779Y0025111D01*
X0106892Y0025222D01*
X0107007Y0025331D01*
X0107125Y0025436D01*
X0107246Y0025538D01*
X0107369Y0025638D01*
X0107495Y0025734D01*
X0107623Y0025827D01*
X0107753Y0025917D01*
X0107886Y0026003D01*
X0108021Y0026087D01*
X0108157Y0026166D01*
X0108296Y0026243D01*
X0108437Y0026315D01*
X0108579Y0026385D01*
X0108723Y0026450D01*
X0108869Y0026512D01*
X0109016Y0026570D01*
X0109165Y0026625D01*
X0109315Y0026676D01*
X0109466Y0026723D01*
X0109618Y0026766D01*
X0109771Y0026805D01*
X0109926Y0026841D01*
X0110081Y0026872D01*
X0110237Y0026900D01*
X0110393Y0026924D01*
X0110550Y0026944D01*
X0110708Y0026960D01*
X0110865Y0026972D01*
X0111024Y0026980D01*
X0111182Y0026984D01*
X0111340Y0026984D01*
X0111498Y0026980D01*
X0111657Y0026972D01*
X0111814Y0026960D01*
X0111972Y0026944D01*
X0112129Y0026924D01*
X0112285Y0026900D01*
X0112441Y0026872D01*
X0112596Y0026841D01*
X0112751Y0026805D01*
X0112904Y0026766D01*
X0113056Y0026723D01*
X0113207Y0026676D01*
X0113357Y0026625D01*
X0113506Y0026570D01*
X0113653Y0026512D01*
X0113799Y0026450D01*
X0113943Y0026385D01*
X0114085Y0026315D01*
X0114226Y0026243D01*
X0114365Y0026166D01*
X0114501Y0026087D01*
X0114636Y0026003D01*
X0114769Y0025917D01*
X0114899Y0025827D01*
X0115027Y0025734D01*
X0115153Y0025638D01*
X0115276Y0025538D01*
X0115397Y0025436D01*
X0115515Y0025331D01*
X0115630Y0025222D01*
X0115743Y0025111D01*
X0115853Y0024997D01*
X0115960Y0024880D01*
X0116064Y0024761D01*
X0116165Y0024639D01*
X0116262Y0024514D01*
X0116357Y0024387D01*
X0116448Y0024258D01*
X0116537Y0024127D01*
X0116621Y0023993D01*
X0116703Y0023857D01*
X0116781Y0023720D01*
X0116855Y0023580D01*
X0116926Y0023438D01*
X0116994Y0023295D01*
X0117058Y0023150D01*
X0117118Y0023004D01*
X0117174Y0022856D01*
X0117227Y0022707D01*
X0117276Y0022556D01*
X0117321Y0022404D01*
X0117362Y0022251D01*
X0117400Y0022098D01*
X0117433Y0021943D01*
X0117463Y0021787D01*
X0117489Y0021631D01*
X0117510Y0021474D01*
X0117528Y0021317D01*
X0117542Y0021159D01*
X0117552Y0021001D01*
X0117558Y0020843D01*
X0117560Y0020685D01*
X0117558Y0020527D01*
X0117552Y0020369D01*
X0117542Y0020211D01*
X0117528Y0020053D01*
X0117510Y0019896D01*
X0117489Y0019739D01*
X0117463Y0019583D01*
X0117433Y0019427D01*
X0117400Y0019272D01*
X0117362Y0019119D01*
X0117321Y0018966D01*
X0117276Y0018814D01*
X0117227Y0018663D01*
X0117174Y0018514D01*
X0117118Y0018366D01*
X0117058Y0018220D01*
X0116994Y0018075D01*
X0116926Y0017932D01*
X0116855Y0017790D01*
X0116781Y0017650D01*
X0116703Y0017513D01*
X0116621Y0017377D01*
X0116537Y0017243D01*
X0116448Y0017112D01*
X0116357Y0016983D01*
X0116262Y0016856D01*
X0116165Y0016731D01*
X0116064Y0016609D01*
X0115960Y0016490D01*
X0115853Y0016373D01*
X0115743Y0016259D01*
X0115630Y0016148D01*
X0115515Y0016039D01*
X0115397Y0015934D01*
X0115276Y0015832D01*
X0115153Y0015732D01*
X0115027Y0015636D01*
X0114899Y0015543D01*
X0114769Y0015453D01*
X0114636Y0015367D01*
X0114501Y0015283D01*
X0114365Y0015204D01*
X0114226Y0015127D01*
X0114085Y0015055D01*
X0113943Y0014985D01*
X0113799Y0014920D01*
X0113653Y0014858D01*
X0113506Y0014800D01*
X0113357Y0014745D01*
X0113207Y0014694D01*
X0113056Y0014647D01*
X0112904Y0014604D01*
X0112751Y0014565D01*
X0112596Y0014529D01*
X0112441Y0014498D01*
X0112285Y0014470D01*
X0112129Y0014446D01*
X0111972Y0014426D01*
X0111814Y0014410D01*
X0111657Y0014398D01*
X0111498Y0014390D01*
X0111340Y0014386D01*
X0111182Y0014386D01*
X0111024Y0014390D01*
X0110865Y0014398D01*
X0110708Y0014410D01*
X0110550Y0014426D01*
X0110393Y0014446D01*
X0110237Y0014470D01*
X0110081Y0014498D01*
X0109926Y0014529D01*
X0109771Y0014565D01*
X0109618Y0014604D01*
X0109466Y0014647D01*
X0109315Y0014694D01*
X0109165Y0014745D01*
X0109016Y0014800D01*
X0108869Y0014858D01*
X0108723Y0014920D01*
X0108579Y0014985D01*
X0108437Y0015055D01*
X0108296Y0015127D01*
X0108157Y0015204D01*
X0108021Y0015283D01*
X0107886Y0015367D01*
X0107753Y0015453D01*
X0107623Y0015543D01*
X0107495Y0015636D01*
X0107369Y0015732D01*
X0107246Y0015832D01*
X0107125Y0015934D01*
X0107007Y0016039D01*
X0106892Y0016148D01*
X0106779Y0016259D01*
X0106669Y0016373D01*
X0106562Y0016490D01*
X0106458Y0016609D01*
X0106357Y0016731D01*
X0106260Y0016856D01*
X0106165Y0016983D01*
X0106074Y0017112D01*
X0105985Y0017243D01*
X0105901Y0017377D01*
X0105819Y0017513D01*
X0105741Y0017650D01*
X0105667Y0017790D01*
X0105596Y0017932D01*
X0105528Y0018075D01*
X0105464Y0018220D01*
X0105404Y0018366D01*
X0105348Y0018514D01*
X0105295Y0018663D01*
X0105246Y0018814D01*
X0105201Y0018966D01*
X0105160Y0019119D01*
X0105122Y0019272D01*
X0105089Y0019427D01*
X0105059Y0019583D01*
X0105033Y0019739D01*
X0105012Y0019896D01*
X0104994Y0020053D01*
X0104980Y0020211D01*
X0104970Y0020369D01*
X0104964Y0020527D01*
X0104962Y0020685D01*
X0132521Y0130921D02*
X0132523Y0131079D01*
X0132529Y0131237D01*
X0132539Y0131395D01*
X0132553Y0131553D01*
X0132571Y0131710D01*
X0132592Y0131867D01*
X0132618Y0132023D01*
X0132648Y0132179D01*
X0132681Y0132334D01*
X0132719Y0132487D01*
X0132760Y0132640D01*
X0132805Y0132792D01*
X0132854Y0132943D01*
X0132907Y0133092D01*
X0132963Y0133240D01*
X0133023Y0133386D01*
X0133087Y0133531D01*
X0133155Y0133674D01*
X0133226Y0133816D01*
X0133300Y0133956D01*
X0133378Y0134093D01*
X0133460Y0134229D01*
X0133544Y0134363D01*
X0133633Y0134494D01*
X0133724Y0134623D01*
X0133819Y0134750D01*
X0133916Y0134875D01*
X0134017Y0134997D01*
X0134121Y0135116D01*
X0134228Y0135233D01*
X0134338Y0135347D01*
X0134451Y0135458D01*
X0134566Y0135567D01*
X0134684Y0135672D01*
X0134805Y0135774D01*
X0134928Y0135874D01*
X0135054Y0135970D01*
X0135182Y0136063D01*
X0135312Y0136153D01*
X0135445Y0136239D01*
X0135580Y0136323D01*
X0135716Y0136402D01*
X0135855Y0136479D01*
X0135996Y0136551D01*
X0136138Y0136621D01*
X0136282Y0136686D01*
X0136428Y0136748D01*
X0136575Y0136806D01*
X0136724Y0136861D01*
X0136874Y0136912D01*
X0137025Y0136959D01*
X0137177Y0137002D01*
X0137330Y0137041D01*
X0137485Y0137077D01*
X0137640Y0137108D01*
X0137796Y0137136D01*
X0137952Y0137160D01*
X0138109Y0137180D01*
X0138267Y0137196D01*
X0138424Y0137208D01*
X0138583Y0137216D01*
X0138741Y0137220D01*
X0138899Y0137220D01*
X0139057Y0137216D01*
X0139216Y0137208D01*
X0139373Y0137196D01*
X0139531Y0137180D01*
X0139688Y0137160D01*
X0139844Y0137136D01*
X0140000Y0137108D01*
X0140155Y0137077D01*
X0140310Y0137041D01*
X0140463Y0137002D01*
X0140615Y0136959D01*
X0140766Y0136912D01*
X0140916Y0136861D01*
X0141065Y0136806D01*
X0141212Y0136748D01*
X0141358Y0136686D01*
X0141502Y0136621D01*
X0141644Y0136551D01*
X0141785Y0136479D01*
X0141924Y0136402D01*
X0142060Y0136323D01*
X0142195Y0136239D01*
X0142328Y0136153D01*
X0142458Y0136063D01*
X0142586Y0135970D01*
X0142712Y0135874D01*
X0142835Y0135774D01*
X0142956Y0135672D01*
X0143074Y0135567D01*
X0143189Y0135458D01*
X0143302Y0135347D01*
X0143412Y0135233D01*
X0143519Y0135116D01*
X0143623Y0134997D01*
X0143724Y0134875D01*
X0143821Y0134750D01*
X0143916Y0134623D01*
X0144007Y0134494D01*
X0144096Y0134363D01*
X0144180Y0134229D01*
X0144262Y0134093D01*
X0144340Y0133956D01*
X0144414Y0133816D01*
X0144485Y0133674D01*
X0144553Y0133531D01*
X0144617Y0133386D01*
X0144677Y0133240D01*
X0144733Y0133092D01*
X0144786Y0132943D01*
X0144835Y0132792D01*
X0144880Y0132640D01*
X0144921Y0132487D01*
X0144959Y0132334D01*
X0144992Y0132179D01*
X0145022Y0132023D01*
X0145048Y0131867D01*
X0145069Y0131710D01*
X0145087Y0131553D01*
X0145101Y0131395D01*
X0145111Y0131237D01*
X0145117Y0131079D01*
X0145119Y0130921D01*
X0145117Y0130763D01*
X0145111Y0130605D01*
X0145101Y0130447D01*
X0145087Y0130289D01*
X0145069Y0130132D01*
X0145048Y0129975D01*
X0145022Y0129819D01*
X0144992Y0129663D01*
X0144959Y0129508D01*
X0144921Y0129355D01*
X0144880Y0129202D01*
X0144835Y0129050D01*
X0144786Y0128899D01*
X0144733Y0128750D01*
X0144677Y0128602D01*
X0144617Y0128456D01*
X0144553Y0128311D01*
X0144485Y0128168D01*
X0144414Y0128026D01*
X0144340Y0127886D01*
X0144262Y0127749D01*
X0144180Y0127613D01*
X0144096Y0127479D01*
X0144007Y0127348D01*
X0143916Y0127219D01*
X0143821Y0127092D01*
X0143724Y0126967D01*
X0143623Y0126845D01*
X0143519Y0126726D01*
X0143412Y0126609D01*
X0143302Y0126495D01*
X0143189Y0126384D01*
X0143074Y0126275D01*
X0142956Y0126170D01*
X0142835Y0126068D01*
X0142712Y0125968D01*
X0142586Y0125872D01*
X0142458Y0125779D01*
X0142328Y0125689D01*
X0142195Y0125603D01*
X0142060Y0125519D01*
X0141924Y0125440D01*
X0141785Y0125363D01*
X0141644Y0125291D01*
X0141502Y0125221D01*
X0141358Y0125156D01*
X0141212Y0125094D01*
X0141065Y0125036D01*
X0140916Y0124981D01*
X0140766Y0124930D01*
X0140615Y0124883D01*
X0140463Y0124840D01*
X0140310Y0124801D01*
X0140155Y0124765D01*
X0140000Y0124734D01*
X0139844Y0124706D01*
X0139688Y0124682D01*
X0139531Y0124662D01*
X0139373Y0124646D01*
X0139216Y0124634D01*
X0139057Y0124626D01*
X0138899Y0124622D01*
X0138741Y0124622D01*
X0138583Y0124626D01*
X0138424Y0124634D01*
X0138267Y0124646D01*
X0138109Y0124662D01*
X0137952Y0124682D01*
X0137796Y0124706D01*
X0137640Y0124734D01*
X0137485Y0124765D01*
X0137330Y0124801D01*
X0137177Y0124840D01*
X0137025Y0124883D01*
X0136874Y0124930D01*
X0136724Y0124981D01*
X0136575Y0125036D01*
X0136428Y0125094D01*
X0136282Y0125156D01*
X0136138Y0125221D01*
X0135996Y0125291D01*
X0135855Y0125363D01*
X0135716Y0125440D01*
X0135580Y0125519D01*
X0135445Y0125603D01*
X0135312Y0125689D01*
X0135182Y0125779D01*
X0135054Y0125872D01*
X0134928Y0125968D01*
X0134805Y0126068D01*
X0134684Y0126170D01*
X0134566Y0126275D01*
X0134451Y0126384D01*
X0134338Y0126495D01*
X0134228Y0126609D01*
X0134121Y0126726D01*
X0134017Y0126845D01*
X0133916Y0126967D01*
X0133819Y0127092D01*
X0133724Y0127219D01*
X0133633Y0127348D01*
X0133544Y0127479D01*
X0133460Y0127613D01*
X0133378Y0127749D01*
X0133300Y0127886D01*
X0133226Y0128026D01*
X0133155Y0128168D01*
X0133087Y0128311D01*
X0133023Y0128456D01*
X0132963Y0128602D01*
X0132907Y0128750D01*
X0132854Y0128899D01*
X0132805Y0129050D01*
X0132760Y0129202D01*
X0132719Y0129355D01*
X0132681Y0129508D01*
X0132648Y0129663D01*
X0132618Y0129819D01*
X0132592Y0129975D01*
X0132571Y0130132D01*
X0132553Y0130289D01*
X0132539Y0130447D01*
X0132529Y0130605D01*
X0132523Y0130763D01*
X0132521Y0130921D01*
X0104962Y0256906D02*
X0104964Y0257064D01*
X0104970Y0257222D01*
X0104980Y0257380D01*
X0104994Y0257538D01*
X0105012Y0257695D01*
X0105033Y0257852D01*
X0105059Y0258008D01*
X0105089Y0258164D01*
X0105122Y0258319D01*
X0105160Y0258472D01*
X0105201Y0258625D01*
X0105246Y0258777D01*
X0105295Y0258928D01*
X0105348Y0259077D01*
X0105404Y0259225D01*
X0105464Y0259371D01*
X0105528Y0259516D01*
X0105596Y0259659D01*
X0105667Y0259801D01*
X0105741Y0259941D01*
X0105819Y0260078D01*
X0105901Y0260214D01*
X0105985Y0260348D01*
X0106074Y0260479D01*
X0106165Y0260608D01*
X0106260Y0260735D01*
X0106357Y0260860D01*
X0106458Y0260982D01*
X0106562Y0261101D01*
X0106669Y0261218D01*
X0106779Y0261332D01*
X0106892Y0261443D01*
X0107007Y0261552D01*
X0107125Y0261657D01*
X0107246Y0261759D01*
X0107369Y0261859D01*
X0107495Y0261955D01*
X0107623Y0262048D01*
X0107753Y0262138D01*
X0107886Y0262224D01*
X0108021Y0262308D01*
X0108157Y0262387D01*
X0108296Y0262464D01*
X0108437Y0262536D01*
X0108579Y0262606D01*
X0108723Y0262671D01*
X0108869Y0262733D01*
X0109016Y0262791D01*
X0109165Y0262846D01*
X0109315Y0262897D01*
X0109466Y0262944D01*
X0109618Y0262987D01*
X0109771Y0263026D01*
X0109926Y0263062D01*
X0110081Y0263093D01*
X0110237Y0263121D01*
X0110393Y0263145D01*
X0110550Y0263165D01*
X0110708Y0263181D01*
X0110865Y0263193D01*
X0111024Y0263201D01*
X0111182Y0263205D01*
X0111340Y0263205D01*
X0111498Y0263201D01*
X0111657Y0263193D01*
X0111814Y0263181D01*
X0111972Y0263165D01*
X0112129Y0263145D01*
X0112285Y0263121D01*
X0112441Y0263093D01*
X0112596Y0263062D01*
X0112751Y0263026D01*
X0112904Y0262987D01*
X0113056Y0262944D01*
X0113207Y0262897D01*
X0113357Y0262846D01*
X0113506Y0262791D01*
X0113653Y0262733D01*
X0113799Y0262671D01*
X0113943Y0262606D01*
X0114085Y0262536D01*
X0114226Y0262464D01*
X0114365Y0262387D01*
X0114501Y0262308D01*
X0114636Y0262224D01*
X0114769Y0262138D01*
X0114899Y0262048D01*
X0115027Y0261955D01*
X0115153Y0261859D01*
X0115276Y0261759D01*
X0115397Y0261657D01*
X0115515Y0261552D01*
X0115630Y0261443D01*
X0115743Y0261332D01*
X0115853Y0261218D01*
X0115960Y0261101D01*
X0116064Y0260982D01*
X0116165Y0260860D01*
X0116262Y0260735D01*
X0116357Y0260608D01*
X0116448Y0260479D01*
X0116537Y0260348D01*
X0116621Y0260214D01*
X0116703Y0260078D01*
X0116781Y0259941D01*
X0116855Y0259801D01*
X0116926Y0259659D01*
X0116994Y0259516D01*
X0117058Y0259371D01*
X0117118Y0259225D01*
X0117174Y0259077D01*
X0117227Y0258928D01*
X0117276Y0258777D01*
X0117321Y0258625D01*
X0117362Y0258472D01*
X0117400Y0258319D01*
X0117433Y0258164D01*
X0117463Y0258008D01*
X0117489Y0257852D01*
X0117510Y0257695D01*
X0117528Y0257538D01*
X0117542Y0257380D01*
X0117552Y0257222D01*
X0117558Y0257064D01*
X0117560Y0256906D01*
X0117558Y0256748D01*
X0117552Y0256590D01*
X0117542Y0256432D01*
X0117528Y0256274D01*
X0117510Y0256117D01*
X0117489Y0255960D01*
X0117463Y0255804D01*
X0117433Y0255648D01*
X0117400Y0255493D01*
X0117362Y0255340D01*
X0117321Y0255187D01*
X0117276Y0255035D01*
X0117227Y0254884D01*
X0117174Y0254735D01*
X0117118Y0254587D01*
X0117058Y0254441D01*
X0116994Y0254296D01*
X0116926Y0254153D01*
X0116855Y0254011D01*
X0116781Y0253871D01*
X0116703Y0253734D01*
X0116621Y0253598D01*
X0116537Y0253464D01*
X0116448Y0253333D01*
X0116357Y0253204D01*
X0116262Y0253077D01*
X0116165Y0252952D01*
X0116064Y0252830D01*
X0115960Y0252711D01*
X0115853Y0252594D01*
X0115743Y0252480D01*
X0115630Y0252369D01*
X0115515Y0252260D01*
X0115397Y0252155D01*
X0115276Y0252053D01*
X0115153Y0251953D01*
X0115027Y0251857D01*
X0114899Y0251764D01*
X0114769Y0251674D01*
X0114636Y0251588D01*
X0114501Y0251504D01*
X0114365Y0251425D01*
X0114226Y0251348D01*
X0114085Y0251276D01*
X0113943Y0251206D01*
X0113799Y0251141D01*
X0113653Y0251079D01*
X0113506Y0251021D01*
X0113357Y0250966D01*
X0113207Y0250915D01*
X0113056Y0250868D01*
X0112904Y0250825D01*
X0112751Y0250786D01*
X0112596Y0250750D01*
X0112441Y0250719D01*
X0112285Y0250691D01*
X0112129Y0250667D01*
X0111972Y0250647D01*
X0111814Y0250631D01*
X0111657Y0250619D01*
X0111498Y0250611D01*
X0111340Y0250607D01*
X0111182Y0250607D01*
X0111024Y0250611D01*
X0110865Y0250619D01*
X0110708Y0250631D01*
X0110550Y0250647D01*
X0110393Y0250667D01*
X0110237Y0250691D01*
X0110081Y0250719D01*
X0109926Y0250750D01*
X0109771Y0250786D01*
X0109618Y0250825D01*
X0109466Y0250868D01*
X0109315Y0250915D01*
X0109165Y0250966D01*
X0109016Y0251021D01*
X0108869Y0251079D01*
X0108723Y0251141D01*
X0108579Y0251206D01*
X0108437Y0251276D01*
X0108296Y0251348D01*
X0108157Y0251425D01*
X0108021Y0251504D01*
X0107886Y0251588D01*
X0107753Y0251674D01*
X0107623Y0251764D01*
X0107495Y0251857D01*
X0107369Y0251953D01*
X0107246Y0252053D01*
X0107125Y0252155D01*
X0107007Y0252260D01*
X0106892Y0252369D01*
X0106779Y0252480D01*
X0106669Y0252594D01*
X0106562Y0252711D01*
X0106458Y0252830D01*
X0106357Y0252952D01*
X0106260Y0253077D01*
X0106165Y0253204D01*
X0106074Y0253333D01*
X0105985Y0253464D01*
X0105901Y0253598D01*
X0105819Y0253734D01*
X0105741Y0253871D01*
X0105667Y0254011D01*
X0105596Y0254153D01*
X0105528Y0254296D01*
X0105464Y0254441D01*
X0105404Y0254587D01*
X0105348Y0254735D01*
X0105295Y0254884D01*
X0105246Y0255035D01*
X0105201Y0255187D01*
X0105160Y0255340D01*
X0105122Y0255493D01*
X0105089Y0255648D01*
X0105059Y0255804D01*
X0105033Y0255960D01*
X0105012Y0256117D01*
X0104994Y0256274D01*
X0104980Y0256432D01*
X0104970Y0256590D01*
X0104964Y0256748D01*
X0104962Y0256906D01*
X0132521Y0323835D02*
X0132523Y0323993D01*
X0132529Y0324151D01*
X0132539Y0324309D01*
X0132553Y0324467D01*
X0132571Y0324624D01*
X0132592Y0324781D01*
X0132618Y0324937D01*
X0132648Y0325093D01*
X0132681Y0325248D01*
X0132719Y0325401D01*
X0132760Y0325554D01*
X0132805Y0325706D01*
X0132854Y0325857D01*
X0132907Y0326006D01*
X0132963Y0326154D01*
X0133023Y0326300D01*
X0133087Y0326445D01*
X0133155Y0326588D01*
X0133226Y0326730D01*
X0133300Y0326870D01*
X0133378Y0327007D01*
X0133460Y0327143D01*
X0133544Y0327277D01*
X0133633Y0327408D01*
X0133724Y0327537D01*
X0133819Y0327664D01*
X0133916Y0327789D01*
X0134017Y0327911D01*
X0134121Y0328030D01*
X0134228Y0328147D01*
X0134338Y0328261D01*
X0134451Y0328372D01*
X0134566Y0328481D01*
X0134684Y0328586D01*
X0134805Y0328688D01*
X0134928Y0328788D01*
X0135054Y0328884D01*
X0135182Y0328977D01*
X0135312Y0329067D01*
X0135445Y0329153D01*
X0135580Y0329237D01*
X0135716Y0329316D01*
X0135855Y0329393D01*
X0135996Y0329465D01*
X0136138Y0329535D01*
X0136282Y0329600D01*
X0136428Y0329662D01*
X0136575Y0329720D01*
X0136724Y0329775D01*
X0136874Y0329826D01*
X0137025Y0329873D01*
X0137177Y0329916D01*
X0137330Y0329955D01*
X0137485Y0329991D01*
X0137640Y0330022D01*
X0137796Y0330050D01*
X0137952Y0330074D01*
X0138109Y0330094D01*
X0138267Y0330110D01*
X0138424Y0330122D01*
X0138583Y0330130D01*
X0138741Y0330134D01*
X0138899Y0330134D01*
X0139057Y0330130D01*
X0139216Y0330122D01*
X0139373Y0330110D01*
X0139531Y0330094D01*
X0139688Y0330074D01*
X0139844Y0330050D01*
X0140000Y0330022D01*
X0140155Y0329991D01*
X0140310Y0329955D01*
X0140463Y0329916D01*
X0140615Y0329873D01*
X0140766Y0329826D01*
X0140916Y0329775D01*
X0141065Y0329720D01*
X0141212Y0329662D01*
X0141358Y0329600D01*
X0141502Y0329535D01*
X0141644Y0329465D01*
X0141785Y0329393D01*
X0141924Y0329316D01*
X0142060Y0329237D01*
X0142195Y0329153D01*
X0142328Y0329067D01*
X0142458Y0328977D01*
X0142586Y0328884D01*
X0142712Y0328788D01*
X0142835Y0328688D01*
X0142956Y0328586D01*
X0143074Y0328481D01*
X0143189Y0328372D01*
X0143302Y0328261D01*
X0143412Y0328147D01*
X0143519Y0328030D01*
X0143623Y0327911D01*
X0143724Y0327789D01*
X0143821Y0327664D01*
X0143916Y0327537D01*
X0144007Y0327408D01*
X0144096Y0327277D01*
X0144180Y0327143D01*
X0144262Y0327007D01*
X0144340Y0326870D01*
X0144414Y0326730D01*
X0144485Y0326588D01*
X0144553Y0326445D01*
X0144617Y0326300D01*
X0144677Y0326154D01*
X0144733Y0326006D01*
X0144786Y0325857D01*
X0144835Y0325706D01*
X0144880Y0325554D01*
X0144921Y0325401D01*
X0144959Y0325248D01*
X0144992Y0325093D01*
X0145022Y0324937D01*
X0145048Y0324781D01*
X0145069Y0324624D01*
X0145087Y0324467D01*
X0145101Y0324309D01*
X0145111Y0324151D01*
X0145117Y0323993D01*
X0145119Y0323835D01*
X0145117Y0323677D01*
X0145111Y0323519D01*
X0145101Y0323361D01*
X0145087Y0323203D01*
X0145069Y0323046D01*
X0145048Y0322889D01*
X0145022Y0322733D01*
X0144992Y0322577D01*
X0144959Y0322422D01*
X0144921Y0322269D01*
X0144880Y0322116D01*
X0144835Y0321964D01*
X0144786Y0321813D01*
X0144733Y0321664D01*
X0144677Y0321516D01*
X0144617Y0321370D01*
X0144553Y0321225D01*
X0144485Y0321082D01*
X0144414Y0320940D01*
X0144340Y0320800D01*
X0144262Y0320663D01*
X0144180Y0320527D01*
X0144096Y0320393D01*
X0144007Y0320262D01*
X0143916Y0320133D01*
X0143821Y0320006D01*
X0143724Y0319881D01*
X0143623Y0319759D01*
X0143519Y0319640D01*
X0143412Y0319523D01*
X0143302Y0319409D01*
X0143189Y0319298D01*
X0143074Y0319189D01*
X0142956Y0319084D01*
X0142835Y0318982D01*
X0142712Y0318882D01*
X0142586Y0318786D01*
X0142458Y0318693D01*
X0142328Y0318603D01*
X0142195Y0318517D01*
X0142060Y0318433D01*
X0141924Y0318354D01*
X0141785Y0318277D01*
X0141644Y0318205D01*
X0141502Y0318135D01*
X0141358Y0318070D01*
X0141212Y0318008D01*
X0141065Y0317950D01*
X0140916Y0317895D01*
X0140766Y0317844D01*
X0140615Y0317797D01*
X0140463Y0317754D01*
X0140310Y0317715D01*
X0140155Y0317679D01*
X0140000Y0317648D01*
X0139844Y0317620D01*
X0139688Y0317596D01*
X0139531Y0317576D01*
X0139373Y0317560D01*
X0139216Y0317548D01*
X0139057Y0317540D01*
X0138899Y0317536D01*
X0138741Y0317536D01*
X0138583Y0317540D01*
X0138424Y0317548D01*
X0138267Y0317560D01*
X0138109Y0317576D01*
X0137952Y0317596D01*
X0137796Y0317620D01*
X0137640Y0317648D01*
X0137485Y0317679D01*
X0137330Y0317715D01*
X0137177Y0317754D01*
X0137025Y0317797D01*
X0136874Y0317844D01*
X0136724Y0317895D01*
X0136575Y0317950D01*
X0136428Y0318008D01*
X0136282Y0318070D01*
X0136138Y0318135D01*
X0135996Y0318205D01*
X0135855Y0318277D01*
X0135716Y0318354D01*
X0135580Y0318433D01*
X0135445Y0318517D01*
X0135312Y0318603D01*
X0135182Y0318693D01*
X0135054Y0318786D01*
X0134928Y0318882D01*
X0134805Y0318982D01*
X0134684Y0319084D01*
X0134566Y0319189D01*
X0134451Y0319298D01*
X0134338Y0319409D01*
X0134228Y0319523D01*
X0134121Y0319640D01*
X0134017Y0319759D01*
X0133916Y0319881D01*
X0133819Y0320006D01*
X0133724Y0320133D01*
X0133633Y0320262D01*
X0133544Y0320393D01*
X0133460Y0320527D01*
X0133378Y0320663D01*
X0133300Y0320800D01*
X0133226Y0320940D01*
X0133155Y0321082D01*
X0133087Y0321225D01*
X0133023Y0321370D01*
X0132963Y0321516D01*
X0132907Y0321664D01*
X0132854Y0321813D01*
X0132805Y0321964D01*
X0132760Y0322116D01*
X0132719Y0322269D01*
X0132681Y0322422D01*
X0132648Y0322577D01*
X0132618Y0322733D01*
X0132592Y0322889D01*
X0132571Y0323046D01*
X0132553Y0323203D01*
X0132539Y0323361D01*
X0132529Y0323519D01*
X0132523Y0323677D01*
X0132521Y0323835D01*
X0230947Y0323835D02*
X0230949Y0323993D01*
X0230955Y0324151D01*
X0230965Y0324309D01*
X0230979Y0324467D01*
X0230997Y0324624D01*
X0231018Y0324781D01*
X0231044Y0324937D01*
X0231074Y0325093D01*
X0231107Y0325248D01*
X0231145Y0325401D01*
X0231186Y0325554D01*
X0231231Y0325706D01*
X0231280Y0325857D01*
X0231333Y0326006D01*
X0231389Y0326154D01*
X0231449Y0326300D01*
X0231513Y0326445D01*
X0231581Y0326588D01*
X0231652Y0326730D01*
X0231726Y0326870D01*
X0231804Y0327007D01*
X0231886Y0327143D01*
X0231970Y0327277D01*
X0232059Y0327408D01*
X0232150Y0327537D01*
X0232245Y0327664D01*
X0232342Y0327789D01*
X0232443Y0327911D01*
X0232547Y0328030D01*
X0232654Y0328147D01*
X0232764Y0328261D01*
X0232877Y0328372D01*
X0232992Y0328481D01*
X0233110Y0328586D01*
X0233231Y0328688D01*
X0233354Y0328788D01*
X0233480Y0328884D01*
X0233608Y0328977D01*
X0233738Y0329067D01*
X0233871Y0329153D01*
X0234006Y0329237D01*
X0234142Y0329316D01*
X0234281Y0329393D01*
X0234422Y0329465D01*
X0234564Y0329535D01*
X0234708Y0329600D01*
X0234854Y0329662D01*
X0235001Y0329720D01*
X0235150Y0329775D01*
X0235300Y0329826D01*
X0235451Y0329873D01*
X0235603Y0329916D01*
X0235756Y0329955D01*
X0235911Y0329991D01*
X0236066Y0330022D01*
X0236222Y0330050D01*
X0236378Y0330074D01*
X0236535Y0330094D01*
X0236693Y0330110D01*
X0236850Y0330122D01*
X0237009Y0330130D01*
X0237167Y0330134D01*
X0237325Y0330134D01*
X0237483Y0330130D01*
X0237642Y0330122D01*
X0237799Y0330110D01*
X0237957Y0330094D01*
X0238114Y0330074D01*
X0238270Y0330050D01*
X0238426Y0330022D01*
X0238581Y0329991D01*
X0238736Y0329955D01*
X0238889Y0329916D01*
X0239041Y0329873D01*
X0239192Y0329826D01*
X0239342Y0329775D01*
X0239491Y0329720D01*
X0239638Y0329662D01*
X0239784Y0329600D01*
X0239928Y0329535D01*
X0240070Y0329465D01*
X0240211Y0329393D01*
X0240350Y0329316D01*
X0240486Y0329237D01*
X0240621Y0329153D01*
X0240754Y0329067D01*
X0240884Y0328977D01*
X0241012Y0328884D01*
X0241138Y0328788D01*
X0241261Y0328688D01*
X0241382Y0328586D01*
X0241500Y0328481D01*
X0241615Y0328372D01*
X0241728Y0328261D01*
X0241838Y0328147D01*
X0241945Y0328030D01*
X0242049Y0327911D01*
X0242150Y0327789D01*
X0242247Y0327664D01*
X0242342Y0327537D01*
X0242433Y0327408D01*
X0242522Y0327277D01*
X0242606Y0327143D01*
X0242688Y0327007D01*
X0242766Y0326870D01*
X0242840Y0326730D01*
X0242911Y0326588D01*
X0242979Y0326445D01*
X0243043Y0326300D01*
X0243103Y0326154D01*
X0243159Y0326006D01*
X0243212Y0325857D01*
X0243261Y0325706D01*
X0243306Y0325554D01*
X0243347Y0325401D01*
X0243385Y0325248D01*
X0243418Y0325093D01*
X0243448Y0324937D01*
X0243474Y0324781D01*
X0243495Y0324624D01*
X0243513Y0324467D01*
X0243527Y0324309D01*
X0243537Y0324151D01*
X0243543Y0323993D01*
X0243545Y0323835D01*
X0243543Y0323677D01*
X0243537Y0323519D01*
X0243527Y0323361D01*
X0243513Y0323203D01*
X0243495Y0323046D01*
X0243474Y0322889D01*
X0243448Y0322733D01*
X0243418Y0322577D01*
X0243385Y0322422D01*
X0243347Y0322269D01*
X0243306Y0322116D01*
X0243261Y0321964D01*
X0243212Y0321813D01*
X0243159Y0321664D01*
X0243103Y0321516D01*
X0243043Y0321370D01*
X0242979Y0321225D01*
X0242911Y0321082D01*
X0242840Y0320940D01*
X0242766Y0320800D01*
X0242688Y0320663D01*
X0242606Y0320527D01*
X0242522Y0320393D01*
X0242433Y0320262D01*
X0242342Y0320133D01*
X0242247Y0320006D01*
X0242150Y0319881D01*
X0242049Y0319759D01*
X0241945Y0319640D01*
X0241838Y0319523D01*
X0241728Y0319409D01*
X0241615Y0319298D01*
X0241500Y0319189D01*
X0241382Y0319084D01*
X0241261Y0318982D01*
X0241138Y0318882D01*
X0241012Y0318786D01*
X0240884Y0318693D01*
X0240754Y0318603D01*
X0240621Y0318517D01*
X0240486Y0318433D01*
X0240350Y0318354D01*
X0240211Y0318277D01*
X0240070Y0318205D01*
X0239928Y0318135D01*
X0239784Y0318070D01*
X0239638Y0318008D01*
X0239491Y0317950D01*
X0239342Y0317895D01*
X0239192Y0317844D01*
X0239041Y0317797D01*
X0238889Y0317754D01*
X0238736Y0317715D01*
X0238581Y0317679D01*
X0238426Y0317648D01*
X0238270Y0317620D01*
X0238114Y0317596D01*
X0237957Y0317576D01*
X0237799Y0317560D01*
X0237642Y0317548D01*
X0237483Y0317540D01*
X0237325Y0317536D01*
X0237167Y0317536D01*
X0237009Y0317540D01*
X0236850Y0317548D01*
X0236693Y0317560D01*
X0236535Y0317576D01*
X0236378Y0317596D01*
X0236222Y0317620D01*
X0236066Y0317648D01*
X0235911Y0317679D01*
X0235756Y0317715D01*
X0235603Y0317754D01*
X0235451Y0317797D01*
X0235300Y0317844D01*
X0235150Y0317895D01*
X0235001Y0317950D01*
X0234854Y0318008D01*
X0234708Y0318070D01*
X0234564Y0318135D01*
X0234422Y0318205D01*
X0234281Y0318277D01*
X0234142Y0318354D01*
X0234006Y0318433D01*
X0233871Y0318517D01*
X0233738Y0318603D01*
X0233608Y0318693D01*
X0233480Y0318786D01*
X0233354Y0318882D01*
X0233231Y0318982D01*
X0233110Y0319084D01*
X0232992Y0319189D01*
X0232877Y0319298D01*
X0232764Y0319409D01*
X0232654Y0319523D01*
X0232547Y0319640D01*
X0232443Y0319759D01*
X0232342Y0319881D01*
X0232245Y0320006D01*
X0232150Y0320133D01*
X0232059Y0320262D01*
X0231970Y0320393D01*
X0231886Y0320527D01*
X0231804Y0320663D01*
X0231726Y0320800D01*
X0231652Y0320940D01*
X0231581Y0321082D01*
X0231513Y0321225D01*
X0231449Y0321370D01*
X0231389Y0321516D01*
X0231333Y0321664D01*
X0231280Y0321813D01*
X0231231Y0321964D01*
X0231186Y0322116D01*
X0231145Y0322269D01*
X0231107Y0322422D01*
X0231074Y0322577D01*
X0231044Y0322733D01*
X0231018Y0322889D01*
X0230997Y0323046D01*
X0230979Y0323203D01*
X0230965Y0323361D01*
X0230955Y0323519D01*
X0230949Y0323677D01*
X0230947Y0323835D01*
X0230947Y0130921D02*
X0230949Y0131079D01*
X0230955Y0131237D01*
X0230965Y0131395D01*
X0230979Y0131553D01*
X0230997Y0131710D01*
X0231018Y0131867D01*
X0231044Y0132023D01*
X0231074Y0132179D01*
X0231107Y0132334D01*
X0231145Y0132487D01*
X0231186Y0132640D01*
X0231231Y0132792D01*
X0231280Y0132943D01*
X0231333Y0133092D01*
X0231389Y0133240D01*
X0231449Y0133386D01*
X0231513Y0133531D01*
X0231581Y0133674D01*
X0231652Y0133816D01*
X0231726Y0133956D01*
X0231804Y0134093D01*
X0231886Y0134229D01*
X0231970Y0134363D01*
X0232059Y0134494D01*
X0232150Y0134623D01*
X0232245Y0134750D01*
X0232342Y0134875D01*
X0232443Y0134997D01*
X0232547Y0135116D01*
X0232654Y0135233D01*
X0232764Y0135347D01*
X0232877Y0135458D01*
X0232992Y0135567D01*
X0233110Y0135672D01*
X0233231Y0135774D01*
X0233354Y0135874D01*
X0233480Y0135970D01*
X0233608Y0136063D01*
X0233738Y0136153D01*
X0233871Y0136239D01*
X0234006Y0136323D01*
X0234142Y0136402D01*
X0234281Y0136479D01*
X0234422Y0136551D01*
X0234564Y0136621D01*
X0234708Y0136686D01*
X0234854Y0136748D01*
X0235001Y0136806D01*
X0235150Y0136861D01*
X0235300Y0136912D01*
X0235451Y0136959D01*
X0235603Y0137002D01*
X0235756Y0137041D01*
X0235911Y0137077D01*
X0236066Y0137108D01*
X0236222Y0137136D01*
X0236378Y0137160D01*
X0236535Y0137180D01*
X0236693Y0137196D01*
X0236850Y0137208D01*
X0237009Y0137216D01*
X0237167Y0137220D01*
X0237325Y0137220D01*
X0237483Y0137216D01*
X0237642Y0137208D01*
X0237799Y0137196D01*
X0237957Y0137180D01*
X0238114Y0137160D01*
X0238270Y0137136D01*
X0238426Y0137108D01*
X0238581Y0137077D01*
X0238736Y0137041D01*
X0238889Y0137002D01*
X0239041Y0136959D01*
X0239192Y0136912D01*
X0239342Y0136861D01*
X0239491Y0136806D01*
X0239638Y0136748D01*
X0239784Y0136686D01*
X0239928Y0136621D01*
X0240070Y0136551D01*
X0240211Y0136479D01*
X0240350Y0136402D01*
X0240486Y0136323D01*
X0240621Y0136239D01*
X0240754Y0136153D01*
X0240884Y0136063D01*
X0241012Y0135970D01*
X0241138Y0135874D01*
X0241261Y0135774D01*
X0241382Y0135672D01*
X0241500Y0135567D01*
X0241615Y0135458D01*
X0241728Y0135347D01*
X0241838Y0135233D01*
X0241945Y0135116D01*
X0242049Y0134997D01*
X0242150Y0134875D01*
X0242247Y0134750D01*
X0242342Y0134623D01*
X0242433Y0134494D01*
X0242522Y0134363D01*
X0242606Y0134229D01*
X0242688Y0134093D01*
X0242766Y0133956D01*
X0242840Y0133816D01*
X0242911Y0133674D01*
X0242979Y0133531D01*
X0243043Y0133386D01*
X0243103Y0133240D01*
X0243159Y0133092D01*
X0243212Y0132943D01*
X0243261Y0132792D01*
X0243306Y0132640D01*
X0243347Y0132487D01*
X0243385Y0132334D01*
X0243418Y0132179D01*
X0243448Y0132023D01*
X0243474Y0131867D01*
X0243495Y0131710D01*
X0243513Y0131553D01*
X0243527Y0131395D01*
X0243537Y0131237D01*
X0243543Y0131079D01*
X0243545Y0130921D01*
X0243543Y0130763D01*
X0243537Y0130605D01*
X0243527Y0130447D01*
X0243513Y0130289D01*
X0243495Y0130132D01*
X0243474Y0129975D01*
X0243448Y0129819D01*
X0243418Y0129663D01*
X0243385Y0129508D01*
X0243347Y0129355D01*
X0243306Y0129202D01*
X0243261Y0129050D01*
X0243212Y0128899D01*
X0243159Y0128750D01*
X0243103Y0128602D01*
X0243043Y0128456D01*
X0242979Y0128311D01*
X0242911Y0128168D01*
X0242840Y0128026D01*
X0242766Y0127886D01*
X0242688Y0127749D01*
X0242606Y0127613D01*
X0242522Y0127479D01*
X0242433Y0127348D01*
X0242342Y0127219D01*
X0242247Y0127092D01*
X0242150Y0126967D01*
X0242049Y0126845D01*
X0241945Y0126726D01*
X0241838Y0126609D01*
X0241728Y0126495D01*
X0241615Y0126384D01*
X0241500Y0126275D01*
X0241382Y0126170D01*
X0241261Y0126068D01*
X0241138Y0125968D01*
X0241012Y0125872D01*
X0240884Y0125779D01*
X0240754Y0125689D01*
X0240621Y0125603D01*
X0240486Y0125519D01*
X0240350Y0125440D01*
X0240211Y0125363D01*
X0240070Y0125291D01*
X0239928Y0125221D01*
X0239784Y0125156D01*
X0239638Y0125094D01*
X0239491Y0125036D01*
X0239342Y0124981D01*
X0239192Y0124930D01*
X0239041Y0124883D01*
X0238889Y0124840D01*
X0238736Y0124801D01*
X0238581Y0124765D01*
X0238426Y0124734D01*
X0238270Y0124706D01*
X0238114Y0124682D01*
X0237957Y0124662D01*
X0237799Y0124646D01*
X0237642Y0124634D01*
X0237483Y0124626D01*
X0237325Y0124622D01*
X0237167Y0124622D01*
X0237009Y0124626D01*
X0236850Y0124634D01*
X0236693Y0124646D01*
X0236535Y0124662D01*
X0236378Y0124682D01*
X0236222Y0124706D01*
X0236066Y0124734D01*
X0235911Y0124765D01*
X0235756Y0124801D01*
X0235603Y0124840D01*
X0235451Y0124883D01*
X0235300Y0124930D01*
X0235150Y0124981D01*
X0235001Y0125036D01*
X0234854Y0125094D01*
X0234708Y0125156D01*
X0234564Y0125221D01*
X0234422Y0125291D01*
X0234281Y0125363D01*
X0234142Y0125440D01*
X0234006Y0125519D01*
X0233871Y0125603D01*
X0233738Y0125689D01*
X0233608Y0125779D01*
X0233480Y0125872D01*
X0233354Y0125968D01*
X0233231Y0126068D01*
X0233110Y0126170D01*
X0232992Y0126275D01*
X0232877Y0126384D01*
X0232764Y0126495D01*
X0232654Y0126609D01*
X0232547Y0126726D01*
X0232443Y0126845D01*
X0232342Y0126967D01*
X0232245Y0127092D01*
X0232150Y0127219D01*
X0232059Y0127348D01*
X0231970Y0127479D01*
X0231886Y0127613D01*
X0231804Y0127749D01*
X0231726Y0127886D01*
X0231652Y0128026D01*
X0231581Y0128168D01*
X0231513Y0128311D01*
X0231449Y0128456D01*
X0231389Y0128602D01*
X0231333Y0128750D01*
X0231280Y0128899D01*
X0231231Y0129050D01*
X0231186Y0129202D01*
X0231145Y0129355D01*
X0231107Y0129508D01*
X0231074Y0129663D01*
X0231044Y0129819D01*
X0231018Y0129975D01*
X0230997Y0130132D01*
X0230979Y0130289D01*
X0230965Y0130447D01*
X0230955Y0130605D01*
X0230949Y0130763D01*
X0230947Y0130921D01*
X0002600Y0256906D02*
X0002602Y0257064D01*
X0002608Y0257222D01*
X0002618Y0257380D01*
X0002632Y0257538D01*
X0002650Y0257695D01*
X0002671Y0257852D01*
X0002697Y0258008D01*
X0002727Y0258164D01*
X0002760Y0258319D01*
X0002798Y0258472D01*
X0002839Y0258625D01*
X0002884Y0258777D01*
X0002933Y0258928D01*
X0002986Y0259077D01*
X0003042Y0259225D01*
X0003102Y0259371D01*
X0003166Y0259516D01*
X0003234Y0259659D01*
X0003305Y0259801D01*
X0003379Y0259941D01*
X0003457Y0260078D01*
X0003539Y0260214D01*
X0003623Y0260348D01*
X0003712Y0260479D01*
X0003803Y0260608D01*
X0003898Y0260735D01*
X0003995Y0260860D01*
X0004096Y0260982D01*
X0004200Y0261101D01*
X0004307Y0261218D01*
X0004417Y0261332D01*
X0004530Y0261443D01*
X0004645Y0261552D01*
X0004763Y0261657D01*
X0004884Y0261759D01*
X0005007Y0261859D01*
X0005133Y0261955D01*
X0005261Y0262048D01*
X0005391Y0262138D01*
X0005524Y0262224D01*
X0005659Y0262308D01*
X0005795Y0262387D01*
X0005934Y0262464D01*
X0006075Y0262536D01*
X0006217Y0262606D01*
X0006361Y0262671D01*
X0006507Y0262733D01*
X0006654Y0262791D01*
X0006803Y0262846D01*
X0006953Y0262897D01*
X0007104Y0262944D01*
X0007256Y0262987D01*
X0007409Y0263026D01*
X0007564Y0263062D01*
X0007719Y0263093D01*
X0007875Y0263121D01*
X0008031Y0263145D01*
X0008188Y0263165D01*
X0008346Y0263181D01*
X0008503Y0263193D01*
X0008662Y0263201D01*
X0008820Y0263205D01*
X0008978Y0263205D01*
X0009136Y0263201D01*
X0009295Y0263193D01*
X0009452Y0263181D01*
X0009610Y0263165D01*
X0009767Y0263145D01*
X0009923Y0263121D01*
X0010079Y0263093D01*
X0010234Y0263062D01*
X0010389Y0263026D01*
X0010542Y0262987D01*
X0010694Y0262944D01*
X0010845Y0262897D01*
X0010995Y0262846D01*
X0011144Y0262791D01*
X0011291Y0262733D01*
X0011437Y0262671D01*
X0011581Y0262606D01*
X0011723Y0262536D01*
X0011864Y0262464D01*
X0012003Y0262387D01*
X0012139Y0262308D01*
X0012274Y0262224D01*
X0012407Y0262138D01*
X0012537Y0262048D01*
X0012665Y0261955D01*
X0012791Y0261859D01*
X0012914Y0261759D01*
X0013035Y0261657D01*
X0013153Y0261552D01*
X0013268Y0261443D01*
X0013381Y0261332D01*
X0013491Y0261218D01*
X0013598Y0261101D01*
X0013702Y0260982D01*
X0013803Y0260860D01*
X0013900Y0260735D01*
X0013995Y0260608D01*
X0014086Y0260479D01*
X0014175Y0260348D01*
X0014259Y0260214D01*
X0014341Y0260078D01*
X0014419Y0259941D01*
X0014493Y0259801D01*
X0014564Y0259659D01*
X0014632Y0259516D01*
X0014696Y0259371D01*
X0014756Y0259225D01*
X0014812Y0259077D01*
X0014865Y0258928D01*
X0014914Y0258777D01*
X0014959Y0258625D01*
X0015000Y0258472D01*
X0015038Y0258319D01*
X0015071Y0258164D01*
X0015101Y0258008D01*
X0015127Y0257852D01*
X0015148Y0257695D01*
X0015166Y0257538D01*
X0015180Y0257380D01*
X0015190Y0257222D01*
X0015196Y0257064D01*
X0015198Y0256906D01*
X0015196Y0256748D01*
X0015190Y0256590D01*
X0015180Y0256432D01*
X0015166Y0256274D01*
X0015148Y0256117D01*
X0015127Y0255960D01*
X0015101Y0255804D01*
X0015071Y0255648D01*
X0015038Y0255493D01*
X0015000Y0255340D01*
X0014959Y0255187D01*
X0014914Y0255035D01*
X0014865Y0254884D01*
X0014812Y0254735D01*
X0014756Y0254587D01*
X0014696Y0254441D01*
X0014632Y0254296D01*
X0014564Y0254153D01*
X0014493Y0254011D01*
X0014419Y0253871D01*
X0014341Y0253734D01*
X0014259Y0253598D01*
X0014175Y0253464D01*
X0014086Y0253333D01*
X0013995Y0253204D01*
X0013900Y0253077D01*
X0013803Y0252952D01*
X0013702Y0252830D01*
X0013598Y0252711D01*
X0013491Y0252594D01*
X0013381Y0252480D01*
X0013268Y0252369D01*
X0013153Y0252260D01*
X0013035Y0252155D01*
X0012914Y0252053D01*
X0012791Y0251953D01*
X0012665Y0251857D01*
X0012537Y0251764D01*
X0012407Y0251674D01*
X0012274Y0251588D01*
X0012139Y0251504D01*
X0012003Y0251425D01*
X0011864Y0251348D01*
X0011723Y0251276D01*
X0011581Y0251206D01*
X0011437Y0251141D01*
X0011291Y0251079D01*
X0011144Y0251021D01*
X0010995Y0250966D01*
X0010845Y0250915D01*
X0010694Y0250868D01*
X0010542Y0250825D01*
X0010389Y0250786D01*
X0010234Y0250750D01*
X0010079Y0250719D01*
X0009923Y0250691D01*
X0009767Y0250667D01*
X0009610Y0250647D01*
X0009452Y0250631D01*
X0009295Y0250619D01*
X0009136Y0250611D01*
X0008978Y0250607D01*
X0008820Y0250607D01*
X0008662Y0250611D01*
X0008503Y0250619D01*
X0008346Y0250631D01*
X0008188Y0250647D01*
X0008031Y0250667D01*
X0007875Y0250691D01*
X0007719Y0250719D01*
X0007564Y0250750D01*
X0007409Y0250786D01*
X0007256Y0250825D01*
X0007104Y0250868D01*
X0006953Y0250915D01*
X0006803Y0250966D01*
X0006654Y0251021D01*
X0006507Y0251079D01*
X0006361Y0251141D01*
X0006217Y0251206D01*
X0006075Y0251276D01*
X0005934Y0251348D01*
X0005795Y0251425D01*
X0005659Y0251504D01*
X0005524Y0251588D01*
X0005391Y0251674D01*
X0005261Y0251764D01*
X0005133Y0251857D01*
X0005007Y0251953D01*
X0004884Y0252053D01*
X0004763Y0252155D01*
X0004645Y0252260D01*
X0004530Y0252369D01*
X0004417Y0252480D01*
X0004307Y0252594D01*
X0004200Y0252711D01*
X0004096Y0252830D01*
X0003995Y0252952D01*
X0003898Y0253077D01*
X0003803Y0253204D01*
X0003712Y0253333D01*
X0003623Y0253464D01*
X0003539Y0253598D01*
X0003457Y0253734D01*
X0003379Y0253871D01*
X0003305Y0254011D01*
X0003234Y0254153D01*
X0003166Y0254296D01*
X0003102Y0254441D01*
X0003042Y0254587D01*
X0002986Y0254735D01*
X0002933Y0254884D01*
X0002884Y0255035D01*
X0002839Y0255187D01*
X0002798Y0255340D01*
X0002760Y0255493D01*
X0002727Y0255648D01*
X0002697Y0255804D01*
X0002671Y0255960D01*
X0002650Y0256117D01*
X0002632Y0256274D01*
X0002618Y0256432D01*
X0002608Y0256590D01*
X0002602Y0256748D01*
X0002600Y0256906D01*
D11*
X0013993Y0232361D03*
X0053993Y0232361D03*
X0061222Y0185764D03*
X0077128Y0166157D03*
X0091222Y0185764D03*
X0109751Y0198922D03*
X0109751Y0228922D03*
X0154569Y0228598D03*
X0154569Y0245843D03*
X0154569Y0275843D03*
X0154569Y0293087D03*
X0167911Y0310599D03*
X0154569Y0323087D03*
X0176537Y0272772D03*
X0176537Y0252772D03*
X0154569Y0198598D03*
X0081931Y0113215D03*
X0077128Y0136157D03*
X0060356Y0130016D03*
X0047840Y0142650D03*
X0047840Y0162650D03*
X0042167Y0121079D03*
X0060356Y0110016D03*
X0042167Y0091079D03*
X0081931Y0083215D03*
X0232403Y0148638D03*
X0232403Y0180134D03*
X0232403Y0211630D03*
X0232403Y0243126D03*
X0232403Y0274622D03*
X0232403Y0306118D03*
X0197911Y0310599D03*
D12*
X0093860Y0238046D02*
X0093860Y0233246D01*
X0093860Y0208046D02*
X0093860Y0203246D01*
X0066065Y0203088D02*
X0066065Y0207888D01*
X0066065Y0233088D02*
X0066065Y0237888D01*
X0068781Y0061195D02*
X0068781Y0056395D01*
X0078781Y0056395D02*
X0078781Y0061195D01*
X0046655Y0061195D02*
X0046655Y0056395D01*
X0036655Y0056395D02*
X0036655Y0061195D01*
D13*
X0017757Y0075173D03*
X0017757Y0085173D03*
X0017757Y0095173D03*
X0007757Y0095134D03*
X0007757Y0105134D03*
X0007757Y0115134D03*
X0007757Y0125134D03*
X0007757Y0135134D03*
X0007757Y0145134D03*
X0007757Y0155134D03*
X0007757Y0165134D03*
X0017757Y0165173D03*
X0017757Y0155173D03*
X0017757Y0145173D03*
X0017757Y0135173D03*
X0017757Y0125173D03*
X0017757Y0115173D03*
X0017757Y0105173D03*
X0107757Y0105173D03*
X0107757Y0095173D03*
X0107757Y0085173D03*
X0107757Y0075173D03*
X0117757Y0095134D03*
X0117757Y0105134D03*
X0117757Y0115134D03*
X0117757Y0125134D03*
X0117757Y0135134D03*
X0117757Y0145134D03*
X0117757Y0155134D03*
X0117757Y0165134D03*
X0107757Y0165173D03*
X0107757Y0155173D03*
X0107757Y0145173D03*
X0107757Y0135173D03*
X0107757Y0125173D03*
X0107757Y0115173D03*
D14*
X0161694Y0176512D03*
D15*
X0161694Y0166512D03*
X0161694Y0156512D03*
X0171694Y0156512D03*
X0171694Y0166512D03*
X0171694Y0176512D03*
D16*
X0192710Y0285409D02*
X0198710Y0285409D01*
X0198710Y0295409D02*
X0192710Y0295409D01*
X0020443Y0057339D02*
X0014443Y0057339D01*
X0014443Y0047339D02*
X0020443Y0047339D01*
X0020443Y0037339D02*
X0014443Y0037339D01*
X0037955Y0034827D02*
X0037955Y0028827D01*
X0047955Y0028827D02*
X0047955Y0034827D01*
X0057955Y0034827D02*
X0057955Y0028827D01*
X0067955Y0028827D02*
X0067955Y0034827D01*
X0077955Y0034827D02*
X0077955Y0028827D01*
X0103655Y0035646D02*
X0109655Y0035646D01*
X0109655Y0045646D02*
X0103655Y0045646D01*
X0103655Y0055646D02*
X0109655Y0055646D01*
D17*
X0222403Y0148638D03*
X0222403Y0180134D03*
X0222403Y0211630D03*
X0222403Y0243126D03*
X0222403Y0274622D03*
X0222403Y0306118D03*
D18*
X0194294Y0268632D03*
X0201794Y0263632D03*
X0194294Y0258632D03*
X0192633Y0185020D03*
X0200133Y0180020D03*
X0192633Y0175020D03*
X0193099Y0153764D03*
X0200599Y0148764D03*
X0193099Y0143764D03*
D19*
X0203580Y0205055D02*
X0209180Y0205055D01*
X0209180Y0215055D02*
X0203580Y0215055D01*
X0203580Y0225055D02*
X0209180Y0225055D01*
X0209180Y0235055D02*
X0203580Y0235055D01*
X0179180Y0235055D02*
X0173580Y0235055D01*
X0173580Y0225055D02*
X0179180Y0225055D01*
X0179180Y0215055D02*
X0173580Y0215055D01*
X0173580Y0205055D02*
X0179180Y0205055D01*
X0044923Y0208672D02*
X0044923Y0214272D01*
X0034923Y0214272D02*
X0034923Y0208672D01*
X0024923Y0208672D02*
X0024923Y0214272D01*
X0014923Y0214272D02*
X0014923Y0208672D01*
X0014923Y0184272D02*
X0014923Y0178672D01*
X0024923Y0178672D02*
X0024923Y0184272D01*
X0034923Y0184272D02*
X0034923Y0178672D01*
X0044923Y0178672D02*
X0044923Y0184272D01*
D20*
X0054175Y0297654D03*
X0081734Y0297654D03*
D21*
X0071891Y0295685D03*
X0064017Y0295685D03*
D22*
X0063517Y0253795D03*
X0072391Y0253795D03*
X0081734Y0253795D03*
X0054175Y0253795D03*
D23*
X0053651Y0250874D01*
X0036051Y0233274D01*
X0014051Y0233274D01*
X0013993Y0232361D01*
X0054751Y0251974D02*
X0054175Y0253795D01*
X0054751Y0251974D02*
X0054751Y0294874D01*
X0054175Y0297654D01*
X0081734Y0297654D02*
X0082251Y0294874D01*
X0082251Y0253074D01*
X0081734Y0253795D01*
X0082251Y0250874D01*
X0093251Y0239874D01*
X0093251Y0236574D01*
X0093860Y0235646D01*
X0107757Y0165173D02*
X0108651Y0165074D01*
X0117451Y0165074D01*
X0117757Y0165134D01*
X0144196Y0162585D02*
X0144196Y0173585D01*
X0174996Y0204385D01*
X0176380Y0205055D01*
X0179396Y0203285D01*
X0187096Y0210985D01*
X0187096Y0238485D01*
X0177196Y0248385D01*
X0177196Y0251685D01*
X0176537Y0252772D01*
X0177196Y0252785D01*
X0193696Y0269285D01*
X0194294Y0268632D01*
X0194796Y0269285D01*
X0194796Y0284685D01*
X0195710Y0285409D01*
X0194796Y0294585D02*
X0189296Y0294585D01*
X0172246Y0277535D01*
X0157396Y0292385D01*
X0155196Y0292385D01*
X0154569Y0293087D01*
X0172246Y0277535D02*
X0176096Y0273685D01*
X0176537Y0272772D01*
X0194796Y0294585D02*
X0195710Y0295409D01*
X0195896Y0295685D01*
X0195896Y0308885D01*
X0196996Y0309985D01*
X0197911Y0310599D01*
X0154569Y0245843D02*
X0154096Y0245085D01*
X0154096Y0229685D01*
X0154569Y0228598D01*
X0176380Y0205055D02*
X0177196Y0204385D01*
X0192596Y0188985D01*
X0192596Y0185685D01*
X0192633Y0185020D01*
X0171694Y0156512D02*
X0171696Y0154885D01*
X0165096Y0148285D01*
X0158496Y0148285D01*
X0144196Y0162585D01*
X0171694Y0156512D02*
X0171696Y0155985D01*
X0173896Y0153785D01*
X0192596Y0153785D01*
X0193099Y0153764D01*
X0107551Y0085874D02*
X0107757Y0085173D01*
X0107551Y0085874D02*
X0105351Y0085874D01*
X0082251Y0108974D01*
X0082251Y0112274D01*
X0081931Y0113215D01*
X0081151Y0114474D01*
X0076751Y0114474D01*
X0061351Y0129874D01*
X0060356Y0130016D01*
X0060251Y0130974D01*
X0060251Y0143074D01*
X0048151Y0155174D01*
X0048151Y0161774D01*
X0047840Y0162650D01*
X0047840Y0142650D02*
X0048151Y0141974D01*
X0048151Y0129874D01*
X0060251Y0117774D01*
X0060251Y0110074D01*
X0060356Y0110016D01*
X0059151Y0108974D01*
X0059151Y0058374D01*
X0049251Y0048474D01*
X0043751Y0048474D01*
X0037151Y0055074D01*
X0037151Y0058374D01*
X0036655Y0058795D01*
X0020651Y0085874D02*
X0018451Y0085874D01*
X0017757Y0085173D01*
X0020651Y0085874D02*
X0041551Y0106774D01*
X0041551Y0121074D01*
X0042167Y0121079D01*
D24*
X0033851Y0121074D02*
X0018451Y0105674D01*
X0017757Y0105173D01*
X0017351Y0105674D01*
X0008551Y0105674D01*
X0007757Y0105134D01*
X0008551Y0095774D02*
X0007757Y0095134D01*
X0008551Y0095774D02*
X0017351Y0095774D01*
X0017757Y0095173D01*
X0017757Y0115173D02*
X0017351Y0115574D01*
X0008551Y0115574D01*
X0007757Y0115134D01*
X0007757Y0125134D02*
X0008551Y0125474D01*
X0017351Y0125474D01*
X0017757Y0125173D01*
X0025051Y0122174D02*
X0018451Y0115574D01*
X0017757Y0115173D01*
X0025051Y0122174D02*
X0025051Y0180474D01*
X0024923Y0181472D01*
X0033851Y0180474D02*
X0034923Y0181472D01*
X0033851Y0180474D02*
X0033851Y0121074D01*
X0017757Y0135173D02*
X0017351Y0135374D01*
X0008551Y0135374D01*
X0007757Y0135134D01*
X0007757Y0145134D02*
X0008551Y0145274D01*
X0017351Y0145274D01*
X0017757Y0145173D01*
X0017757Y0155173D02*
X0017351Y0155174D01*
X0008551Y0155174D01*
X0007757Y0155134D01*
X0053651Y0185974D02*
X0034951Y0204674D01*
X0034951Y0211274D01*
X0034923Y0211472D01*
X0028351Y0215674D02*
X0028351Y0216774D01*
X0032751Y0221174D01*
X0088851Y0221174D01*
X0108651Y0201374D01*
X0108651Y0199174D01*
X0109751Y0198922D01*
X0099450Y0188621D01*
X0099450Y0178165D01*
X0091576Y0170291D01*
X0091576Y0123047D01*
X0092927Y0115574D02*
X0077064Y0127500D01*
X0077128Y0136157D01*
X0076751Y0136474D01*
X0076751Y0145274D01*
X0053651Y0168374D01*
X0053651Y0185974D01*
X0060251Y0185974D02*
X0061222Y0185764D01*
X0060251Y0185974D02*
X0060251Y0199174D01*
X0059151Y0200274D01*
X0059151Y0213474D01*
X0062451Y0216774D01*
X0066065Y0235488D02*
X0067951Y0236574D01*
X0078951Y0225574D01*
X0096551Y0225574D01*
X0099851Y0228874D01*
X0108651Y0228874D01*
X0109751Y0228922D01*
X0093860Y0205646D02*
X0093251Y0204674D01*
X0093251Y0187074D01*
X0092151Y0185974D01*
X0091222Y0185764D01*
X0091051Y0184874D01*
X0077851Y0171674D01*
X0077851Y0166174D01*
X0077128Y0166157D01*
X0107757Y0155173D02*
X0108651Y0155174D01*
X0117451Y0155174D01*
X0117757Y0155134D01*
X0117451Y0145274D02*
X0117757Y0145134D01*
X0117451Y0145274D02*
X0108651Y0145274D01*
X0107757Y0145173D01*
X0108651Y0135374D02*
X0107757Y0135173D01*
X0108651Y0135374D02*
X0117451Y0135374D01*
X0117757Y0135134D01*
X0117451Y0125474D02*
X0117757Y0125134D01*
X0117451Y0125474D02*
X0108651Y0125474D01*
X0107757Y0125173D01*
X0107551Y0115574D02*
X0107757Y0115173D01*
X0108651Y0115574D01*
X0117451Y0115574D01*
X0117757Y0115134D01*
X0117451Y0105674D02*
X0117757Y0105134D01*
X0117451Y0105674D02*
X0108651Y0105674D01*
X0107757Y0105173D01*
X0094883Y0107142D01*
X0092757Y0109268D01*
X0092927Y0115574D02*
X0107551Y0115574D01*
X0108651Y0095774D02*
X0107757Y0095173D01*
X0108651Y0095774D02*
X0117451Y0095774D01*
X0117757Y0095134D01*
X0107757Y0075173D02*
X0107551Y0074874D01*
X0107551Y0056174D01*
X0106655Y0055646D01*
X0081931Y0083215D02*
X0081151Y0082574D01*
X0078951Y0080374D01*
X0078951Y0059474D01*
X0078781Y0058795D01*
X0069051Y0042974D02*
X0055851Y0042974D01*
X0048151Y0035274D01*
X0047955Y0031827D01*
X0047051Y0031974D01*
X0047051Y0035274D01*
X0025051Y0057274D01*
X0018451Y0057274D01*
X0017443Y0057339D01*
X0037955Y0031827D02*
X0038251Y0030874D01*
X0038251Y0028674D01*
X0045951Y0020974D01*
X0061351Y0020974D01*
X0067951Y0027574D01*
X0067951Y0030874D01*
X0067955Y0031827D01*
X0077851Y0034174D02*
X0069051Y0042974D01*
X0077851Y0034174D02*
X0077851Y0031974D01*
X0077955Y0031827D01*
X0046655Y0058795D02*
X0045951Y0059474D01*
X0045951Y0086974D01*
X0042651Y0090274D01*
X0042167Y0091079D01*
X0024923Y0211472D02*
X0025051Y0212374D01*
X0028351Y0215674D01*
X0063551Y0251974D02*
X0063517Y0253795D01*
X0063551Y0251974D02*
X0063551Y0292674D01*
X0064017Y0295685D01*
X0071891Y0295685D02*
X0072351Y0292674D01*
X0072351Y0251974D01*
X0072391Y0253795D01*
X0072351Y0250874D01*
X0066851Y0245374D01*
X0066851Y0236574D01*
X0066065Y0235488D01*
X0137596Y0181285D02*
X0137596Y0160385D01*
X0160696Y0137285D01*
X0204696Y0137285D01*
X0215696Y0148285D01*
X0222296Y0148285D01*
X0222403Y0148638D01*
X0203596Y0142785D02*
X0232196Y0171385D01*
X0232196Y0179085D01*
X0232403Y0180134D01*
X0232196Y0181285D01*
X0244296Y0193385D01*
X0244296Y0259385D01*
X0233296Y0270385D01*
X0233296Y0273685D01*
X0232403Y0274622D01*
X0223396Y0273685D02*
X0222403Y0274622D01*
X0222296Y0274785D01*
X0218996Y0278085D01*
X0210196Y0278085D01*
X0223396Y0273685D02*
X0239896Y0257185D01*
X0239896Y0208785D01*
X0223396Y0192285D01*
X0223396Y0180185D01*
X0222403Y0180134D01*
X0200296Y0198885D02*
X0205796Y0204385D01*
X0206380Y0205055D01*
X0200296Y0198885D02*
X0200296Y0180185D01*
X0200133Y0180020D01*
X0199196Y0179085D01*
X0199196Y0173585D01*
X0192596Y0166985D01*
X0171696Y0166985D01*
X0171694Y0166512D01*
X0161694Y0166512D02*
X0160696Y0166985D01*
X0155196Y0166985D01*
X0150796Y0171385D01*
X0137596Y0181285D02*
X0154096Y0197785D01*
X0154569Y0198598D01*
X0152996Y0197785D01*
X0141996Y0208785D01*
X0141996Y0298985D01*
X0161796Y0318785D01*
X0201396Y0318785D01*
X0213496Y0306685D01*
X0222296Y0306685D01*
X0222403Y0306118D01*
X0199196Y0258285D02*
X0194796Y0258285D01*
X0194294Y0258632D01*
X0199196Y0258285D02*
X0206896Y0250585D01*
X0225596Y0250585D01*
X0232196Y0243985D01*
X0232403Y0243126D01*
X0232196Y0242885D01*
X0232196Y0212085D01*
X0232403Y0211630D01*
X0222403Y0211630D02*
X0222296Y0212085D01*
X0222296Y0242885D01*
X0222403Y0243126D01*
X0177196Y0235185D02*
X0176380Y0235055D01*
X0177196Y0235185D02*
X0146396Y0265985D01*
X0146396Y0296785D01*
X0159596Y0309985D01*
X0167296Y0309985D01*
X0167911Y0310599D01*
X0167296Y0237385D02*
X0167296Y0229685D01*
X0147496Y0209885D01*
X0193099Y0143764D02*
X0193696Y0142785D01*
X0203596Y0142785D01*
D25*
X0150796Y0171385D03*
X0147496Y0209885D03*
X0167296Y0237385D03*
X0210196Y0278085D03*
X0062451Y0216774D03*
D26*
X0091576Y0123047D03*
X0092757Y0109268D03*
M02*
